M48
; DRILL file {KiCad (5.1.4)-1} date 28.12.2020 11:58:54
; FORMAT={-:-/ absolute / metric / decimal}
; #@! TF.CreationDate,2020-12-28T11:58:54+03:00
; #@! TF.GenerationSoftware,Kicad,Pcbnew,(5.1.4)-1
FMAT,2
METRIC
T1C0.150
%
G90
G05
T1
X30.53Y-21.25
X30.53Y-21.89
X30.53Y-22.53
X30.53Y-23.17
X30.53Y-23.81
X30.53Y-24.45
X30.53Y-25.09
X30.53Y-25.73
X30.53Y-26.37
X30.53Y-27.01
X30.53Y-27.65
X30.53Y-28.29
X30.53Y-28.93
X30.53Y-29.57
X30.53Y-30.21
X30.53Y-30.85
X30.53Y-31.49
X31.8Y-21.25
X31.8Y-32.13
X33.45Y-31.0
X33.9Y-22.3
X35.65Y-20.5
X35.65Y-20.95
X35.65Y-21.4
X35.65Y-21.85
X35.65Y-22.712
X35.65Y-30.587
X35.65Y-31.4
X35.65Y-32.55
X36.15Y-22.712
X36.15Y-30.587
X36.65Y-22.712
X36.65Y-30.587
X37.15Y-22.712
X37.15Y-30.587
X37.65Y-22.712
X37.65Y-30.587
X38.15Y-22.712
X38.15Y-30.587
X38.65Y-22.712
X38.65Y-30.587
X39.15Y-22.712
X39.15Y-30.587
X39.415Y-20.85
X39.415Y-32.25
X40.15Y-22.712
X40.15Y-30.587
X40.45Y-31.5
X40.65Y-22.712
X40.65Y-30.587
X41.05Y-32.75
X41.1Y-21.55
X41.15Y-22.712
X41.6Y-20.85
X41.65Y-22.712
X41.665Y-32.25
X42.337Y-24.9
X42.337Y-25.9
X42.337Y-26.9
X42.337Y-27.9
X42.337Y-28.9
X42.35Y-24.4
X42.635Y-32.25
X50.7Y-25.15
X51.25Y-30.1
X51.25Y-30.6
X51.25Y-32.2
X51.25Y-32.7
X51.9Y-31.15
X52.0Y-24.6
X52.0Y-27.475
X52.4Y-29.6
X53.3Y-25.15
X53.58Y-31.65
X53.6Y-32.75
X53.615Y-30.5
X53.75Y-25.85
X53.775Y-28.85
X53.85Y-26.35
X53.85Y-26.85
X53.875Y-27.35
X53.875Y-27.85
X53.875Y-28.35
X54.25Y-25.35
X54.6Y-30.5
X54.935Y-27.265
X55.0Y-24.05
X55.0Y-24.45
X55.25Y-23.35
X55.25Y-29.225
X55.65Y-23.35
X55.7Y-28.6
X55.95Y-30.6
X56.05Y-23.35
X56.157Y-28.796
X56.45Y-22.9
X56.75Y-25.475
X56.9Y-32.6
X57.25Y-25.375
X57.625Y-26.35
X57.625Y-26.85
X57.625Y-27.35
X57.625Y-27.85
X57.725Y-25.85
X58.25Y-27.35
X58.55Y-22.55
X59.0Y-30.6
X59.2Y-21.85
X59.3Y-32.685
X59.35Y-30.25
X59.362Y-25.2
X59.362Y-25.7
X59.362Y-26.2
X59.362Y-26.7
X59.6Y-21.7
X59.6Y-29.8
X59.8Y-24.1
X60.0Y-20.35
X60.0Y-21.7
X60.3Y-23.762
X60.4Y-30.085
X60.4Y-32.685
X60.5Y-20.4
X60.5Y-21.6
X60.8Y-23.762
X60.8Y-27.637
X61.0Y-21.7
X61.05Y-20.35
X61.05Y-22.55
X61.3Y-27.637
X61.4Y-21.7
X61.5Y-30.085
X61.5Y-31.7
X61.5Y-32.67
X61.8Y-27.637
X62.3Y-23.762
X62.3Y-27.637
X62.6Y-20.5
X62.6Y-29.115
X62.6Y-30.085
X62.6Y-31.715
X62.6Y-32.685
X63.237Y-25.7
X63.237Y-26.2
X63.237Y-26.7
X63.25Y-31.1
X63.53Y-22.55
X63.7Y-28.4
X63.7Y-30.085
X63.7Y-31.715
X63.7Y-32.685
X64.5Y-32.15
X64.6Y-23.615
X64.65Y-25.25
X64.65Y-27.3
X64.8Y-30.085
X64.95Y-20.65
X65.0Y-21.8
X67.0Y-27.6
X67.9Y-27.9
X68.4Y-25.45
T0
M30
