G04 #@! TF.GenerationSoftware,KiCad,Pcbnew,(5.1.4)-1*
G04 #@! TF.CreationDate,2020-12-28T11:58:51+03:00*
G04 #@! TF.ProjectId,main_block,6d61696e-5f62-46c6-9f63-6b2e6b696361,rev?*
G04 #@! TF.SameCoordinates,Original*
G04 #@! TF.FileFunction,Profile,NP*
%FSLAX46Y46*%
G04 Gerber Fmt 4.6, Leading zero omitted, Abs format (unit mm)*
G04 Created by KiCad (PCBNEW (5.1.4)-1) date 2020-12-28 11:58:51*
%MOMM*%
%LPD*%
G04 APERTURE LIST*
%ADD10C,0.050000*%
G04 APERTURE END LIST*
D10*
X65500000Y-21000000D02*
X65500000Y-23950000D01*
X65500000Y-29300000D02*
X65500000Y-32300000D01*
X69000000Y-27300000D02*
G75*
G02X68000000Y-28300000I-1000000J0D01*
G01*
X65500000Y-29300000D02*
G75*
G02X66500000Y-28300000I1000000J0D01*
G01*
X65500000Y-32300000D02*
G75*
G02X64500000Y-33300000I-1000000J0D01*
G01*
X68000000Y-24950000D02*
G75*
G02X69000000Y-25950000I0J-1000000D01*
G01*
X66500000Y-24950000D02*
G75*
G02X65500000Y-23950000I0J1000000D01*
G01*
X64500000Y-20000000D02*
G75*
G02X65500000Y-21000000I0J-1000000D01*
G01*
X68000000Y-28300000D02*
X66500000Y-28300000D01*
X69000000Y-25950000D02*
X69000000Y-27300000D01*
X66500000Y-24950000D02*
X68000000Y-24950000D01*
X49000000Y-22000000D02*
X45000000Y-22000000D01*
X64500000Y-20000000D02*
X51000000Y-20000000D01*
X51000000Y-33300000D02*
X64500000Y-33300000D01*
X45000000Y-31300000D02*
X49000000Y-31300000D01*
X51000000Y-33300000D02*
G75*
G02X50000000Y-32300000I0J1000000D01*
G01*
X49000000Y-31300000D02*
G75*
G02X50000000Y-32300000I0J-1000000D01*
G01*
X50000000Y-21000000D02*
G75*
G02X51000000Y-20000000I1000000J0D01*
G01*
X50000000Y-21000000D02*
G75*
G02X49000000Y-22000000I-1000000J0D01*
G01*
X44000000Y-32300000D02*
G75*
G02X45000000Y-31300000I1000000J0D01*
G01*
X44000000Y-32300000D02*
G75*
G02X43000000Y-33300000I-1000000J0D01*
G01*
X45000000Y-22000000D02*
G75*
G02X44000000Y-21000000I0J1000000D01*
G01*
X43000000Y-20000000D02*
G75*
G02X44000000Y-21000000I0J-1000000D01*
G01*
X30000000Y-33300000D02*
X30000000Y-20000000D01*
X43000000Y-33300000D02*
X30000000Y-33300000D01*
X30000000Y-20000000D02*
X43000000Y-20000000D01*
M02*
