G04 #@! TF.GenerationSoftware,KiCad,Pcbnew,(5.1.4)-1*
G04 #@! TF.CreationDate,2020-12-28T11:58:51+03:00*
G04 #@! TF.ProjectId,main_block,6d61696e-5f62-46c6-9f63-6b2e6b696361,rev?*
G04 #@! TF.SameCoordinates,Original*
G04 #@! TF.FileFunction,Soldermask,Top*
G04 #@! TF.FilePolarity,Negative*
%FSLAX46Y46*%
G04 Gerber Fmt 4.6, Leading zero omitted, Abs format (unit mm)*
G04 Created by KiCad (PCBNEW (5.1.4)-1) date 2020-12-28 11:58:51*
%MOMM*%
%LPD*%
G04 APERTURE LIST*
%ADD10C,0.100000*%
%ADD11C,0.010000*%
G04 APERTURE END LIST*
D10*
G36*
X54550000Y-29551130D02*
G01*
X54550000Y-28900000D01*
X54949588Y-28900000D01*
X54949588Y-29551130D01*
X54550000Y-29551130D01*
G37*
G36*
X55050000Y-29551940D02*
G01*
X55050000Y-28900000D01*
X55449735Y-28900000D01*
X55449735Y-29551940D01*
X55050000Y-29551940D01*
G37*
G36*
X55550000Y-29550950D02*
G01*
X55550000Y-28900000D01*
X55950086Y-28900000D01*
X55950086Y-29550950D01*
X55550000Y-29550950D01*
G37*
G36*
X56050000Y-29550120D02*
G01*
X56050000Y-28900000D01*
X56450038Y-28900000D01*
X56450038Y-29550120D01*
X56050000Y-29550120D01*
G37*
G36*
X56550000Y-29552400D02*
G01*
X56550000Y-28900000D01*
X56951310Y-28900000D01*
X56951310Y-29552400D01*
X56550000Y-29552400D01*
G37*
G36*
X57425000Y-28675820D02*
G01*
X57425000Y-28025000D01*
X57826280Y-28025000D01*
X57826280Y-28675820D01*
X57425000Y-28675820D01*
G37*
G36*
X57425000Y-28175773D02*
G01*
X57425000Y-27525000D01*
X57826940Y-27525000D01*
X57826940Y-28175773D01*
X57425000Y-28175773D01*
G37*
G36*
X57425000Y-27675141D02*
G01*
X57425000Y-27025000D01*
X57825900Y-27025000D01*
X57825900Y-27675141D01*
X57425000Y-27675141D01*
G37*
G36*
X57425000Y-27174710D02*
G01*
X57425000Y-26525000D01*
X57828440Y-26525000D01*
X57828440Y-27174710D01*
X57425000Y-27174710D01*
G37*
G36*
X57425000Y-26673913D02*
G01*
X57425000Y-26025000D01*
X57828340Y-26025000D01*
X57828340Y-26673913D01*
X57425000Y-26673913D01*
G37*
G36*
X54550000Y-25799990D02*
G01*
X54550000Y-25150000D01*
X54949997Y-25150000D01*
X54949997Y-25799990D01*
X54550000Y-25799990D01*
G37*
G36*
X55050000Y-25799560D02*
G01*
X55050000Y-25150000D01*
X55449915Y-25150000D01*
X55449915Y-25799560D01*
X55050000Y-25799560D01*
G37*
G36*
X55550000Y-25797280D02*
G01*
X55550000Y-25150000D01*
X55950351Y-25150000D01*
X55950351Y-25797280D01*
X55550000Y-25797280D01*
G37*
G36*
X56050000Y-25798960D02*
G01*
X56050000Y-25150000D01*
X56450469Y-25150000D01*
X56450469Y-25798960D01*
X56050000Y-25798960D01*
G37*
G36*
X56550000Y-25799890D02*
G01*
X56550000Y-25150000D01*
X56950080Y-25150000D01*
X56950080Y-25799890D01*
X56550000Y-25799890D01*
G37*
G36*
X53675000Y-28677080D02*
G01*
X53675000Y-28025000D01*
X54072370Y-28025000D01*
X54072370Y-28677080D01*
X53675000Y-28677080D01*
G37*
G36*
X53675000Y-28176447D02*
G01*
X53675000Y-27525000D01*
X54072060Y-27525000D01*
X54072060Y-28176447D01*
X53675000Y-28176447D01*
G37*
G36*
X53675000Y-27675348D02*
G01*
X53675000Y-27025000D01*
X54073210Y-27025000D01*
X54073210Y-27675348D01*
X53675000Y-27675348D01*
G37*
G36*
X53675000Y-27174752D02*
G01*
X53675000Y-26525000D01*
X54072630Y-26525000D01*
X54072630Y-27174752D01*
X53675000Y-27174752D01*
G37*
G36*
X53675000Y-26674422D02*
G01*
X53675000Y-26025000D01*
X54073560Y-26025000D01*
X54073560Y-26674422D01*
X53675000Y-26674422D01*
G37*
D11*
G36*
X53950000Y-26050000D02*
G01*
X53950000Y-25650000D01*
X53975000Y-25650000D01*
X54150000Y-25825000D01*
X54150000Y-26050000D01*
X53950000Y-26050000D01*
G37*
X53950000Y-26050000D02*
X53950000Y-25650000D01*
X53975000Y-25650000D01*
X54150000Y-25825000D01*
X54150000Y-26050000D01*
X53950000Y-26050000D01*
G36*
X57550000Y-28650000D02*
G01*
X57550000Y-29050000D01*
X57525000Y-29050000D01*
X57350000Y-28875000D01*
X57350000Y-28650000D01*
X57550000Y-28650000D01*
G37*
X57550000Y-28650000D02*
X57550000Y-29050000D01*
X57525000Y-29050000D01*
X57350000Y-28875000D01*
X57350000Y-28650000D01*
X57550000Y-28650000D01*
G36*
X57350000Y-26050000D02*
G01*
X57350000Y-25825000D01*
X57525000Y-25650000D01*
X57550000Y-25650000D01*
X57550000Y-26050000D01*
X57350000Y-26050000D01*
G37*
X57350000Y-26050000D02*
X57350000Y-25825000D01*
X57525000Y-25650000D01*
X57550000Y-25650000D01*
X57550000Y-26050000D01*
X57350000Y-26050000D01*
G36*
X57050000Y-28950000D02*
G01*
X57275000Y-28950000D01*
X57450000Y-29125000D01*
X57450000Y-29150000D01*
X57050000Y-29150000D01*
X57050000Y-28950000D01*
G37*
X57050000Y-28950000D02*
X57275000Y-28950000D01*
X57450000Y-29125000D01*
X57450000Y-29150000D01*
X57050000Y-29150000D01*
X57050000Y-28950000D01*
G36*
X57050000Y-25550000D02*
G01*
X57450000Y-25550000D01*
X57450000Y-25575000D01*
X57275000Y-25750000D01*
X57050000Y-25750000D01*
X57050000Y-25550000D01*
G37*
X57050000Y-25550000D02*
X57450000Y-25550000D01*
X57450000Y-25575000D01*
X57275000Y-25750000D01*
X57050000Y-25750000D01*
X57050000Y-25550000D01*
G36*
X54450000Y-29150000D02*
G01*
X54050000Y-29150000D01*
X54050000Y-29125000D01*
X54225000Y-28950000D01*
X54450000Y-28950000D01*
X54450000Y-29150000D01*
G37*
X54450000Y-29150000D02*
X54050000Y-29150000D01*
X54050000Y-29125000D01*
X54225000Y-28950000D01*
X54450000Y-28950000D01*
X54450000Y-29150000D01*
G36*
X54150000Y-28650000D02*
G01*
X54150000Y-28875000D01*
X53975000Y-29050000D01*
X53950000Y-29050000D01*
X53950000Y-28650000D01*
X54150000Y-28650000D01*
G37*
X54150000Y-28650000D02*
X54150000Y-28875000D01*
X53975000Y-29050000D01*
X53950000Y-29050000D01*
X53950000Y-28650000D01*
X54150000Y-28650000D01*
G36*
X54450000Y-25750000D02*
G01*
X54225000Y-25750000D01*
X54050000Y-25575000D01*
X54050000Y-25550000D01*
X54450000Y-25550000D01*
X54450000Y-25750000D01*
G37*
X54450000Y-25750000D02*
X54225000Y-25750000D01*
X54050000Y-25575000D01*
X54050000Y-25550000D01*
X54450000Y-25550000D01*
X54450000Y-25750000D01*
D10*
G36*
X54050000Y-29550940D02*
G01*
X54050000Y-29150000D01*
X54449440Y-29150000D01*
X54449440Y-29550940D01*
X54050000Y-29550940D01*
G37*
G36*
X53550000Y-29050190D02*
G01*
X53550000Y-28650000D01*
X53949800Y-28650000D01*
X53949800Y-29050190D01*
X53550000Y-29050190D01*
G37*
G36*
X53550000Y-26049460D02*
G01*
X53550000Y-25650000D01*
X53949250Y-25650000D01*
X53949250Y-26049460D01*
X53550000Y-26049460D01*
G37*
G36*
X54050000Y-25547500D02*
G01*
X54050000Y-25150000D01*
X54448190Y-25150000D01*
X54448190Y-25547500D01*
X54050000Y-25547500D01*
G37*
G36*
X57050000Y-25547950D02*
G01*
X57050000Y-25150000D01*
X57451940Y-25150000D01*
X57451940Y-25547950D01*
X57050000Y-25547950D01*
G37*
G36*
X57550000Y-26049380D02*
G01*
X57550000Y-25650000D01*
X57951050Y-25650000D01*
X57951050Y-26049380D01*
X57550000Y-26049380D01*
G37*
G36*
X57550000Y-29050480D02*
G01*
X57550000Y-28650000D01*
X57950620Y-28650000D01*
X57950620Y-29050480D01*
X57550000Y-29050480D01*
G37*
G36*
X57050000Y-29553920D02*
G01*
X57050000Y-29150000D01*
X57453030Y-29150000D01*
X57453030Y-29553920D01*
X57050000Y-29553920D01*
G37*
G36*
X54826938Y-32381716D02*
G01*
X54847557Y-32387971D01*
X54866553Y-32398124D01*
X54883208Y-32411792D01*
X54896876Y-32428447D01*
X54907029Y-32447443D01*
X54913284Y-32468062D01*
X54916000Y-32495640D01*
X54916000Y-33004360D01*
X54913284Y-33031938D01*
X54907029Y-33052557D01*
X54896876Y-33071553D01*
X54883208Y-33088208D01*
X54866553Y-33101876D01*
X54847557Y-33112029D01*
X54826938Y-33118284D01*
X54799360Y-33121000D01*
X54340640Y-33121000D01*
X54313062Y-33118284D01*
X54292443Y-33112029D01*
X54273447Y-33101876D01*
X54256792Y-33088208D01*
X54243124Y-33071553D01*
X54232971Y-33052557D01*
X54226716Y-33031938D01*
X54224000Y-33004360D01*
X54224000Y-32495640D01*
X54226716Y-32468062D01*
X54232971Y-32447443D01*
X54243124Y-32428447D01*
X54256792Y-32411792D01*
X54273447Y-32398124D01*
X54292443Y-32387971D01*
X54313062Y-32381716D01*
X54340640Y-32379000D01*
X54799360Y-32379000D01*
X54826938Y-32381716D01*
X54826938Y-32381716D01*
G37*
G36*
X53856938Y-32381716D02*
G01*
X53877557Y-32387971D01*
X53896553Y-32398124D01*
X53913208Y-32411792D01*
X53926876Y-32428447D01*
X53937029Y-32447443D01*
X53943284Y-32468062D01*
X53946000Y-32495640D01*
X53946000Y-33004360D01*
X53943284Y-33031938D01*
X53937029Y-33052557D01*
X53926876Y-33071553D01*
X53913208Y-33088208D01*
X53896553Y-33101876D01*
X53877557Y-33112029D01*
X53856938Y-33118284D01*
X53829360Y-33121000D01*
X53370640Y-33121000D01*
X53343062Y-33118284D01*
X53322443Y-33112029D01*
X53303447Y-33101876D01*
X53286792Y-33088208D01*
X53273124Y-33071553D01*
X53262971Y-33052557D01*
X53256716Y-33031938D01*
X53254000Y-33004360D01*
X53254000Y-32495640D01*
X53256716Y-32468062D01*
X53262971Y-32447443D01*
X53273124Y-32428447D01*
X53286792Y-32411792D01*
X53303447Y-32398124D01*
X53322443Y-32387971D01*
X53343062Y-32381716D01*
X53370640Y-32379000D01*
X53829360Y-32379000D01*
X53856938Y-32381716D01*
X53856938Y-32381716D01*
G37*
G36*
X57351000Y-33101000D02*
G01*
X56449000Y-33101000D01*
X56449000Y-32099000D01*
X57351000Y-32099000D01*
X57351000Y-33101000D01*
X57351000Y-33101000D01*
G37*
G36*
X63981938Y-32341716D02*
G01*
X64002557Y-32347971D01*
X64021553Y-32358124D01*
X64038208Y-32371792D01*
X64051876Y-32388447D01*
X64062029Y-32407443D01*
X64068284Y-32428062D01*
X64071000Y-32455640D01*
X64071000Y-32914360D01*
X64068284Y-32941938D01*
X64062029Y-32962557D01*
X64051876Y-32981553D01*
X64038208Y-32998208D01*
X64021553Y-33011876D01*
X64002557Y-33022029D01*
X63981938Y-33028284D01*
X63954360Y-33031000D01*
X63445640Y-33031000D01*
X63418062Y-33028284D01*
X63397443Y-33022029D01*
X63378447Y-33011876D01*
X63361792Y-32998208D01*
X63348124Y-32981553D01*
X63337971Y-32962557D01*
X63331716Y-32941938D01*
X63329000Y-32914360D01*
X63329000Y-32455640D01*
X63331716Y-32428062D01*
X63337971Y-32407443D01*
X63348124Y-32388447D01*
X63361792Y-32371792D01*
X63378447Y-32358124D01*
X63397443Y-32347971D01*
X63418062Y-32341716D01*
X63445640Y-32339000D01*
X63954360Y-32339000D01*
X63981938Y-32341716D01*
X63981938Y-32341716D01*
G37*
G36*
X62881938Y-32341716D02*
G01*
X62902557Y-32347971D01*
X62921553Y-32358124D01*
X62938208Y-32371792D01*
X62951876Y-32388447D01*
X62962029Y-32407443D01*
X62968284Y-32428062D01*
X62971000Y-32455640D01*
X62971000Y-32914360D01*
X62968284Y-32941938D01*
X62962029Y-32962557D01*
X62951876Y-32981553D01*
X62938208Y-32998208D01*
X62921553Y-33011876D01*
X62902557Y-33022029D01*
X62881938Y-33028284D01*
X62854360Y-33031000D01*
X62345640Y-33031000D01*
X62318062Y-33028284D01*
X62297443Y-33022029D01*
X62278447Y-33011876D01*
X62261792Y-32998208D01*
X62248124Y-32981553D01*
X62237971Y-32962557D01*
X62231716Y-32941938D01*
X62229000Y-32914360D01*
X62229000Y-32455640D01*
X62231716Y-32428062D01*
X62237971Y-32407443D01*
X62248124Y-32388447D01*
X62261792Y-32371792D01*
X62278447Y-32358124D01*
X62297443Y-32347971D01*
X62318062Y-32341716D01*
X62345640Y-32339000D01*
X62854360Y-32339000D01*
X62881938Y-32341716D01*
X62881938Y-32341716D01*
G37*
G36*
X60681938Y-32341716D02*
G01*
X60702557Y-32347971D01*
X60721553Y-32358124D01*
X60738208Y-32371792D01*
X60751876Y-32388447D01*
X60762029Y-32407443D01*
X60768284Y-32428062D01*
X60771000Y-32455640D01*
X60771000Y-32914360D01*
X60768284Y-32941938D01*
X60762029Y-32962557D01*
X60751876Y-32981553D01*
X60738208Y-32998208D01*
X60721553Y-33011876D01*
X60702557Y-33022029D01*
X60681938Y-33028284D01*
X60654360Y-33031000D01*
X60145640Y-33031000D01*
X60118062Y-33028284D01*
X60097443Y-33022029D01*
X60078447Y-33011876D01*
X60061792Y-32998208D01*
X60048124Y-32981553D01*
X60037971Y-32962557D01*
X60031716Y-32941938D01*
X60029000Y-32914360D01*
X60029000Y-32455640D01*
X60031716Y-32428062D01*
X60037971Y-32407443D01*
X60048124Y-32388447D01*
X60061792Y-32371792D01*
X60078447Y-32358124D01*
X60097443Y-32347971D01*
X60118062Y-32341716D01*
X60145640Y-32339000D01*
X60654360Y-32339000D01*
X60681938Y-32341716D01*
X60681938Y-32341716D01*
G37*
G36*
X59581938Y-32341716D02*
G01*
X59602557Y-32347971D01*
X59621553Y-32358124D01*
X59638208Y-32371792D01*
X59651876Y-32388447D01*
X59662029Y-32407443D01*
X59668284Y-32428062D01*
X59671000Y-32455640D01*
X59671000Y-32914360D01*
X59668284Y-32941938D01*
X59662029Y-32962557D01*
X59651876Y-32981553D01*
X59638208Y-32998208D01*
X59621553Y-33011876D01*
X59602557Y-33022029D01*
X59581938Y-33028284D01*
X59554360Y-33031000D01*
X59045640Y-33031000D01*
X59018062Y-33028284D01*
X58997443Y-33022029D01*
X58978447Y-33011876D01*
X58961792Y-32998208D01*
X58948124Y-32981553D01*
X58937971Y-32962557D01*
X58931716Y-32941938D01*
X58929000Y-32914360D01*
X58929000Y-32455640D01*
X58931716Y-32428062D01*
X58937971Y-32407443D01*
X58948124Y-32388447D01*
X58961792Y-32371792D01*
X58978447Y-32358124D01*
X58997443Y-32347971D01*
X59018062Y-32341716D01*
X59045640Y-32339000D01*
X59554360Y-32339000D01*
X59581938Y-32341716D01*
X59581938Y-32341716D01*
G37*
G36*
X61781938Y-32326716D02*
G01*
X61802557Y-32332971D01*
X61821553Y-32343124D01*
X61838208Y-32356792D01*
X61851876Y-32373447D01*
X61862029Y-32392443D01*
X61868284Y-32413062D01*
X61871000Y-32440640D01*
X61871000Y-32899360D01*
X61868284Y-32926938D01*
X61862029Y-32947557D01*
X61851876Y-32966553D01*
X61838208Y-32983208D01*
X61821553Y-32996876D01*
X61802557Y-33007029D01*
X61781938Y-33013284D01*
X61754360Y-33016000D01*
X61245640Y-33016000D01*
X61218062Y-33013284D01*
X61197443Y-33007029D01*
X61178447Y-32996876D01*
X61161792Y-32983208D01*
X61148124Y-32966553D01*
X61137971Y-32947557D01*
X61131716Y-32926938D01*
X61129000Y-32899360D01*
X61129000Y-32440640D01*
X61131716Y-32413062D01*
X61137971Y-32392443D01*
X61148124Y-32373447D01*
X61161792Y-32356792D01*
X61178447Y-32343124D01*
X61197443Y-32332971D01*
X61218062Y-32326716D01*
X61245640Y-32324000D01*
X61754360Y-32324000D01*
X61781938Y-32326716D01*
X61781938Y-32326716D01*
G37*
G36*
X52826000Y-32891000D02*
G01*
X51974000Y-32891000D01*
X51974000Y-32015999D01*
X51971598Y-31991613D01*
X51964485Y-31968164D01*
X51952934Y-31946553D01*
X51937389Y-31927611D01*
X51918447Y-31912066D01*
X51896836Y-31900515D01*
X51873387Y-31893402D01*
X51849001Y-31891000D01*
X51800999Y-31891000D01*
X51776613Y-31893402D01*
X51753164Y-31900515D01*
X51731553Y-31912066D01*
X51712611Y-31927611D01*
X51697066Y-31946553D01*
X51685515Y-31968164D01*
X51678402Y-31991613D01*
X51676000Y-32015999D01*
X51676000Y-32891000D01*
X50824000Y-32891000D01*
X50824000Y-31509000D01*
X52826000Y-31509000D01*
X52826000Y-32891000D01*
X52826000Y-32891000D01*
G37*
G36*
X42891938Y-31881716D02*
G01*
X42912557Y-31887971D01*
X42931553Y-31898124D01*
X42948208Y-31911792D01*
X42961876Y-31928447D01*
X42972029Y-31947443D01*
X42978284Y-31968062D01*
X42981000Y-31995640D01*
X42981000Y-32504360D01*
X42978284Y-32531938D01*
X42972029Y-32552557D01*
X42961876Y-32571553D01*
X42948208Y-32588208D01*
X42931553Y-32601876D01*
X42912557Y-32612029D01*
X42891938Y-32618284D01*
X42864360Y-32621000D01*
X42405640Y-32621000D01*
X42378062Y-32618284D01*
X42357443Y-32612029D01*
X42338447Y-32601876D01*
X42321792Y-32588208D01*
X42308124Y-32571553D01*
X42297971Y-32552557D01*
X42291716Y-32531938D01*
X42289000Y-32504360D01*
X42289000Y-31995640D01*
X42291716Y-31968062D01*
X42297971Y-31947443D01*
X42308124Y-31928447D01*
X42321792Y-31911792D01*
X42338447Y-31898124D01*
X42357443Y-31887971D01*
X42378062Y-31881716D01*
X42405640Y-31879000D01*
X42864360Y-31879000D01*
X42891938Y-31881716D01*
X42891938Y-31881716D01*
G37*
G36*
X41921938Y-31881716D02*
G01*
X41942557Y-31887971D01*
X41961553Y-31898124D01*
X41978208Y-31911792D01*
X41991876Y-31928447D01*
X42002029Y-31947443D01*
X42008284Y-31968062D01*
X42011000Y-31995640D01*
X42011000Y-32504360D01*
X42008284Y-32531938D01*
X42002029Y-32552557D01*
X41991876Y-32571553D01*
X41978208Y-32588208D01*
X41961553Y-32601876D01*
X41942557Y-32612029D01*
X41921938Y-32618284D01*
X41894360Y-32621000D01*
X41435640Y-32621000D01*
X41408062Y-32618284D01*
X41387443Y-32612029D01*
X41368447Y-32601876D01*
X41351792Y-32588208D01*
X41338124Y-32571553D01*
X41327971Y-32552557D01*
X41321716Y-32531938D01*
X41319000Y-32504360D01*
X41319000Y-31995640D01*
X41321716Y-31968062D01*
X41327971Y-31947443D01*
X41338124Y-31928447D01*
X41351792Y-31911792D01*
X41368447Y-31898124D01*
X41387443Y-31887971D01*
X41408062Y-31881716D01*
X41435640Y-31879000D01*
X41894360Y-31879000D01*
X41921938Y-31881716D01*
X41921938Y-31881716D01*
G37*
G36*
X39671938Y-31881716D02*
G01*
X39692557Y-31887971D01*
X39711553Y-31898124D01*
X39728208Y-31911792D01*
X39741876Y-31928447D01*
X39752029Y-31947443D01*
X39758284Y-31968062D01*
X39761000Y-31995640D01*
X39761000Y-32504360D01*
X39758284Y-32531938D01*
X39752029Y-32552557D01*
X39741876Y-32571553D01*
X39728208Y-32588208D01*
X39711553Y-32601876D01*
X39692557Y-32612029D01*
X39671938Y-32618284D01*
X39644360Y-32621000D01*
X39185640Y-32621000D01*
X39158062Y-32618284D01*
X39137443Y-32612029D01*
X39118447Y-32601876D01*
X39101792Y-32588208D01*
X39088124Y-32571553D01*
X39077971Y-32552557D01*
X39071716Y-32531938D01*
X39069000Y-32504360D01*
X39069000Y-31995640D01*
X39071716Y-31968062D01*
X39077971Y-31947443D01*
X39088124Y-31928447D01*
X39101792Y-31911792D01*
X39118447Y-31898124D01*
X39137443Y-31887971D01*
X39158062Y-31881716D01*
X39185640Y-31879000D01*
X39644360Y-31879000D01*
X39671938Y-31881716D01*
X39671938Y-31881716D01*
G37*
G36*
X40641938Y-31881716D02*
G01*
X40662557Y-31887971D01*
X40681553Y-31898124D01*
X40698208Y-31911792D01*
X40711876Y-31928447D01*
X40722029Y-31947443D01*
X40728284Y-31968062D01*
X40731000Y-31995640D01*
X40731000Y-32504360D01*
X40728284Y-32531938D01*
X40722029Y-32552557D01*
X40711876Y-32571553D01*
X40698208Y-32588208D01*
X40681553Y-32601876D01*
X40662557Y-32612029D01*
X40641938Y-32618284D01*
X40614360Y-32621000D01*
X40155640Y-32621000D01*
X40128062Y-32618284D01*
X40107443Y-32612029D01*
X40088447Y-32601876D01*
X40071792Y-32588208D01*
X40058124Y-32571553D01*
X40047971Y-32552557D01*
X40041716Y-32531938D01*
X40039000Y-32504360D01*
X40039000Y-31995640D01*
X40041716Y-31968062D01*
X40047971Y-31947443D01*
X40058124Y-31928447D01*
X40071792Y-31911792D01*
X40088447Y-31898124D01*
X40107443Y-31887971D01*
X40128062Y-31881716D01*
X40155640Y-31879000D01*
X40614360Y-31879000D01*
X40641938Y-31881716D01*
X40641938Y-31881716D01*
G37*
G36*
X32231000Y-32371000D02*
G01*
X31369000Y-32371000D01*
X31369000Y-21009000D01*
X32231000Y-21009000D01*
X32231000Y-32371000D01*
X32231000Y-32371000D01*
G37*
G36*
X30961000Y-32371000D02*
G01*
X30099000Y-32371000D01*
X30099000Y-21009000D01*
X30961000Y-21009000D01*
X30961000Y-32371000D01*
X30961000Y-32371000D01*
G37*
G36*
X59581938Y-31371716D02*
G01*
X59602557Y-31377971D01*
X59621553Y-31388124D01*
X59638208Y-31401792D01*
X59651876Y-31418447D01*
X59662029Y-31437443D01*
X59668284Y-31458062D01*
X59671000Y-31485640D01*
X59671000Y-31944360D01*
X59668284Y-31971938D01*
X59662029Y-31992557D01*
X59651876Y-32011553D01*
X59638208Y-32028208D01*
X59621553Y-32041876D01*
X59602557Y-32052029D01*
X59581938Y-32058284D01*
X59554360Y-32061000D01*
X59045640Y-32061000D01*
X59018062Y-32058284D01*
X58997443Y-32052029D01*
X58978447Y-32041876D01*
X58961792Y-32028208D01*
X58948124Y-32011553D01*
X58937971Y-31992557D01*
X58931716Y-31971938D01*
X58929000Y-31944360D01*
X58929000Y-31485640D01*
X58931716Y-31458062D01*
X58937971Y-31437443D01*
X58948124Y-31418447D01*
X58961792Y-31401792D01*
X58978447Y-31388124D01*
X58997443Y-31377971D01*
X59018062Y-31371716D01*
X59045640Y-31369000D01*
X59554360Y-31369000D01*
X59581938Y-31371716D01*
X59581938Y-31371716D01*
G37*
G36*
X62881938Y-31371716D02*
G01*
X62902557Y-31377971D01*
X62921553Y-31388124D01*
X62938208Y-31401792D01*
X62951876Y-31418447D01*
X62962029Y-31437443D01*
X62968284Y-31458062D01*
X62971000Y-31485640D01*
X62971000Y-31944360D01*
X62968284Y-31971938D01*
X62962029Y-31992557D01*
X62951876Y-32011553D01*
X62938208Y-32028208D01*
X62921553Y-32041876D01*
X62902557Y-32052029D01*
X62881938Y-32058284D01*
X62854360Y-32061000D01*
X62345640Y-32061000D01*
X62318062Y-32058284D01*
X62297443Y-32052029D01*
X62278447Y-32041876D01*
X62261792Y-32028208D01*
X62248124Y-32011553D01*
X62237971Y-31992557D01*
X62231716Y-31971938D01*
X62229000Y-31944360D01*
X62229000Y-31485640D01*
X62231716Y-31458062D01*
X62237971Y-31437443D01*
X62248124Y-31418447D01*
X62261792Y-31401792D01*
X62278447Y-31388124D01*
X62297443Y-31377971D01*
X62318062Y-31371716D01*
X62345640Y-31369000D01*
X62854360Y-31369000D01*
X62881938Y-31371716D01*
X62881938Y-31371716D01*
G37*
G36*
X63981938Y-31371716D02*
G01*
X64002557Y-31377971D01*
X64021553Y-31388124D01*
X64038208Y-31401792D01*
X64051876Y-31418447D01*
X64062029Y-31437443D01*
X64068284Y-31458062D01*
X64071000Y-31485640D01*
X64071000Y-31944360D01*
X64068284Y-31971938D01*
X64062029Y-31992557D01*
X64051876Y-32011553D01*
X64038208Y-32028208D01*
X64021553Y-32041876D01*
X64002557Y-32052029D01*
X63981938Y-32058284D01*
X63954360Y-32061000D01*
X63445640Y-32061000D01*
X63418062Y-32058284D01*
X63397443Y-32052029D01*
X63378447Y-32041876D01*
X63361792Y-32028208D01*
X63348124Y-32011553D01*
X63337971Y-31992557D01*
X63331716Y-31971938D01*
X63329000Y-31944360D01*
X63329000Y-31485640D01*
X63331716Y-31458062D01*
X63337971Y-31437443D01*
X63348124Y-31418447D01*
X63361792Y-31401792D01*
X63378447Y-31388124D01*
X63397443Y-31377971D01*
X63418062Y-31371716D01*
X63445640Y-31369000D01*
X63954360Y-31369000D01*
X63981938Y-31371716D01*
X63981938Y-31371716D01*
G37*
G36*
X60681938Y-31371716D02*
G01*
X60702557Y-31377971D01*
X60721553Y-31388124D01*
X60738208Y-31401792D01*
X60751876Y-31418447D01*
X60762029Y-31437443D01*
X60768284Y-31458062D01*
X60771000Y-31485640D01*
X60771000Y-31944360D01*
X60768284Y-31971938D01*
X60762029Y-31992557D01*
X60751876Y-32011553D01*
X60738208Y-32028208D01*
X60721553Y-32041876D01*
X60702557Y-32052029D01*
X60681938Y-32058284D01*
X60654360Y-32061000D01*
X60145640Y-32061000D01*
X60118062Y-32058284D01*
X60097443Y-32052029D01*
X60078447Y-32041876D01*
X60061792Y-32028208D01*
X60048124Y-32011553D01*
X60037971Y-31992557D01*
X60031716Y-31971938D01*
X60029000Y-31944360D01*
X60029000Y-31485640D01*
X60031716Y-31458062D01*
X60037971Y-31437443D01*
X60048124Y-31418447D01*
X60061792Y-31401792D01*
X60078447Y-31388124D01*
X60097443Y-31377971D01*
X60118062Y-31371716D01*
X60145640Y-31369000D01*
X60654360Y-31369000D01*
X60681938Y-31371716D01*
X60681938Y-31371716D01*
G37*
G36*
X61781938Y-31356716D02*
G01*
X61802557Y-31362971D01*
X61821553Y-31373124D01*
X61838208Y-31386792D01*
X61851876Y-31403447D01*
X61862029Y-31422443D01*
X61868284Y-31443062D01*
X61871000Y-31470640D01*
X61871000Y-31929360D01*
X61868284Y-31956938D01*
X61862029Y-31977557D01*
X61851876Y-31996553D01*
X61838208Y-32013208D01*
X61821553Y-32026876D01*
X61802557Y-32037029D01*
X61781938Y-32043284D01*
X61754360Y-32046000D01*
X61245640Y-32046000D01*
X61218062Y-32043284D01*
X61197443Y-32037029D01*
X61178447Y-32026876D01*
X61161792Y-32013208D01*
X61148124Y-31996553D01*
X61137971Y-31977557D01*
X61131716Y-31956938D01*
X61129000Y-31929360D01*
X61129000Y-31470640D01*
X61131716Y-31443062D01*
X61137971Y-31422443D01*
X61148124Y-31403447D01*
X61161792Y-31386792D01*
X61178447Y-31373124D01*
X61197443Y-31362971D01*
X61218062Y-31356716D01*
X61245640Y-31354000D01*
X61754360Y-31354000D01*
X61781938Y-31356716D01*
X61781938Y-31356716D01*
G37*
G36*
X54806938Y-31281716D02*
G01*
X54827557Y-31287971D01*
X54846553Y-31298124D01*
X54863208Y-31311792D01*
X54876876Y-31328447D01*
X54887029Y-31347443D01*
X54893284Y-31368062D01*
X54896000Y-31395640D01*
X54896000Y-31904360D01*
X54893284Y-31931938D01*
X54887029Y-31952557D01*
X54876876Y-31971553D01*
X54863208Y-31988208D01*
X54846553Y-32001876D01*
X54827557Y-32012029D01*
X54806938Y-32018284D01*
X54779360Y-32021000D01*
X54320640Y-32021000D01*
X54293062Y-32018284D01*
X54272443Y-32012029D01*
X54253447Y-32001876D01*
X54236792Y-31988208D01*
X54223124Y-31971553D01*
X54212971Y-31952557D01*
X54206716Y-31931938D01*
X54204000Y-31904360D01*
X54204000Y-31395640D01*
X54206716Y-31368062D01*
X54212971Y-31347443D01*
X54223124Y-31328447D01*
X54236792Y-31311792D01*
X54253447Y-31298124D01*
X54272443Y-31287971D01*
X54293062Y-31281716D01*
X54320640Y-31279000D01*
X54779360Y-31279000D01*
X54806938Y-31281716D01*
X54806938Y-31281716D01*
G37*
G36*
X53836938Y-31281716D02*
G01*
X53857557Y-31287971D01*
X53876553Y-31298124D01*
X53893208Y-31311792D01*
X53906876Y-31328447D01*
X53917029Y-31347443D01*
X53923284Y-31368062D01*
X53926000Y-31395640D01*
X53926000Y-31904360D01*
X53923284Y-31931938D01*
X53917029Y-31952557D01*
X53906876Y-31971553D01*
X53893208Y-31988208D01*
X53876553Y-32001876D01*
X53857557Y-32012029D01*
X53836938Y-32018284D01*
X53809360Y-32021000D01*
X53350640Y-32021000D01*
X53323062Y-32018284D01*
X53302443Y-32012029D01*
X53283447Y-32001876D01*
X53266792Y-31988208D01*
X53253124Y-31971553D01*
X53242971Y-31952557D01*
X53236716Y-31931938D01*
X53234000Y-31904360D01*
X53234000Y-31395640D01*
X53236716Y-31368062D01*
X53242971Y-31347443D01*
X53253124Y-31328447D01*
X53266792Y-31311792D01*
X53283447Y-31298124D01*
X53302443Y-31287971D01*
X53323062Y-31281716D01*
X53350640Y-31279000D01*
X53809360Y-31279000D01*
X53836938Y-31281716D01*
X53836938Y-31281716D01*
G37*
G36*
X58301000Y-31101000D02*
G01*
X57399000Y-31101000D01*
X57399000Y-30099000D01*
X58301000Y-30099000D01*
X58301000Y-31101000D01*
X58301000Y-31101000D01*
G37*
G36*
X56401000Y-31101000D02*
G01*
X55499000Y-31101000D01*
X55499000Y-30099000D01*
X56401000Y-30099000D01*
X56401000Y-31101000D01*
X56401000Y-31101000D01*
G37*
G36*
X35305355Y-22225083D02*
G01*
X35310029Y-22226501D01*
X35314330Y-22228800D01*
X35320702Y-22234029D01*
X35341076Y-22247643D01*
X35363715Y-22257020D01*
X35387749Y-22261800D01*
X35412253Y-22261800D01*
X35436286Y-22257019D01*
X35458925Y-22247642D01*
X35479298Y-22234029D01*
X35485670Y-22228800D01*
X35489971Y-22226501D01*
X35494645Y-22225083D01*
X35505641Y-22224000D01*
X35794359Y-22224000D01*
X35805355Y-22225083D01*
X35810029Y-22226501D01*
X35814330Y-22228800D01*
X35820702Y-22234029D01*
X35841076Y-22247643D01*
X35863715Y-22257020D01*
X35887749Y-22261800D01*
X35912253Y-22261800D01*
X35936286Y-22257019D01*
X35958925Y-22247642D01*
X35979298Y-22234029D01*
X35985670Y-22228800D01*
X35989971Y-22226501D01*
X35994645Y-22225083D01*
X36005641Y-22224000D01*
X36294359Y-22224000D01*
X36305355Y-22225083D01*
X36310029Y-22226501D01*
X36314330Y-22228800D01*
X36320702Y-22234029D01*
X36341076Y-22247643D01*
X36363715Y-22257020D01*
X36387749Y-22261800D01*
X36412253Y-22261800D01*
X36436286Y-22257019D01*
X36458925Y-22247642D01*
X36479298Y-22234029D01*
X36485670Y-22228800D01*
X36489971Y-22226501D01*
X36494645Y-22225083D01*
X36505641Y-22224000D01*
X36794359Y-22224000D01*
X36805355Y-22225083D01*
X36810029Y-22226501D01*
X36814330Y-22228800D01*
X36820702Y-22234029D01*
X36841076Y-22247643D01*
X36863715Y-22257020D01*
X36887749Y-22261800D01*
X36912253Y-22261800D01*
X36936286Y-22257019D01*
X36958925Y-22247642D01*
X36979298Y-22234029D01*
X36985670Y-22228800D01*
X36989971Y-22226501D01*
X36994645Y-22225083D01*
X37005641Y-22224000D01*
X37294359Y-22224000D01*
X37305355Y-22225083D01*
X37310029Y-22226501D01*
X37314330Y-22228800D01*
X37320702Y-22234029D01*
X37341076Y-22247643D01*
X37363715Y-22257020D01*
X37387749Y-22261800D01*
X37412253Y-22261800D01*
X37436286Y-22257019D01*
X37458925Y-22247642D01*
X37479298Y-22234029D01*
X37485670Y-22228800D01*
X37489971Y-22226501D01*
X37494645Y-22225083D01*
X37505641Y-22224000D01*
X37794359Y-22224000D01*
X37805355Y-22225083D01*
X37810029Y-22226501D01*
X37814330Y-22228800D01*
X37820702Y-22234029D01*
X37841076Y-22247643D01*
X37863715Y-22257020D01*
X37887749Y-22261800D01*
X37912253Y-22261800D01*
X37936286Y-22257019D01*
X37958925Y-22247642D01*
X37979298Y-22234029D01*
X37985670Y-22228800D01*
X37989971Y-22226501D01*
X37994645Y-22225083D01*
X38005641Y-22224000D01*
X38294359Y-22224000D01*
X38305355Y-22225083D01*
X38310029Y-22226501D01*
X38314330Y-22228800D01*
X38320702Y-22234029D01*
X38341076Y-22247643D01*
X38363715Y-22257020D01*
X38387749Y-22261800D01*
X38412253Y-22261800D01*
X38436286Y-22257019D01*
X38458925Y-22247642D01*
X38479298Y-22234029D01*
X38485670Y-22228800D01*
X38489971Y-22226501D01*
X38494645Y-22225083D01*
X38505641Y-22224000D01*
X38794359Y-22224000D01*
X38805355Y-22225083D01*
X38810029Y-22226501D01*
X38814330Y-22228800D01*
X38820702Y-22234029D01*
X38841076Y-22247643D01*
X38863715Y-22257020D01*
X38887749Y-22261800D01*
X38912253Y-22261800D01*
X38936286Y-22257019D01*
X38958925Y-22247642D01*
X38979298Y-22234029D01*
X38985670Y-22228800D01*
X38989971Y-22226501D01*
X38994645Y-22225083D01*
X39005641Y-22224000D01*
X39294359Y-22224000D01*
X39305355Y-22225083D01*
X39310029Y-22226501D01*
X39314330Y-22228800D01*
X39320702Y-22234029D01*
X39341076Y-22247643D01*
X39363715Y-22257020D01*
X39387749Y-22261800D01*
X39412253Y-22261800D01*
X39436286Y-22257019D01*
X39458925Y-22247642D01*
X39479298Y-22234029D01*
X39485670Y-22228800D01*
X39489971Y-22226501D01*
X39494645Y-22225083D01*
X39505641Y-22224000D01*
X39794359Y-22224000D01*
X39805355Y-22225083D01*
X39810029Y-22226501D01*
X39814330Y-22228800D01*
X39820702Y-22234029D01*
X39841076Y-22247643D01*
X39863715Y-22257020D01*
X39887749Y-22261800D01*
X39912253Y-22261800D01*
X39936286Y-22257019D01*
X39958925Y-22247642D01*
X39979298Y-22234029D01*
X39985670Y-22228800D01*
X39989971Y-22226501D01*
X39994645Y-22225083D01*
X40005641Y-22224000D01*
X40294359Y-22224000D01*
X40305355Y-22225083D01*
X40310029Y-22226501D01*
X40314330Y-22228800D01*
X40320702Y-22234029D01*
X40341076Y-22247643D01*
X40363715Y-22257020D01*
X40387749Y-22261800D01*
X40412253Y-22261800D01*
X40436286Y-22257019D01*
X40458925Y-22247642D01*
X40479298Y-22234029D01*
X40485670Y-22228800D01*
X40489971Y-22226501D01*
X40494645Y-22225083D01*
X40505641Y-22224000D01*
X40794359Y-22224000D01*
X40805355Y-22225083D01*
X40810029Y-22226501D01*
X40814330Y-22228800D01*
X40820702Y-22234029D01*
X40841076Y-22247643D01*
X40863715Y-22257020D01*
X40887749Y-22261800D01*
X40912253Y-22261800D01*
X40936286Y-22257019D01*
X40958925Y-22247642D01*
X40979298Y-22234029D01*
X40985670Y-22228800D01*
X40989971Y-22226501D01*
X40994645Y-22225083D01*
X41005641Y-22224000D01*
X41294359Y-22224000D01*
X41305355Y-22225083D01*
X41310029Y-22226501D01*
X41314330Y-22228800D01*
X41320702Y-22234029D01*
X41341076Y-22247643D01*
X41363715Y-22257020D01*
X41387749Y-22261800D01*
X41412253Y-22261800D01*
X41436286Y-22257019D01*
X41458925Y-22247642D01*
X41479298Y-22234029D01*
X41485670Y-22228800D01*
X41489971Y-22226501D01*
X41494645Y-22225083D01*
X41505641Y-22224000D01*
X41794359Y-22224000D01*
X41805355Y-22225083D01*
X41810029Y-22226501D01*
X41814331Y-22228800D01*
X41818104Y-22231896D01*
X41821200Y-22235669D01*
X41823499Y-22239971D01*
X41824917Y-22244645D01*
X41826000Y-22255641D01*
X41826000Y-23099001D01*
X41828402Y-23123387D01*
X41835515Y-23146836D01*
X41847066Y-23168447D01*
X41862611Y-23187389D01*
X41881553Y-23202934D01*
X41903164Y-23214485D01*
X41926613Y-23221598D01*
X41950999Y-23224000D01*
X42794359Y-23224000D01*
X42805355Y-23225083D01*
X42810029Y-23226501D01*
X42814331Y-23228800D01*
X42818104Y-23231896D01*
X42821200Y-23235669D01*
X42823499Y-23239971D01*
X42824917Y-23244645D01*
X42826000Y-23255641D01*
X42826000Y-23544359D01*
X42824917Y-23555355D01*
X42823499Y-23560029D01*
X42821200Y-23564330D01*
X42815971Y-23570702D01*
X42802357Y-23591076D01*
X42792980Y-23613715D01*
X42788200Y-23637749D01*
X42788200Y-23662253D01*
X42792981Y-23686286D01*
X42802358Y-23708925D01*
X42815971Y-23729298D01*
X42821200Y-23735670D01*
X42823499Y-23739971D01*
X42824917Y-23744645D01*
X42826000Y-23755641D01*
X42826000Y-24044359D01*
X42824917Y-24055355D01*
X42823499Y-24060029D01*
X42821200Y-24064330D01*
X42815971Y-24070702D01*
X42802357Y-24091076D01*
X42792980Y-24113715D01*
X42788200Y-24137749D01*
X42788200Y-24162253D01*
X42792981Y-24186286D01*
X42802358Y-24208925D01*
X42815971Y-24229298D01*
X42821200Y-24235670D01*
X42823499Y-24239971D01*
X42824917Y-24244645D01*
X42826000Y-24255641D01*
X42826000Y-24544359D01*
X42824917Y-24555355D01*
X42823499Y-24560029D01*
X42821200Y-24564330D01*
X42815971Y-24570702D01*
X42802357Y-24591076D01*
X42792980Y-24613715D01*
X42788200Y-24637749D01*
X42788200Y-24662253D01*
X42792981Y-24686286D01*
X42802358Y-24708925D01*
X42815971Y-24729298D01*
X42821200Y-24735670D01*
X42823499Y-24739971D01*
X42824917Y-24744645D01*
X42826000Y-24755641D01*
X42826000Y-25044359D01*
X42824917Y-25055355D01*
X42823499Y-25060029D01*
X42821200Y-25064330D01*
X42815971Y-25070702D01*
X42802357Y-25091076D01*
X42792980Y-25113715D01*
X42788200Y-25137749D01*
X42788200Y-25162253D01*
X42792981Y-25186286D01*
X42802358Y-25208925D01*
X42815971Y-25229298D01*
X42821200Y-25235670D01*
X42823499Y-25239971D01*
X42824917Y-25244645D01*
X42826000Y-25255641D01*
X42826000Y-25544359D01*
X42824917Y-25555355D01*
X42823499Y-25560029D01*
X42821200Y-25564330D01*
X42815971Y-25570702D01*
X42802357Y-25591076D01*
X42792980Y-25613715D01*
X42788200Y-25637749D01*
X42788200Y-25662253D01*
X42792981Y-25686286D01*
X42802358Y-25708925D01*
X42815971Y-25729298D01*
X42821200Y-25735670D01*
X42823499Y-25739971D01*
X42824917Y-25744645D01*
X42826000Y-25755641D01*
X42826000Y-26044359D01*
X42824917Y-26055355D01*
X42823499Y-26060029D01*
X42821200Y-26064330D01*
X42815971Y-26070702D01*
X42802357Y-26091076D01*
X42792980Y-26113715D01*
X42788200Y-26137749D01*
X42788200Y-26162253D01*
X42792981Y-26186286D01*
X42802358Y-26208925D01*
X42815971Y-26229298D01*
X42821200Y-26235670D01*
X42823499Y-26239971D01*
X42824917Y-26244645D01*
X42826000Y-26255641D01*
X42826000Y-26544359D01*
X42824917Y-26555355D01*
X42823499Y-26560029D01*
X42821200Y-26564330D01*
X42815971Y-26570702D01*
X42802357Y-26591076D01*
X42792980Y-26613715D01*
X42788200Y-26637749D01*
X42788200Y-26662253D01*
X42792981Y-26686286D01*
X42802358Y-26708925D01*
X42815971Y-26729298D01*
X42821200Y-26735670D01*
X42823499Y-26739971D01*
X42824917Y-26744645D01*
X42826000Y-26755641D01*
X42826000Y-27044359D01*
X42824917Y-27055355D01*
X42823499Y-27060029D01*
X42821200Y-27064330D01*
X42815971Y-27070702D01*
X42802357Y-27091076D01*
X42792980Y-27113715D01*
X42788200Y-27137749D01*
X42788200Y-27162253D01*
X42792981Y-27186286D01*
X42802358Y-27208925D01*
X42815971Y-27229298D01*
X42821200Y-27235670D01*
X42823499Y-27239971D01*
X42824917Y-27244645D01*
X42826000Y-27255641D01*
X42826000Y-27544359D01*
X42824917Y-27555355D01*
X42823499Y-27560029D01*
X42821200Y-27564330D01*
X42815971Y-27570702D01*
X42802357Y-27591076D01*
X42792980Y-27613715D01*
X42788200Y-27637749D01*
X42788200Y-27662253D01*
X42792981Y-27686286D01*
X42802358Y-27708925D01*
X42815971Y-27729298D01*
X42821200Y-27735670D01*
X42823499Y-27739971D01*
X42824917Y-27744645D01*
X42826000Y-27755641D01*
X42826000Y-28044359D01*
X42824917Y-28055355D01*
X42823499Y-28060029D01*
X42821200Y-28064330D01*
X42815971Y-28070702D01*
X42802357Y-28091076D01*
X42792980Y-28113715D01*
X42788200Y-28137749D01*
X42788200Y-28162253D01*
X42792981Y-28186286D01*
X42802358Y-28208925D01*
X42815971Y-28229298D01*
X42821200Y-28235670D01*
X42823499Y-28239971D01*
X42824917Y-28244645D01*
X42826000Y-28255641D01*
X42826000Y-28544359D01*
X42824917Y-28555355D01*
X42823499Y-28560029D01*
X42821200Y-28564330D01*
X42815971Y-28570702D01*
X42802357Y-28591076D01*
X42792980Y-28613715D01*
X42788200Y-28637749D01*
X42788200Y-28662253D01*
X42792981Y-28686286D01*
X42802358Y-28708925D01*
X42815971Y-28729298D01*
X42821200Y-28735670D01*
X42823499Y-28739971D01*
X42824917Y-28744645D01*
X42826000Y-28755641D01*
X42826000Y-29044359D01*
X42824917Y-29055355D01*
X42823499Y-29060029D01*
X42821200Y-29064330D01*
X42815971Y-29070702D01*
X42802357Y-29091076D01*
X42792980Y-29113715D01*
X42788200Y-29137749D01*
X42788200Y-29162253D01*
X42792981Y-29186286D01*
X42802358Y-29208925D01*
X42815971Y-29229298D01*
X42821200Y-29235670D01*
X42823499Y-29239971D01*
X42824917Y-29244645D01*
X42826000Y-29255641D01*
X42826000Y-29544359D01*
X42824917Y-29555355D01*
X42823499Y-29560029D01*
X42821200Y-29564330D01*
X42815971Y-29570702D01*
X42802357Y-29591076D01*
X42792980Y-29613715D01*
X42788200Y-29637749D01*
X42788200Y-29662253D01*
X42792981Y-29686286D01*
X42802358Y-29708925D01*
X42815971Y-29729298D01*
X42821200Y-29735670D01*
X42823499Y-29739971D01*
X42824917Y-29744645D01*
X42826000Y-29755641D01*
X42826000Y-30044359D01*
X42824917Y-30055355D01*
X42823499Y-30060029D01*
X42821200Y-30064331D01*
X42818104Y-30068104D01*
X42814331Y-30071200D01*
X42810029Y-30073499D01*
X42805355Y-30074917D01*
X42794359Y-30076000D01*
X41950999Y-30076000D01*
X41926613Y-30078402D01*
X41903164Y-30085515D01*
X41881553Y-30097066D01*
X41862611Y-30112611D01*
X41847066Y-30131553D01*
X41835515Y-30153164D01*
X41828402Y-30176613D01*
X41826000Y-30200999D01*
X41826000Y-31044359D01*
X41824917Y-31055355D01*
X41823499Y-31060029D01*
X41821200Y-31064331D01*
X41818104Y-31068104D01*
X41814331Y-31071200D01*
X41810029Y-31073499D01*
X41805355Y-31074917D01*
X41794359Y-31076000D01*
X41505641Y-31076000D01*
X41494645Y-31074917D01*
X41489971Y-31073499D01*
X41485670Y-31071200D01*
X41479298Y-31065971D01*
X41458924Y-31052357D01*
X41436285Y-31042980D01*
X41412251Y-31038200D01*
X41387747Y-31038200D01*
X41363714Y-31042981D01*
X41341075Y-31052358D01*
X41320702Y-31065971D01*
X41314330Y-31071200D01*
X41310029Y-31073499D01*
X41305355Y-31074917D01*
X41294359Y-31076000D01*
X41005641Y-31076000D01*
X40994645Y-31074917D01*
X40989971Y-31073499D01*
X40985670Y-31071200D01*
X40979298Y-31065971D01*
X40958924Y-31052357D01*
X40936285Y-31042980D01*
X40912251Y-31038200D01*
X40887747Y-31038200D01*
X40863714Y-31042981D01*
X40841075Y-31052358D01*
X40820702Y-31065971D01*
X40814330Y-31071200D01*
X40810029Y-31073499D01*
X40805355Y-31074917D01*
X40794359Y-31076000D01*
X40505641Y-31076000D01*
X40494645Y-31074917D01*
X40489971Y-31073499D01*
X40485670Y-31071200D01*
X40479298Y-31065971D01*
X40458924Y-31052357D01*
X40436285Y-31042980D01*
X40412251Y-31038200D01*
X40387747Y-31038200D01*
X40363714Y-31042981D01*
X40341075Y-31052358D01*
X40320702Y-31065971D01*
X40314330Y-31071200D01*
X40310029Y-31073499D01*
X40305355Y-31074917D01*
X40294359Y-31076000D01*
X40005641Y-31076000D01*
X39994645Y-31074917D01*
X39989971Y-31073499D01*
X39985670Y-31071200D01*
X39979298Y-31065971D01*
X39958924Y-31052357D01*
X39936285Y-31042980D01*
X39912251Y-31038200D01*
X39887747Y-31038200D01*
X39863714Y-31042981D01*
X39841075Y-31052358D01*
X39820702Y-31065971D01*
X39814330Y-31071200D01*
X39810029Y-31073499D01*
X39805355Y-31074917D01*
X39794359Y-31076000D01*
X39505641Y-31076000D01*
X39494645Y-31074917D01*
X39489971Y-31073499D01*
X39485670Y-31071200D01*
X39479298Y-31065971D01*
X39458924Y-31052357D01*
X39436285Y-31042980D01*
X39412251Y-31038200D01*
X39387747Y-31038200D01*
X39363714Y-31042981D01*
X39341075Y-31052358D01*
X39320702Y-31065971D01*
X39314330Y-31071200D01*
X39310029Y-31073499D01*
X39305355Y-31074917D01*
X39294359Y-31076000D01*
X39005641Y-31076000D01*
X38994645Y-31074917D01*
X38989971Y-31073499D01*
X38985670Y-31071200D01*
X38979298Y-31065971D01*
X38958924Y-31052357D01*
X38936285Y-31042980D01*
X38912251Y-31038200D01*
X38887747Y-31038200D01*
X38863714Y-31042981D01*
X38841075Y-31052358D01*
X38820702Y-31065971D01*
X38814330Y-31071200D01*
X38810029Y-31073499D01*
X38805355Y-31074917D01*
X38794359Y-31076000D01*
X38505641Y-31076000D01*
X38494645Y-31074917D01*
X38489971Y-31073499D01*
X38485670Y-31071200D01*
X38479298Y-31065971D01*
X38458924Y-31052357D01*
X38436285Y-31042980D01*
X38412251Y-31038200D01*
X38387747Y-31038200D01*
X38363714Y-31042981D01*
X38341075Y-31052358D01*
X38320702Y-31065971D01*
X38314330Y-31071200D01*
X38310029Y-31073499D01*
X38305355Y-31074917D01*
X38294359Y-31076000D01*
X38005641Y-31076000D01*
X37994645Y-31074917D01*
X37989971Y-31073499D01*
X37985670Y-31071200D01*
X37979298Y-31065971D01*
X37958924Y-31052357D01*
X37936285Y-31042980D01*
X37912251Y-31038200D01*
X37887747Y-31038200D01*
X37863714Y-31042981D01*
X37841075Y-31052358D01*
X37820702Y-31065971D01*
X37814330Y-31071200D01*
X37810029Y-31073499D01*
X37805355Y-31074917D01*
X37794359Y-31076000D01*
X37505641Y-31076000D01*
X37494645Y-31074917D01*
X37489971Y-31073499D01*
X37485670Y-31071200D01*
X37479298Y-31065971D01*
X37458924Y-31052357D01*
X37436285Y-31042980D01*
X37412251Y-31038200D01*
X37387747Y-31038200D01*
X37363714Y-31042981D01*
X37341075Y-31052358D01*
X37320702Y-31065971D01*
X37314330Y-31071200D01*
X37310029Y-31073499D01*
X37305355Y-31074917D01*
X37294359Y-31076000D01*
X37005641Y-31076000D01*
X36994645Y-31074917D01*
X36989971Y-31073499D01*
X36985670Y-31071200D01*
X36979298Y-31065971D01*
X36958924Y-31052357D01*
X36936285Y-31042980D01*
X36912251Y-31038200D01*
X36887747Y-31038200D01*
X36863714Y-31042981D01*
X36841075Y-31052358D01*
X36820702Y-31065971D01*
X36814330Y-31071200D01*
X36810029Y-31073499D01*
X36805355Y-31074917D01*
X36794359Y-31076000D01*
X36505641Y-31076000D01*
X36494645Y-31074917D01*
X36489971Y-31073499D01*
X36485670Y-31071200D01*
X36479298Y-31065971D01*
X36458924Y-31052357D01*
X36436285Y-31042980D01*
X36412251Y-31038200D01*
X36387747Y-31038200D01*
X36363714Y-31042981D01*
X36341075Y-31052358D01*
X36320702Y-31065971D01*
X36314330Y-31071200D01*
X36310029Y-31073499D01*
X36305355Y-31074917D01*
X36294359Y-31076000D01*
X36005641Y-31076000D01*
X35994645Y-31074917D01*
X35989971Y-31073499D01*
X35985670Y-31071200D01*
X35979298Y-31065971D01*
X35958924Y-31052357D01*
X35936285Y-31042980D01*
X35912251Y-31038200D01*
X35887747Y-31038200D01*
X35863714Y-31042981D01*
X35841075Y-31052358D01*
X35820702Y-31065971D01*
X35814330Y-31071200D01*
X35810029Y-31073499D01*
X35805355Y-31074917D01*
X35794359Y-31076000D01*
X35505641Y-31076000D01*
X35494645Y-31074917D01*
X35489971Y-31073499D01*
X35485670Y-31071200D01*
X35479298Y-31065971D01*
X35458924Y-31052357D01*
X35436285Y-31042980D01*
X35412251Y-31038200D01*
X35387747Y-31038200D01*
X35363714Y-31042981D01*
X35341075Y-31052358D01*
X35320702Y-31065971D01*
X35314330Y-31071200D01*
X35310029Y-31073499D01*
X35305355Y-31074917D01*
X35294359Y-31076000D01*
X35005641Y-31076000D01*
X34994645Y-31074917D01*
X34989971Y-31073499D01*
X34985669Y-31071200D01*
X34981896Y-31068104D01*
X34978800Y-31064331D01*
X34976501Y-31060029D01*
X34975083Y-31055355D01*
X34974000Y-31044359D01*
X34974000Y-30200999D01*
X34971598Y-30176613D01*
X34964485Y-30153164D01*
X34952934Y-30131553D01*
X34937389Y-30112611D01*
X34918447Y-30097066D01*
X34896836Y-30085515D01*
X34873387Y-30078402D01*
X34849001Y-30076000D01*
X34005641Y-30076000D01*
X33994645Y-30074917D01*
X33989971Y-30073499D01*
X33985669Y-30071200D01*
X33981896Y-30068104D01*
X33978800Y-30064331D01*
X33976501Y-30060029D01*
X33975083Y-30055355D01*
X33974000Y-30044359D01*
X33974000Y-29755641D01*
X33975083Y-29744645D01*
X33976501Y-29739971D01*
X33978800Y-29735670D01*
X33984029Y-29729298D01*
X33997643Y-29708924D01*
X34007020Y-29686285D01*
X34011800Y-29662251D01*
X34011800Y-29637747D01*
X34007019Y-29613714D01*
X33997642Y-29591075D01*
X33984029Y-29570702D01*
X33978800Y-29564330D01*
X33976501Y-29560029D01*
X33975083Y-29555355D01*
X33974000Y-29544359D01*
X33974000Y-29255641D01*
X33975083Y-29244645D01*
X33976501Y-29239971D01*
X33978800Y-29235670D01*
X33984029Y-29229298D01*
X33997643Y-29208924D01*
X34007020Y-29186285D01*
X34011800Y-29162251D01*
X34011800Y-29137747D01*
X34007019Y-29113714D01*
X33997642Y-29091075D01*
X33984029Y-29070702D01*
X33978800Y-29064330D01*
X33976501Y-29060029D01*
X33975083Y-29055355D01*
X33974000Y-29044359D01*
X33974000Y-28755641D01*
X33975083Y-28744645D01*
X33976501Y-28739971D01*
X33978800Y-28735670D01*
X33984029Y-28729298D01*
X33997643Y-28708924D01*
X34007020Y-28686285D01*
X34011800Y-28662251D01*
X34011800Y-28637747D01*
X34007019Y-28613714D01*
X33997642Y-28591075D01*
X33984029Y-28570702D01*
X33978800Y-28564330D01*
X33976501Y-28560029D01*
X33975083Y-28555355D01*
X33974000Y-28544359D01*
X33974000Y-28255641D01*
X33975083Y-28244645D01*
X33976501Y-28239971D01*
X33978800Y-28235670D01*
X33984029Y-28229298D01*
X33997643Y-28208924D01*
X34007020Y-28186285D01*
X34011800Y-28162251D01*
X34011800Y-28137747D01*
X34007019Y-28113714D01*
X33997642Y-28091075D01*
X33984029Y-28070702D01*
X33978800Y-28064330D01*
X33976501Y-28060029D01*
X33975083Y-28055355D01*
X33974000Y-28044359D01*
X33974000Y-27755641D01*
X33975083Y-27744645D01*
X33976501Y-27739971D01*
X33978800Y-27735670D01*
X33984029Y-27729298D01*
X33997643Y-27708924D01*
X34007020Y-27686285D01*
X34011800Y-27662251D01*
X34011800Y-27637747D01*
X34007019Y-27613714D01*
X33997642Y-27591075D01*
X33984029Y-27570702D01*
X33978800Y-27564330D01*
X33976501Y-27560029D01*
X33975083Y-27555355D01*
X33974000Y-27544359D01*
X33974000Y-27255641D01*
X33975083Y-27244645D01*
X33976501Y-27239971D01*
X33978800Y-27235670D01*
X33984029Y-27229298D01*
X33997643Y-27208924D01*
X34007020Y-27186285D01*
X34011800Y-27162251D01*
X34011800Y-27137747D01*
X34007019Y-27113714D01*
X33997642Y-27091075D01*
X33984029Y-27070702D01*
X33978800Y-27064330D01*
X33976501Y-27060029D01*
X33975083Y-27055355D01*
X33974000Y-27044359D01*
X33974000Y-26755641D01*
X33975083Y-26744645D01*
X33976501Y-26739971D01*
X33978800Y-26735670D01*
X33984029Y-26729298D01*
X33997643Y-26708924D01*
X34007020Y-26686285D01*
X34011800Y-26662251D01*
X34011800Y-26637747D01*
X34007019Y-26613714D01*
X33997642Y-26591075D01*
X33984029Y-26570702D01*
X33978800Y-26564330D01*
X33976501Y-26560029D01*
X33975083Y-26555355D01*
X33974000Y-26544359D01*
X33974000Y-26255641D01*
X33975083Y-26244645D01*
X33976501Y-26239971D01*
X33978800Y-26235670D01*
X33984029Y-26229298D01*
X33997643Y-26208924D01*
X34007020Y-26186285D01*
X34011800Y-26162251D01*
X34011800Y-26137747D01*
X34007019Y-26113714D01*
X33997642Y-26091075D01*
X33984029Y-26070702D01*
X33978800Y-26064330D01*
X33976501Y-26060029D01*
X33975083Y-26055355D01*
X33974000Y-26044359D01*
X33974000Y-25755641D01*
X33975083Y-25744645D01*
X33976501Y-25739971D01*
X33978800Y-25735670D01*
X33984029Y-25729298D01*
X33997643Y-25708924D01*
X34007020Y-25686285D01*
X34011800Y-25662251D01*
X34011800Y-25637747D01*
X34007019Y-25613714D01*
X33997642Y-25591075D01*
X33984029Y-25570702D01*
X33978800Y-25564330D01*
X33976501Y-25560029D01*
X33975083Y-25555355D01*
X33974000Y-25544359D01*
X33974000Y-25255641D01*
X33975083Y-25244645D01*
X33976501Y-25239971D01*
X33978800Y-25235670D01*
X33984029Y-25229298D01*
X33997643Y-25208924D01*
X34007020Y-25186285D01*
X34011800Y-25162251D01*
X34011800Y-25137747D01*
X34007019Y-25113714D01*
X33997642Y-25091075D01*
X33984029Y-25070702D01*
X33978800Y-25064330D01*
X33976501Y-25060029D01*
X33975083Y-25055355D01*
X33974000Y-25044359D01*
X33974000Y-24755641D01*
X33975083Y-24744645D01*
X33976501Y-24739971D01*
X33978800Y-24735670D01*
X33984029Y-24729298D01*
X33997643Y-24708924D01*
X34007020Y-24686285D01*
X34011800Y-24662251D01*
X34011800Y-24637747D01*
X34007019Y-24613714D01*
X33997642Y-24591075D01*
X33984029Y-24570702D01*
X33978800Y-24564330D01*
X33976501Y-24560029D01*
X33975083Y-24555355D01*
X33974000Y-24544359D01*
X33974000Y-24255641D01*
X33975083Y-24244645D01*
X33976501Y-24239971D01*
X33978800Y-24235670D01*
X33984029Y-24229298D01*
X33997643Y-24208924D01*
X34007020Y-24186285D01*
X34011800Y-24162251D01*
X34011800Y-24137747D01*
X34007019Y-24113714D01*
X33997642Y-24091075D01*
X33984029Y-24070702D01*
X33978800Y-24064330D01*
X33976501Y-24060029D01*
X33975083Y-24055355D01*
X33974000Y-24044359D01*
X33974000Y-23755641D01*
X33975083Y-23744645D01*
X33976501Y-23739971D01*
X33978800Y-23735670D01*
X33984029Y-23729298D01*
X33997643Y-23708924D01*
X34007020Y-23686285D01*
X34011800Y-23662251D01*
X34011800Y-23637749D01*
X34913200Y-23637749D01*
X34913200Y-23662253D01*
X34917981Y-23686286D01*
X34927358Y-23708925D01*
X34940971Y-23729298D01*
X34946200Y-23735670D01*
X34948499Y-23739971D01*
X34949917Y-23744645D01*
X34951000Y-23755641D01*
X34951000Y-24044359D01*
X34949917Y-24055355D01*
X34948499Y-24060029D01*
X34946200Y-24064330D01*
X34940971Y-24070702D01*
X34927357Y-24091076D01*
X34917980Y-24113715D01*
X34913200Y-24137749D01*
X34913200Y-24162253D01*
X34917981Y-24186286D01*
X34927358Y-24208925D01*
X34940971Y-24229298D01*
X34946200Y-24235670D01*
X34948499Y-24239971D01*
X34949917Y-24244645D01*
X34951000Y-24255641D01*
X34951000Y-24544359D01*
X34949917Y-24555355D01*
X34948499Y-24560029D01*
X34946200Y-24564330D01*
X34940971Y-24570702D01*
X34927357Y-24591076D01*
X34917980Y-24613715D01*
X34913200Y-24637749D01*
X34913200Y-24662253D01*
X34917981Y-24686286D01*
X34927358Y-24708925D01*
X34940971Y-24729298D01*
X34946200Y-24735670D01*
X34948499Y-24739971D01*
X34949917Y-24744645D01*
X34951000Y-24755641D01*
X34951000Y-25044359D01*
X34949917Y-25055355D01*
X34948499Y-25060029D01*
X34946200Y-25064330D01*
X34940971Y-25070702D01*
X34927357Y-25091076D01*
X34917980Y-25113715D01*
X34913200Y-25137749D01*
X34913200Y-25162253D01*
X34917981Y-25186286D01*
X34927358Y-25208925D01*
X34940971Y-25229298D01*
X34946200Y-25235670D01*
X34948499Y-25239971D01*
X34949917Y-25244645D01*
X34951000Y-25255641D01*
X34951000Y-25544359D01*
X34949917Y-25555355D01*
X34948499Y-25560029D01*
X34946200Y-25564330D01*
X34940971Y-25570702D01*
X34927357Y-25591076D01*
X34917980Y-25613715D01*
X34913200Y-25637749D01*
X34913200Y-25662253D01*
X34917981Y-25686286D01*
X34927358Y-25708925D01*
X34940971Y-25729298D01*
X34946200Y-25735670D01*
X34948499Y-25739971D01*
X34949917Y-25744645D01*
X34951000Y-25755641D01*
X34951000Y-26044359D01*
X34949917Y-26055355D01*
X34948499Y-26060029D01*
X34946200Y-26064330D01*
X34940971Y-26070702D01*
X34927357Y-26091076D01*
X34917980Y-26113715D01*
X34913200Y-26137749D01*
X34913200Y-26162253D01*
X34917981Y-26186286D01*
X34927358Y-26208925D01*
X34940971Y-26229298D01*
X34946200Y-26235670D01*
X34948499Y-26239971D01*
X34949917Y-26244645D01*
X34951000Y-26255641D01*
X34951000Y-26544359D01*
X34949917Y-26555355D01*
X34948499Y-26560029D01*
X34946200Y-26564330D01*
X34940971Y-26570702D01*
X34927357Y-26591076D01*
X34917980Y-26613715D01*
X34913200Y-26637749D01*
X34913200Y-26662253D01*
X34917981Y-26686286D01*
X34927358Y-26708925D01*
X34940971Y-26729298D01*
X34946200Y-26735670D01*
X34948499Y-26739971D01*
X34949917Y-26744645D01*
X34951000Y-26755641D01*
X34951000Y-27044359D01*
X34949917Y-27055355D01*
X34948499Y-27060029D01*
X34946200Y-27064330D01*
X34940971Y-27070702D01*
X34927357Y-27091076D01*
X34917980Y-27113715D01*
X34913200Y-27137749D01*
X34913200Y-27162253D01*
X34917981Y-27186286D01*
X34927358Y-27208925D01*
X34940971Y-27229298D01*
X34946200Y-27235670D01*
X34948499Y-27239971D01*
X34949917Y-27244645D01*
X34951000Y-27255641D01*
X34951000Y-27544359D01*
X34949917Y-27555355D01*
X34948499Y-27560029D01*
X34946200Y-27564330D01*
X34940971Y-27570702D01*
X34927357Y-27591076D01*
X34917980Y-27613715D01*
X34913200Y-27637749D01*
X34913200Y-27662253D01*
X34917981Y-27686286D01*
X34927358Y-27708925D01*
X34940971Y-27729298D01*
X34946200Y-27735670D01*
X34948499Y-27739971D01*
X34949917Y-27744645D01*
X34951000Y-27755641D01*
X34951000Y-28044359D01*
X34949917Y-28055355D01*
X34948499Y-28060029D01*
X34946200Y-28064330D01*
X34940971Y-28070702D01*
X34927357Y-28091076D01*
X34917980Y-28113715D01*
X34913200Y-28137749D01*
X34913200Y-28162253D01*
X34917981Y-28186286D01*
X34927358Y-28208925D01*
X34940971Y-28229298D01*
X34946200Y-28235670D01*
X34948499Y-28239971D01*
X34949917Y-28244645D01*
X34951000Y-28255641D01*
X34951000Y-28544359D01*
X34949917Y-28555355D01*
X34948499Y-28560029D01*
X34946200Y-28564330D01*
X34940971Y-28570702D01*
X34927357Y-28591076D01*
X34917980Y-28613715D01*
X34913200Y-28637749D01*
X34913200Y-28662253D01*
X34917981Y-28686286D01*
X34927358Y-28708925D01*
X34940971Y-28729298D01*
X34946200Y-28735670D01*
X34948499Y-28739971D01*
X34949917Y-28744645D01*
X34951000Y-28755641D01*
X34951000Y-29044359D01*
X34949917Y-29055355D01*
X34948499Y-29060029D01*
X34946200Y-29064330D01*
X34940971Y-29070702D01*
X34927357Y-29091076D01*
X34917980Y-29113715D01*
X34913200Y-29137749D01*
X34913200Y-29162253D01*
X34917981Y-29186286D01*
X34927358Y-29208925D01*
X34940971Y-29229298D01*
X34946200Y-29235670D01*
X34948499Y-29239971D01*
X34949917Y-29244645D01*
X34951000Y-29255641D01*
X34951000Y-29544359D01*
X34949917Y-29555355D01*
X34948499Y-29560029D01*
X34946200Y-29564330D01*
X34940971Y-29570702D01*
X34927357Y-29591076D01*
X34917980Y-29613715D01*
X34913200Y-29637749D01*
X34913200Y-29662253D01*
X34917981Y-29686286D01*
X34927358Y-29708925D01*
X34940971Y-29729298D01*
X34946200Y-29735670D01*
X34948499Y-29739971D01*
X34949917Y-29744645D01*
X34951000Y-29755641D01*
X34951000Y-29974001D01*
X34953402Y-29998387D01*
X34960515Y-30021836D01*
X34972066Y-30043447D01*
X34987611Y-30062389D01*
X35006553Y-30077934D01*
X35028164Y-30089485D01*
X35051613Y-30096598D01*
X35075999Y-30099000D01*
X35294359Y-30099000D01*
X35305355Y-30100083D01*
X35310029Y-30101501D01*
X35314330Y-30103800D01*
X35320702Y-30109029D01*
X35341076Y-30122643D01*
X35363715Y-30132020D01*
X35387749Y-30136800D01*
X35412253Y-30136800D01*
X35436286Y-30132019D01*
X35458925Y-30122642D01*
X35479298Y-30109029D01*
X35485670Y-30103800D01*
X35489971Y-30101501D01*
X35494645Y-30100083D01*
X35505641Y-30099000D01*
X35794359Y-30099000D01*
X35805355Y-30100083D01*
X35810029Y-30101501D01*
X35814330Y-30103800D01*
X35820702Y-30109029D01*
X35841076Y-30122643D01*
X35863715Y-30132020D01*
X35887749Y-30136800D01*
X35912253Y-30136800D01*
X35936286Y-30132019D01*
X35958925Y-30122642D01*
X35979298Y-30109029D01*
X35985670Y-30103800D01*
X35989971Y-30101501D01*
X35994645Y-30100083D01*
X36005641Y-30099000D01*
X36294359Y-30099000D01*
X36305355Y-30100083D01*
X36310029Y-30101501D01*
X36314330Y-30103800D01*
X36320702Y-30109029D01*
X36341076Y-30122643D01*
X36363715Y-30132020D01*
X36387749Y-30136800D01*
X36412253Y-30136800D01*
X36436286Y-30132019D01*
X36458925Y-30122642D01*
X36479298Y-30109029D01*
X36485670Y-30103800D01*
X36489971Y-30101501D01*
X36494645Y-30100083D01*
X36505641Y-30099000D01*
X36794359Y-30099000D01*
X36805355Y-30100083D01*
X36810029Y-30101501D01*
X36814330Y-30103800D01*
X36820702Y-30109029D01*
X36841076Y-30122643D01*
X36863715Y-30132020D01*
X36887749Y-30136800D01*
X36912253Y-30136800D01*
X36936286Y-30132019D01*
X36958925Y-30122642D01*
X36979298Y-30109029D01*
X36985670Y-30103800D01*
X36989971Y-30101501D01*
X36994645Y-30100083D01*
X37005641Y-30099000D01*
X37294359Y-30099000D01*
X37305355Y-30100083D01*
X37310029Y-30101501D01*
X37314330Y-30103800D01*
X37320702Y-30109029D01*
X37341076Y-30122643D01*
X37363715Y-30132020D01*
X37387749Y-30136800D01*
X37412253Y-30136800D01*
X37436286Y-30132019D01*
X37458925Y-30122642D01*
X37479298Y-30109029D01*
X37485670Y-30103800D01*
X37489971Y-30101501D01*
X37494645Y-30100083D01*
X37505641Y-30099000D01*
X37794359Y-30099000D01*
X37805355Y-30100083D01*
X37810029Y-30101501D01*
X37814330Y-30103800D01*
X37820702Y-30109029D01*
X37841076Y-30122643D01*
X37863715Y-30132020D01*
X37887749Y-30136800D01*
X37912253Y-30136800D01*
X37936286Y-30132019D01*
X37958925Y-30122642D01*
X37979298Y-30109029D01*
X37985670Y-30103800D01*
X37989971Y-30101501D01*
X37994645Y-30100083D01*
X38005641Y-30099000D01*
X38294359Y-30099000D01*
X38305355Y-30100083D01*
X38310029Y-30101501D01*
X38314330Y-30103800D01*
X38320702Y-30109029D01*
X38341076Y-30122643D01*
X38363715Y-30132020D01*
X38387749Y-30136800D01*
X38412253Y-30136800D01*
X38436286Y-30132019D01*
X38458925Y-30122642D01*
X38479298Y-30109029D01*
X38485670Y-30103800D01*
X38489971Y-30101501D01*
X38494645Y-30100083D01*
X38505641Y-30099000D01*
X38794359Y-30099000D01*
X38805355Y-30100083D01*
X38810029Y-30101501D01*
X38814330Y-30103800D01*
X38820702Y-30109029D01*
X38841076Y-30122643D01*
X38863715Y-30132020D01*
X38887749Y-30136800D01*
X38912253Y-30136800D01*
X38936286Y-30132019D01*
X38958925Y-30122642D01*
X38979298Y-30109029D01*
X38985670Y-30103800D01*
X38989971Y-30101501D01*
X38994645Y-30100083D01*
X39005641Y-30099000D01*
X39294359Y-30099000D01*
X39305355Y-30100083D01*
X39310029Y-30101501D01*
X39314330Y-30103800D01*
X39320702Y-30109029D01*
X39341076Y-30122643D01*
X39363715Y-30132020D01*
X39387749Y-30136800D01*
X39412253Y-30136800D01*
X39436286Y-30132019D01*
X39458925Y-30122642D01*
X39479298Y-30109029D01*
X39485670Y-30103800D01*
X39489971Y-30101501D01*
X39494645Y-30100083D01*
X39505641Y-30099000D01*
X39794359Y-30099000D01*
X39805355Y-30100083D01*
X39810029Y-30101501D01*
X39814330Y-30103800D01*
X39820702Y-30109029D01*
X39841076Y-30122643D01*
X39863715Y-30132020D01*
X39887749Y-30136800D01*
X39912253Y-30136800D01*
X39936286Y-30132019D01*
X39958925Y-30122642D01*
X39979298Y-30109029D01*
X39985670Y-30103800D01*
X39989971Y-30101501D01*
X39994645Y-30100083D01*
X40005641Y-30099000D01*
X40294359Y-30099000D01*
X40305355Y-30100083D01*
X40310029Y-30101501D01*
X40314330Y-30103800D01*
X40320702Y-30109029D01*
X40341076Y-30122643D01*
X40363715Y-30132020D01*
X40387749Y-30136800D01*
X40412253Y-30136800D01*
X40436286Y-30132019D01*
X40458925Y-30122642D01*
X40479298Y-30109029D01*
X40485670Y-30103800D01*
X40489971Y-30101501D01*
X40494645Y-30100083D01*
X40505641Y-30099000D01*
X40794359Y-30099000D01*
X40805355Y-30100083D01*
X40810029Y-30101501D01*
X40814330Y-30103800D01*
X40820702Y-30109029D01*
X40841076Y-30122643D01*
X40863715Y-30132020D01*
X40887749Y-30136800D01*
X40912253Y-30136800D01*
X40936286Y-30132019D01*
X40958925Y-30122642D01*
X40979298Y-30109029D01*
X40985670Y-30103800D01*
X40989971Y-30101501D01*
X40994645Y-30100083D01*
X41005641Y-30099000D01*
X41294359Y-30099000D01*
X41305355Y-30100083D01*
X41310029Y-30101501D01*
X41314330Y-30103800D01*
X41320702Y-30109029D01*
X41341076Y-30122643D01*
X41363715Y-30132020D01*
X41387749Y-30136800D01*
X41412253Y-30136800D01*
X41436286Y-30132019D01*
X41458925Y-30122642D01*
X41479298Y-30109029D01*
X41485670Y-30103800D01*
X41489971Y-30101501D01*
X41494645Y-30100083D01*
X41505641Y-30099000D01*
X41724001Y-30099000D01*
X41748387Y-30096598D01*
X41771836Y-30089485D01*
X41793447Y-30077934D01*
X41812389Y-30062389D01*
X41827934Y-30043447D01*
X41839485Y-30021836D01*
X41846598Y-29998387D01*
X41849000Y-29974001D01*
X41849000Y-29755641D01*
X41850083Y-29744645D01*
X41851501Y-29739971D01*
X41853800Y-29735670D01*
X41859029Y-29729298D01*
X41872643Y-29708924D01*
X41882020Y-29686285D01*
X41886800Y-29662251D01*
X41886800Y-29637747D01*
X41882019Y-29613714D01*
X41872642Y-29591075D01*
X41859029Y-29570702D01*
X41853800Y-29564330D01*
X41851501Y-29560029D01*
X41850083Y-29555355D01*
X41849000Y-29544359D01*
X41849000Y-29255641D01*
X41850083Y-29244645D01*
X41851501Y-29239971D01*
X41853800Y-29235670D01*
X41859029Y-29229298D01*
X41872643Y-29208924D01*
X41882020Y-29186285D01*
X41886800Y-29162251D01*
X41886800Y-29137747D01*
X41882019Y-29113714D01*
X41872642Y-29091075D01*
X41859029Y-29070702D01*
X41853800Y-29064330D01*
X41851501Y-29060029D01*
X41850083Y-29055355D01*
X41849000Y-29044359D01*
X41849000Y-28755641D01*
X41850083Y-28744645D01*
X41851501Y-28739971D01*
X41853800Y-28735670D01*
X41859029Y-28729298D01*
X41872643Y-28708924D01*
X41882020Y-28686285D01*
X41886800Y-28662251D01*
X41886800Y-28637747D01*
X41882019Y-28613714D01*
X41872642Y-28591075D01*
X41859029Y-28570702D01*
X41853800Y-28564330D01*
X41851501Y-28560029D01*
X41850083Y-28555355D01*
X41849000Y-28544359D01*
X41849000Y-28255641D01*
X41850083Y-28244645D01*
X41851501Y-28239971D01*
X41853800Y-28235670D01*
X41859029Y-28229298D01*
X41872643Y-28208924D01*
X41882020Y-28186285D01*
X41886800Y-28162251D01*
X41886800Y-28137747D01*
X41882019Y-28113714D01*
X41872642Y-28091075D01*
X41859029Y-28070702D01*
X41853800Y-28064330D01*
X41851501Y-28060029D01*
X41850083Y-28055355D01*
X41849000Y-28044359D01*
X41849000Y-27755641D01*
X41850083Y-27744645D01*
X41851501Y-27739971D01*
X41853800Y-27735670D01*
X41859029Y-27729298D01*
X41872643Y-27708924D01*
X41882020Y-27686285D01*
X41886800Y-27662251D01*
X41886800Y-27637747D01*
X41882019Y-27613714D01*
X41872642Y-27591075D01*
X41859029Y-27570702D01*
X41853800Y-27564330D01*
X41851501Y-27560029D01*
X41850083Y-27555355D01*
X41849000Y-27544359D01*
X41849000Y-27255641D01*
X41850083Y-27244645D01*
X41851501Y-27239971D01*
X41853800Y-27235670D01*
X41859029Y-27229298D01*
X41872643Y-27208924D01*
X41882020Y-27186285D01*
X41886800Y-27162251D01*
X41886800Y-27137747D01*
X41882019Y-27113714D01*
X41872642Y-27091075D01*
X41859029Y-27070702D01*
X41853800Y-27064330D01*
X41851501Y-27060029D01*
X41850083Y-27055355D01*
X41849000Y-27044359D01*
X41849000Y-26755641D01*
X41850083Y-26744645D01*
X41851501Y-26739971D01*
X41853800Y-26735670D01*
X41859029Y-26729298D01*
X41872643Y-26708924D01*
X41882020Y-26686285D01*
X41886800Y-26662251D01*
X41886800Y-26637747D01*
X41882019Y-26613714D01*
X41872642Y-26591075D01*
X41859029Y-26570702D01*
X41853800Y-26564330D01*
X41851501Y-26560029D01*
X41850083Y-26555355D01*
X41849000Y-26544359D01*
X41849000Y-26255641D01*
X41850083Y-26244645D01*
X41851501Y-26239971D01*
X41853800Y-26235670D01*
X41859029Y-26229298D01*
X41872643Y-26208924D01*
X41882020Y-26186285D01*
X41886800Y-26162251D01*
X41886800Y-26137747D01*
X41882019Y-26113714D01*
X41872642Y-26091075D01*
X41859029Y-26070702D01*
X41853800Y-26064330D01*
X41851501Y-26060029D01*
X41850083Y-26055355D01*
X41849000Y-26044359D01*
X41849000Y-25755641D01*
X41850083Y-25744645D01*
X41851501Y-25739971D01*
X41853800Y-25735670D01*
X41859029Y-25729298D01*
X41872643Y-25708924D01*
X41882020Y-25686285D01*
X41886800Y-25662251D01*
X41886800Y-25637747D01*
X41882019Y-25613714D01*
X41872642Y-25591075D01*
X41859029Y-25570702D01*
X41853800Y-25564330D01*
X41851501Y-25560029D01*
X41850083Y-25555355D01*
X41849000Y-25544359D01*
X41849000Y-25255641D01*
X41850083Y-25244645D01*
X41851501Y-25239971D01*
X41853800Y-25235670D01*
X41859029Y-25229298D01*
X41872643Y-25208924D01*
X41882020Y-25186285D01*
X41886800Y-25162251D01*
X41886800Y-25137747D01*
X41882019Y-25113714D01*
X41872642Y-25091075D01*
X41859029Y-25070702D01*
X41853800Y-25064330D01*
X41851501Y-25060029D01*
X41850083Y-25055355D01*
X41849000Y-25044359D01*
X41849000Y-24755641D01*
X41850083Y-24744645D01*
X41851501Y-24739971D01*
X41853800Y-24735670D01*
X41859029Y-24729298D01*
X41872643Y-24708924D01*
X41882020Y-24686285D01*
X41886800Y-24662251D01*
X41886800Y-24637747D01*
X41882019Y-24613714D01*
X41872642Y-24591075D01*
X41859029Y-24570702D01*
X41853800Y-24564330D01*
X41851501Y-24560029D01*
X41850083Y-24555355D01*
X41849000Y-24544359D01*
X41849000Y-24255641D01*
X41850083Y-24244645D01*
X41851501Y-24239971D01*
X41853800Y-24235670D01*
X41859029Y-24229298D01*
X41872643Y-24208924D01*
X41882020Y-24186285D01*
X41886800Y-24162251D01*
X41886800Y-24137747D01*
X41882019Y-24113714D01*
X41872642Y-24091075D01*
X41859029Y-24070702D01*
X41853800Y-24064330D01*
X41851501Y-24060029D01*
X41850083Y-24055355D01*
X41849000Y-24044359D01*
X41849000Y-23755641D01*
X41850083Y-23744645D01*
X41851501Y-23739971D01*
X41853800Y-23735670D01*
X41859029Y-23729298D01*
X41872643Y-23708924D01*
X41882020Y-23686285D01*
X41886800Y-23662251D01*
X41886800Y-23637747D01*
X41882019Y-23613714D01*
X41872642Y-23591075D01*
X41859029Y-23570702D01*
X41853800Y-23564330D01*
X41851501Y-23560029D01*
X41850083Y-23555355D01*
X41849000Y-23544359D01*
X41849000Y-23325999D01*
X41846598Y-23301613D01*
X41839485Y-23278164D01*
X41827934Y-23256553D01*
X41812389Y-23237611D01*
X41793447Y-23222066D01*
X41771836Y-23210515D01*
X41748387Y-23203402D01*
X41724001Y-23201000D01*
X41505641Y-23201000D01*
X41494645Y-23199917D01*
X41489971Y-23198499D01*
X41485670Y-23196200D01*
X41479298Y-23190971D01*
X41458924Y-23177357D01*
X41436285Y-23167980D01*
X41412251Y-23163200D01*
X41387747Y-23163200D01*
X41363714Y-23167981D01*
X41341075Y-23177358D01*
X41320702Y-23190971D01*
X41314330Y-23196200D01*
X41310029Y-23198499D01*
X41305355Y-23199917D01*
X41294359Y-23201000D01*
X41005641Y-23201000D01*
X40994645Y-23199917D01*
X40989971Y-23198499D01*
X40985670Y-23196200D01*
X40979298Y-23190971D01*
X40958924Y-23177357D01*
X40936285Y-23167980D01*
X40912251Y-23163200D01*
X40887747Y-23163200D01*
X40863714Y-23167981D01*
X40841075Y-23177358D01*
X40820702Y-23190971D01*
X40814330Y-23196200D01*
X40810029Y-23198499D01*
X40805355Y-23199917D01*
X40794359Y-23201000D01*
X40505641Y-23201000D01*
X40494645Y-23199917D01*
X40489971Y-23198499D01*
X40485670Y-23196200D01*
X40479298Y-23190971D01*
X40458924Y-23177357D01*
X40436285Y-23167980D01*
X40412251Y-23163200D01*
X40387747Y-23163200D01*
X40363714Y-23167981D01*
X40341075Y-23177358D01*
X40320702Y-23190971D01*
X40314330Y-23196200D01*
X40310029Y-23198499D01*
X40305355Y-23199917D01*
X40294359Y-23201000D01*
X40005641Y-23201000D01*
X39994645Y-23199917D01*
X39989971Y-23198499D01*
X39985670Y-23196200D01*
X39979298Y-23190971D01*
X39958924Y-23177357D01*
X39936285Y-23167980D01*
X39912251Y-23163200D01*
X39887747Y-23163200D01*
X39863714Y-23167981D01*
X39841075Y-23177358D01*
X39820702Y-23190971D01*
X39814330Y-23196200D01*
X39810029Y-23198499D01*
X39805355Y-23199917D01*
X39794359Y-23201000D01*
X39505641Y-23201000D01*
X39494645Y-23199917D01*
X39489971Y-23198499D01*
X39485670Y-23196200D01*
X39479298Y-23190971D01*
X39458924Y-23177357D01*
X39436285Y-23167980D01*
X39412251Y-23163200D01*
X39387747Y-23163200D01*
X39363714Y-23167981D01*
X39341075Y-23177358D01*
X39320702Y-23190971D01*
X39314330Y-23196200D01*
X39310029Y-23198499D01*
X39305355Y-23199917D01*
X39294359Y-23201000D01*
X39005641Y-23201000D01*
X38994645Y-23199917D01*
X38989971Y-23198499D01*
X38985670Y-23196200D01*
X38979298Y-23190971D01*
X38958924Y-23177357D01*
X38936285Y-23167980D01*
X38912251Y-23163200D01*
X38887747Y-23163200D01*
X38863714Y-23167981D01*
X38841075Y-23177358D01*
X38820702Y-23190971D01*
X38814330Y-23196200D01*
X38810029Y-23198499D01*
X38805355Y-23199917D01*
X38794359Y-23201000D01*
X38505641Y-23201000D01*
X38494645Y-23199917D01*
X38489971Y-23198499D01*
X38485670Y-23196200D01*
X38479298Y-23190971D01*
X38458924Y-23177357D01*
X38436285Y-23167980D01*
X38412251Y-23163200D01*
X38387747Y-23163200D01*
X38363714Y-23167981D01*
X38341075Y-23177358D01*
X38320702Y-23190971D01*
X38314330Y-23196200D01*
X38310029Y-23198499D01*
X38305355Y-23199917D01*
X38294359Y-23201000D01*
X38005641Y-23201000D01*
X37994645Y-23199917D01*
X37989971Y-23198499D01*
X37985670Y-23196200D01*
X37979298Y-23190971D01*
X37958924Y-23177357D01*
X37936285Y-23167980D01*
X37912251Y-23163200D01*
X37887747Y-23163200D01*
X37863714Y-23167981D01*
X37841075Y-23177358D01*
X37820702Y-23190971D01*
X37814330Y-23196200D01*
X37810029Y-23198499D01*
X37805355Y-23199917D01*
X37794359Y-23201000D01*
X37505641Y-23201000D01*
X37494645Y-23199917D01*
X37489971Y-23198499D01*
X37485670Y-23196200D01*
X37479298Y-23190971D01*
X37458924Y-23177357D01*
X37436285Y-23167980D01*
X37412251Y-23163200D01*
X37387747Y-23163200D01*
X37363714Y-23167981D01*
X37341075Y-23177358D01*
X37320702Y-23190971D01*
X37314330Y-23196200D01*
X37310029Y-23198499D01*
X37305355Y-23199917D01*
X37294359Y-23201000D01*
X37005641Y-23201000D01*
X36994645Y-23199917D01*
X36989971Y-23198499D01*
X36985670Y-23196200D01*
X36979298Y-23190971D01*
X36958924Y-23177357D01*
X36936285Y-23167980D01*
X36912251Y-23163200D01*
X36887747Y-23163200D01*
X36863714Y-23167981D01*
X36841075Y-23177358D01*
X36820702Y-23190971D01*
X36814330Y-23196200D01*
X36810029Y-23198499D01*
X36805355Y-23199917D01*
X36794359Y-23201000D01*
X36505641Y-23201000D01*
X36494645Y-23199917D01*
X36489971Y-23198499D01*
X36485670Y-23196200D01*
X36479298Y-23190971D01*
X36458924Y-23177357D01*
X36436285Y-23167980D01*
X36412251Y-23163200D01*
X36387747Y-23163200D01*
X36363714Y-23167981D01*
X36341075Y-23177358D01*
X36320702Y-23190971D01*
X36314330Y-23196200D01*
X36310029Y-23198499D01*
X36305355Y-23199917D01*
X36294359Y-23201000D01*
X36005641Y-23201000D01*
X35994645Y-23199917D01*
X35989971Y-23198499D01*
X35985670Y-23196200D01*
X35979298Y-23190971D01*
X35958924Y-23177357D01*
X35936285Y-23167980D01*
X35912251Y-23163200D01*
X35887747Y-23163200D01*
X35863714Y-23167981D01*
X35841075Y-23177358D01*
X35820702Y-23190971D01*
X35814330Y-23196200D01*
X35810029Y-23198499D01*
X35805355Y-23199917D01*
X35794359Y-23201000D01*
X35505641Y-23201000D01*
X35494645Y-23199917D01*
X35489971Y-23198499D01*
X35485670Y-23196200D01*
X35479298Y-23190971D01*
X35458924Y-23177357D01*
X35436285Y-23167980D01*
X35412251Y-23163200D01*
X35387747Y-23163200D01*
X35363714Y-23167981D01*
X35341075Y-23177358D01*
X35320702Y-23190971D01*
X35314330Y-23196200D01*
X35310029Y-23198499D01*
X35305355Y-23199917D01*
X35294359Y-23201000D01*
X35075999Y-23201000D01*
X35051613Y-23203402D01*
X35028164Y-23210515D01*
X35006553Y-23222066D01*
X34987611Y-23237611D01*
X34972066Y-23256553D01*
X34960515Y-23278164D01*
X34953402Y-23301613D01*
X34951000Y-23325999D01*
X34951000Y-23544359D01*
X34949917Y-23555355D01*
X34948499Y-23560029D01*
X34946200Y-23564330D01*
X34940971Y-23570702D01*
X34927357Y-23591076D01*
X34917980Y-23613715D01*
X34913200Y-23637749D01*
X34011800Y-23637749D01*
X34011800Y-23637747D01*
X34007019Y-23613714D01*
X33997642Y-23591075D01*
X33984029Y-23570702D01*
X33978800Y-23564330D01*
X33976501Y-23560029D01*
X33975083Y-23555355D01*
X33974000Y-23544359D01*
X33974000Y-23255641D01*
X33975083Y-23244645D01*
X33976501Y-23239971D01*
X33978800Y-23235669D01*
X33981896Y-23231896D01*
X33985669Y-23228800D01*
X33989971Y-23226501D01*
X33994645Y-23225083D01*
X34005641Y-23224000D01*
X34849001Y-23224000D01*
X34873387Y-23221598D01*
X34896836Y-23214485D01*
X34918447Y-23202934D01*
X34937389Y-23187389D01*
X34952934Y-23168447D01*
X34964485Y-23146836D01*
X34971598Y-23123387D01*
X34974000Y-23099001D01*
X34974000Y-22255641D01*
X34975083Y-22244645D01*
X34976501Y-22239971D01*
X34978800Y-22235669D01*
X34981896Y-22231896D01*
X34985669Y-22228800D01*
X34989971Y-22226501D01*
X34994645Y-22225083D01*
X35005641Y-22224000D01*
X35294359Y-22224000D01*
X35305355Y-22225083D01*
X35305355Y-22225083D01*
G37*
G36*
X40934525Y-24352370D02*
G01*
X40961531Y-24360563D01*
X40986417Y-24373865D01*
X41008232Y-24391768D01*
X41026135Y-24413583D01*
X41039437Y-24438469D01*
X41047630Y-24465475D01*
X41051000Y-24499696D01*
X41051000Y-28800304D01*
X41047630Y-28834525D01*
X41039437Y-28861531D01*
X41026135Y-28886417D01*
X41008232Y-28908232D01*
X40986417Y-28926135D01*
X40961531Y-28939437D01*
X40934525Y-28947630D01*
X40900304Y-28951000D01*
X35899696Y-28951000D01*
X35865475Y-28947630D01*
X35838469Y-28939437D01*
X35813583Y-28926135D01*
X35791768Y-28908232D01*
X35773865Y-28886417D01*
X35760563Y-28861531D01*
X35752370Y-28834525D01*
X35749000Y-28800304D01*
X35749000Y-24499696D01*
X35752370Y-24465475D01*
X35760563Y-24438469D01*
X35773865Y-24413583D01*
X35791768Y-24391768D01*
X35813583Y-24373865D01*
X35838469Y-24360563D01*
X35865475Y-24352370D01*
X35899696Y-24349000D01*
X40900304Y-24349000D01*
X40934525Y-24352370D01*
X40934525Y-24352370D01*
G37*
G36*
X54841938Y-30131716D02*
G01*
X54862557Y-30137971D01*
X54881553Y-30148124D01*
X54898208Y-30161792D01*
X54911876Y-30178447D01*
X54922029Y-30197443D01*
X54928284Y-30218062D01*
X54931000Y-30245640D01*
X54931000Y-30754360D01*
X54928284Y-30781938D01*
X54922029Y-30802557D01*
X54911876Y-30821553D01*
X54898208Y-30838208D01*
X54881553Y-30851876D01*
X54862557Y-30862029D01*
X54841938Y-30868284D01*
X54814360Y-30871000D01*
X54355640Y-30871000D01*
X54328062Y-30868284D01*
X54307443Y-30862029D01*
X54288447Y-30851876D01*
X54271792Y-30838208D01*
X54258124Y-30821553D01*
X54247971Y-30802557D01*
X54241716Y-30781938D01*
X54239000Y-30754360D01*
X54239000Y-30245640D01*
X54241716Y-30218062D01*
X54247971Y-30197443D01*
X54258124Y-30178447D01*
X54271792Y-30161792D01*
X54288447Y-30148124D01*
X54307443Y-30137971D01*
X54328062Y-30131716D01*
X54355640Y-30129000D01*
X54814360Y-30129000D01*
X54841938Y-30131716D01*
X54841938Y-30131716D01*
G37*
G36*
X53871938Y-30131716D02*
G01*
X53892557Y-30137971D01*
X53911553Y-30148124D01*
X53928208Y-30161792D01*
X53941876Y-30178447D01*
X53952029Y-30197443D01*
X53958284Y-30218062D01*
X53961000Y-30245640D01*
X53961000Y-30754360D01*
X53958284Y-30781938D01*
X53952029Y-30802557D01*
X53941876Y-30821553D01*
X53928208Y-30838208D01*
X53911553Y-30851876D01*
X53892557Y-30862029D01*
X53871938Y-30868284D01*
X53844360Y-30871000D01*
X53385640Y-30871000D01*
X53358062Y-30868284D01*
X53337443Y-30862029D01*
X53318447Y-30851876D01*
X53301792Y-30838208D01*
X53288124Y-30821553D01*
X53277971Y-30802557D01*
X53271716Y-30781938D01*
X53269000Y-30754360D01*
X53269000Y-30245640D01*
X53271716Y-30218062D01*
X53277971Y-30197443D01*
X53288124Y-30178447D01*
X53301792Y-30161792D01*
X53318447Y-30148124D01*
X53337443Y-30137971D01*
X53358062Y-30131716D01*
X53385640Y-30129000D01*
X53844360Y-30129000D01*
X53871938Y-30131716D01*
X53871938Y-30131716D01*
G37*
G36*
X52826000Y-30791000D02*
G01*
X51974000Y-30791000D01*
X51974000Y-29915999D01*
X51971598Y-29891613D01*
X51964485Y-29868164D01*
X51952934Y-29846553D01*
X51937389Y-29827611D01*
X51918447Y-29812066D01*
X51896836Y-29800515D01*
X51873387Y-29793402D01*
X51849001Y-29791000D01*
X51800999Y-29791000D01*
X51776613Y-29793402D01*
X51753164Y-29800515D01*
X51731553Y-29812066D01*
X51712611Y-29827611D01*
X51697066Y-29846553D01*
X51685515Y-29868164D01*
X51678402Y-29891613D01*
X51676000Y-29915999D01*
X51676000Y-30791000D01*
X50824000Y-30791000D01*
X50824000Y-29409000D01*
X52826000Y-29409000D01*
X52826000Y-30791000D01*
X52826000Y-30791000D01*
G37*
G36*
X60681938Y-29741716D02*
G01*
X60702557Y-29747971D01*
X60721553Y-29758124D01*
X60738208Y-29771792D01*
X60751876Y-29788447D01*
X60762029Y-29807443D01*
X60768284Y-29828062D01*
X60771000Y-29855640D01*
X60771000Y-30314360D01*
X60768284Y-30341938D01*
X60762029Y-30362557D01*
X60751876Y-30381553D01*
X60738208Y-30398208D01*
X60721553Y-30411876D01*
X60702557Y-30422029D01*
X60681938Y-30428284D01*
X60654360Y-30431000D01*
X60145640Y-30431000D01*
X60118062Y-30428284D01*
X60097443Y-30422029D01*
X60078447Y-30411876D01*
X60061792Y-30398208D01*
X60048124Y-30381553D01*
X60037971Y-30362557D01*
X60031716Y-30341938D01*
X60029000Y-30314360D01*
X60029000Y-29855640D01*
X60031716Y-29828062D01*
X60037971Y-29807443D01*
X60048124Y-29788447D01*
X60061792Y-29771792D01*
X60078447Y-29758124D01*
X60097443Y-29747971D01*
X60118062Y-29741716D01*
X60145640Y-29739000D01*
X60654360Y-29739000D01*
X60681938Y-29741716D01*
X60681938Y-29741716D01*
G37*
G36*
X65081938Y-29741716D02*
G01*
X65102557Y-29747971D01*
X65121553Y-29758124D01*
X65138208Y-29771792D01*
X65151876Y-29788447D01*
X65162029Y-29807443D01*
X65168284Y-29828062D01*
X65171000Y-29855640D01*
X65171000Y-30314360D01*
X65168284Y-30341938D01*
X65162029Y-30362557D01*
X65151876Y-30381553D01*
X65138208Y-30398208D01*
X65121553Y-30411876D01*
X65102557Y-30422029D01*
X65081938Y-30428284D01*
X65054360Y-30431000D01*
X64545640Y-30431000D01*
X64518062Y-30428284D01*
X64497443Y-30422029D01*
X64478447Y-30411876D01*
X64461792Y-30398208D01*
X64448124Y-30381553D01*
X64437971Y-30362557D01*
X64431716Y-30341938D01*
X64429000Y-30314360D01*
X64429000Y-29855640D01*
X64431716Y-29828062D01*
X64437971Y-29807443D01*
X64448124Y-29788447D01*
X64461792Y-29771792D01*
X64478447Y-29758124D01*
X64497443Y-29747971D01*
X64518062Y-29741716D01*
X64545640Y-29739000D01*
X65054360Y-29739000D01*
X65081938Y-29741716D01*
X65081938Y-29741716D01*
G37*
G36*
X63981938Y-29741716D02*
G01*
X64002557Y-29747971D01*
X64021553Y-29758124D01*
X64038208Y-29771792D01*
X64051876Y-29788447D01*
X64062029Y-29807443D01*
X64068284Y-29828062D01*
X64071000Y-29855640D01*
X64071000Y-30314360D01*
X64068284Y-30341938D01*
X64062029Y-30362557D01*
X64051876Y-30381553D01*
X64038208Y-30398208D01*
X64021553Y-30411876D01*
X64002557Y-30422029D01*
X63981938Y-30428284D01*
X63954360Y-30431000D01*
X63445640Y-30431000D01*
X63418062Y-30428284D01*
X63397443Y-30422029D01*
X63378447Y-30411876D01*
X63361792Y-30398208D01*
X63348124Y-30381553D01*
X63337971Y-30362557D01*
X63331716Y-30341938D01*
X63329000Y-30314360D01*
X63329000Y-29855640D01*
X63331716Y-29828062D01*
X63337971Y-29807443D01*
X63348124Y-29788447D01*
X63361792Y-29771792D01*
X63378447Y-29758124D01*
X63397443Y-29747971D01*
X63418062Y-29741716D01*
X63445640Y-29739000D01*
X63954360Y-29739000D01*
X63981938Y-29741716D01*
X63981938Y-29741716D01*
G37*
G36*
X62881938Y-29741716D02*
G01*
X62902557Y-29747971D01*
X62921553Y-29758124D01*
X62938208Y-29771792D01*
X62951876Y-29788447D01*
X62962029Y-29807443D01*
X62968284Y-29828062D01*
X62971000Y-29855640D01*
X62971000Y-30314360D01*
X62968284Y-30341938D01*
X62962029Y-30362557D01*
X62951876Y-30381553D01*
X62938208Y-30398208D01*
X62921553Y-30411876D01*
X62902557Y-30422029D01*
X62881938Y-30428284D01*
X62854360Y-30431000D01*
X62345640Y-30431000D01*
X62318062Y-30428284D01*
X62297443Y-30422029D01*
X62278447Y-30411876D01*
X62261792Y-30398208D01*
X62248124Y-30381553D01*
X62237971Y-30362557D01*
X62231716Y-30341938D01*
X62229000Y-30314360D01*
X62229000Y-29855640D01*
X62231716Y-29828062D01*
X62237971Y-29807443D01*
X62248124Y-29788447D01*
X62261792Y-29771792D01*
X62278447Y-29758124D01*
X62297443Y-29747971D01*
X62318062Y-29741716D01*
X62345640Y-29739000D01*
X62854360Y-29739000D01*
X62881938Y-29741716D01*
X62881938Y-29741716D01*
G37*
G36*
X61781938Y-29741716D02*
G01*
X61802557Y-29747971D01*
X61821553Y-29758124D01*
X61838208Y-29771792D01*
X61851876Y-29788447D01*
X61862029Y-29807443D01*
X61868284Y-29828062D01*
X61871000Y-29855640D01*
X61871000Y-30314360D01*
X61868284Y-30341938D01*
X61862029Y-30362557D01*
X61851876Y-30381553D01*
X61838208Y-30398208D01*
X61821553Y-30411876D01*
X61802557Y-30422029D01*
X61781938Y-30428284D01*
X61754360Y-30431000D01*
X61245640Y-30431000D01*
X61218062Y-30428284D01*
X61197443Y-30422029D01*
X61178447Y-30411876D01*
X61161792Y-30398208D01*
X61148124Y-30381553D01*
X61137971Y-30362557D01*
X61131716Y-30341938D01*
X61129000Y-30314360D01*
X61129000Y-29855640D01*
X61131716Y-29828062D01*
X61137971Y-29807443D01*
X61148124Y-29788447D01*
X61161792Y-29771792D01*
X61178447Y-29758124D01*
X61197443Y-29747971D01*
X61218062Y-29741716D01*
X61245640Y-29739000D01*
X61754360Y-29739000D01*
X61781938Y-29741716D01*
X61781938Y-29741716D01*
G37*
G36*
X60681938Y-28771716D02*
G01*
X60702557Y-28777971D01*
X60721553Y-28788124D01*
X60738208Y-28801792D01*
X60751876Y-28818447D01*
X60762029Y-28837443D01*
X60768284Y-28858062D01*
X60771000Y-28885640D01*
X60771000Y-29344360D01*
X60768284Y-29371938D01*
X60762029Y-29392557D01*
X60751876Y-29411553D01*
X60738208Y-29428208D01*
X60721553Y-29441876D01*
X60702557Y-29452029D01*
X60681938Y-29458284D01*
X60654360Y-29461000D01*
X60145640Y-29461000D01*
X60118062Y-29458284D01*
X60097443Y-29452029D01*
X60078447Y-29441876D01*
X60061792Y-29428208D01*
X60048124Y-29411553D01*
X60037971Y-29392557D01*
X60031716Y-29371938D01*
X60029000Y-29344360D01*
X60029000Y-28885640D01*
X60031716Y-28858062D01*
X60037971Y-28837443D01*
X60048124Y-28818447D01*
X60061792Y-28801792D01*
X60078447Y-28788124D01*
X60097443Y-28777971D01*
X60118062Y-28771716D01*
X60145640Y-28769000D01*
X60654360Y-28769000D01*
X60681938Y-28771716D01*
X60681938Y-28771716D01*
G37*
G36*
X63981938Y-28771716D02*
G01*
X64002557Y-28777971D01*
X64021553Y-28788124D01*
X64038208Y-28801792D01*
X64051876Y-28818447D01*
X64062029Y-28837443D01*
X64068284Y-28858062D01*
X64071000Y-28885640D01*
X64071000Y-29344360D01*
X64068284Y-29371938D01*
X64062029Y-29392557D01*
X64051876Y-29411553D01*
X64038208Y-29428208D01*
X64021553Y-29441876D01*
X64002557Y-29452029D01*
X63981938Y-29458284D01*
X63954360Y-29461000D01*
X63445640Y-29461000D01*
X63418062Y-29458284D01*
X63397443Y-29452029D01*
X63378447Y-29441876D01*
X63361792Y-29428208D01*
X63348124Y-29411553D01*
X63337971Y-29392557D01*
X63331716Y-29371938D01*
X63329000Y-29344360D01*
X63329000Y-28885640D01*
X63331716Y-28858062D01*
X63337971Y-28837443D01*
X63348124Y-28818447D01*
X63361792Y-28801792D01*
X63378447Y-28788124D01*
X63397443Y-28777971D01*
X63418062Y-28771716D01*
X63445640Y-28769000D01*
X63954360Y-28769000D01*
X63981938Y-28771716D01*
X63981938Y-28771716D01*
G37*
G36*
X62881938Y-28771716D02*
G01*
X62902557Y-28777971D01*
X62921553Y-28788124D01*
X62938208Y-28801792D01*
X62951876Y-28818447D01*
X62962029Y-28837443D01*
X62968284Y-28858062D01*
X62971000Y-28885640D01*
X62971000Y-29344360D01*
X62968284Y-29371938D01*
X62962029Y-29392557D01*
X62951876Y-29411553D01*
X62938208Y-29428208D01*
X62921553Y-29441876D01*
X62902557Y-29452029D01*
X62881938Y-29458284D01*
X62854360Y-29461000D01*
X62345640Y-29461000D01*
X62318062Y-29458284D01*
X62297443Y-29452029D01*
X62278447Y-29441876D01*
X62261792Y-29428208D01*
X62248124Y-29411553D01*
X62237971Y-29392557D01*
X62231716Y-29371938D01*
X62229000Y-29344360D01*
X62229000Y-28885640D01*
X62231716Y-28858062D01*
X62237971Y-28837443D01*
X62248124Y-28818447D01*
X62261792Y-28801792D01*
X62278447Y-28788124D01*
X62297443Y-28777971D01*
X62318062Y-28771716D01*
X62345640Y-28769000D01*
X62854360Y-28769000D01*
X62881938Y-28771716D01*
X62881938Y-28771716D01*
G37*
G36*
X65081938Y-28771716D02*
G01*
X65102557Y-28777971D01*
X65121553Y-28788124D01*
X65138208Y-28801792D01*
X65151876Y-28818447D01*
X65162029Y-28837443D01*
X65168284Y-28858062D01*
X65171000Y-28885640D01*
X65171000Y-29344360D01*
X65168284Y-29371938D01*
X65162029Y-29392557D01*
X65151876Y-29411553D01*
X65138208Y-29428208D01*
X65121553Y-29441876D01*
X65102557Y-29452029D01*
X65081938Y-29458284D01*
X65054360Y-29461000D01*
X64545640Y-29461000D01*
X64518062Y-29458284D01*
X64497443Y-29452029D01*
X64478447Y-29441876D01*
X64461792Y-29428208D01*
X64448124Y-29411553D01*
X64437971Y-29392557D01*
X64431716Y-29371938D01*
X64429000Y-29344360D01*
X64429000Y-28885640D01*
X64431716Y-28858062D01*
X64437971Y-28837443D01*
X64448124Y-28818447D01*
X64461792Y-28801792D01*
X64478447Y-28788124D01*
X64497443Y-28777971D01*
X64518062Y-28771716D01*
X64545640Y-28769000D01*
X65054360Y-28769000D01*
X65081938Y-28771716D01*
X65081938Y-28771716D01*
G37*
G36*
X61781938Y-28771716D02*
G01*
X61802557Y-28777971D01*
X61821553Y-28788124D01*
X61838208Y-28801792D01*
X61851876Y-28818447D01*
X61862029Y-28837443D01*
X61868284Y-28858062D01*
X61871000Y-28885640D01*
X61871000Y-29344360D01*
X61868284Y-29371938D01*
X61862029Y-29392557D01*
X61851876Y-29411553D01*
X61838208Y-29428208D01*
X61821553Y-29441876D01*
X61802557Y-29452029D01*
X61781938Y-29458284D01*
X61754360Y-29461000D01*
X61245640Y-29461000D01*
X61218062Y-29458284D01*
X61197443Y-29452029D01*
X61178447Y-29441876D01*
X61161792Y-29428208D01*
X61148124Y-29411553D01*
X61137971Y-29392557D01*
X61131716Y-29371938D01*
X61129000Y-29344360D01*
X61129000Y-28885640D01*
X61131716Y-28858062D01*
X61137971Y-28837443D01*
X61148124Y-28818447D01*
X61161792Y-28801792D01*
X61178447Y-28788124D01*
X61197443Y-28777971D01*
X61218062Y-28771716D01*
X61245640Y-28769000D01*
X61754360Y-28769000D01*
X61781938Y-28771716D01*
X61781938Y-28771716D01*
G37*
G36*
X51711766Y-26901899D02*
G01*
X51843888Y-26956626D01*
X51843890Y-26956627D01*
X51962798Y-27036079D01*
X52063921Y-27137202D01*
X52143373Y-27256110D01*
X52143374Y-27256112D01*
X52198101Y-27388234D01*
X52226000Y-27528494D01*
X52226000Y-27671506D01*
X52198101Y-27811766D01*
X52165281Y-27891000D01*
X52143373Y-27943890D01*
X52063921Y-28062798D01*
X51962798Y-28163921D01*
X51843890Y-28243373D01*
X51843889Y-28243374D01*
X51843888Y-28243374D01*
X51711766Y-28298101D01*
X51571506Y-28326000D01*
X51428494Y-28326000D01*
X51288234Y-28298101D01*
X51156112Y-28243374D01*
X51156111Y-28243374D01*
X51156110Y-28243373D01*
X51037202Y-28163921D01*
X50936079Y-28062798D01*
X50856627Y-27943890D01*
X50834719Y-27891000D01*
X50801899Y-27811766D01*
X50774000Y-27671506D01*
X50774000Y-27528494D01*
X50801899Y-27388234D01*
X50856626Y-27256112D01*
X50856627Y-27256110D01*
X50936079Y-27137202D01*
X51037202Y-27036079D01*
X51156110Y-26956627D01*
X51156112Y-26956626D01*
X51288234Y-26901899D01*
X51428494Y-26874000D01*
X51571506Y-26874000D01*
X51711766Y-26901899D01*
X51711766Y-26901899D01*
G37*
G36*
X60455355Y-23300083D02*
G01*
X60460029Y-23301501D01*
X60464330Y-23303800D01*
X60470702Y-23309029D01*
X60491076Y-23322643D01*
X60513715Y-23332020D01*
X60537749Y-23336800D01*
X60562253Y-23336800D01*
X60586286Y-23332019D01*
X60608925Y-23322642D01*
X60629298Y-23309029D01*
X60635670Y-23303800D01*
X60639971Y-23301501D01*
X60644645Y-23300083D01*
X60655641Y-23299000D01*
X60944359Y-23299000D01*
X60955355Y-23300083D01*
X60960029Y-23301501D01*
X60964330Y-23303800D01*
X60970702Y-23309029D01*
X60991076Y-23322643D01*
X61013715Y-23332020D01*
X61037749Y-23336800D01*
X61062253Y-23336800D01*
X61086286Y-23332019D01*
X61108925Y-23322642D01*
X61129298Y-23309029D01*
X61135670Y-23303800D01*
X61139971Y-23301501D01*
X61144645Y-23300083D01*
X61155641Y-23299000D01*
X61444359Y-23299000D01*
X61455355Y-23300083D01*
X61460029Y-23301501D01*
X61464330Y-23303800D01*
X61470702Y-23309029D01*
X61491076Y-23322643D01*
X61513715Y-23332020D01*
X61537749Y-23336800D01*
X61562253Y-23336800D01*
X61586286Y-23332019D01*
X61608925Y-23322642D01*
X61629298Y-23309029D01*
X61635670Y-23303800D01*
X61639971Y-23301501D01*
X61644645Y-23300083D01*
X61655641Y-23299000D01*
X61944359Y-23299000D01*
X61955355Y-23300083D01*
X61960029Y-23301501D01*
X61964330Y-23303800D01*
X61970702Y-23309029D01*
X61991076Y-23322643D01*
X62013715Y-23332020D01*
X62037749Y-23336800D01*
X62062253Y-23336800D01*
X62086286Y-23332019D01*
X62108925Y-23322642D01*
X62129298Y-23309029D01*
X62135670Y-23303800D01*
X62139971Y-23301501D01*
X62144645Y-23300083D01*
X62155641Y-23299000D01*
X62444359Y-23299000D01*
X62455355Y-23300083D01*
X62460029Y-23301501D01*
X62464331Y-23303800D01*
X62468104Y-23306896D01*
X62471200Y-23310669D01*
X62473499Y-23314971D01*
X62474917Y-23319645D01*
X62476000Y-23330641D01*
X62476000Y-24194359D01*
X62474917Y-24205355D01*
X62473499Y-24210029D01*
X62471202Y-24214327D01*
X62464560Y-24222420D01*
X62450946Y-24242795D01*
X62441569Y-24265433D01*
X62436788Y-24289467D01*
X62436788Y-24313971D01*
X62441568Y-24338004D01*
X62450945Y-24360643D01*
X62464559Y-24381018D01*
X62481885Y-24398345D01*
X62502259Y-24411958D01*
X62529464Y-24426500D01*
X62553651Y-24446349D01*
X62573500Y-24470536D01*
X62588042Y-24497741D01*
X62601656Y-24518115D01*
X62618983Y-24535442D01*
X62639358Y-24549055D01*
X62661997Y-24558432D01*
X62686030Y-24563212D01*
X62710534Y-24563212D01*
X62734568Y-24558431D01*
X62757206Y-24549053D01*
X62777580Y-24535440D01*
X62785673Y-24528798D01*
X62789971Y-24526501D01*
X62794645Y-24525083D01*
X62805641Y-24524000D01*
X63669359Y-24524000D01*
X63680355Y-24525083D01*
X63685029Y-24526501D01*
X63689331Y-24528800D01*
X63693104Y-24531896D01*
X63696200Y-24535669D01*
X63698499Y-24539971D01*
X63699917Y-24544645D01*
X63701000Y-24555641D01*
X63701000Y-24844359D01*
X63699917Y-24855355D01*
X63698499Y-24860029D01*
X63696200Y-24864330D01*
X63690971Y-24870702D01*
X63677357Y-24891076D01*
X63667980Y-24913715D01*
X63663200Y-24937749D01*
X63663200Y-24962253D01*
X63667981Y-24986286D01*
X63677358Y-25008925D01*
X63690971Y-25029298D01*
X63696200Y-25035670D01*
X63698499Y-25039971D01*
X63699917Y-25044645D01*
X63701000Y-25055641D01*
X63701000Y-25344359D01*
X63699917Y-25355355D01*
X63698499Y-25360029D01*
X63696200Y-25364330D01*
X63690971Y-25370702D01*
X63677357Y-25391076D01*
X63667980Y-25413715D01*
X63663200Y-25437749D01*
X63663200Y-25462253D01*
X63667981Y-25486286D01*
X63677358Y-25508925D01*
X63690971Y-25529298D01*
X63696200Y-25535670D01*
X63698499Y-25539971D01*
X63699917Y-25544645D01*
X63701000Y-25555641D01*
X63701000Y-25844359D01*
X63699917Y-25855355D01*
X63698499Y-25860029D01*
X63696200Y-25864330D01*
X63690971Y-25870702D01*
X63677357Y-25891076D01*
X63667980Y-25913715D01*
X63663200Y-25937749D01*
X63663200Y-25962253D01*
X63667981Y-25986286D01*
X63677358Y-26008925D01*
X63690971Y-26029298D01*
X63696200Y-26035670D01*
X63698499Y-26039971D01*
X63699917Y-26044645D01*
X63701000Y-26055641D01*
X63701000Y-26344359D01*
X63699917Y-26355355D01*
X63698499Y-26360029D01*
X63696200Y-26364330D01*
X63690971Y-26370702D01*
X63677357Y-26391076D01*
X63667980Y-26413715D01*
X63663200Y-26437749D01*
X63663200Y-26462253D01*
X63667981Y-26486286D01*
X63677358Y-26508925D01*
X63690971Y-26529298D01*
X63696200Y-26535670D01*
X63698499Y-26539971D01*
X63699917Y-26544645D01*
X63701000Y-26555641D01*
X63701000Y-26844359D01*
X63699917Y-26855355D01*
X63698499Y-26860029D01*
X63696200Y-26864331D01*
X63693104Y-26868104D01*
X63689331Y-26871200D01*
X63685029Y-26873499D01*
X63680355Y-26874917D01*
X63669359Y-26876000D01*
X62805641Y-26876000D01*
X62794645Y-26874917D01*
X62789971Y-26873499D01*
X62785673Y-26871202D01*
X62777580Y-26864560D01*
X62757205Y-26850946D01*
X62734567Y-26841569D01*
X62710533Y-26836788D01*
X62686029Y-26836788D01*
X62661996Y-26841568D01*
X62639357Y-26850945D01*
X62618982Y-26864559D01*
X62601655Y-26881885D01*
X62588042Y-26902259D01*
X62573500Y-26929464D01*
X62553651Y-26953651D01*
X62529464Y-26973500D01*
X62502259Y-26988042D01*
X62481885Y-27001656D01*
X62464558Y-27018983D01*
X62450945Y-27039358D01*
X62441568Y-27061997D01*
X62436788Y-27086030D01*
X62436788Y-27110534D01*
X62441569Y-27134568D01*
X62450947Y-27157206D01*
X62464560Y-27177580D01*
X62471202Y-27185673D01*
X62473499Y-27189971D01*
X62474917Y-27194645D01*
X62476000Y-27205641D01*
X62476000Y-28069359D01*
X62474917Y-28080355D01*
X62473499Y-28085029D01*
X62471200Y-28089331D01*
X62468104Y-28093104D01*
X62464331Y-28096200D01*
X62460029Y-28098499D01*
X62455355Y-28099917D01*
X62444359Y-28101000D01*
X62155641Y-28101000D01*
X62144645Y-28099917D01*
X62139971Y-28098499D01*
X62135670Y-28096200D01*
X62129298Y-28090971D01*
X62108924Y-28077357D01*
X62086285Y-28067980D01*
X62062251Y-28063200D01*
X62037747Y-28063200D01*
X62013714Y-28067981D01*
X61991075Y-28077358D01*
X61970702Y-28090971D01*
X61964330Y-28096200D01*
X61960029Y-28098499D01*
X61955355Y-28099917D01*
X61944359Y-28101000D01*
X61655641Y-28101000D01*
X61644645Y-28099917D01*
X61639971Y-28098499D01*
X61635670Y-28096200D01*
X61629298Y-28090971D01*
X61608924Y-28077357D01*
X61586285Y-28067980D01*
X61562251Y-28063200D01*
X61537747Y-28063200D01*
X61513714Y-28067981D01*
X61491075Y-28077358D01*
X61470702Y-28090971D01*
X61464330Y-28096200D01*
X61460029Y-28098499D01*
X61455355Y-28099917D01*
X61444359Y-28101000D01*
X61155641Y-28101000D01*
X61144645Y-28099917D01*
X61139971Y-28098499D01*
X61135670Y-28096200D01*
X61129298Y-28090971D01*
X61108924Y-28077357D01*
X61086285Y-28067980D01*
X61062251Y-28063200D01*
X61037747Y-28063200D01*
X61013714Y-28067981D01*
X60991075Y-28077358D01*
X60970702Y-28090971D01*
X60964330Y-28096200D01*
X60960029Y-28098499D01*
X60955355Y-28099917D01*
X60944359Y-28101000D01*
X60655641Y-28101000D01*
X60644645Y-28099917D01*
X60639971Y-28098499D01*
X60635670Y-28096200D01*
X60629298Y-28090971D01*
X60608924Y-28077357D01*
X60586285Y-28067980D01*
X60562251Y-28063200D01*
X60537747Y-28063200D01*
X60513714Y-28067981D01*
X60491075Y-28077358D01*
X60470702Y-28090971D01*
X60464330Y-28096200D01*
X60460029Y-28098499D01*
X60455355Y-28099917D01*
X60444359Y-28101000D01*
X60155641Y-28101000D01*
X60144645Y-28099917D01*
X60139971Y-28098499D01*
X60135669Y-28096200D01*
X60131896Y-28093104D01*
X60128800Y-28089331D01*
X60126501Y-28085029D01*
X60125083Y-28080355D01*
X60124000Y-28069359D01*
X60124000Y-27205641D01*
X60125083Y-27194645D01*
X60126501Y-27189971D01*
X60128798Y-27185673D01*
X60135440Y-27177580D01*
X60149054Y-27157205D01*
X60158431Y-27134567D01*
X60163212Y-27110533D01*
X60163212Y-27086029D01*
X60158432Y-27061996D01*
X60149055Y-27039357D01*
X60135441Y-27018982D01*
X60118115Y-27001655D01*
X60097741Y-26988042D01*
X60070536Y-26973500D01*
X60046349Y-26953651D01*
X60026500Y-26929464D01*
X60011958Y-26902259D01*
X59998344Y-26881885D01*
X59981017Y-26864558D01*
X59960642Y-26850945D01*
X59938003Y-26841568D01*
X59913970Y-26836788D01*
X59889466Y-26836788D01*
X59865432Y-26841569D01*
X59842794Y-26850947D01*
X59822420Y-26864560D01*
X59814327Y-26871202D01*
X59810029Y-26873499D01*
X59805355Y-26874917D01*
X59794359Y-26876000D01*
X58930641Y-26876000D01*
X58919645Y-26874917D01*
X58914971Y-26873499D01*
X58910669Y-26871200D01*
X58906896Y-26868104D01*
X58903800Y-26864331D01*
X58901501Y-26860029D01*
X58900083Y-26855355D01*
X58899000Y-26844359D01*
X58899000Y-26555641D01*
X58900083Y-26544645D01*
X58901501Y-26539971D01*
X58903800Y-26535670D01*
X58909029Y-26529298D01*
X58922643Y-26508924D01*
X58932020Y-26486285D01*
X58936800Y-26462251D01*
X58936800Y-26437747D01*
X58932019Y-26413714D01*
X58922642Y-26391075D01*
X58909029Y-26370702D01*
X58903800Y-26364330D01*
X58901501Y-26360029D01*
X58900083Y-26355355D01*
X58899000Y-26344359D01*
X58899000Y-26055641D01*
X58900083Y-26044645D01*
X58901501Y-26039971D01*
X58903800Y-26035670D01*
X58909029Y-26029298D01*
X58922643Y-26008924D01*
X58932020Y-25986285D01*
X58936800Y-25962251D01*
X58936800Y-25937747D01*
X58932019Y-25913714D01*
X58922642Y-25891075D01*
X58909029Y-25870702D01*
X58903800Y-25864330D01*
X58901501Y-25860029D01*
X58900083Y-25855355D01*
X58899000Y-25844359D01*
X58899000Y-25555641D01*
X58900083Y-25544645D01*
X58901501Y-25539971D01*
X58903800Y-25535670D01*
X58909029Y-25529298D01*
X58922643Y-25508924D01*
X58932020Y-25486285D01*
X58936800Y-25462251D01*
X58936800Y-25437747D01*
X58932019Y-25413714D01*
X58922642Y-25391075D01*
X58909029Y-25370702D01*
X58903800Y-25364330D01*
X58901501Y-25360029D01*
X58900083Y-25355355D01*
X58899000Y-25344359D01*
X58899000Y-25055641D01*
X58900083Y-25044645D01*
X58901501Y-25039971D01*
X58903800Y-25035670D01*
X58909029Y-25029298D01*
X58922643Y-25008924D01*
X58932020Y-24986285D01*
X58936800Y-24962251D01*
X58936800Y-24937747D01*
X58932019Y-24913714D01*
X58922642Y-24891075D01*
X58909029Y-24870702D01*
X58903800Y-24864330D01*
X58901501Y-24860029D01*
X58900083Y-24855355D01*
X58899000Y-24844359D01*
X58899000Y-24555641D01*
X58900083Y-24544645D01*
X58901501Y-24539971D01*
X58903800Y-24535669D01*
X58906896Y-24531896D01*
X58910669Y-24528800D01*
X58914971Y-24526501D01*
X58919645Y-24525083D01*
X58930641Y-24524000D01*
X59794359Y-24524000D01*
X59805355Y-24525083D01*
X59810029Y-24526501D01*
X59814327Y-24528798D01*
X59822420Y-24535440D01*
X59842795Y-24549054D01*
X59865433Y-24558431D01*
X59889467Y-24563212D01*
X59913971Y-24563212D01*
X59938004Y-24558432D01*
X59960643Y-24549055D01*
X59981018Y-24535441D01*
X59998345Y-24518115D01*
X60011958Y-24497741D01*
X60026500Y-24470536D01*
X60046349Y-24446349D01*
X60070536Y-24426500D01*
X60097741Y-24411958D01*
X60118115Y-24398344D01*
X60135442Y-24381017D01*
X60149055Y-24360642D01*
X60158432Y-24338003D01*
X60163212Y-24313970D01*
X60163212Y-24289466D01*
X60158431Y-24265432D01*
X60149053Y-24242794D01*
X60135440Y-24222420D01*
X60128798Y-24214327D01*
X60126501Y-24210029D01*
X60125083Y-24205355D01*
X60124000Y-24194359D01*
X60124000Y-23330641D01*
X60125083Y-23319645D01*
X60126501Y-23314971D01*
X60128800Y-23310669D01*
X60131896Y-23306896D01*
X60135669Y-23303800D01*
X60139971Y-23301501D01*
X60144645Y-23300083D01*
X60155641Y-23299000D01*
X60444359Y-23299000D01*
X60455355Y-23300083D01*
X60455355Y-23300083D01*
G37*
G36*
X66201000Y-27801000D02*
G01*
X64199000Y-27801000D01*
X64199000Y-26799000D01*
X66201000Y-26799000D01*
X66201000Y-27801000D01*
X66201000Y-27801000D01*
G37*
G36*
X67381938Y-26691716D02*
G01*
X67402557Y-26697971D01*
X67421553Y-26708124D01*
X67438208Y-26721792D01*
X67451876Y-26738447D01*
X67462029Y-26757443D01*
X67468284Y-26778062D01*
X67471000Y-26805640D01*
X67471000Y-27264360D01*
X67468284Y-27291938D01*
X67462029Y-27312557D01*
X67451876Y-27331553D01*
X67438208Y-27348208D01*
X67421553Y-27361876D01*
X67402557Y-27372029D01*
X67381938Y-27378284D01*
X67354360Y-27381000D01*
X66845640Y-27381000D01*
X66818062Y-27378284D01*
X66797443Y-27372029D01*
X66778447Y-27361876D01*
X66761792Y-27348208D01*
X66748124Y-27331553D01*
X66737971Y-27312557D01*
X66731716Y-27291938D01*
X66729000Y-27264360D01*
X66729000Y-26805640D01*
X66731716Y-26778062D01*
X66737971Y-26757443D01*
X66748124Y-26738447D01*
X66761792Y-26721792D01*
X66778447Y-26708124D01*
X66797443Y-26697971D01*
X66818062Y-26691716D01*
X66845640Y-26689000D01*
X67354360Y-26689000D01*
X67381938Y-26691716D01*
X67381938Y-26691716D01*
G37*
G36*
X68481938Y-26691716D02*
G01*
X68502557Y-26697971D01*
X68521553Y-26708124D01*
X68538208Y-26721792D01*
X68551876Y-26738447D01*
X68562029Y-26757443D01*
X68568284Y-26778062D01*
X68571000Y-26805640D01*
X68571000Y-27264360D01*
X68568284Y-27291938D01*
X68562029Y-27312557D01*
X68551876Y-27331553D01*
X68538208Y-27348208D01*
X68521553Y-27361876D01*
X68502557Y-27372029D01*
X68481938Y-27378284D01*
X68454360Y-27381000D01*
X67945640Y-27381000D01*
X67918062Y-27378284D01*
X67897443Y-27372029D01*
X67878447Y-27361876D01*
X67861792Y-27348208D01*
X67848124Y-27331553D01*
X67837971Y-27312557D01*
X67831716Y-27291938D01*
X67829000Y-27264360D01*
X67829000Y-26805640D01*
X67831716Y-26778062D01*
X67837971Y-26757443D01*
X67848124Y-26738447D01*
X67861792Y-26721792D01*
X67878447Y-26708124D01*
X67897443Y-26697971D01*
X67918062Y-26691716D01*
X67945640Y-26689000D01*
X68454360Y-26689000D01*
X68481938Y-26691716D01*
X68481938Y-26691716D01*
G37*
G36*
X68481938Y-25721716D02*
G01*
X68502557Y-25727971D01*
X68521553Y-25738124D01*
X68538208Y-25751792D01*
X68551876Y-25768447D01*
X68562029Y-25787443D01*
X68568284Y-25808062D01*
X68571000Y-25835640D01*
X68571000Y-26294360D01*
X68568284Y-26321938D01*
X68562029Y-26342557D01*
X68551876Y-26361553D01*
X68538208Y-26378208D01*
X68521553Y-26391876D01*
X68502557Y-26402029D01*
X68481938Y-26408284D01*
X68454360Y-26411000D01*
X67945640Y-26411000D01*
X67918062Y-26408284D01*
X67897443Y-26402029D01*
X67878447Y-26391876D01*
X67861792Y-26378208D01*
X67848124Y-26361553D01*
X67837971Y-26342557D01*
X67831716Y-26321938D01*
X67829000Y-26294360D01*
X67829000Y-25835640D01*
X67831716Y-25808062D01*
X67837971Y-25787443D01*
X67848124Y-25768447D01*
X67861792Y-25751792D01*
X67878447Y-25738124D01*
X67897443Y-25727971D01*
X67918062Y-25721716D01*
X67945640Y-25719000D01*
X68454360Y-25719000D01*
X68481938Y-25721716D01*
X68481938Y-25721716D01*
G37*
G36*
X67381938Y-25721716D02*
G01*
X67402557Y-25727971D01*
X67421553Y-25738124D01*
X67438208Y-25751792D01*
X67451876Y-25768447D01*
X67462029Y-25787443D01*
X67468284Y-25808062D01*
X67471000Y-25835640D01*
X67471000Y-26294360D01*
X67468284Y-26321938D01*
X67462029Y-26342557D01*
X67451876Y-26361553D01*
X67438208Y-26378208D01*
X67421553Y-26391876D01*
X67402557Y-26402029D01*
X67381938Y-26408284D01*
X67354360Y-26411000D01*
X66845640Y-26411000D01*
X66818062Y-26408284D01*
X66797443Y-26402029D01*
X66778447Y-26391876D01*
X66761792Y-26378208D01*
X66748124Y-26361553D01*
X66737971Y-26342557D01*
X66731716Y-26321938D01*
X66729000Y-26294360D01*
X66729000Y-25835640D01*
X66731716Y-25808062D01*
X66737971Y-25787443D01*
X66748124Y-25768447D01*
X66761792Y-25751792D01*
X66778447Y-25738124D01*
X66797443Y-25727971D01*
X66818062Y-25721716D01*
X66845640Y-25719000D01*
X67354360Y-25719000D01*
X67381938Y-25721716D01*
X67381938Y-25721716D01*
G37*
G36*
X66201000Y-26401000D02*
G01*
X64199000Y-26401000D01*
X64199000Y-25399000D01*
X66201000Y-25399000D01*
X66201000Y-26401000D01*
X66201000Y-26401000D01*
G37*
G36*
X51711766Y-23901899D02*
G01*
X51843888Y-23956626D01*
X51843890Y-23956627D01*
X51962798Y-24036079D01*
X52063921Y-24137202D01*
X52143373Y-24256110D01*
X52143374Y-24256112D01*
X52198101Y-24388234D01*
X52226000Y-24528494D01*
X52226000Y-24671506D01*
X52198101Y-24811766D01*
X52145917Y-24937749D01*
X52143373Y-24943890D01*
X52063921Y-25062798D01*
X51962798Y-25163921D01*
X51843890Y-25243373D01*
X51843889Y-25243374D01*
X51843888Y-25243374D01*
X51711766Y-25298101D01*
X51571506Y-25326000D01*
X51428494Y-25326000D01*
X51288234Y-25298101D01*
X51156112Y-25243374D01*
X51156111Y-25243374D01*
X51156110Y-25243373D01*
X51037202Y-25163921D01*
X50936079Y-25062798D01*
X50856627Y-24943890D01*
X50854083Y-24937749D01*
X50801899Y-24811766D01*
X50774000Y-24671506D01*
X50774000Y-24528494D01*
X50801899Y-24388234D01*
X50856626Y-24256112D01*
X50856627Y-24256110D01*
X50936079Y-24137202D01*
X51037202Y-24036079D01*
X51156110Y-23956627D01*
X51156112Y-23956626D01*
X51288234Y-23901899D01*
X51428494Y-23874000D01*
X51571506Y-23874000D01*
X51711766Y-23901899D01*
X51711766Y-23901899D01*
G37*
G36*
X64881938Y-24241716D02*
G01*
X64902557Y-24247971D01*
X64921553Y-24258124D01*
X64938208Y-24271792D01*
X64951876Y-24288447D01*
X64962029Y-24307443D01*
X64968284Y-24328062D01*
X64971000Y-24355640D01*
X64971000Y-24814360D01*
X64968284Y-24841938D01*
X64962029Y-24862557D01*
X64951876Y-24881553D01*
X64938208Y-24898208D01*
X64921553Y-24911876D01*
X64902557Y-24922029D01*
X64881938Y-24928284D01*
X64854360Y-24931000D01*
X64345640Y-24931000D01*
X64318062Y-24928284D01*
X64297443Y-24922029D01*
X64278447Y-24911876D01*
X64261792Y-24898208D01*
X64248124Y-24881553D01*
X64237971Y-24862557D01*
X64231716Y-24841938D01*
X64229000Y-24814360D01*
X64229000Y-24355640D01*
X64231716Y-24328062D01*
X64237971Y-24307443D01*
X64248124Y-24288447D01*
X64261792Y-24271792D01*
X64278447Y-24258124D01*
X64297443Y-24247971D01*
X64318062Y-24241716D01*
X64345640Y-24239000D01*
X64854360Y-24239000D01*
X64881938Y-24241716D01*
X64881938Y-24241716D01*
G37*
G36*
X64881938Y-23271716D02*
G01*
X64902557Y-23277971D01*
X64921553Y-23288124D01*
X64938208Y-23301792D01*
X64951876Y-23318447D01*
X64962029Y-23337443D01*
X64968284Y-23358062D01*
X64971000Y-23385640D01*
X64971000Y-23844360D01*
X64968284Y-23871938D01*
X64962029Y-23892557D01*
X64951876Y-23911553D01*
X64938208Y-23928208D01*
X64921553Y-23941876D01*
X64902557Y-23952029D01*
X64881938Y-23958284D01*
X64854360Y-23961000D01*
X64345640Y-23961000D01*
X64318062Y-23958284D01*
X64297443Y-23952029D01*
X64278447Y-23941876D01*
X64261792Y-23928208D01*
X64248124Y-23911553D01*
X64237971Y-23892557D01*
X64231716Y-23871938D01*
X64229000Y-23844360D01*
X64229000Y-23385640D01*
X64231716Y-23358062D01*
X64237971Y-23337443D01*
X64248124Y-23318447D01*
X64261792Y-23301792D01*
X64278447Y-23288124D01*
X64297443Y-23277971D01*
X64318062Y-23271716D01*
X64345640Y-23269000D01*
X64854360Y-23269000D01*
X64881938Y-23271716D01*
X64881938Y-23271716D01*
G37*
G36*
X58381938Y-22241716D02*
G01*
X58402557Y-22247971D01*
X58421553Y-22258124D01*
X58438208Y-22271792D01*
X58451876Y-22288447D01*
X58462029Y-22307443D01*
X58468284Y-22328062D01*
X58471000Y-22355640D01*
X58471000Y-22814360D01*
X58468284Y-22841938D01*
X58462029Y-22862557D01*
X58451876Y-22881553D01*
X58438208Y-22898208D01*
X58421553Y-22911876D01*
X58402557Y-22922029D01*
X58381938Y-22928284D01*
X58354360Y-22931000D01*
X57845640Y-22931000D01*
X57818062Y-22928284D01*
X57797443Y-22922029D01*
X57778447Y-22911876D01*
X57761792Y-22898208D01*
X57748124Y-22881553D01*
X57737971Y-22862557D01*
X57731716Y-22841938D01*
X57729000Y-22814360D01*
X57729000Y-22355640D01*
X57731716Y-22328062D01*
X57737971Y-22307443D01*
X57748124Y-22288447D01*
X57761792Y-22271792D01*
X57778447Y-22258124D01*
X57797443Y-22247971D01*
X57818062Y-22241716D01*
X57845640Y-22239000D01*
X58354360Y-22239000D01*
X58381938Y-22241716D01*
X58381938Y-22241716D01*
G37*
G36*
X64756938Y-22181716D02*
G01*
X64777557Y-22187971D01*
X64796553Y-22198124D01*
X64813208Y-22211792D01*
X64826876Y-22228447D01*
X64837029Y-22247443D01*
X64843284Y-22268062D01*
X64846000Y-22295640D01*
X64846000Y-22804360D01*
X64843284Y-22831938D01*
X64837029Y-22852557D01*
X64826876Y-22871553D01*
X64813208Y-22888208D01*
X64796553Y-22901876D01*
X64777557Y-22912029D01*
X64756938Y-22918284D01*
X64729360Y-22921000D01*
X64270640Y-22921000D01*
X64243062Y-22918284D01*
X64222443Y-22912029D01*
X64203447Y-22901876D01*
X64186792Y-22888208D01*
X64173124Y-22871553D01*
X64162971Y-22852557D01*
X64156716Y-22831938D01*
X64154000Y-22804360D01*
X64154000Y-22295640D01*
X64156716Y-22268062D01*
X64162971Y-22247443D01*
X64173124Y-22228447D01*
X64186792Y-22211792D01*
X64203447Y-22198124D01*
X64222443Y-22187971D01*
X64243062Y-22181716D01*
X64270640Y-22179000D01*
X64729360Y-22179000D01*
X64756938Y-22181716D01*
X64756938Y-22181716D01*
G37*
G36*
X63786938Y-22181716D02*
G01*
X63807557Y-22187971D01*
X63826553Y-22198124D01*
X63843208Y-22211792D01*
X63856876Y-22228447D01*
X63867029Y-22247443D01*
X63873284Y-22268062D01*
X63876000Y-22295640D01*
X63876000Y-22804360D01*
X63873284Y-22831938D01*
X63867029Y-22852557D01*
X63856876Y-22871553D01*
X63843208Y-22888208D01*
X63826553Y-22901876D01*
X63807557Y-22912029D01*
X63786938Y-22918284D01*
X63759360Y-22921000D01*
X63300640Y-22921000D01*
X63273062Y-22918284D01*
X63252443Y-22912029D01*
X63233447Y-22901876D01*
X63216792Y-22888208D01*
X63203124Y-22871553D01*
X63192971Y-22852557D01*
X63186716Y-22831938D01*
X63184000Y-22804360D01*
X63184000Y-22295640D01*
X63186716Y-22268062D01*
X63192971Y-22247443D01*
X63203124Y-22228447D01*
X63216792Y-22211792D01*
X63233447Y-22198124D01*
X63252443Y-22187971D01*
X63273062Y-22181716D01*
X63300640Y-22179000D01*
X63759360Y-22179000D01*
X63786938Y-22181716D01*
X63786938Y-22181716D01*
G37*
G36*
X59336938Y-22181716D02*
G01*
X59357557Y-22187971D01*
X59376553Y-22198124D01*
X59393208Y-22211792D01*
X59406876Y-22228447D01*
X59417029Y-22247443D01*
X59423284Y-22268062D01*
X59426000Y-22295640D01*
X59426000Y-22804360D01*
X59423284Y-22831938D01*
X59417029Y-22852557D01*
X59406876Y-22871553D01*
X59393208Y-22888208D01*
X59376553Y-22901876D01*
X59357557Y-22912029D01*
X59336938Y-22918284D01*
X59309360Y-22921000D01*
X58850640Y-22921000D01*
X58823062Y-22918284D01*
X58802443Y-22912029D01*
X58783447Y-22901876D01*
X58766792Y-22888208D01*
X58753124Y-22871553D01*
X58742971Y-22852557D01*
X58736716Y-22831938D01*
X58734000Y-22804360D01*
X58734000Y-22295640D01*
X58736716Y-22268062D01*
X58742971Y-22247443D01*
X58753124Y-22228447D01*
X58766792Y-22211792D01*
X58783447Y-22198124D01*
X58802443Y-22187971D01*
X58823062Y-22181716D01*
X58850640Y-22179000D01*
X59309360Y-22179000D01*
X59336938Y-22181716D01*
X59336938Y-22181716D01*
G37*
G36*
X60306938Y-22181716D02*
G01*
X60327557Y-22187971D01*
X60346553Y-22198124D01*
X60363208Y-22211792D01*
X60376876Y-22228447D01*
X60387029Y-22247443D01*
X60393284Y-22268062D01*
X60396000Y-22295640D01*
X60396000Y-22804360D01*
X60393284Y-22831938D01*
X60387029Y-22852557D01*
X60376876Y-22871553D01*
X60363208Y-22888208D01*
X60346553Y-22901876D01*
X60327557Y-22912029D01*
X60306938Y-22918284D01*
X60279360Y-22921000D01*
X59820640Y-22921000D01*
X59793062Y-22918284D01*
X59772443Y-22912029D01*
X59753447Y-22901876D01*
X59736792Y-22888208D01*
X59723124Y-22871553D01*
X59712971Y-22852557D01*
X59706716Y-22831938D01*
X59704000Y-22804360D01*
X59704000Y-22295640D01*
X59706716Y-22268062D01*
X59712971Y-22247443D01*
X59723124Y-22228447D01*
X59736792Y-22211792D01*
X59753447Y-22198124D01*
X59772443Y-22187971D01*
X59793062Y-22181716D01*
X59820640Y-22179000D01*
X60279360Y-22179000D01*
X60306938Y-22181716D01*
X60306938Y-22181716D01*
G37*
G36*
X61306938Y-22181716D02*
G01*
X61327557Y-22187971D01*
X61346553Y-22198124D01*
X61363208Y-22211792D01*
X61376876Y-22228447D01*
X61387029Y-22247443D01*
X61393284Y-22268062D01*
X61396000Y-22295640D01*
X61396000Y-22804360D01*
X61393284Y-22831938D01*
X61387029Y-22852557D01*
X61376876Y-22871553D01*
X61363208Y-22888208D01*
X61346553Y-22901876D01*
X61327557Y-22912029D01*
X61306938Y-22918284D01*
X61279360Y-22921000D01*
X60820640Y-22921000D01*
X60793062Y-22918284D01*
X60772443Y-22912029D01*
X60753447Y-22901876D01*
X60736792Y-22888208D01*
X60723124Y-22871553D01*
X60712971Y-22852557D01*
X60706716Y-22831938D01*
X60704000Y-22804360D01*
X60704000Y-22295640D01*
X60706716Y-22268062D01*
X60712971Y-22247443D01*
X60723124Y-22228447D01*
X60736792Y-22211792D01*
X60753447Y-22198124D01*
X60772443Y-22187971D01*
X60793062Y-22181716D01*
X60820640Y-22179000D01*
X61279360Y-22179000D01*
X61306938Y-22181716D01*
X61306938Y-22181716D01*
G37*
G36*
X62276938Y-22181716D02*
G01*
X62297557Y-22187971D01*
X62316553Y-22198124D01*
X62333208Y-22211792D01*
X62346876Y-22228447D01*
X62357029Y-22247443D01*
X62363284Y-22268062D01*
X62366000Y-22295640D01*
X62366000Y-22804360D01*
X62363284Y-22831938D01*
X62357029Y-22852557D01*
X62346876Y-22871553D01*
X62333208Y-22888208D01*
X62316553Y-22901876D01*
X62297557Y-22912029D01*
X62276938Y-22918284D01*
X62249360Y-22921000D01*
X61790640Y-22921000D01*
X61763062Y-22918284D01*
X61742443Y-22912029D01*
X61723447Y-22901876D01*
X61706792Y-22888208D01*
X61693124Y-22871553D01*
X61682971Y-22852557D01*
X61676716Y-22831938D01*
X61674000Y-22804360D01*
X61674000Y-22295640D01*
X61676716Y-22268062D01*
X61682971Y-22247443D01*
X61693124Y-22228447D01*
X61706792Y-22211792D01*
X61723447Y-22198124D01*
X61742443Y-22187971D01*
X61763062Y-22181716D01*
X61790640Y-22179000D01*
X62249360Y-22179000D01*
X62276938Y-22181716D01*
X62276938Y-22181716D01*
G37*
G36*
X52578720Y-20253106D02*
G01*
X52612907Y-20263477D01*
X52644411Y-20280316D01*
X52672024Y-20302976D01*
X52694684Y-20330589D01*
X52711523Y-20362093D01*
X52721894Y-20396280D01*
X52726000Y-20437968D01*
X52726000Y-22162032D01*
X52721894Y-22203720D01*
X52711523Y-22237907D01*
X52694684Y-22269411D01*
X52672024Y-22297024D01*
X52644411Y-22319684D01*
X52612907Y-22336523D01*
X52578720Y-22346894D01*
X52537032Y-22351000D01*
X51287968Y-22351000D01*
X51246280Y-22346894D01*
X51212093Y-22336523D01*
X51180589Y-22319684D01*
X51152976Y-22297024D01*
X51130316Y-22269411D01*
X51113477Y-22237907D01*
X51103106Y-22203720D01*
X51099000Y-22162032D01*
X51099000Y-20437968D01*
X51103106Y-20396280D01*
X51113477Y-20362093D01*
X51130316Y-20330589D01*
X51152976Y-20302976D01*
X51180589Y-20280316D01*
X51212093Y-20263477D01*
X51246280Y-20253106D01*
X51287968Y-20249000D01*
X52537032Y-20249000D01*
X52578720Y-20253106D01*
X52578720Y-20253106D01*
G37*
G36*
X57253720Y-20253106D02*
G01*
X57287907Y-20263477D01*
X57319411Y-20280316D01*
X57347024Y-20302976D01*
X57369684Y-20330589D01*
X57386523Y-20362093D01*
X57396894Y-20396280D01*
X57401000Y-20437968D01*
X57401000Y-22162032D01*
X57396894Y-22203720D01*
X57386523Y-22237907D01*
X57369684Y-22269411D01*
X57347024Y-22297024D01*
X57319411Y-22319684D01*
X57287907Y-22336523D01*
X57253720Y-22346894D01*
X57212032Y-22351000D01*
X55962968Y-22351000D01*
X55921280Y-22346894D01*
X55887093Y-22336523D01*
X55855589Y-22319684D01*
X55827976Y-22297024D01*
X55805316Y-22269411D01*
X55788477Y-22237907D01*
X55778106Y-22203720D01*
X55774000Y-22162032D01*
X55774000Y-20437968D01*
X55778106Y-20396280D01*
X55788477Y-20362093D01*
X55805316Y-20330589D01*
X55827976Y-20302976D01*
X55855589Y-20280316D01*
X55887093Y-20263477D01*
X55921280Y-20253106D01*
X55962968Y-20249000D01*
X57212032Y-20249000D01*
X57253720Y-20253106D01*
X57253720Y-20253106D01*
G37*
G36*
X58381938Y-21271716D02*
G01*
X58402557Y-21277971D01*
X58421553Y-21288124D01*
X58438208Y-21301792D01*
X58456064Y-21323551D01*
X58462379Y-21333001D01*
X58477266Y-21347886D01*
X58476381Y-21350022D01*
X58471000Y-21386302D01*
X58471000Y-21844360D01*
X58468284Y-21871938D01*
X58462029Y-21892557D01*
X58451876Y-21911553D01*
X58438208Y-21928208D01*
X58421553Y-21941876D01*
X58402557Y-21952029D01*
X58381938Y-21958284D01*
X58354360Y-21961000D01*
X57845640Y-21961000D01*
X57818062Y-21958284D01*
X57797443Y-21952029D01*
X57778447Y-21941876D01*
X57761792Y-21928208D01*
X57748124Y-21911553D01*
X57737971Y-21892557D01*
X57731716Y-21871938D01*
X57729000Y-21844360D01*
X57729000Y-21385640D01*
X57731716Y-21358062D01*
X57737971Y-21337443D01*
X57748124Y-21318447D01*
X57761792Y-21301792D01*
X57778447Y-21288124D01*
X57797443Y-21277971D01*
X57818062Y-21271716D01*
X57845640Y-21269000D01*
X58354360Y-21269000D01*
X58381938Y-21271716D01*
X58381938Y-21271716D01*
G37*
G36*
X61286938Y-20631716D02*
G01*
X61307557Y-20637971D01*
X61326553Y-20648124D01*
X61343208Y-20661792D01*
X61356876Y-20678447D01*
X61367029Y-20697443D01*
X61373284Y-20718062D01*
X61376000Y-20745640D01*
X61376000Y-21254360D01*
X61373284Y-21281938D01*
X61367029Y-21302557D01*
X61356876Y-21321553D01*
X61343208Y-21338208D01*
X61326553Y-21351876D01*
X61307557Y-21362029D01*
X61286938Y-21368284D01*
X61259360Y-21371000D01*
X60800640Y-21371000D01*
X60773062Y-21368284D01*
X60752443Y-21362029D01*
X60733447Y-21351876D01*
X60716792Y-21338208D01*
X60703124Y-21321553D01*
X60692971Y-21302557D01*
X60686716Y-21281938D01*
X60684000Y-21254360D01*
X60684000Y-20745640D01*
X60686716Y-20718062D01*
X60692971Y-20697443D01*
X60703124Y-20678447D01*
X60716792Y-20661792D01*
X60733447Y-20648124D01*
X60752443Y-20637971D01*
X60773062Y-20631716D01*
X60800640Y-20629000D01*
X61259360Y-20629000D01*
X61286938Y-20631716D01*
X61286938Y-20631716D01*
G37*
G36*
X59286938Y-20631716D02*
G01*
X59307557Y-20637971D01*
X59326553Y-20648124D01*
X59343208Y-20661792D01*
X59356876Y-20678447D01*
X59367029Y-20697443D01*
X59373284Y-20718062D01*
X59376000Y-20745640D01*
X59376000Y-21254360D01*
X59373284Y-21281938D01*
X59367029Y-21302557D01*
X59356876Y-21321553D01*
X59343208Y-21338208D01*
X59326553Y-21351876D01*
X59307557Y-21362029D01*
X59286938Y-21368284D01*
X59259360Y-21371000D01*
X58800640Y-21371000D01*
X58773062Y-21368284D01*
X58752443Y-21362029D01*
X58733447Y-21351876D01*
X58716792Y-21338208D01*
X58698936Y-21316449D01*
X58692621Y-21306999D01*
X58677734Y-21292114D01*
X58678619Y-21289978D01*
X58684000Y-21253698D01*
X58684000Y-20745640D01*
X58686716Y-20718062D01*
X58692971Y-20697443D01*
X58703124Y-20678447D01*
X58716792Y-20661792D01*
X58733447Y-20648124D01*
X58752443Y-20637971D01*
X58773062Y-20631716D01*
X58800640Y-20629000D01*
X59259360Y-20629000D01*
X59286938Y-20631716D01*
X59286938Y-20631716D01*
G37*
G36*
X60256938Y-20631716D02*
G01*
X60277557Y-20637971D01*
X60296553Y-20648124D01*
X60313208Y-20661792D01*
X60326876Y-20678447D01*
X60337029Y-20697443D01*
X60343284Y-20718062D01*
X60346000Y-20745640D01*
X60346000Y-21254360D01*
X60343284Y-21281938D01*
X60337029Y-21302557D01*
X60326876Y-21321553D01*
X60313208Y-21338208D01*
X60296553Y-21351876D01*
X60277557Y-21362029D01*
X60256938Y-21368284D01*
X60229360Y-21371000D01*
X59770640Y-21371000D01*
X59743062Y-21368284D01*
X59722443Y-21362029D01*
X59703447Y-21351876D01*
X59686792Y-21338208D01*
X59673124Y-21321553D01*
X59662971Y-21302557D01*
X59656716Y-21281938D01*
X59654000Y-21254360D01*
X59654000Y-20745640D01*
X59656716Y-20718062D01*
X59662971Y-20697443D01*
X59673124Y-20678447D01*
X59686792Y-20661792D01*
X59703447Y-20648124D01*
X59722443Y-20637971D01*
X59743062Y-20631716D01*
X59770640Y-20629000D01*
X60229360Y-20629000D01*
X60256938Y-20631716D01*
X60256938Y-20631716D01*
G37*
G36*
X62256938Y-20631716D02*
G01*
X62277557Y-20637971D01*
X62296553Y-20648124D01*
X62313208Y-20661792D01*
X62326876Y-20678447D01*
X62337029Y-20697443D01*
X62343284Y-20718062D01*
X62346000Y-20745640D01*
X62346000Y-21254360D01*
X62343284Y-21281938D01*
X62337029Y-21302557D01*
X62326876Y-21321553D01*
X62313208Y-21338208D01*
X62296553Y-21351876D01*
X62277557Y-21362029D01*
X62256938Y-21368284D01*
X62229360Y-21371000D01*
X61770640Y-21371000D01*
X61743062Y-21368284D01*
X61722443Y-21362029D01*
X61703447Y-21351876D01*
X61686792Y-21338208D01*
X61673124Y-21321553D01*
X61662971Y-21302557D01*
X61656716Y-21281938D01*
X61654000Y-21254360D01*
X61654000Y-20745640D01*
X61656716Y-20718062D01*
X61662971Y-20697443D01*
X61673124Y-20678447D01*
X61686792Y-20661792D01*
X61703447Y-20648124D01*
X61722443Y-20637971D01*
X61743062Y-20631716D01*
X61770640Y-20629000D01*
X62229360Y-20629000D01*
X62256938Y-20631716D01*
X62256938Y-20631716D01*
G37*
G36*
X42826938Y-20481716D02*
G01*
X42847557Y-20487971D01*
X42866553Y-20498124D01*
X42883208Y-20511792D01*
X42896876Y-20528447D01*
X42907029Y-20547443D01*
X42913284Y-20568062D01*
X42916000Y-20595640D01*
X42916000Y-21104360D01*
X42913284Y-21131938D01*
X42907029Y-21152557D01*
X42896876Y-21171553D01*
X42883208Y-21188208D01*
X42866553Y-21201876D01*
X42847557Y-21212029D01*
X42826938Y-21218284D01*
X42799360Y-21221000D01*
X42340640Y-21221000D01*
X42313062Y-21218284D01*
X42292443Y-21212029D01*
X42273447Y-21201876D01*
X42256792Y-21188208D01*
X42243124Y-21171553D01*
X42232971Y-21152557D01*
X42226716Y-21131938D01*
X42224000Y-21104360D01*
X42224000Y-20595640D01*
X42226716Y-20568062D01*
X42232971Y-20547443D01*
X42243124Y-20528447D01*
X42256792Y-20511792D01*
X42273447Y-20498124D01*
X42292443Y-20487971D01*
X42313062Y-20481716D01*
X42340640Y-20479000D01*
X42799360Y-20479000D01*
X42826938Y-20481716D01*
X42826938Y-20481716D01*
G37*
G36*
X41856938Y-20481716D02*
G01*
X41877557Y-20487971D01*
X41896553Y-20498124D01*
X41913208Y-20511792D01*
X41926876Y-20528447D01*
X41937029Y-20547443D01*
X41943284Y-20568062D01*
X41946000Y-20595640D01*
X41946000Y-21104360D01*
X41943284Y-21131938D01*
X41937029Y-21152557D01*
X41926876Y-21171553D01*
X41913208Y-21188208D01*
X41896553Y-21201876D01*
X41877557Y-21212029D01*
X41856938Y-21218284D01*
X41829360Y-21221000D01*
X41370640Y-21221000D01*
X41343062Y-21218284D01*
X41322443Y-21212029D01*
X41303447Y-21201876D01*
X41286792Y-21188208D01*
X41273124Y-21171553D01*
X41262971Y-21152557D01*
X41256716Y-21131938D01*
X41254000Y-21104360D01*
X41254000Y-20595640D01*
X41256716Y-20568062D01*
X41262971Y-20547443D01*
X41273124Y-20528447D01*
X41286792Y-20511792D01*
X41303447Y-20498124D01*
X41322443Y-20487971D01*
X41343062Y-20481716D01*
X41370640Y-20479000D01*
X41829360Y-20479000D01*
X41856938Y-20481716D01*
X41856938Y-20481716D01*
G37*
G36*
X40641938Y-20481716D02*
G01*
X40662557Y-20487971D01*
X40681553Y-20498124D01*
X40698208Y-20511792D01*
X40711876Y-20528447D01*
X40722029Y-20547443D01*
X40728284Y-20568062D01*
X40731000Y-20595640D01*
X40731000Y-21104360D01*
X40728284Y-21131938D01*
X40722029Y-21152557D01*
X40711876Y-21171553D01*
X40698208Y-21188208D01*
X40681553Y-21201876D01*
X40662557Y-21212029D01*
X40641938Y-21218284D01*
X40614360Y-21221000D01*
X40155640Y-21221000D01*
X40128062Y-21218284D01*
X40107443Y-21212029D01*
X40088447Y-21201876D01*
X40071792Y-21188208D01*
X40058124Y-21171553D01*
X40047971Y-21152557D01*
X40041716Y-21131938D01*
X40039000Y-21104360D01*
X40039000Y-20595640D01*
X40041716Y-20568062D01*
X40047971Y-20547443D01*
X40058124Y-20528447D01*
X40071792Y-20511792D01*
X40088447Y-20498124D01*
X40107443Y-20487971D01*
X40128062Y-20481716D01*
X40155640Y-20479000D01*
X40614360Y-20479000D01*
X40641938Y-20481716D01*
X40641938Y-20481716D01*
G37*
G36*
X39671938Y-20481716D02*
G01*
X39692557Y-20487971D01*
X39711553Y-20498124D01*
X39728208Y-20511792D01*
X39741876Y-20528447D01*
X39752029Y-20547443D01*
X39758284Y-20568062D01*
X39761000Y-20595640D01*
X39761000Y-21104360D01*
X39758284Y-21131938D01*
X39752029Y-21152557D01*
X39741876Y-21171553D01*
X39728208Y-21188208D01*
X39711553Y-21201876D01*
X39692557Y-21212029D01*
X39671938Y-21218284D01*
X39644360Y-21221000D01*
X39185640Y-21221000D01*
X39158062Y-21218284D01*
X39137443Y-21212029D01*
X39118447Y-21201876D01*
X39101792Y-21188208D01*
X39088124Y-21171553D01*
X39077971Y-21152557D01*
X39071716Y-21131938D01*
X39069000Y-21104360D01*
X39069000Y-20595640D01*
X39071716Y-20568062D01*
X39077971Y-20547443D01*
X39088124Y-20528447D01*
X39101792Y-20511792D01*
X39118447Y-20498124D01*
X39137443Y-20487971D01*
X39158062Y-20481716D01*
X39185640Y-20479000D01*
X39644360Y-20479000D01*
X39671938Y-20481716D01*
X39671938Y-20481716D01*
G37*
M02*
