G04 #@! TF.GenerationSoftware,KiCad,Pcbnew,(5.1.4)-1*
G04 #@! TF.CreationDate,2020-12-28T11:58:51+03:00*
G04 #@! TF.ProjectId,main_block,6d61696e-5f62-46c6-9f63-6b2e6b696361,rev?*
G04 #@! TF.SameCoordinates,Original*
G04 #@! TF.FileFunction,Copper,L2,Inr*
G04 #@! TF.FilePolarity,Positive*
%FSLAX46Y46*%
G04 Gerber Fmt 4.6, Leading zero omitted, Abs format (unit mm)*
G04 Created by KiCad (PCBNEW (5.1.4)-1) date 2020-12-28 11:58:51*
%MOMM*%
%LPD*%
G04 APERTURE LIST*
%ADD10C,0.300000*%
%ADD11C,0.150000*%
%ADD12C,0.254000*%
G04 APERTURE END LIST*
D10*
X56157250Y-28795650D03*
X54600000Y-30500000D03*
X62600000Y-31715000D03*
X53850000Y-26350000D03*
X61500000Y-31700000D03*
X53850000Y-26850000D03*
X57250000Y-25375000D03*
X67000000Y-27600000D03*
X63700000Y-31715000D03*
X53750000Y-25850000D03*
X55000000Y-24050000D03*
X55250000Y-23350000D03*
X58550000Y-22550000D03*
X59362500Y-25200000D03*
X59362500Y-26700000D03*
X63237500Y-25700000D03*
X64600000Y-23615000D03*
X67900000Y-27900000D03*
X60800000Y-23762500D03*
X64800000Y-30085000D03*
X62600000Y-30085000D03*
X61500000Y-30085000D03*
X60400000Y-30085000D03*
X60400000Y-32685000D03*
X59300000Y-32685000D03*
X56900000Y-32600000D03*
X53600000Y-32750000D03*
X53580000Y-31650000D03*
X51250000Y-32200000D03*
X51250000Y-30100000D03*
X55700000Y-28600000D03*
X42635000Y-32250000D03*
X39415000Y-32250000D03*
X40650000Y-30587500D03*
X40150000Y-30587500D03*
X42337500Y-28900000D03*
X41600000Y-20850000D03*
X41650000Y-22712500D03*
X41150000Y-22712500D03*
X40150000Y-22712500D03*
X39415000Y-20850000D03*
X52000000Y-24600000D03*
X64650000Y-27300000D03*
X31800000Y-21250000D03*
X55650000Y-23350000D03*
X68400000Y-25450000D03*
X59350000Y-30250000D03*
X51900000Y-31150000D03*
X61400000Y-21700000D03*
X62600000Y-20500000D03*
X60500000Y-20400000D03*
X60500000Y-21600000D03*
X59600000Y-21700000D03*
X65000000Y-21800000D03*
X64950000Y-20650000D03*
X59800000Y-24100000D03*
X59200000Y-21850000D03*
X60000000Y-21700000D03*
X61000000Y-21700000D03*
X61050000Y-20350000D03*
X60000000Y-20350000D03*
X35650000Y-31400000D03*
X33450000Y-31000000D03*
X41050000Y-32750000D03*
X40450000Y-31500000D03*
X41100000Y-21550000D03*
X33900000Y-22300000D03*
X56450000Y-22900000D03*
X56050000Y-23350000D03*
X55000000Y-24450000D03*
X53300000Y-25150000D03*
X50700000Y-25150000D03*
X64500000Y-32150000D03*
X35650000Y-21850000D03*
X35650000Y-21400000D03*
X35650000Y-20950000D03*
X35650000Y-20500000D03*
X35650000Y-32550000D03*
X63700000Y-28400000D03*
X63250000Y-31100000D03*
X60300000Y-23762500D03*
X59362500Y-25700000D03*
X59000000Y-30600000D03*
X55250000Y-29225000D03*
X53615000Y-30500000D03*
X51250000Y-32700000D03*
X63237500Y-26200000D03*
X59362500Y-26200000D03*
X59600000Y-29800000D03*
X64650000Y-25250000D03*
X63700000Y-30085000D03*
X62300000Y-23762500D03*
X62600000Y-29115000D03*
X61050000Y-22550000D03*
X63530000Y-22550000D03*
X41665000Y-32250000D03*
X51250000Y-30600000D03*
X40650000Y-22712500D03*
X42350000Y-24400000D03*
X42337500Y-27900000D03*
X53875000Y-27350000D03*
X53775000Y-28850000D03*
X42337500Y-26900000D03*
X53875000Y-28350000D03*
X42337500Y-25900000D03*
X53875000Y-27850000D03*
X42337500Y-24900000D03*
X63237500Y-26700000D03*
X57625000Y-27850000D03*
X57625000Y-27350000D03*
X61300000Y-27637500D03*
X57625000Y-26850000D03*
X62300000Y-27637500D03*
X61800000Y-27637500D03*
X57625000Y-26350000D03*
X56750000Y-25475000D03*
X55950000Y-30600000D03*
X54934834Y-27265166D03*
X52400000Y-29600000D03*
X57725000Y-25850000D03*
X60800000Y-27637500D03*
X58250000Y-27350000D03*
X54250000Y-25350000D03*
X52000000Y-27475000D03*
X63700000Y-32685000D03*
X62600000Y-32685000D03*
X61500000Y-32670000D03*
X30530000Y-31490000D03*
X35650000Y-30587500D03*
X30530000Y-30850000D03*
X36150000Y-30587500D03*
X30530000Y-30210000D03*
X36650000Y-30587500D03*
X30530000Y-29570000D03*
X37150000Y-30587500D03*
X30530000Y-28930000D03*
X37650000Y-30587500D03*
X30530000Y-28290000D03*
X38150000Y-30587500D03*
X30530000Y-27650000D03*
X38650000Y-30587500D03*
X30530000Y-27010000D03*
X39150000Y-30587500D03*
X30530000Y-21250000D03*
X31800000Y-32130000D03*
X30530000Y-26370000D03*
X39150000Y-22712500D03*
X30530000Y-25730000D03*
X38650000Y-22712500D03*
X38150000Y-22712500D03*
X30530000Y-25090000D03*
X37650000Y-22712500D03*
X30530000Y-24450000D03*
X37150000Y-22712500D03*
X30530000Y-23810000D03*
X36650000Y-22712500D03*
X30530000Y-23170000D03*
X36150000Y-22712500D03*
X30530000Y-22530000D03*
X35650000Y-22712500D03*
X30530000Y-21890000D03*
D11*
X56007251Y-29092749D02*
X54600000Y-30500000D01*
X56157250Y-28795650D02*
X56007251Y-28945649D01*
X56007251Y-28945649D02*
X56007251Y-29092749D01*
X59875000Y-25700000D02*
X59362500Y-25700000D01*
X60300000Y-25275000D02*
X59875000Y-25700000D01*
X60300000Y-23762500D02*
X60300000Y-25275000D01*
X59307498Y-25700000D02*
X58850000Y-26157498D01*
X59362500Y-25700000D02*
X59307498Y-25700000D01*
X58850001Y-30450001D02*
X59000000Y-30600000D01*
X58850000Y-26157498D02*
X58850001Y-30450001D01*
X59417502Y-26200000D02*
X59362500Y-26200000D01*
X59850000Y-26632498D02*
X59417502Y-26200000D01*
X59850000Y-29550000D02*
X59850000Y-26632498D01*
X59600000Y-29800000D02*
X59850000Y-29550000D01*
X63700000Y-29690000D02*
X63700000Y-30085000D01*
X63234178Y-29224178D02*
X63700000Y-29690000D01*
X63234178Y-27258324D02*
X63234178Y-29224178D01*
X64050000Y-26442502D02*
X63234178Y-27258324D01*
X64050000Y-25850000D02*
X64050000Y-26442502D01*
X64650000Y-25250000D02*
X64050000Y-25850000D01*
X62600000Y-29115000D02*
X62934168Y-28780832D01*
X62934168Y-28780832D02*
X62934168Y-26951670D01*
X62934168Y-26951670D02*
X62850000Y-26867502D01*
X62600000Y-24062500D02*
X62300000Y-23762500D01*
X62850000Y-26867502D02*
X62850000Y-25750000D01*
X62850000Y-25750000D02*
X62600000Y-25500000D01*
X62600000Y-25500000D02*
X62600000Y-24062500D01*
X41665000Y-32250000D02*
X41665000Y-30465000D01*
X41665000Y-30465000D02*
X40650000Y-29450000D01*
X40650000Y-25887868D02*
X40650000Y-26400000D01*
X42137868Y-24400000D02*
X40650000Y-25887868D01*
X42350000Y-24400000D02*
X42137868Y-24400000D01*
X40650000Y-29450000D02*
X40650000Y-26400000D01*
X42100000Y-24400000D02*
X42137868Y-24400000D01*
X40650000Y-22712500D02*
X40650000Y-22950000D01*
X40650000Y-22950000D02*
X42100000Y-24400000D01*
X56750000Y-25475000D02*
X56750000Y-29800000D01*
X56750000Y-29800000D02*
X55950000Y-30600000D01*
X30720000Y-21250000D02*
X30530000Y-21250000D01*
X31800000Y-22330000D02*
X30720000Y-21250000D01*
X31800000Y-32130000D02*
X31800000Y-22330000D01*
D12*
G36*
X64635294Y-20316715D02*
G01*
X64765438Y-20356007D01*
X64885465Y-20419827D01*
X64990812Y-20505745D01*
X65077469Y-20610494D01*
X65142125Y-20730074D01*
X65182324Y-20859936D01*
X65198000Y-21009079D01*
X65198001Y-23964833D01*
X65199310Y-23978128D01*
X65199267Y-23984353D01*
X65199678Y-23988549D01*
X65220079Y-24182646D01*
X65225581Y-24209446D01*
X65230712Y-24236345D01*
X65231931Y-24240382D01*
X65289643Y-24426819D01*
X65300237Y-24452021D01*
X65310503Y-24477431D01*
X65312483Y-24481154D01*
X65405308Y-24652831D01*
X65420595Y-24675494D01*
X65435602Y-24698428D01*
X65438267Y-24701696D01*
X65562671Y-24852073D01*
X65582070Y-24871337D01*
X65601244Y-24890916D01*
X65604493Y-24893604D01*
X65755735Y-25016954D01*
X65778487Y-25032070D01*
X65801118Y-25047566D01*
X65804828Y-25049571D01*
X65977150Y-25141196D01*
X66002403Y-25151604D01*
X66027614Y-25162410D01*
X66031643Y-25163657D01*
X66218479Y-25220066D01*
X66245294Y-25225375D01*
X66272102Y-25231073D01*
X66276296Y-25231514D01*
X66470529Y-25250559D01*
X66470536Y-25250559D01*
X66485167Y-25252000D01*
X67985226Y-25252000D01*
X68135294Y-25266715D01*
X68265438Y-25306007D01*
X68385465Y-25369827D01*
X68490812Y-25455745D01*
X68577469Y-25560494D01*
X68642125Y-25680074D01*
X68682324Y-25809936D01*
X68698000Y-25959079D01*
X68698001Y-27285216D01*
X68683285Y-27435297D01*
X68643993Y-27565438D01*
X68580173Y-27685465D01*
X68494253Y-27790814D01*
X68389504Y-27877470D01*
X68269926Y-27942125D01*
X68140059Y-27982325D01*
X67990922Y-27998000D01*
X67154948Y-27998000D01*
X67202260Y-27978402D01*
X67272197Y-27931673D01*
X67331673Y-27872197D01*
X67378402Y-27802260D01*
X67410591Y-27724551D01*
X67427000Y-27642056D01*
X67427000Y-27557944D01*
X67410591Y-27475449D01*
X67378402Y-27397740D01*
X67331673Y-27327803D01*
X67272197Y-27268327D01*
X67202260Y-27221598D01*
X67124551Y-27189409D01*
X67042056Y-27173000D01*
X66957944Y-27173000D01*
X66875449Y-27189409D01*
X66797740Y-27221598D01*
X66727803Y-27268327D01*
X66668327Y-27327803D01*
X66621598Y-27397740D01*
X66589409Y-27475449D01*
X66573000Y-27557944D01*
X66573000Y-27642056D01*
X66589409Y-27724551D01*
X66621598Y-27802260D01*
X66668327Y-27872197D01*
X66727803Y-27931673D01*
X66797740Y-27978402D01*
X66845052Y-27998000D01*
X66485167Y-27998000D01*
X66471863Y-27999310D01*
X66465647Y-27999267D01*
X66461450Y-27999679D01*
X66267354Y-28020079D01*
X66240554Y-28025581D01*
X66213655Y-28030712D01*
X66209618Y-28031931D01*
X66023180Y-28089643D01*
X65997965Y-28100243D01*
X65972569Y-28110503D01*
X65968846Y-28112483D01*
X65797169Y-28205308D01*
X65774505Y-28220595D01*
X65751572Y-28235602D01*
X65748304Y-28238268D01*
X65597926Y-28362671D01*
X65578663Y-28382070D01*
X65559084Y-28401243D01*
X65556396Y-28404493D01*
X65433046Y-28555735D01*
X65417930Y-28578487D01*
X65402434Y-28601118D01*
X65400429Y-28604828D01*
X65308804Y-28777150D01*
X65298401Y-28802391D01*
X65287590Y-28827614D01*
X65286344Y-28831642D01*
X65229934Y-29018479D01*
X65224622Y-29045307D01*
X65218927Y-29072102D01*
X65218486Y-29076296D01*
X65199441Y-29270530D01*
X65199441Y-29270537D01*
X65198000Y-29285168D01*
X65198001Y-32285216D01*
X65183285Y-32435297D01*
X65143993Y-32565438D01*
X65080173Y-32685465D01*
X64994253Y-32790814D01*
X64889504Y-32877470D01*
X64769926Y-32942125D01*
X64640059Y-32982325D01*
X64490922Y-32998000D01*
X63990870Y-32998000D01*
X64031673Y-32957197D01*
X64078402Y-32887260D01*
X64110591Y-32809551D01*
X64127000Y-32727056D01*
X64127000Y-32642944D01*
X64110591Y-32560449D01*
X64078402Y-32482740D01*
X64031673Y-32412803D01*
X63972197Y-32353327D01*
X63902260Y-32306598D01*
X63824551Y-32274409D01*
X63742056Y-32258000D01*
X63657944Y-32258000D01*
X63575449Y-32274409D01*
X63497740Y-32306598D01*
X63427803Y-32353327D01*
X63368327Y-32412803D01*
X63321598Y-32482740D01*
X63289409Y-32560449D01*
X63273000Y-32642944D01*
X63273000Y-32727056D01*
X63289409Y-32809551D01*
X63321598Y-32887260D01*
X63368327Y-32957197D01*
X63409130Y-32998000D01*
X62890870Y-32998000D01*
X62931673Y-32957197D01*
X62978402Y-32887260D01*
X63010591Y-32809551D01*
X63027000Y-32727056D01*
X63027000Y-32642944D01*
X63010591Y-32560449D01*
X62978402Y-32482740D01*
X62931673Y-32412803D01*
X62872197Y-32353327D01*
X62802260Y-32306598D01*
X62724551Y-32274409D01*
X62642056Y-32258000D01*
X62557944Y-32258000D01*
X62475449Y-32274409D01*
X62397740Y-32306598D01*
X62327803Y-32353327D01*
X62268327Y-32412803D01*
X62221598Y-32482740D01*
X62189409Y-32560449D01*
X62173000Y-32642944D01*
X62173000Y-32727056D01*
X62189409Y-32809551D01*
X62221598Y-32887260D01*
X62268327Y-32957197D01*
X62309130Y-32998000D01*
X61775870Y-32998000D01*
X61831673Y-32942197D01*
X61878402Y-32872260D01*
X61910591Y-32794551D01*
X61927000Y-32712056D01*
X61927000Y-32627944D01*
X61910591Y-32545449D01*
X61878402Y-32467740D01*
X61831673Y-32397803D01*
X61772197Y-32338327D01*
X61702260Y-32291598D01*
X61624551Y-32259409D01*
X61542056Y-32243000D01*
X61457944Y-32243000D01*
X61375449Y-32259409D01*
X61297740Y-32291598D01*
X61227803Y-32338327D01*
X61168327Y-32397803D01*
X61121598Y-32467740D01*
X61089409Y-32545449D01*
X61073000Y-32627944D01*
X61073000Y-32712056D01*
X61089409Y-32794551D01*
X61121598Y-32872260D01*
X61168327Y-32942197D01*
X61224130Y-32998000D01*
X51555870Y-32998000D01*
X51581673Y-32972197D01*
X51628402Y-32902260D01*
X51660591Y-32824551D01*
X51677000Y-32742056D01*
X51677000Y-32657944D01*
X51660591Y-32575449D01*
X51628402Y-32497740D01*
X51581673Y-32427803D01*
X51522197Y-32368327D01*
X51452260Y-32321598D01*
X51374551Y-32289409D01*
X51292056Y-32273000D01*
X51207944Y-32273000D01*
X51125449Y-32289409D01*
X51047740Y-32321598D01*
X50977803Y-32368327D01*
X50918327Y-32427803D01*
X50871598Y-32497740D01*
X50839409Y-32575449D01*
X50823000Y-32657944D01*
X50823000Y-32742056D01*
X50839409Y-32824551D01*
X50871598Y-32902260D01*
X50918327Y-32972197D01*
X50936450Y-32990320D01*
X50864703Y-32983285D01*
X50734562Y-32943993D01*
X50614535Y-32880173D01*
X50509186Y-32794253D01*
X50422530Y-32689504D01*
X50357875Y-32569926D01*
X50317675Y-32440059D01*
X50300647Y-32278044D01*
X50300733Y-32265647D01*
X50300321Y-32261450D01*
X50279921Y-32067354D01*
X50274419Y-32040554D01*
X50269288Y-32013655D01*
X50268069Y-32009618D01*
X50210357Y-31823180D01*
X50199757Y-31797965D01*
X50189497Y-31772569D01*
X50187517Y-31768846D01*
X50127553Y-31657944D01*
X61073000Y-31657944D01*
X61073000Y-31742056D01*
X61089409Y-31824551D01*
X61121598Y-31902260D01*
X61168327Y-31972197D01*
X61227803Y-32031673D01*
X61297740Y-32078402D01*
X61375449Y-32110591D01*
X61457944Y-32127000D01*
X61542056Y-32127000D01*
X61624551Y-32110591D01*
X61702260Y-32078402D01*
X61772197Y-32031673D01*
X61831673Y-31972197D01*
X61878402Y-31902260D01*
X61910591Y-31824551D01*
X61927000Y-31742056D01*
X61927000Y-31672944D01*
X62173000Y-31672944D01*
X62173000Y-31757056D01*
X62189409Y-31839551D01*
X62221598Y-31917260D01*
X62268327Y-31987197D01*
X62327803Y-32046673D01*
X62397740Y-32093402D01*
X62475449Y-32125591D01*
X62557944Y-32142000D01*
X62642056Y-32142000D01*
X62724551Y-32125591D01*
X62802260Y-32093402D01*
X62872197Y-32046673D01*
X62931673Y-31987197D01*
X62978402Y-31917260D01*
X63010591Y-31839551D01*
X63027000Y-31757056D01*
X63027000Y-31672944D01*
X63273000Y-31672944D01*
X63273000Y-31757056D01*
X63289409Y-31839551D01*
X63321598Y-31917260D01*
X63368327Y-31987197D01*
X63427803Y-32046673D01*
X63497740Y-32093402D01*
X63575449Y-32125591D01*
X63657944Y-32142000D01*
X63742056Y-32142000D01*
X63824551Y-32125591D01*
X63902260Y-32093402D01*
X63972197Y-32046673D01*
X64031673Y-31987197D01*
X64078402Y-31917260D01*
X64110591Y-31839551D01*
X64127000Y-31757056D01*
X64127000Y-31672944D01*
X64110591Y-31590449D01*
X64078402Y-31512740D01*
X64031673Y-31442803D01*
X63972197Y-31383327D01*
X63902260Y-31336598D01*
X63824551Y-31304409D01*
X63742056Y-31288000D01*
X63657944Y-31288000D01*
X63575449Y-31304409D01*
X63497740Y-31336598D01*
X63427803Y-31383327D01*
X63368327Y-31442803D01*
X63321598Y-31512740D01*
X63289409Y-31590449D01*
X63273000Y-31672944D01*
X63027000Y-31672944D01*
X63010591Y-31590449D01*
X62978402Y-31512740D01*
X62931673Y-31442803D01*
X62872197Y-31383327D01*
X62802260Y-31336598D01*
X62724551Y-31304409D01*
X62642056Y-31288000D01*
X62557944Y-31288000D01*
X62475449Y-31304409D01*
X62397740Y-31336598D01*
X62327803Y-31383327D01*
X62268327Y-31442803D01*
X62221598Y-31512740D01*
X62189409Y-31590449D01*
X62173000Y-31672944D01*
X61927000Y-31672944D01*
X61927000Y-31657944D01*
X61910591Y-31575449D01*
X61878402Y-31497740D01*
X61831673Y-31427803D01*
X61772197Y-31368327D01*
X61702260Y-31321598D01*
X61624551Y-31289409D01*
X61542056Y-31273000D01*
X61457944Y-31273000D01*
X61375449Y-31289409D01*
X61297740Y-31321598D01*
X61227803Y-31368327D01*
X61168327Y-31427803D01*
X61121598Y-31497740D01*
X61089409Y-31575449D01*
X61073000Y-31657944D01*
X50127553Y-31657944D01*
X50127000Y-31656922D01*
X50127000Y-30557944D01*
X50823000Y-30557944D01*
X50823000Y-30642056D01*
X50839409Y-30724551D01*
X50871598Y-30802260D01*
X50918327Y-30872197D01*
X50977803Y-30931673D01*
X51047740Y-30978402D01*
X51125449Y-31010591D01*
X51207944Y-31027000D01*
X51292056Y-31027000D01*
X51374551Y-31010591D01*
X51452260Y-30978402D01*
X51522197Y-30931673D01*
X51581673Y-30872197D01*
X51628402Y-30802260D01*
X51660591Y-30724551D01*
X51677000Y-30642056D01*
X51677000Y-30557944D01*
X51660591Y-30475449D01*
X51653340Y-30457944D01*
X53188000Y-30457944D01*
X53188000Y-30542056D01*
X53204409Y-30624551D01*
X53236598Y-30702260D01*
X53283327Y-30772197D01*
X53342803Y-30831673D01*
X53412740Y-30878402D01*
X53490449Y-30910591D01*
X53572944Y-30927000D01*
X53657056Y-30927000D01*
X53739551Y-30910591D01*
X53817260Y-30878402D01*
X53887197Y-30831673D01*
X53946673Y-30772197D01*
X53993402Y-30702260D01*
X54025591Y-30624551D01*
X54042000Y-30542056D01*
X54042000Y-30457944D01*
X54173000Y-30457944D01*
X54173000Y-30542056D01*
X54189409Y-30624551D01*
X54221598Y-30702260D01*
X54268327Y-30772197D01*
X54327803Y-30831673D01*
X54397740Y-30878402D01*
X54475449Y-30910591D01*
X54557944Y-30927000D01*
X54642056Y-30927000D01*
X54724551Y-30910591D01*
X54802260Y-30878402D01*
X54872197Y-30831673D01*
X54931673Y-30772197D01*
X54978402Y-30702260D01*
X55010591Y-30624551D01*
X55019862Y-30577940D01*
X56243924Y-29353879D01*
X56257357Y-29342855D01*
X56292613Y-29299895D01*
X56301344Y-29289257D01*
X56321656Y-29251255D01*
X56334030Y-29228105D01*
X56349121Y-29178355D01*
X56359510Y-29174052D01*
X56398001Y-29148334D01*
X56398001Y-29654196D01*
X55872060Y-30180138D01*
X55825449Y-30189409D01*
X55747740Y-30221598D01*
X55677803Y-30268327D01*
X55618327Y-30327803D01*
X55571598Y-30397740D01*
X55539409Y-30475449D01*
X55523000Y-30557944D01*
X55523000Y-30642056D01*
X55539409Y-30724551D01*
X55571598Y-30802260D01*
X55618327Y-30872197D01*
X55677803Y-30931673D01*
X55747740Y-30978402D01*
X55825449Y-31010591D01*
X55907944Y-31027000D01*
X55992056Y-31027000D01*
X56074551Y-31010591D01*
X56152260Y-30978402D01*
X56222197Y-30931673D01*
X56281673Y-30872197D01*
X56328402Y-30802260D01*
X56360591Y-30724551D01*
X56369862Y-30677940D01*
X56986675Y-30061128D01*
X57000106Y-30050106D01*
X57044093Y-29996507D01*
X57076779Y-29935356D01*
X57096907Y-29869004D01*
X57102000Y-29817292D01*
X57102000Y-29817289D01*
X57103703Y-29800000D01*
X57102000Y-29782711D01*
X57102000Y-25775878D01*
X57125449Y-25785591D01*
X57207944Y-25802000D01*
X57292056Y-25802000D01*
X57299476Y-25800524D01*
X57298000Y-25807944D01*
X57298000Y-25892056D01*
X57314409Y-25974551D01*
X57338477Y-26032653D01*
X57293327Y-26077803D01*
X57246598Y-26147740D01*
X57214409Y-26225449D01*
X57198000Y-26307944D01*
X57198000Y-26392056D01*
X57214409Y-26474551D01*
X57246598Y-26552260D01*
X57278496Y-26600000D01*
X57246598Y-26647740D01*
X57214409Y-26725449D01*
X57198000Y-26807944D01*
X57198000Y-26892056D01*
X57214409Y-26974551D01*
X57246598Y-27052260D01*
X57278496Y-27100000D01*
X57246598Y-27147740D01*
X57214409Y-27225449D01*
X57198000Y-27307944D01*
X57198000Y-27392056D01*
X57214409Y-27474551D01*
X57246598Y-27552260D01*
X57278496Y-27600000D01*
X57246598Y-27647740D01*
X57214409Y-27725449D01*
X57198000Y-27807944D01*
X57198000Y-27892056D01*
X57214409Y-27974551D01*
X57246598Y-28052260D01*
X57293327Y-28122197D01*
X57352803Y-28181673D01*
X57422740Y-28228402D01*
X57500449Y-28260591D01*
X57582944Y-28277000D01*
X57667056Y-28277000D01*
X57749551Y-28260591D01*
X57827260Y-28228402D01*
X57897197Y-28181673D01*
X57956673Y-28122197D01*
X58003402Y-28052260D01*
X58035591Y-27974551D01*
X58052000Y-27892056D01*
X58052000Y-27807944D01*
X58035591Y-27725449D01*
X58032633Y-27718308D01*
X58047740Y-27728402D01*
X58125449Y-27760591D01*
X58207944Y-27777000D01*
X58292056Y-27777000D01*
X58374551Y-27760591D01*
X58452260Y-27728402D01*
X58498001Y-27697840D01*
X58498002Y-30432702D01*
X58496298Y-30450001D01*
X58498805Y-30475449D01*
X58503095Y-30519005D01*
X58506733Y-30530997D01*
X58523223Y-30585357D01*
X58555908Y-30646508D01*
X58574370Y-30669003D01*
X58579636Y-30675420D01*
X58589409Y-30724551D01*
X58621598Y-30802260D01*
X58668327Y-30872197D01*
X58727803Y-30931673D01*
X58797740Y-30978402D01*
X58875449Y-31010591D01*
X58957944Y-31027000D01*
X59042056Y-31027000D01*
X59124551Y-31010591D01*
X59202260Y-30978402D01*
X59272197Y-30931673D01*
X59331673Y-30872197D01*
X59378402Y-30802260D01*
X59410591Y-30724551D01*
X59427000Y-30642056D01*
X59427000Y-30557944D01*
X59410591Y-30475449D01*
X59378402Y-30397740D01*
X59331673Y-30327803D01*
X59272197Y-30268327D01*
X59202260Y-30221598D01*
X59202001Y-30221491D01*
X59202001Y-29954949D01*
X59221598Y-30002260D01*
X59268327Y-30072197D01*
X59327803Y-30131673D01*
X59397740Y-30178402D01*
X59475449Y-30210591D01*
X59557944Y-30227000D01*
X59642056Y-30227000D01*
X59724551Y-30210591D01*
X59802260Y-30178402D01*
X59872197Y-30131673D01*
X59931673Y-30072197D01*
X59978402Y-30002260D01*
X60010591Y-29924551D01*
X60019862Y-29877940D01*
X60086677Y-29811126D01*
X60100105Y-29800106D01*
X60134707Y-29757944D01*
X60144093Y-29746508D01*
X60165425Y-29706598D01*
X60176779Y-29685356D01*
X60196907Y-29619004D01*
X60202000Y-29567292D01*
X60202000Y-29567290D01*
X60203703Y-29550001D01*
X60202000Y-29532712D01*
X60202000Y-27595444D01*
X60373000Y-27595444D01*
X60373000Y-27679556D01*
X60389409Y-27762051D01*
X60421598Y-27839760D01*
X60468327Y-27909697D01*
X60527803Y-27969173D01*
X60597740Y-28015902D01*
X60675449Y-28048091D01*
X60757944Y-28064500D01*
X60842056Y-28064500D01*
X60924551Y-28048091D01*
X61002260Y-28015902D01*
X61050000Y-27984004D01*
X61097740Y-28015902D01*
X61175449Y-28048091D01*
X61257944Y-28064500D01*
X61342056Y-28064500D01*
X61424551Y-28048091D01*
X61502260Y-28015902D01*
X61550000Y-27984004D01*
X61597740Y-28015902D01*
X61675449Y-28048091D01*
X61757944Y-28064500D01*
X61842056Y-28064500D01*
X61924551Y-28048091D01*
X62002260Y-28015902D01*
X62050000Y-27984004D01*
X62097740Y-28015902D01*
X62175449Y-28048091D01*
X62257944Y-28064500D01*
X62342056Y-28064500D01*
X62424551Y-28048091D01*
X62502260Y-28015902D01*
X62572197Y-27969173D01*
X62582168Y-27959202D01*
X62582168Y-28635029D01*
X62522060Y-28695138D01*
X62475449Y-28704409D01*
X62397740Y-28736598D01*
X62327803Y-28783327D01*
X62268327Y-28842803D01*
X62221598Y-28912740D01*
X62189409Y-28990449D01*
X62173000Y-29072944D01*
X62173000Y-29157056D01*
X62189409Y-29239551D01*
X62221598Y-29317260D01*
X62268327Y-29387197D01*
X62327803Y-29446673D01*
X62397740Y-29493402D01*
X62475449Y-29525591D01*
X62557944Y-29542000D01*
X62642056Y-29542000D01*
X62724551Y-29525591D01*
X62802260Y-29493402D01*
X62872197Y-29446673D01*
X62925490Y-29393380D01*
X62940085Y-29420685D01*
X62966683Y-29453094D01*
X62984073Y-29474284D01*
X62997506Y-29485308D01*
X63348000Y-29835804D01*
X63348000Y-29843225D01*
X63321598Y-29882740D01*
X63289409Y-29960449D01*
X63273000Y-30042944D01*
X63273000Y-30127056D01*
X63289409Y-30209551D01*
X63321598Y-30287260D01*
X63368327Y-30357197D01*
X63427803Y-30416673D01*
X63497740Y-30463402D01*
X63575449Y-30495591D01*
X63657944Y-30512000D01*
X63742056Y-30512000D01*
X63824551Y-30495591D01*
X63902260Y-30463402D01*
X63972197Y-30416673D01*
X64031673Y-30357197D01*
X64078402Y-30287260D01*
X64110591Y-30209551D01*
X64127000Y-30127056D01*
X64127000Y-30042944D01*
X64110591Y-29960449D01*
X64078402Y-29882740D01*
X64052000Y-29843225D01*
X64052000Y-29707289D01*
X64053703Y-29690000D01*
X64052000Y-29672708D01*
X64046907Y-29620996D01*
X64026779Y-29554644D01*
X63994093Y-29493493D01*
X63979285Y-29475449D01*
X63961129Y-29453325D01*
X63961121Y-29453317D01*
X63950105Y-29439894D01*
X63936682Y-29428878D01*
X63586178Y-29078376D01*
X63586178Y-27404126D01*
X64286673Y-26703632D01*
X64300106Y-26692608D01*
X64344093Y-26639009D01*
X64362398Y-26604763D01*
X64376779Y-26577859D01*
X64386168Y-26546907D01*
X64396907Y-26511506D01*
X64402000Y-26459794D01*
X64402000Y-26459791D01*
X64403703Y-26442502D01*
X64402000Y-26425213D01*
X64402000Y-25995802D01*
X64727940Y-25669862D01*
X64774551Y-25660591D01*
X64852260Y-25628402D01*
X64922197Y-25581673D01*
X64981673Y-25522197D01*
X65028402Y-25452260D01*
X65060591Y-25374551D01*
X65077000Y-25292056D01*
X65077000Y-25207944D01*
X65060591Y-25125449D01*
X65028402Y-25047740D01*
X64981673Y-24977803D01*
X64922197Y-24918327D01*
X64852260Y-24871598D01*
X64774551Y-24839409D01*
X64692056Y-24823000D01*
X64607944Y-24823000D01*
X64525449Y-24839409D01*
X64447740Y-24871598D01*
X64377803Y-24918327D01*
X64318327Y-24977803D01*
X64271598Y-25047740D01*
X64239409Y-25125449D01*
X64230138Y-25172060D01*
X63813328Y-25588870D01*
X63799894Y-25599895D01*
X63779422Y-25624840D01*
X63755907Y-25653493D01*
X63741207Y-25680996D01*
X63723221Y-25714645D01*
X63703093Y-25780997D01*
X63698759Y-25825004D01*
X63696297Y-25850000D01*
X63698000Y-25867289D01*
X63698001Y-26296698D01*
X63632493Y-26362206D01*
X63648091Y-26324551D01*
X63664500Y-26242056D01*
X63664500Y-26157944D01*
X63648091Y-26075449D01*
X63615902Y-25997740D01*
X63569173Y-25927803D01*
X63509697Y-25868327D01*
X63439760Y-25821598D01*
X63362051Y-25789409D01*
X63279556Y-25773000D01*
X63202000Y-25773000D01*
X63202000Y-25767288D01*
X63203703Y-25749999D01*
X63200488Y-25717356D01*
X63196907Y-25680996D01*
X63176779Y-25614644D01*
X63155829Y-25575449D01*
X63144093Y-25553492D01*
X63111128Y-25513325D01*
X63100106Y-25499894D01*
X63086672Y-25488869D01*
X62952000Y-25354198D01*
X62952000Y-24079788D01*
X62953703Y-24062499D01*
X62951187Y-24036957D01*
X62946907Y-23993496D01*
X62926779Y-23927144D01*
X62906820Y-23889803D01*
X62894093Y-23865992D01*
X62861128Y-23825825D01*
X62850106Y-23812394D01*
X62836672Y-23801369D01*
X62719862Y-23684560D01*
X62710591Y-23637949D01*
X62678402Y-23560240D01*
X62631673Y-23490303D01*
X62572197Y-23430827D01*
X62502260Y-23384098D01*
X62424551Y-23351909D01*
X62342056Y-23335500D01*
X62257944Y-23335500D01*
X62175449Y-23351909D01*
X62097740Y-23384098D01*
X62027803Y-23430827D01*
X61968327Y-23490303D01*
X61921598Y-23560240D01*
X61889409Y-23637949D01*
X61873000Y-23720444D01*
X61873000Y-23804556D01*
X61889409Y-23887051D01*
X61921598Y-23964760D01*
X61968327Y-24034697D01*
X62027803Y-24094173D01*
X62097740Y-24140902D01*
X62175449Y-24173091D01*
X62222060Y-24182362D01*
X62248001Y-24208304D01*
X62248000Y-25482711D01*
X62246297Y-25500000D01*
X62248000Y-25517289D01*
X62248000Y-25517291D01*
X62253093Y-25569003D01*
X62273221Y-25635355D01*
X62279435Y-25646980D01*
X62305907Y-25696507D01*
X62320792Y-25714644D01*
X62349894Y-25750105D01*
X62363328Y-25761130D01*
X62498001Y-25895803D01*
X62498000Y-26850213D01*
X62496297Y-26867502D01*
X62498000Y-26884791D01*
X62498000Y-26884793D01*
X62503093Y-26936505D01*
X62523221Y-27002857D01*
X62533266Y-27021650D01*
X62555907Y-27064009D01*
X62574797Y-27087026D01*
X62582169Y-27096009D01*
X62582169Y-27315799D01*
X62572197Y-27305827D01*
X62502260Y-27259098D01*
X62424551Y-27226909D01*
X62342056Y-27210500D01*
X62257944Y-27210500D01*
X62175449Y-27226909D01*
X62097740Y-27259098D01*
X62050000Y-27290996D01*
X62002260Y-27259098D01*
X61924551Y-27226909D01*
X61842056Y-27210500D01*
X61757944Y-27210500D01*
X61675449Y-27226909D01*
X61597740Y-27259098D01*
X61550000Y-27290996D01*
X61502260Y-27259098D01*
X61424551Y-27226909D01*
X61342056Y-27210500D01*
X61257944Y-27210500D01*
X61175449Y-27226909D01*
X61097740Y-27259098D01*
X61050000Y-27290996D01*
X61002260Y-27259098D01*
X60924551Y-27226909D01*
X60842056Y-27210500D01*
X60757944Y-27210500D01*
X60675449Y-27226909D01*
X60597740Y-27259098D01*
X60527803Y-27305827D01*
X60468327Y-27365303D01*
X60421598Y-27435240D01*
X60389409Y-27512949D01*
X60373000Y-27595444D01*
X60202000Y-27595444D01*
X60202000Y-26649787D01*
X60203703Y-26632498D01*
X60200302Y-26597967D01*
X60196907Y-26563494D01*
X60178982Y-26504404D01*
X60176779Y-26497141D01*
X60144093Y-26435991D01*
X60111129Y-26395824D01*
X60100106Y-26382392D01*
X60086672Y-26371368D01*
X59767304Y-26052000D01*
X59857711Y-26052000D01*
X59875000Y-26053703D01*
X59892289Y-26052000D01*
X59892292Y-26052000D01*
X59944004Y-26046907D01*
X60010356Y-26026779D01*
X60071507Y-25994093D01*
X60125106Y-25950106D01*
X60136134Y-25936668D01*
X60536678Y-25536126D01*
X60550106Y-25525106D01*
X60561126Y-25511678D01*
X60561129Y-25511675D01*
X60594093Y-25471507D01*
X60615746Y-25430997D01*
X60626779Y-25410356D01*
X60646907Y-25344004D01*
X60652000Y-25292292D01*
X60652000Y-25292289D01*
X60653703Y-25275000D01*
X60652000Y-25257711D01*
X60652000Y-24004275D01*
X60678402Y-23964760D01*
X60710591Y-23887051D01*
X60727000Y-23804556D01*
X60727000Y-23720444D01*
X60710591Y-23637949D01*
X60678402Y-23560240D01*
X60631673Y-23490303D01*
X60572197Y-23430827D01*
X60502260Y-23384098D01*
X60424551Y-23351909D01*
X60342056Y-23335500D01*
X60257944Y-23335500D01*
X60175449Y-23351909D01*
X60097740Y-23384098D01*
X60027803Y-23430827D01*
X59968327Y-23490303D01*
X59921598Y-23560240D01*
X59889409Y-23637949D01*
X59873000Y-23720444D01*
X59873000Y-23804556D01*
X59889409Y-23887051D01*
X59921598Y-23964760D01*
X59948000Y-24004275D01*
X59948001Y-25129196D01*
X59729197Y-25348000D01*
X59604275Y-25348000D01*
X59564760Y-25321598D01*
X59487051Y-25289409D01*
X59404556Y-25273000D01*
X59320444Y-25273000D01*
X59237949Y-25289409D01*
X59160240Y-25321598D01*
X59090303Y-25368327D01*
X59030827Y-25427803D01*
X58984098Y-25497740D01*
X58964399Y-25545296D01*
X58613327Y-25896369D01*
X58599894Y-25907393D01*
X58588872Y-25920824D01*
X58555907Y-25960991D01*
X58548641Y-25974585D01*
X58523221Y-26022143D01*
X58503093Y-26088495D01*
X58498907Y-26130997D01*
X58496297Y-26157498D01*
X58498000Y-26174787D01*
X58498000Y-27002160D01*
X58452260Y-26971598D01*
X58374551Y-26939409D01*
X58292056Y-26923000D01*
X58207944Y-26923000D01*
X58125449Y-26939409D01*
X58047740Y-26971598D01*
X58032633Y-26981692D01*
X58035591Y-26974551D01*
X58052000Y-26892056D01*
X58052000Y-26807944D01*
X58035591Y-26725449D01*
X58003402Y-26647740D01*
X57971504Y-26600000D01*
X58003402Y-26552260D01*
X58035591Y-26474551D01*
X58052000Y-26392056D01*
X58052000Y-26307944D01*
X58035591Y-26225449D01*
X58011523Y-26167347D01*
X58056673Y-26122197D01*
X58103402Y-26052260D01*
X58135591Y-25974551D01*
X58152000Y-25892056D01*
X58152000Y-25807944D01*
X58135591Y-25725449D01*
X58103402Y-25647740D01*
X58056673Y-25577803D01*
X57997197Y-25518327D01*
X57927260Y-25471598D01*
X57849551Y-25439409D01*
X57767056Y-25423000D01*
X57682944Y-25423000D01*
X57675524Y-25424476D01*
X57677000Y-25417056D01*
X57677000Y-25332944D01*
X57660591Y-25250449D01*
X57628402Y-25172740D01*
X57581673Y-25102803D01*
X57522197Y-25043327D01*
X57452260Y-24996598D01*
X57374551Y-24964409D01*
X57292056Y-24948000D01*
X57207944Y-24948000D01*
X57125449Y-24964409D01*
X57047740Y-24996598D01*
X56977803Y-25043327D01*
X56932653Y-25088477D01*
X56874551Y-25064409D01*
X56792056Y-25048000D01*
X56707944Y-25048000D01*
X56625449Y-25064409D01*
X56547740Y-25096598D01*
X56477803Y-25143327D01*
X56418327Y-25202803D01*
X56371598Y-25272740D01*
X56339409Y-25350449D01*
X56323000Y-25432944D01*
X56323000Y-25517056D01*
X56339409Y-25599551D01*
X56371598Y-25677260D01*
X56398000Y-25716775D01*
X56398001Y-28442966D01*
X56359510Y-28417248D01*
X56281801Y-28385059D01*
X56199306Y-28368650D01*
X56115194Y-28368650D01*
X56032699Y-28385059D01*
X55954990Y-28417248D01*
X55885053Y-28463977D01*
X55825577Y-28523453D01*
X55778848Y-28593390D01*
X55746659Y-28671099D01*
X55736887Y-28720229D01*
X55735396Y-28722046D01*
X55713158Y-28749142D01*
X55707039Y-28760591D01*
X55680472Y-28810294D01*
X55660344Y-28876646D01*
X55655251Y-28928357D01*
X55653548Y-28945649D01*
X55653817Y-28948380D01*
X55608798Y-28993399D01*
X55581673Y-28952803D01*
X55522197Y-28893327D01*
X55452260Y-28846598D01*
X55374551Y-28814409D01*
X55292056Y-28798000D01*
X55207944Y-28798000D01*
X55125449Y-28814409D01*
X55047740Y-28846598D01*
X54977803Y-28893327D01*
X54918327Y-28952803D01*
X54871598Y-29022740D01*
X54839409Y-29100449D01*
X54823000Y-29182944D01*
X54823000Y-29267056D01*
X54839409Y-29349551D01*
X54871598Y-29427260D01*
X54918327Y-29497197D01*
X54977803Y-29556673D01*
X55018400Y-29583798D01*
X54522060Y-30080138D01*
X54475449Y-30089409D01*
X54397740Y-30121598D01*
X54327803Y-30168327D01*
X54268327Y-30227803D01*
X54221598Y-30297740D01*
X54189409Y-30375449D01*
X54173000Y-30457944D01*
X54042000Y-30457944D01*
X54025591Y-30375449D01*
X53993402Y-30297740D01*
X53946673Y-30227803D01*
X53887197Y-30168327D01*
X53817260Y-30121598D01*
X53739551Y-30089409D01*
X53657056Y-30073000D01*
X53572944Y-30073000D01*
X53490449Y-30089409D01*
X53412740Y-30121598D01*
X53342803Y-30168327D01*
X53283327Y-30227803D01*
X53236598Y-30297740D01*
X53204409Y-30375449D01*
X53188000Y-30457944D01*
X51653340Y-30457944D01*
X51628402Y-30397740D01*
X51581673Y-30327803D01*
X51522197Y-30268327D01*
X51452260Y-30221598D01*
X51374551Y-30189409D01*
X51292056Y-30173000D01*
X51207944Y-30173000D01*
X51125449Y-30189409D01*
X51047740Y-30221598D01*
X50977803Y-30268327D01*
X50918327Y-30327803D01*
X50871598Y-30397740D01*
X50839409Y-30475449D01*
X50823000Y-30557944D01*
X50127000Y-30557944D01*
X50127000Y-29557944D01*
X51973000Y-29557944D01*
X51973000Y-29642056D01*
X51989409Y-29724551D01*
X52021598Y-29802260D01*
X52068327Y-29872197D01*
X52127803Y-29931673D01*
X52197740Y-29978402D01*
X52275449Y-30010591D01*
X52357944Y-30027000D01*
X52442056Y-30027000D01*
X52524551Y-30010591D01*
X52602260Y-29978402D01*
X52672197Y-29931673D01*
X52731673Y-29872197D01*
X52778402Y-29802260D01*
X52810591Y-29724551D01*
X52827000Y-29642056D01*
X52827000Y-29557944D01*
X52810591Y-29475449D01*
X52778402Y-29397740D01*
X52731673Y-29327803D01*
X52672197Y-29268327D01*
X52602260Y-29221598D01*
X52524551Y-29189409D01*
X52442056Y-29173000D01*
X52357944Y-29173000D01*
X52275449Y-29189409D01*
X52197740Y-29221598D01*
X52127803Y-29268327D01*
X52068327Y-29327803D01*
X52021598Y-29397740D01*
X51989409Y-29475449D01*
X51973000Y-29557944D01*
X50127000Y-29557944D01*
X50127000Y-27432944D01*
X51573000Y-27432944D01*
X51573000Y-27517056D01*
X51589409Y-27599551D01*
X51621598Y-27677260D01*
X51668327Y-27747197D01*
X51727803Y-27806673D01*
X51797740Y-27853402D01*
X51875449Y-27885591D01*
X51957944Y-27902000D01*
X52042056Y-27902000D01*
X52124551Y-27885591D01*
X52202260Y-27853402D01*
X52272197Y-27806673D01*
X52331673Y-27747197D01*
X52378402Y-27677260D01*
X52410591Y-27599551D01*
X52427000Y-27517056D01*
X52427000Y-27432944D01*
X52410591Y-27350449D01*
X52378402Y-27272740D01*
X52331673Y-27202803D01*
X52272197Y-27143327D01*
X52202260Y-27096598D01*
X52124551Y-27064409D01*
X52042056Y-27048000D01*
X51957944Y-27048000D01*
X51875449Y-27064409D01*
X51797740Y-27096598D01*
X51727803Y-27143327D01*
X51668327Y-27202803D01*
X51621598Y-27272740D01*
X51589409Y-27350449D01*
X51573000Y-27432944D01*
X50127000Y-27432944D01*
X50127000Y-25127000D01*
X53885456Y-25127000D01*
X53871598Y-25147740D01*
X53839409Y-25225449D01*
X53823000Y-25307944D01*
X53823000Y-25392056D01*
X53830683Y-25430683D01*
X53792056Y-25423000D01*
X53707944Y-25423000D01*
X53625449Y-25439409D01*
X53547740Y-25471598D01*
X53477803Y-25518327D01*
X53418327Y-25577803D01*
X53371598Y-25647740D01*
X53339409Y-25725449D01*
X53323000Y-25807944D01*
X53323000Y-25892056D01*
X53339409Y-25974551D01*
X53371598Y-26052260D01*
X53418327Y-26122197D01*
X53463477Y-26167347D01*
X53439409Y-26225449D01*
X53423000Y-26307944D01*
X53423000Y-26392056D01*
X53439409Y-26474551D01*
X53471598Y-26552260D01*
X53503496Y-26600000D01*
X53471598Y-26647740D01*
X53439409Y-26725449D01*
X53423000Y-26807944D01*
X53423000Y-26892056D01*
X53439409Y-26974551D01*
X53471598Y-27052260D01*
X53515996Y-27118708D01*
X53496598Y-27147740D01*
X53464409Y-27225449D01*
X53448000Y-27307944D01*
X53448000Y-27392056D01*
X53464409Y-27474551D01*
X53496598Y-27552260D01*
X53528496Y-27600000D01*
X53496598Y-27647740D01*
X53464409Y-27725449D01*
X53448000Y-27807944D01*
X53448000Y-27892056D01*
X53464409Y-27974551D01*
X53496598Y-28052260D01*
X53528496Y-28100000D01*
X53496598Y-28147740D01*
X53464409Y-28225449D01*
X53448000Y-28307944D01*
X53448000Y-28392056D01*
X53464409Y-28474551D01*
X53488477Y-28532653D01*
X53443327Y-28577803D01*
X53396598Y-28647740D01*
X53364409Y-28725449D01*
X53348000Y-28807944D01*
X53348000Y-28892056D01*
X53364409Y-28974551D01*
X53396598Y-29052260D01*
X53443327Y-29122197D01*
X53502803Y-29181673D01*
X53572740Y-29228402D01*
X53650449Y-29260591D01*
X53732944Y-29277000D01*
X53817056Y-29277000D01*
X53899551Y-29260591D01*
X53977260Y-29228402D01*
X54047197Y-29181673D01*
X54106673Y-29122197D01*
X54153402Y-29052260D01*
X54185591Y-28974551D01*
X54202000Y-28892056D01*
X54202000Y-28807944D01*
X54185591Y-28725449D01*
X54161523Y-28667347D01*
X54206673Y-28622197D01*
X54253402Y-28552260D01*
X54285591Y-28474551D01*
X54302000Y-28392056D01*
X54302000Y-28307944D01*
X54285591Y-28225449D01*
X54253402Y-28147740D01*
X54221504Y-28100000D01*
X54253402Y-28052260D01*
X54285591Y-27974551D01*
X54302000Y-27892056D01*
X54302000Y-27807944D01*
X54285591Y-27725449D01*
X54253402Y-27647740D01*
X54221504Y-27600000D01*
X54253402Y-27552260D01*
X54285591Y-27474551D01*
X54302000Y-27392056D01*
X54302000Y-27307944D01*
X54285591Y-27225449D01*
X54284623Y-27223110D01*
X54507834Y-27223110D01*
X54507834Y-27307222D01*
X54524243Y-27389717D01*
X54556432Y-27467426D01*
X54603161Y-27537363D01*
X54662637Y-27596839D01*
X54732574Y-27643568D01*
X54810283Y-27675757D01*
X54892778Y-27692166D01*
X54976890Y-27692166D01*
X55059385Y-27675757D01*
X55137094Y-27643568D01*
X55207031Y-27596839D01*
X55266507Y-27537363D01*
X55313236Y-27467426D01*
X55345425Y-27389717D01*
X55361834Y-27307222D01*
X55361834Y-27223110D01*
X55345425Y-27140615D01*
X55313236Y-27062906D01*
X55266507Y-26992969D01*
X55207031Y-26933493D01*
X55137094Y-26886764D01*
X55059385Y-26854575D01*
X54976890Y-26838166D01*
X54892778Y-26838166D01*
X54810283Y-26854575D01*
X54732574Y-26886764D01*
X54662637Y-26933493D01*
X54603161Y-26992969D01*
X54556432Y-27062906D01*
X54524243Y-27140615D01*
X54507834Y-27223110D01*
X54284623Y-27223110D01*
X54253402Y-27147740D01*
X54209004Y-27081292D01*
X54228402Y-27052260D01*
X54260591Y-26974551D01*
X54277000Y-26892056D01*
X54277000Y-26807944D01*
X54260591Y-26725449D01*
X54228402Y-26647740D01*
X54196504Y-26600000D01*
X54228402Y-26552260D01*
X54260591Y-26474551D01*
X54277000Y-26392056D01*
X54277000Y-26307944D01*
X54260591Y-26225449D01*
X54228402Y-26147740D01*
X54181673Y-26077803D01*
X54136523Y-26032653D01*
X54160591Y-25974551D01*
X54177000Y-25892056D01*
X54177000Y-25807944D01*
X54169317Y-25769317D01*
X54207944Y-25777000D01*
X54292056Y-25777000D01*
X54374551Y-25760591D01*
X54452260Y-25728402D01*
X54522197Y-25681673D01*
X54581673Y-25622197D01*
X54628402Y-25552260D01*
X54660591Y-25474551D01*
X54677000Y-25392056D01*
X54677000Y-25307944D01*
X54660591Y-25225449D01*
X54628402Y-25147740D01*
X54614544Y-25127000D01*
X54675000Y-25127000D01*
X54699776Y-25124560D01*
X54723601Y-25117333D01*
X54745557Y-25105597D01*
X54764803Y-25089803D01*
X54780597Y-25070557D01*
X54792333Y-25048601D01*
X54799560Y-25024776D01*
X54801561Y-25010547D01*
X54937343Y-23381172D01*
X55000359Y-23325157D01*
X56254881Y-23276906D01*
X56274776Y-23274560D01*
X56276917Y-23273911D01*
X56279129Y-23273614D01*
X56288794Y-23270308D01*
X56298601Y-23267333D01*
X56300575Y-23266278D01*
X56302685Y-23265556D01*
X56311527Y-23260424D01*
X56320557Y-23255597D01*
X56322283Y-23254181D01*
X56324217Y-23253058D01*
X56331887Y-23246299D01*
X56339803Y-23239803D01*
X56341224Y-23238071D01*
X56342896Y-23236598D01*
X56349096Y-23228479D01*
X56355597Y-23220557D01*
X56356651Y-23218586D01*
X56358006Y-23216811D01*
X56362509Y-23207626D01*
X56367333Y-23198601D01*
X56367981Y-23196463D01*
X56368965Y-23194457D01*
X56371590Y-23184568D01*
X56374560Y-23174776D01*
X56374779Y-23172552D01*
X56375352Y-23170393D01*
X56377000Y-23150000D01*
X56377000Y-22727000D01*
X56450000Y-22727000D01*
X56474776Y-22724560D01*
X56498601Y-22717333D01*
X56520557Y-22705597D01*
X56539803Y-22689803D01*
X56555597Y-22670557D01*
X56567333Y-22648601D01*
X56574560Y-22624776D01*
X56577000Y-22600000D01*
X56577000Y-22507944D01*
X60623000Y-22507944D01*
X60623000Y-22592056D01*
X60639409Y-22674551D01*
X60671598Y-22752260D01*
X60718327Y-22822197D01*
X60777803Y-22881673D01*
X60847740Y-22928402D01*
X60925449Y-22960591D01*
X61007944Y-22977000D01*
X61092056Y-22977000D01*
X61174551Y-22960591D01*
X61252260Y-22928402D01*
X61322197Y-22881673D01*
X61381673Y-22822197D01*
X61428402Y-22752260D01*
X61460591Y-22674551D01*
X61477000Y-22592056D01*
X61477000Y-22507944D01*
X63103000Y-22507944D01*
X63103000Y-22592056D01*
X63119409Y-22674551D01*
X63151598Y-22752260D01*
X63198327Y-22822197D01*
X63257803Y-22881673D01*
X63327740Y-22928402D01*
X63405449Y-22960591D01*
X63487944Y-22977000D01*
X63572056Y-22977000D01*
X63654551Y-22960591D01*
X63732260Y-22928402D01*
X63802197Y-22881673D01*
X63861673Y-22822197D01*
X63908402Y-22752260D01*
X63940591Y-22674551D01*
X63957000Y-22592056D01*
X63957000Y-22507944D01*
X63940591Y-22425449D01*
X63908402Y-22347740D01*
X63861673Y-22277803D01*
X63802197Y-22218327D01*
X63732260Y-22171598D01*
X63654551Y-22139409D01*
X63572056Y-22123000D01*
X63487944Y-22123000D01*
X63405449Y-22139409D01*
X63327740Y-22171598D01*
X63257803Y-22218327D01*
X63198327Y-22277803D01*
X63151598Y-22347740D01*
X63119409Y-22425449D01*
X63103000Y-22507944D01*
X61477000Y-22507944D01*
X61460591Y-22425449D01*
X61428402Y-22347740D01*
X61381673Y-22277803D01*
X61322197Y-22218327D01*
X61252260Y-22171598D01*
X61174551Y-22139409D01*
X61092056Y-22123000D01*
X61007944Y-22123000D01*
X60925449Y-22139409D01*
X60847740Y-22171598D01*
X60777803Y-22218327D01*
X60718327Y-22277803D01*
X60671598Y-22347740D01*
X60639409Y-22425449D01*
X60623000Y-22507944D01*
X56577000Y-22507944D01*
X56577000Y-20302000D01*
X64485226Y-20302000D01*
X64635294Y-20316715D01*
X64635294Y-20316715D01*
G37*
X64635294Y-20316715D02*
X64765438Y-20356007D01*
X64885465Y-20419827D01*
X64990812Y-20505745D01*
X65077469Y-20610494D01*
X65142125Y-20730074D01*
X65182324Y-20859936D01*
X65198000Y-21009079D01*
X65198001Y-23964833D01*
X65199310Y-23978128D01*
X65199267Y-23984353D01*
X65199678Y-23988549D01*
X65220079Y-24182646D01*
X65225581Y-24209446D01*
X65230712Y-24236345D01*
X65231931Y-24240382D01*
X65289643Y-24426819D01*
X65300237Y-24452021D01*
X65310503Y-24477431D01*
X65312483Y-24481154D01*
X65405308Y-24652831D01*
X65420595Y-24675494D01*
X65435602Y-24698428D01*
X65438267Y-24701696D01*
X65562671Y-24852073D01*
X65582070Y-24871337D01*
X65601244Y-24890916D01*
X65604493Y-24893604D01*
X65755735Y-25016954D01*
X65778487Y-25032070D01*
X65801118Y-25047566D01*
X65804828Y-25049571D01*
X65977150Y-25141196D01*
X66002403Y-25151604D01*
X66027614Y-25162410D01*
X66031643Y-25163657D01*
X66218479Y-25220066D01*
X66245294Y-25225375D01*
X66272102Y-25231073D01*
X66276296Y-25231514D01*
X66470529Y-25250559D01*
X66470536Y-25250559D01*
X66485167Y-25252000D01*
X67985226Y-25252000D01*
X68135294Y-25266715D01*
X68265438Y-25306007D01*
X68385465Y-25369827D01*
X68490812Y-25455745D01*
X68577469Y-25560494D01*
X68642125Y-25680074D01*
X68682324Y-25809936D01*
X68698000Y-25959079D01*
X68698001Y-27285216D01*
X68683285Y-27435297D01*
X68643993Y-27565438D01*
X68580173Y-27685465D01*
X68494253Y-27790814D01*
X68389504Y-27877470D01*
X68269926Y-27942125D01*
X68140059Y-27982325D01*
X67990922Y-27998000D01*
X67154948Y-27998000D01*
X67202260Y-27978402D01*
X67272197Y-27931673D01*
X67331673Y-27872197D01*
X67378402Y-27802260D01*
X67410591Y-27724551D01*
X67427000Y-27642056D01*
X67427000Y-27557944D01*
X67410591Y-27475449D01*
X67378402Y-27397740D01*
X67331673Y-27327803D01*
X67272197Y-27268327D01*
X67202260Y-27221598D01*
X67124551Y-27189409D01*
X67042056Y-27173000D01*
X66957944Y-27173000D01*
X66875449Y-27189409D01*
X66797740Y-27221598D01*
X66727803Y-27268327D01*
X66668327Y-27327803D01*
X66621598Y-27397740D01*
X66589409Y-27475449D01*
X66573000Y-27557944D01*
X66573000Y-27642056D01*
X66589409Y-27724551D01*
X66621598Y-27802260D01*
X66668327Y-27872197D01*
X66727803Y-27931673D01*
X66797740Y-27978402D01*
X66845052Y-27998000D01*
X66485167Y-27998000D01*
X66471863Y-27999310D01*
X66465647Y-27999267D01*
X66461450Y-27999679D01*
X66267354Y-28020079D01*
X66240554Y-28025581D01*
X66213655Y-28030712D01*
X66209618Y-28031931D01*
X66023180Y-28089643D01*
X65997965Y-28100243D01*
X65972569Y-28110503D01*
X65968846Y-28112483D01*
X65797169Y-28205308D01*
X65774505Y-28220595D01*
X65751572Y-28235602D01*
X65748304Y-28238268D01*
X65597926Y-28362671D01*
X65578663Y-28382070D01*
X65559084Y-28401243D01*
X65556396Y-28404493D01*
X65433046Y-28555735D01*
X65417930Y-28578487D01*
X65402434Y-28601118D01*
X65400429Y-28604828D01*
X65308804Y-28777150D01*
X65298401Y-28802391D01*
X65287590Y-28827614D01*
X65286344Y-28831642D01*
X65229934Y-29018479D01*
X65224622Y-29045307D01*
X65218927Y-29072102D01*
X65218486Y-29076296D01*
X65199441Y-29270530D01*
X65199441Y-29270537D01*
X65198000Y-29285168D01*
X65198001Y-32285216D01*
X65183285Y-32435297D01*
X65143993Y-32565438D01*
X65080173Y-32685465D01*
X64994253Y-32790814D01*
X64889504Y-32877470D01*
X64769926Y-32942125D01*
X64640059Y-32982325D01*
X64490922Y-32998000D01*
X63990870Y-32998000D01*
X64031673Y-32957197D01*
X64078402Y-32887260D01*
X64110591Y-32809551D01*
X64127000Y-32727056D01*
X64127000Y-32642944D01*
X64110591Y-32560449D01*
X64078402Y-32482740D01*
X64031673Y-32412803D01*
X63972197Y-32353327D01*
X63902260Y-32306598D01*
X63824551Y-32274409D01*
X63742056Y-32258000D01*
X63657944Y-32258000D01*
X63575449Y-32274409D01*
X63497740Y-32306598D01*
X63427803Y-32353327D01*
X63368327Y-32412803D01*
X63321598Y-32482740D01*
X63289409Y-32560449D01*
X63273000Y-32642944D01*
X63273000Y-32727056D01*
X63289409Y-32809551D01*
X63321598Y-32887260D01*
X63368327Y-32957197D01*
X63409130Y-32998000D01*
X62890870Y-32998000D01*
X62931673Y-32957197D01*
X62978402Y-32887260D01*
X63010591Y-32809551D01*
X63027000Y-32727056D01*
X63027000Y-32642944D01*
X63010591Y-32560449D01*
X62978402Y-32482740D01*
X62931673Y-32412803D01*
X62872197Y-32353327D01*
X62802260Y-32306598D01*
X62724551Y-32274409D01*
X62642056Y-32258000D01*
X62557944Y-32258000D01*
X62475449Y-32274409D01*
X62397740Y-32306598D01*
X62327803Y-32353327D01*
X62268327Y-32412803D01*
X62221598Y-32482740D01*
X62189409Y-32560449D01*
X62173000Y-32642944D01*
X62173000Y-32727056D01*
X62189409Y-32809551D01*
X62221598Y-32887260D01*
X62268327Y-32957197D01*
X62309130Y-32998000D01*
X61775870Y-32998000D01*
X61831673Y-32942197D01*
X61878402Y-32872260D01*
X61910591Y-32794551D01*
X61927000Y-32712056D01*
X61927000Y-32627944D01*
X61910591Y-32545449D01*
X61878402Y-32467740D01*
X61831673Y-32397803D01*
X61772197Y-32338327D01*
X61702260Y-32291598D01*
X61624551Y-32259409D01*
X61542056Y-32243000D01*
X61457944Y-32243000D01*
X61375449Y-32259409D01*
X61297740Y-32291598D01*
X61227803Y-32338327D01*
X61168327Y-32397803D01*
X61121598Y-32467740D01*
X61089409Y-32545449D01*
X61073000Y-32627944D01*
X61073000Y-32712056D01*
X61089409Y-32794551D01*
X61121598Y-32872260D01*
X61168327Y-32942197D01*
X61224130Y-32998000D01*
X51555870Y-32998000D01*
X51581673Y-32972197D01*
X51628402Y-32902260D01*
X51660591Y-32824551D01*
X51677000Y-32742056D01*
X51677000Y-32657944D01*
X51660591Y-32575449D01*
X51628402Y-32497740D01*
X51581673Y-32427803D01*
X51522197Y-32368327D01*
X51452260Y-32321598D01*
X51374551Y-32289409D01*
X51292056Y-32273000D01*
X51207944Y-32273000D01*
X51125449Y-32289409D01*
X51047740Y-32321598D01*
X50977803Y-32368327D01*
X50918327Y-32427803D01*
X50871598Y-32497740D01*
X50839409Y-32575449D01*
X50823000Y-32657944D01*
X50823000Y-32742056D01*
X50839409Y-32824551D01*
X50871598Y-32902260D01*
X50918327Y-32972197D01*
X50936450Y-32990320D01*
X50864703Y-32983285D01*
X50734562Y-32943993D01*
X50614535Y-32880173D01*
X50509186Y-32794253D01*
X50422530Y-32689504D01*
X50357875Y-32569926D01*
X50317675Y-32440059D01*
X50300647Y-32278044D01*
X50300733Y-32265647D01*
X50300321Y-32261450D01*
X50279921Y-32067354D01*
X50274419Y-32040554D01*
X50269288Y-32013655D01*
X50268069Y-32009618D01*
X50210357Y-31823180D01*
X50199757Y-31797965D01*
X50189497Y-31772569D01*
X50187517Y-31768846D01*
X50127553Y-31657944D01*
X61073000Y-31657944D01*
X61073000Y-31742056D01*
X61089409Y-31824551D01*
X61121598Y-31902260D01*
X61168327Y-31972197D01*
X61227803Y-32031673D01*
X61297740Y-32078402D01*
X61375449Y-32110591D01*
X61457944Y-32127000D01*
X61542056Y-32127000D01*
X61624551Y-32110591D01*
X61702260Y-32078402D01*
X61772197Y-32031673D01*
X61831673Y-31972197D01*
X61878402Y-31902260D01*
X61910591Y-31824551D01*
X61927000Y-31742056D01*
X61927000Y-31672944D01*
X62173000Y-31672944D01*
X62173000Y-31757056D01*
X62189409Y-31839551D01*
X62221598Y-31917260D01*
X62268327Y-31987197D01*
X62327803Y-32046673D01*
X62397740Y-32093402D01*
X62475449Y-32125591D01*
X62557944Y-32142000D01*
X62642056Y-32142000D01*
X62724551Y-32125591D01*
X62802260Y-32093402D01*
X62872197Y-32046673D01*
X62931673Y-31987197D01*
X62978402Y-31917260D01*
X63010591Y-31839551D01*
X63027000Y-31757056D01*
X63027000Y-31672944D01*
X63273000Y-31672944D01*
X63273000Y-31757056D01*
X63289409Y-31839551D01*
X63321598Y-31917260D01*
X63368327Y-31987197D01*
X63427803Y-32046673D01*
X63497740Y-32093402D01*
X63575449Y-32125591D01*
X63657944Y-32142000D01*
X63742056Y-32142000D01*
X63824551Y-32125591D01*
X63902260Y-32093402D01*
X63972197Y-32046673D01*
X64031673Y-31987197D01*
X64078402Y-31917260D01*
X64110591Y-31839551D01*
X64127000Y-31757056D01*
X64127000Y-31672944D01*
X64110591Y-31590449D01*
X64078402Y-31512740D01*
X64031673Y-31442803D01*
X63972197Y-31383327D01*
X63902260Y-31336598D01*
X63824551Y-31304409D01*
X63742056Y-31288000D01*
X63657944Y-31288000D01*
X63575449Y-31304409D01*
X63497740Y-31336598D01*
X63427803Y-31383327D01*
X63368327Y-31442803D01*
X63321598Y-31512740D01*
X63289409Y-31590449D01*
X63273000Y-31672944D01*
X63027000Y-31672944D01*
X63010591Y-31590449D01*
X62978402Y-31512740D01*
X62931673Y-31442803D01*
X62872197Y-31383327D01*
X62802260Y-31336598D01*
X62724551Y-31304409D01*
X62642056Y-31288000D01*
X62557944Y-31288000D01*
X62475449Y-31304409D01*
X62397740Y-31336598D01*
X62327803Y-31383327D01*
X62268327Y-31442803D01*
X62221598Y-31512740D01*
X62189409Y-31590449D01*
X62173000Y-31672944D01*
X61927000Y-31672944D01*
X61927000Y-31657944D01*
X61910591Y-31575449D01*
X61878402Y-31497740D01*
X61831673Y-31427803D01*
X61772197Y-31368327D01*
X61702260Y-31321598D01*
X61624551Y-31289409D01*
X61542056Y-31273000D01*
X61457944Y-31273000D01*
X61375449Y-31289409D01*
X61297740Y-31321598D01*
X61227803Y-31368327D01*
X61168327Y-31427803D01*
X61121598Y-31497740D01*
X61089409Y-31575449D01*
X61073000Y-31657944D01*
X50127553Y-31657944D01*
X50127000Y-31656922D01*
X50127000Y-30557944D01*
X50823000Y-30557944D01*
X50823000Y-30642056D01*
X50839409Y-30724551D01*
X50871598Y-30802260D01*
X50918327Y-30872197D01*
X50977803Y-30931673D01*
X51047740Y-30978402D01*
X51125449Y-31010591D01*
X51207944Y-31027000D01*
X51292056Y-31027000D01*
X51374551Y-31010591D01*
X51452260Y-30978402D01*
X51522197Y-30931673D01*
X51581673Y-30872197D01*
X51628402Y-30802260D01*
X51660591Y-30724551D01*
X51677000Y-30642056D01*
X51677000Y-30557944D01*
X51660591Y-30475449D01*
X51653340Y-30457944D01*
X53188000Y-30457944D01*
X53188000Y-30542056D01*
X53204409Y-30624551D01*
X53236598Y-30702260D01*
X53283327Y-30772197D01*
X53342803Y-30831673D01*
X53412740Y-30878402D01*
X53490449Y-30910591D01*
X53572944Y-30927000D01*
X53657056Y-30927000D01*
X53739551Y-30910591D01*
X53817260Y-30878402D01*
X53887197Y-30831673D01*
X53946673Y-30772197D01*
X53993402Y-30702260D01*
X54025591Y-30624551D01*
X54042000Y-30542056D01*
X54042000Y-30457944D01*
X54173000Y-30457944D01*
X54173000Y-30542056D01*
X54189409Y-30624551D01*
X54221598Y-30702260D01*
X54268327Y-30772197D01*
X54327803Y-30831673D01*
X54397740Y-30878402D01*
X54475449Y-30910591D01*
X54557944Y-30927000D01*
X54642056Y-30927000D01*
X54724551Y-30910591D01*
X54802260Y-30878402D01*
X54872197Y-30831673D01*
X54931673Y-30772197D01*
X54978402Y-30702260D01*
X55010591Y-30624551D01*
X55019862Y-30577940D01*
X56243924Y-29353879D01*
X56257357Y-29342855D01*
X56292613Y-29299895D01*
X56301344Y-29289257D01*
X56321656Y-29251255D01*
X56334030Y-29228105D01*
X56349121Y-29178355D01*
X56359510Y-29174052D01*
X56398001Y-29148334D01*
X56398001Y-29654196D01*
X55872060Y-30180138D01*
X55825449Y-30189409D01*
X55747740Y-30221598D01*
X55677803Y-30268327D01*
X55618327Y-30327803D01*
X55571598Y-30397740D01*
X55539409Y-30475449D01*
X55523000Y-30557944D01*
X55523000Y-30642056D01*
X55539409Y-30724551D01*
X55571598Y-30802260D01*
X55618327Y-30872197D01*
X55677803Y-30931673D01*
X55747740Y-30978402D01*
X55825449Y-31010591D01*
X55907944Y-31027000D01*
X55992056Y-31027000D01*
X56074551Y-31010591D01*
X56152260Y-30978402D01*
X56222197Y-30931673D01*
X56281673Y-30872197D01*
X56328402Y-30802260D01*
X56360591Y-30724551D01*
X56369862Y-30677940D01*
X56986675Y-30061128D01*
X57000106Y-30050106D01*
X57044093Y-29996507D01*
X57076779Y-29935356D01*
X57096907Y-29869004D01*
X57102000Y-29817292D01*
X57102000Y-29817289D01*
X57103703Y-29800000D01*
X57102000Y-29782711D01*
X57102000Y-25775878D01*
X57125449Y-25785591D01*
X57207944Y-25802000D01*
X57292056Y-25802000D01*
X57299476Y-25800524D01*
X57298000Y-25807944D01*
X57298000Y-25892056D01*
X57314409Y-25974551D01*
X57338477Y-26032653D01*
X57293327Y-26077803D01*
X57246598Y-26147740D01*
X57214409Y-26225449D01*
X57198000Y-26307944D01*
X57198000Y-26392056D01*
X57214409Y-26474551D01*
X57246598Y-26552260D01*
X57278496Y-26600000D01*
X57246598Y-26647740D01*
X57214409Y-26725449D01*
X57198000Y-26807944D01*
X57198000Y-26892056D01*
X57214409Y-26974551D01*
X57246598Y-27052260D01*
X57278496Y-27100000D01*
X57246598Y-27147740D01*
X57214409Y-27225449D01*
X57198000Y-27307944D01*
X57198000Y-27392056D01*
X57214409Y-27474551D01*
X57246598Y-27552260D01*
X57278496Y-27600000D01*
X57246598Y-27647740D01*
X57214409Y-27725449D01*
X57198000Y-27807944D01*
X57198000Y-27892056D01*
X57214409Y-27974551D01*
X57246598Y-28052260D01*
X57293327Y-28122197D01*
X57352803Y-28181673D01*
X57422740Y-28228402D01*
X57500449Y-28260591D01*
X57582944Y-28277000D01*
X57667056Y-28277000D01*
X57749551Y-28260591D01*
X57827260Y-28228402D01*
X57897197Y-28181673D01*
X57956673Y-28122197D01*
X58003402Y-28052260D01*
X58035591Y-27974551D01*
X58052000Y-27892056D01*
X58052000Y-27807944D01*
X58035591Y-27725449D01*
X58032633Y-27718308D01*
X58047740Y-27728402D01*
X58125449Y-27760591D01*
X58207944Y-27777000D01*
X58292056Y-27777000D01*
X58374551Y-27760591D01*
X58452260Y-27728402D01*
X58498001Y-27697840D01*
X58498002Y-30432702D01*
X58496298Y-30450001D01*
X58498805Y-30475449D01*
X58503095Y-30519005D01*
X58506733Y-30530997D01*
X58523223Y-30585357D01*
X58555908Y-30646508D01*
X58574370Y-30669003D01*
X58579636Y-30675420D01*
X58589409Y-30724551D01*
X58621598Y-30802260D01*
X58668327Y-30872197D01*
X58727803Y-30931673D01*
X58797740Y-30978402D01*
X58875449Y-31010591D01*
X58957944Y-31027000D01*
X59042056Y-31027000D01*
X59124551Y-31010591D01*
X59202260Y-30978402D01*
X59272197Y-30931673D01*
X59331673Y-30872197D01*
X59378402Y-30802260D01*
X59410591Y-30724551D01*
X59427000Y-30642056D01*
X59427000Y-30557944D01*
X59410591Y-30475449D01*
X59378402Y-30397740D01*
X59331673Y-30327803D01*
X59272197Y-30268327D01*
X59202260Y-30221598D01*
X59202001Y-30221491D01*
X59202001Y-29954949D01*
X59221598Y-30002260D01*
X59268327Y-30072197D01*
X59327803Y-30131673D01*
X59397740Y-30178402D01*
X59475449Y-30210591D01*
X59557944Y-30227000D01*
X59642056Y-30227000D01*
X59724551Y-30210591D01*
X59802260Y-30178402D01*
X59872197Y-30131673D01*
X59931673Y-30072197D01*
X59978402Y-30002260D01*
X60010591Y-29924551D01*
X60019862Y-29877940D01*
X60086677Y-29811126D01*
X60100105Y-29800106D01*
X60134707Y-29757944D01*
X60144093Y-29746508D01*
X60165425Y-29706598D01*
X60176779Y-29685356D01*
X60196907Y-29619004D01*
X60202000Y-29567292D01*
X60202000Y-29567290D01*
X60203703Y-29550001D01*
X60202000Y-29532712D01*
X60202000Y-27595444D01*
X60373000Y-27595444D01*
X60373000Y-27679556D01*
X60389409Y-27762051D01*
X60421598Y-27839760D01*
X60468327Y-27909697D01*
X60527803Y-27969173D01*
X60597740Y-28015902D01*
X60675449Y-28048091D01*
X60757944Y-28064500D01*
X60842056Y-28064500D01*
X60924551Y-28048091D01*
X61002260Y-28015902D01*
X61050000Y-27984004D01*
X61097740Y-28015902D01*
X61175449Y-28048091D01*
X61257944Y-28064500D01*
X61342056Y-28064500D01*
X61424551Y-28048091D01*
X61502260Y-28015902D01*
X61550000Y-27984004D01*
X61597740Y-28015902D01*
X61675449Y-28048091D01*
X61757944Y-28064500D01*
X61842056Y-28064500D01*
X61924551Y-28048091D01*
X62002260Y-28015902D01*
X62050000Y-27984004D01*
X62097740Y-28015902D01*
X62175449Y-28048091D01*
X62257944Y-28064500D01*
X62342056Y-28064500D01*
X62424551Y-28048091D01*
X62502260Y-28015902D01*
X62572197Y-27969173D01*
X62582168Y-27959202D01*
X62582168Y-28635029D01*
X62522060Y-28695138D01*
X62475449Y-28704409D01*
X62397740Y-28736598D01*
X62327803Y-28783327D01*
X62268327Y-28842803D01*
X62221598Y-28912740D01*
X62189409Y-28990449D01*
X62173000Y-29072944D01*
X62173000Y-29157056D01*
X62189409Y-29239551D01*
X62221598Y-29317260D01*
X62268327Y-29387197D01*
X62327803Y-29446673D01*
X62397740Y-29493402D01*
X62475449Y-29525591D01*
X62557944Y-29542000D01*
X62642056Y-29542000D01*
X62724551Y-29525591D01*
X62802260Y-29493402D01*
X62872197Y-29446673D01*
X62925490Y-29393380D01*
X62940085Y-29420685D01*
X62966683Y-29453094D01*
X62984073Y-29474284D01*
X62997506Y-29485308D01*
X63348000Y-29835804D01*
X63348000Y-29843225D01*
X63321598Y-29882740D01*
X63289409Y-29960449D01*
X63273000Y-30042944D01*
X63273000Y-30127056D01*
X63289409Y-30209551D01*
X63321598Y-30287260D01*
X63368327Y-30357197D01*
X63427803Y-30416673D01*
X63497740Y-30463402D01*
X63575449Y-30495591D01*
X63657944Y-30512000D01*
X63742056Y-30512000D01*
X63824551Y-30495591D01*
X63902260Y-30463402D01*
X63972197Y-30416673D01*
X64031673Y-30357197D01*
X64078402Y-30287260D01*
X64110591Y-30209551D01*
X64127000Y-30127056D01*
X64127000Y-30042944D01*
X64110591Y-29960449D01*
X64078402Y-29882740D01*
X64052000Y-29843225D01*
X64052000Y-29707289D01*
X64053703Y-29690000D01*
X64052000Y-29672708D01*
X64046907Y-29620996D01*
X64026779Y-29554644D01*
X63994093Y-29493493D01*
X63979285Y-29475449D01*
X63961129Y-29453325D01*
X63961121Y-29453317D01*
X63950105Y-29439894D01*
X63936682Y-29428878D01*
X63586178Y-29078376D01*
X63586178Y-27404126D01*
X64286673Y-26703632D01*
X64300106Y-26692608D01*
X64344093Y-26639009D01*
X64362398Y-26604763D01*
X64376779Y-26577859D01*
X64386168Y-26546907D01*
X64396907Y-26511506D01*
X64402000Y-26459794D01*
X64402000Y-26459791D01*
X64403703Y-26442502D01*
X64402000Y-26425213D01*
X64402000Y-25995802D01*
X64727940Y-25669862D01*
X64774551Y-25660591D01*
X64852260Y-25628402D01*
X64922197Y-25581673D01*
X64981673Y-25522197D01*
X65028402Y-25452260D01*
X65060591Y-25374551D01*
X65077000Y-25292056D01*
X65077000Y-25207944D01*
X65060591Y-25125449D01*
X65028402Y-25047740D01*
X64981673Y-24977803D01*
X64922197Y-24918327D01*
X64852260Y-24871598D01*
X64774551Y-24839409D01*
X64692056Y-24823000D01*
X64607944Y-24823000D01*
X64525449Y-24839409D01*
X64447740Y-24871598D01*
X64377803Y-24918327D01*
X64318327Y-24977803D01*
X64271598Y-25047740D01*
X64239409Y-25125449D01*
X64230138Y-25172060D01*
X63813328Y-25588870D01*
X63799894Y-25599895D01*
X63779422Y-25624840D01*
X63755907Y-25653493D01*
X63741207Y-25680996D01*
X63723221Y-25714645D01*
X63703093Y-25780997D01*
X63698759Y-25825004D01*
X63696297Y-25850000D01*
X63698000Y-25867289D01*
X63698001Y-26296698D01*
X63632493Y-26362206D01*
X63648091Y-26324551D01*
X63664500Y-26242056D01*
X63664500Y-26157944D01*
X63648091Y-26075449D01*
X63615902Y-25997740D01*
X63569173Y-25927803D01*
X63509697Y-25868327D01*
X63439760Y-25821598D01*
X63362051Y-25789409D01*
X63279556Y-25773000D01*
X63202000Y-25773000D01*
X63202000Y-25767288D01*
X63203703Y-25749999D01*
X63200488Y-25717356D01*
X63196907Y-25680996D01*
X63176779Y-25614644D01*
X63155829Y-25575449D01*
X63144093Y-25553492D01*
X63111128Y-25513325D01*
X63100106Y-25499894D01*
X63086672Y-25488869D01*
X62952000Y-25354198D01*
X62952000Y-24079788D01*
X62953703Y-24062499D01*
X62951187Y-24036957D01*
X62946907Y-23993496D01*
X62926779Y-23927144D01*
X62906820Y-23889803D01*
X62894093Y-23865992D01*
X62861128Y-23825825D01*
X62850106Y-23812394D01*
X62836672Y-23801369D01*
X62719862Y-23684560D01*
X62710591Y-23637949D01*
X62678402Y-23560240D01*
X62631673Y-23490303D01*
X62572197Y-23430827D01*
X62502260Y-23384098D01*
X62424551Y-23351909D01*
X62342056Y-23335500D01*
X62257944Y-23335500D01*
X62175449Y-23351909D01*
X62097740Y-23384098D01*
X62027803Y-23430827D01*
X61968327Y-23490303D01*
X61921598Y-23560240D01*
X61889409Y-23637949D01*
X61873000Y-23720444D01*
X61873000Y-23804556D01*
X61889409Y-23887051D01*
X61921598Y-23964760D01*
X61968327Y-24034697D01*
X62027803Y-24094173D01*
X62097740Y-24140902D01*
X62175449Y-24173091D01*
X62222060Y-24182362D01*
X62248001Y-24208304D01*
X62248000Y-25482711D01*
X62246297Y-25500000D01*
X62248000Y-25517289D01*
X62248000Y-25517291D01*
X62253093Y-25569003D01*
X62273221Y-25635355D01*
X62279435Y-25646980D01*
X62305907Y-25696507D01*
X62320792Y-25714644D01*
X62349894Y-25750105D01*
X62363328Y-25761130D01*
X62498001Y-25895803D01*
X62498000Y-26850213D01*
X62496297Y-26867502D01*
X62498000Y-26884791D01*
X62498000Y-26884793D01*
X62503093Y-26936505D01*
X62523221Y-27002857D01*
X62533266Y-27021650D01*
X62555907Y-27064009D01*
X62574797Y-27087026D01*
X62582169Y-27096009D01*
X62582169Y-27315799D01*
X62572197Y-27305827D01*
X62502260Y-27259098D01*
X62424551Y-27226909D01*
X62342056Y-27210500D01*
X62257944Y-27210500D01*
X62175449Y-27226909D01*
X62097740Y-27259098D01*
X62050000Y-27290996D01*
X62002260Y-27259098D01*
X61924551Y-27226909D01*
X61842056Y-27210500D01*
X61757944Y-27210500D01*
X61675449Y-27226909D01*
X61597740Y-27259098D01*
X61550000Y-27290996D01*
X61502260Y-27259098D01*
X61424551Y-27226909D01*
X61342056Y-27210500D01*
X61257944Y-27210500D01*
X61175449Y-27226909D01*
X61097740Y-27259098D01*
X61050000Y-27290996D01*
X61002260Y-27259098D01*
X60924551Y-27226909D01*
X60842056Y-27210500D01*
X60757944Y-27210500D01*
X60675449Y-27226909D01*
X60597740Y-27259098D01*
X60527803Y-27305827D01*
X60468327Y-27365303D01*
X60421598Y-27435240D01*
X60389409Y-27512949D01*
X60373000Y-27595444D01*
X60202000Y-27595444D01*
X60202000Y-26649787D01*
X60203703Y-26632498D01*
X60200302Y-26597967D01*
X60196907Y-26563494D01*
X60178982Y-26504404D01*
X60176779Y-26497141D01*
X60144093Y-26435991D01*
X60111129Y-26395824D01*
X60100106Y-26382392D01*
X60086672Y-26371368D01*
X59767304Y-26052000D01*
X59857711Y-26052000D01*
X59875000Y-26053703D01*
X59892289Y-26052000D01*
X59892292Y-26052000D01*
X59944004Y-26046907D01*
X60010356Y-26026779D01*
X60071507Y-25994093D01*
X60125106Y-25950106D01*
X60136134Y-25936668D01*
X60536678Y-25536126D01*
X60550106Y-25525106D01*
X60561126Y-25511678D01*
X60561129Y-25511675D01*
X60594093Y-25471507D01*
X60615746Y-25430997D01*
X60626779Y-25410356D01*
X60646907Y-25344004D01*
X60652000Y-25292292D01*
X60652000Y-25292289D01*
X60653703Y-25275000D01*
X60652000Y-25257711D01*
X60652000Y-24004275D01*
X60678402Y-23964760D01*
X60710591Y-23887051D01*
X60727000Y-23804556D01*
X60727000Y-23720444D01*
X60710591Y-23637949D01*
X60678402Y-23560240D01*
X60631673Y-23490303D01*
X60572197Y-23430827D01*
X60502260Y-23384098D01*
X60424551Y-23351909D01*
X60342056Y-23335500D01*
X60257944Y-23335500D01*
X60175449Y-23351909D01*
X60097740Y-23384098D01*
X60027803Y-23430827D01*
X59968327Y-23490303D01*
X59921598Y-23560240D01*
X59889409Y-23637949D01*
X59873000Y-23720444D01*
X59873000Y-23804556D01*
X59889409Y-23887051D01*
X59921598Y-23964760D01*
X59948000Y-24004275D01*
X59948001Y-25129196D01*
X59729197Y-25348000D01*
X59604275Y-25348000D01*
X59564760Y-25321598D01*
X59487051Y-25289409D01*
X59404556Y-25273000D01*
X59320444Y-25273000D01*
X59237949Y-25289409D01*
X59160240Y-25321598D01*
X59090303Y-25368327D01*
X59030827Y-25427803D01*
X58984098Y-25497740D01*
X58964399Y-25545296D01*
X58613327Y-25896369D01*
X58599894Y-25907393D01*
X58588872Y-25920824D01*
X58555907Y-25960991D01*
X58548641Y-25974585D01*
X58523221Y-26022143D01*
X58503093Y-26088495D01*
X58498907Y-26130997D01*
X58496297Y-26157498D01*
X58498000Y-26174787D01*
X58498000Y-27002160D01*
X58452260Y-26971598D01*
X58374551Y-26939409D01*
X58292056Y-26923000D01*
X58207944Y-26923000D01*
X58125449Y-26939409D01*
X58047740Y-26971598D01*
X58032633Y-26981692D01*
X58035591Y-26974551D01*
X58052000Y-26892056D01*
X58052000Y-26807944D01*
X58035591Y-26725449D01*
X58003402Y-26647740D01*
X57971504Y-26600000D01*
X58003402Y-26552260D01*
X58035591Y-26474551D01*
X58052000Y-26392056D01*
X58052000Y-26307944D01*
X58035591Y-26225449D01*
X58011523Y-26167347D01*
X58056673Y-26122197D01*
X58103402Y-26052260D01*
X58135591Y-25974551D01*
X58152000Y-25892056D01*
X58152000Y-25807944D01*
X58135591Y-25725449D01*
X58103402Y-25647740D01*
X58056673Y-25577803D01*
X57997197Y-25518327D01*
X57927260Y-25471598D01*
X57849551Y-25439409D01*
X57767056Y-25423000D01*
X57682944Y-25423000D01*
X57675524Y-25424476D01*
X57677000Y-25417056D01*
X57677000Y-25332944D01*
X57660591Y-25250449D01*
X57628402Y-25172740D01*
X57581673Y-25102803D01*
X57522197Y-25043327D01*
X57452260Y-24996598D01*
X57374551Y-24964409D01*
X57292056Y-24948000D01*
X57207944Y-24948000D01*
X57125449Y-24964409D01*
X57047740Y-24996598D01*
X56977803Y-25043327D01*
X56932653Y-25088477D01*
X56874551Y-25064409D01*
X56792056Y-25048000D01*
X56707944Y-25048000D01*
X56625449Y-25064409D01*
X56547740Y-25096598D01*
X56477803Y-25143327D01*
X56418327Y-25202803D01*
X56371598Y-25272740D01*
X56339409Y-25350449D01*
X56323000Y-25432944D01*
X56323000Y-25517056D01*
X56339409Y-25599551D01*
X56371598Y-25677260D01*
X56398000Y-25716775D01*
X56398001Y-28442966D01*
X56359510Y-28417248D01*
X56281801Y-28385059D01*
X56199306Y-28368650D01*
X56115194Y-28368650D01*
X56032699Y-28385059D01*
X55954990Y-28417248D01*
X55885053Y-28463977D01*
X55825577Y-28523453D01*
X55778848Y-28593390D01*
X55746659Y-28671099D01*
X55736887Y-28720229D01*
X55735396Y-28722046D01*
X55713158Y-28749142D01*
X55707039Y-28760591D01*
X55680472Y-28810294D01*
X55660344Y-28876646D01*
X55655251Y-28928357D01*
X55653548Y-28945649D01*
X55653817Y-28948380D01*
X55608798Y-28993399D01*
X55581673Y-28952803D01*
X55522197Y-28893327D01*
X55452260Y-28846598D01*
X55374551Y-28814409D01*
X55292056Y-28798000D01*
X55207944Y-28798000D01*
X55125449Y-28814409D01*
X55047740Y-28846598D01*
X54977803Y-28893327D01*
X54918327Y-28952803D01*
X54871598Y-29022740D01*
X54839409Y-29100449D01*
X54823000Y-29182944D01*
X54823000Y-29267056D01*
X54839409Y-29349551D01*
X54871598Y-29427260D01*
X54918327Y-29497197D01*
X54977803Y-29556673D01*
X55018400Y-29583798D01*
X54522060Y-30080138D01*
X54475449Y-30089409D01*
X54397740Y-30121598D01*
X54327803Y-30168327D01*
X54268327Y-30227803D01*
X54221598Y-30297740D01*
X54189409Y-30375449D01*
X54173000Y-30457944D01*
X54042000Y-30457944D01*
X54025591Y-30375449D01*
X53993402Y-30297740D01*
X53946673Y-30227803D01*
X53887197Y-30168327D01*
X53817260Y-30121598D01*
X53739551Y-30089409D01*
X53657056Y-30073000D01*
X53572944Y-30073000D01*
X53490449Y-30089409D01*
X53412740Y-30121598D01*
X53342803Y-30168327D01*
X53283327Y-30227803D01*
X53236598Y-30297740D01*
X53204409Y-30375449D01*
X53188000Y-30457944D01*
X51653340Y-30457944D01*
X51628402Y-30397740D01*
X51581673Y-30327803D01*
X51522197Y-30268327D01*
X51452260Y-30221598D01*
X51374551Y-30189409D01*
X51292056Y-30173000D01*
X51207944Y-30173000D01*
X51125449Y-30189409D01*
X51047740Y-30221598D01*
X50977803Y-30268327D01*
X50918327Y-30327803D01*
X50871598Y-30397740D01*
X50839409Y-30475449D01*
X50823000Y-30557944D01*
X50127000Y-30557944D01*
X50127000Y-29557944D01*
X51973000Y-29557944D01*
X51973000Y-29642056D01*
X51989409Y-29724551D01*
X52021598Y-29802260D01*
X52068327Y-29872197D01*
X52127803Y-29931673D01*
X52197740Y-29978402D01*
X52275449Y-30010591D01*
X52357944Y-30027000D01*
X52442056Y-30027000D01*
X52524551Y-30010591D01*
X52602260Y-29978402D01*
X52672197Y-29931673D01*
X52731673Y-29872197D01*
X52778402Y-29802260D01*
X52810591Y-29724551D01*
X52827000Y-29642056D01*
X52827000Y-29557944D01*
X52810591Y-29475449D01*
X52778402Y-29397740D01*
X52731673Y-29327803D01*
X52672197Y-29268327D01*
X52602260Y-29221598D01*
X52524551Y-29189409D01*
X52442056Y-29173000D01*
X52357944Y-29173000D01*
X52275449Y-29189409D01*
X52197740Y-29221598D01*
X52127803Y-29268327D01*
X52068327Y-29327803D01*
X52021598Y-29397740D01*
X51989409Y-29475449D01*
X51973000Y-29557944D01*
X50127000Y-29557944D01*
X50127000Y-27432944D01*
X51573000Y-27432944D01*
X51573000Y-27517056D01*
X51589409Y-27599551D01*
X51621598Y-27677260D01*
X51668327Y-27747197D01*
X51727803Y-27806673D01*
X51797740Y-27853402D01*
X51875449Y-27885591D01*
X51957944Y-27902000D01*
X52042056Y-27902000D01*
X52124551Y-27885591D01*
X52202260Y-27853402D01*
X52272197Y-27806673D01*
X52331673Y-27747197D01*
X52378402Y-27677260D01*
X52410591Y-27599551D01*
X52427000Y-27517056D01*
X52427000Y-27432944D01*
X52410591Y-27350449D01*
X52378402Y-27272740D01*
X52331673Y-27202803D01*
X52272197Y-27143327D01*
X52202260Y-27096598D01*
X52124551Y-27064409D01*
X52042056Y-27048000D01*
X51957944Y-27048000D01*
X51875449Y-27064409D01*
X51797740Y-27096598D01*
X51727803Y-27143327D01*
X51668327Y-27202803D01*
X51621598Y-27272740D01*
X51589409Y-27350449D01*
X51573000Y-27432944D01*
X50127000Y-27432944D01*
X50127000Y-25127000D01*
X53885456Y-25127000D01*
X53871598Y-25147740D01*
X53839409Y-25225449D01*
X53823000Y-25307944D01*
X53823000Y-25392056D01*
X53830683Y-25430683D01*
X53792056Y-25423000D01*
X53707944Y-25423000D01*
X53625449Y-25439409D01*
X53547740Y-25471598D01*
X53477803Y-25518327D01*
X53418327Y-25577803D01*
X53371598Y-25647740D01*
X53339409Y-25725449D01*
X53323000Y-25807944D01*
X53323000Y-25892056D01*
X53339409Y-25974551D01*
X53371598Y-26052260D01*
X53418327Y-26122197D01*
X53463477Y-26167347D01*
X53439409Y-26225449D01*
X53423000Y-26307944D01*
X53423000Y-26392056D01*
X53439409Y-26474551D01*
X53471598Y-26552260D01*
X53503496Y-26600000D01*
X53471598Y-26647740D01*
X53439409Y-26725449D01*
X53423000Y-26807944D01*
X53423000Y-26892056D01*
X53439409Y-26974551D01*
X53471598Y-27052260D01*
X53515996Y-27118708D01*
X53496598Y-27147740D01*
X53464409Y-27225449D01*
X53448000Y-27307944D01*
X53448000Y-27392056D01*
X53464409Y-27474551D01*
X53496598Y-27552260D01*
X53528496Y-27600000D01*
X53496598Y-27647740D01*
X53464409Y-27725449D01*
X53448000Y-27807944D01*
X53448000Y-27892056D01*
X53464409Y-27974551D01*
X53496598Y-28052260D01*
X53528496Y-28100000D01*
X53496598Y-28147740D01*
X53464409Y-28225449D01*
X53448000Y-28307944D01*
X53448000Y-28392056D01*
X53464409Y-28474551D01*
X53488477Y-28532653D01*
X53443327Y-28577803D01*
X53396598Y-28647740D01*
X53364409Y-28725449D01*
X53348000Y-28807944D01*
X53348000Y-28892056D01*
X53364409Y-28974551D01*
X53396598Y-29052260D01*
X53443327Y-29122197D01*
X53502803Y-29181673D01*
X53572740Y-29228402D01*
X53650449Y-29260591D01*
X53732944Y-29277000D01*
X53817056Y-29277000D01*
X53899551Y-29260591D01*
X53977260Y-29228402D01*
X54047197Y-29181673D01*
X54106673Y-29122197D01*
X54153402Y-29052260D01*
X54185591Y-28974551D01*
X54202000Y-28892056D01*
X54202000Y-28807944D01*
X54185591Y-28725449D01*
X54161523Y-28667347D01*
X54206673Y-28622197D01*
X54253402Y-28552260D01*
X54285591Y-28474551D01*
X54302000Y-28392056D01*
X54302000Y-28307944D01*
X54285591Y-28225449D01*
X54253402Y-28147740D01*
X54221504Y-28100000D01*
X54253402Y-28052260D01*
X54285591Y-27974551D01*
X54302000Y-27892056D01*
X54302000Y-27807944D01*
X54285591Y-27725449D01*
X54253402Y-27647740D01*
X54221504Y-27600000D01*
X54253402Y-27552260D01*
X54285591Y-27474551D01*
X54302000Y-27392056D01*
X54302000Y-27307944D01*
X54285591Y-27225449D01*
X54284623Y-27223110D01*
X54507834Y-27223110D01*
X54507834Y-27307222D01*
X54524243Y-27389717D01*
X54556432Y-27467426D01*
X54603161Y-27537363D01*
X54662637Y-27596839D01*
X54732574Y-27643568D01*
X54810283Y-27675757D01*
X54892778Y-27692166D01*
X54976890Y-27692166D01*
X55059385Y-27675757D01*
X55137094Y-27643568D01*
X55207031Y-27596839D01*
X55266507Y-27537363D01*
X55313236Y-27467426D01*
X55345425Y-27389717D01*
X55361834Y-27307222D01*
X55361834Y-27223110D01*
X55345425Y-27140615D01*
X55313236Y-27062906D01*
X55266507Y-26992969D01*
X55207031Y-26933493D01*
X55137094Y-26886764D01*
X55059385Y-26854575D01*
X54976890Y-26838166D01*
X54892778Y-26838166D01*
X54810283Y-26854575D01*
X54732574Y-26886764D01*
X54662637Y-26933493D01*
X54603161Y-26992969D01*
X54556432Y-27062906D01*
X54524243Y-27140615D01*
X54507834Y-27223110D01*
X54284623Y-27223110D01*
X54253402Y-27147740D01*
X54209004Y-27081292D01*
X54228402Y-27052260D01*
X54260591Y-26974551D01*
X54277000Y-26892056D01*
X54277000Y-26807944D01*
X54260591Y-26725449D01*
X54228402Y-26647740D01*
X54196504Y-26600000D01*
X54228402Y-26552260D01*
X54260591Y-26474551D01*
X54277000Y-26392056D01*
X54277000Y-26307944D01*
X54260591Y-26225449D01*
X54228402Y-26147740D01*
X54181673Y-26077803D01*
X54136523Y-26032653D01*
X54160591Y-25974551D01*
X54177000Y-25892056D01*
X54177000Y-25807944D01*
X54169317Y-25769317D01*
X54207944Y-25777000D01*
X54292056Y-25777000D01*
X54374551Y-25760591D01*
X54452260Y-25728402D01*
X54522197Y-25681673D01*
X54581673Y-25622197D01*
X54628402Y-25552260D01*
X54660591Y-25474551D01*
X54677000Y-25392056D01*
X54677000Y-25307944D01*
X54660591Y-25225449D01*
X54628402Y-25147740D01*
X54614544Y-25127000D01*
X54675000Y-25127000D01*
X54699776Y-25124560D01*
X54723601Y-25117333D01*
X54745557Y-25105597D01*
X54764803Y-25089803D01*
X54780597Y-25070557D01*
X54792333Y-25048601D01*
X54799560Y-25024776D01*
X54801561Y-25010547D01*
X54937343Y-23381172D01*
X55000359Y-23325157D01*
X56254881Y-23276906D01*
X56274776Y-23274560D01*
X56276917Y-23273911D01*
X56279129Y-23273614D01*
X56288794Y-23270308D01*
X56298601Y-23267333D01*
X56300575Y-23266278D01*
X56302685Y-23265556D01*
X56311527Y-23260424D01*
X56320557Y-23255597D01*
X56322283Y-23254181D01*
X56324217Y-23253058D01*
X56331887Y-23246299D01*
X56339803Y-23239803D01*
X56341224Y-23238071D01*
X56342896Y-23236598D01*
X56349096Y-23228479D01*
X56355597Y-23220557D01*
X56356651Y-23218586D01*
X56358006Y-23216811D01*
X56362509Y-23207626D01*
X56367333Y-23198601D01*
X56367981Y-23196463D01*
X56368965Y-23194457D01*
X56371590Y-23184568D01*
X56374560Y-23174776D01*
X56374779Y-23172552D01*
X56375352Y-23170393D01*
X56377000Y-23150000D01*
X56377000Y-22727000D01*
X56450000Y-22727000D01*
X56474776Y-22724560D01*
X56498601Y-22717333D01*
X56520557Y-22705597D01*
X56539803Y-22689803D01*
X56555597Y-22670557D01*
X56567333Y-22648601D01*
X56574560Y-22624776D01*
X56577000Y-22600000D01*
X56577000Y-22507944D01*
X60623000Y-22507944D01*
X60623000Y-22592056D01*
X60639409Y-22674551D01*
X60671598Y-22752260D01*
X60718327Y-22822197D01*
X60777803Y-22881673D01*
X60847740Y-22928402D01*
X60925449Y-22960591D01*
X61007944Y-22977000D01*
X61092056Y-22977000D01*
X61174551Y-22960591D01*
X61252260Y-22928402D01*
X61322197Y-22881673D01*
X61381673Y-22822197D01*
X61428402Y-22752260D01*
X61460591Y-22674551D01*
X61477000Y-22592056D01*
X61477000Y-22507944D01*
X63103000Y-22507944D01*
X63103000Y-22592056D01*
X63119409Y-22674551D01*
X63151598Y-22752260D01*
X63198327Y-22822197D01*
X63257803Y-22881673D01*
X63327740Y-22928402D01*
X63405449Y-22960591D01*
X63487944Y-22977000D01*
X63572056Y-22977000D01*
X63654551Y-22960591D01*
X63732260Y-22928402D01*
X63802197Y-22881673D01*
X63861673Y-22822197D01*
X63908402Y-22752260D01*
X63940591Y-22674551D01*
X63957000Y-22592056D01*
X63957000Y-22507944D01*
X63940591Y-22425449D01*
X63908402Y-22347740D01*
X63861673Y-22277803D01*
X63802197Y-22218327D01*
X63732260Y-22171598D01*
X63654551Y-22139409D01*
X63572056Y-22123000D01*
X63487944Y-22123000D01*
X63405449Y-22139409D01*
X63327740Y-22171598D01*
X63257803Y-22218327D01*
X63198327Y-22277803D01*
X63151598Y-22347740D01*
X63119409Y-22425449D01*
X63103000Y-22507944D01*
X61477000Y-22507944D01*
X61460591Y-22425449D01*
X61428402Y-22347740D01*
X61381673Y-22277803D01*
X61322197Y-22218327D01*
X61252260Y-22171598D01*
X61174551Y-22139409D01*
X61092056Y-22123000D01*
X61007944Y-22123000D01*
X60925449Y-22139409D01*
X60847740Y-22171598D01*
X60777803Y-22218327D01*
X60718327Y-22277803D01*
X60671598Y-22347740D01*
X60639409Y-22425449D01*
X60623000Y-22507944D01*
X56577000Y-22507944D01*
X56577000Y-20302000D01*
X64485226Y-20302000D01*
X64635294Y-20316715D01*
G36*
X59237949Y-26610591D02*
G01*
X59320444Y-26627000D01*
X59346700Y-26627000D01*
X59498001Y-26778302D01*
X59498000Y-29384923D01*
X59475449Y-29389409D01*
X59397740Y-29421598D01*
X59327803Y-29468327D01*
X59268327Y-29527803D01*
X59221598Y-29597740D01*
X59202001Y-29645051D01*
X59201999Y-26595700D01*
X59237949Y-26610591D01*
X59237949Y-26610591D01*
G37*
X59237949Y-26610591D02*
X59320444Y-26627000D01*
X59346700Y-26627000D01*
X59498001Y-26778302D01*
X59498000Y-29384923D01*
X59475449Y-29389409D01*
X59397740Y-29421598D01*
X59327803Y-29468327D01*
X59268327Y-29527803D01*
X59221598Y-29597740D01*
X59202001Y-29645051D01*
X59201999Y-26595700D01*
X59237949Y-26610591D01*
G36*
X43135294Y-20316715D02*
G01*
X43265438Y-20356007D01*
X43385465Y-20419827D01*
X43490812Y-20505745D01*
X43577469Y-20610494D01*
X43642125Y-20730074D01*
X43682324Y-20859936D01*
X43699353Y-21021956D01*
X43699267Y-21034353D01*
X43699678Y-21038549D01*
X43720079Y-21232646D01*
X43725581Y-21259446D01*
X43730712Y-21286345D01*
X43731931Y-21290382D01*
X43789643Y-21476819D01*
X43800237Y-21502021D01*
X43810503Y-21527431D01*
X43812483Y-21531154D01*
X43905308Y-21702831D01*
X43920595Y-21725494D01*
X43935602Y-21748428D01*
X43938267Y-21751696D01*
X44062671Y-21902073D01*
X44082070Y-21921337D01*
X44101244Y-21940916D01*
X44104493Y-21943604D01*
X44255735Y-22066954D01*
X44278487Y-22082070D01*
X44301118Y-22097566D01*
X44304828Y-22099571D01*
X44477150Y-22191196D01*
X44502403Y-22201604D01*
X44527614Y-22212410D01*
X44531643Y-22213657D01*
X44718479Y-22270066D01*
X44745294Y-22275375D01*
X44772102Y-22281073D01*
X44776296Y-22281514D01*
X44970529Y-22300559D01*
X44970536Y-22300559D01*
X44985167Y-22302000D01*
X48673000Y-22302000D01*
X48673000Y-25000000D01*
X48675440Y-25024776D01*
X48682667Y-25048601D01*
X48694403Y-25070557D01*
X48710197Y-25089803D01*
X48729443Y-25105597D01*
X48751399Y-25117333D01*
X48775224Y-25124560D01*
X48800000Y-25127000D01*
X49873000Y-25127000D01*
X49873000Y-31338040D01*
X49744265Y-31233046D01*
X49721513Y-31217930D01*
X49698882Y-31202434D01*
X49695172Y-31200429D01*
X49522850Y-31108804D01*
X49497609Y-31098401D01*
X49472386Y-31087590D01*
X49468358Y-31086344D01*
X49281521Y-31029934D01*
X49254693Y-31024622D01*
X49227898Y-31018927D01*
X49223704Y-31018486D01*
X49029470Y-30999441D01*
X49029464Y-30999441D01*
X49014833Y-30998000D01*
X44985167Y-30998000D01*
X44971863Y-30999310D01*
X44965647Y-30999267D01*
X44961450Y-30999679D01*
X44767354Y-31020079D01*
X44740554Y-31025581D01*
X44713655Y-31030712D01*
X44709618Y-31031931D01*
X44523180Y-31089643D01*
X44497965Y-31100243D01*
X44472569Y-31110503D01*
X44468846Y-31112483D01*
X44297169Y-31205308D01*
X44274505Y-31220595D01*
X44251572Y-31235602D01*
X44248304Y-31238268D01*
X44097926Y-31362671D01*
X44078663Y-31382070D01*
X44059084Y-31401243D01*
X44056396Y-31404493D01*
X43933046Y-31555735D01*
X43917930Y-31578487D01*
X43902434Y-31601118D01*
X43900429Y-31604828D01*
X43808804Y-31777150D01*
X43798401Y-31802391D01*
X43787590Y-31827614D01*
X43786344Y-31831642D01*
X43729934Y-32018479D01*
X43724622Y-32045307D01*
X43718927Y-32072102D01*
X43718486Y-32076296D01*
X43699441Y-32270530D01*
X43683285Y-32435297D01*
X43643993Y-32565438D01*
X43580173Y-32685465D01*
X43494253Y-32790814D01*
X43389504Y-32877470D01*
X43269926Y-32942125D01*
X43140059Y-32982325D01*
X42990922Y-32998000D01*
X30302000Y-32998000D01*
X30302000Y-31851204D01*
X30327740Y-31868402D01*
X30405449Y-31900591D01*
X30487944Y-31917000D01*
X30572056Y-31917000D01*
X30654551Y-31900591D01*
X30732260Y-31868402D01*
X30802197Y-31821673D01*
X30861673Y-31762197D01*
X30908402Y-31692260D01*
X30940591Y-31614551D01*
X30957000Y-31532056D01*
X30957000Y-31447944D01*
X30940591Y-31365449D01*
X30908402Y-31287740D01*
X30861673Y-31217803D01*
X30813870Y-31170000D01*
X30861673Y-31122197D01*
X30908402Y-31052260D01*
X30940591Y-30974551D01*
X30957000Y-30892056D01*
X30957000Y-30807944D01*
X30940591Y-30725449D01*
X30908402Y-30647740D01*
X30861673Y-30577803D01*
X30813870Y-30530000D01*
X30861673Y-30482197D01*
X30908402Y-30412260D01*
X30940591Y-30334551D01*
X30957000Y-30252056D01*
X30957000Y-30167944D01*
X30940591Y-30085449D01*
X30908402Y-30007740D01*
X30861673Y-29937803D01*
X30813870Y-29890000D01*
X30861673Y-29842197D01*
X30908402Y-29772260D01*
X30940591Y-29694551D01*
X30957000Y-29612056D01*
X30957000Y-29527944D01*
X30940591Y-29445449D01*
X30908402Y-29367740D01*
X30861673Y-29297803D01*
X30813870Y-29250000D01*
X30861673Y-29202197D01*
X30908402Y-29132260D01*
X30940591Y-29054551D01*
X30957000Y-28972056D01*
X30957000Y-28887944D01*
X30940591Y-28805449D01*
X30908402Y-28727740D01*
X30861673Y-28657803D01*
X30813870Y-28610000D01*
X30861673Y-28562197D01*
X30908402Y-28492260D01*
X30940591Y-28414551D01*
X30957000Y-28332056D01*
X30957000Y-28247944D01*
X30940591Y-28165449D01*
X30908402Y-28087740D01*
X30861673Y-28017803D01*
X30813870Y-27970000D01*
X30861673Y-27922197D01*
X30908402Y-27852260D01*
X30940591Y-27774551D01*
X30957000Y-27692056D01*
X30957000Y-27607944D01*
X30940591Y-27525449D01*
X30908402Y-27447740D01*
X30861673Y-27377803D01*
X30813870Y-27330000D01*
X30861673Y-27282197D01*
X30908402Y-27212260D01*
X30940591Y-27134551D01*
X30957000Y-27052056D01*
X30957000Y-26967944D01*
X30940591Y-26885449D01*
X30908402Y-26807740D01*
X30861673Y-26737803D01*
X30813870Y-26690000D01*
X30861673Y-26642197D01*
X30908402Y-26572260D01*
X30940591Y-26494551D01*
X30957000Y-26412056D01*
X30957000Y-26327944D01*
X30940591Y-26245449D01*
X30908402Y-26167740D01*
X30861673Y-26097803D01*
X30813870Y-26050000D01*
X30861673Y-26002197D01*
X30908402Y-25932260D01*
X30940591Y-25854551D01*
X30957000Y-25772056D01*
X30957000Y-25687944D01*
X30940591Y-25605449D01*
X30908402Y-25527740D01*
X30861673Y-25457803D01*
X30813870Y-25410000D01*
X30861673Y-25362197D01*
X30908402Y-25292260D01*
X30940591Y-25214551D01*
X30957000Y-25132056D01*
X30957000Y-25047944D01*
X30940591Y-24965449D01*
X30908402Y-24887740D01*
X30861673Y-24817803D01*
X30813870Y-24770000D01*
X30861673Y-24722197D01*
X30908402Y-24652260D01*
X30940591Y-24574551D01*
X30957000Y-24492056D01*
X30957000Y-24407944D01*
X30940591Y-24325449D01*
X30908402Y-24247740D01*
X30861673Y-24177803D01*
X30813870Y-24130000D01*
X30861673Y-24082197D01*
X30908402Y-24012260D01*
X30940591Y-23934551D01*
X30957000Y-23852056D01*
X30957000Y-23767944D01*
X30940591Y-23685449D01*
X30908402Y-23607740D01*
X30861673Y-23537803D01*
X30813870Y-23490000D01*
X30861673Y-23442197D01*
X30908402Y-23372260D01*
X30940591Y-23294551D01*
X30957000Y-23212056D01*
X30957000Y-23127944D01*
X30940591Y-23045449D01*
X30908402Y-22967740D01*
X30861673Y-22897803D01*
X30813870Y-22850000D01*
X30861673Y-22802197D01*
X30908402Y-22732260D01*
X30940591Y-22654551D01*
X30957000Y-22572056D01*
X30957000Y-22487944D01*
X30940591Y-22405449D01*
X30908402Y-22327740D01*
X30861673Y-22257803D01*
X30813870Y-22210000D01*
X30861673Y-22162197D01*
X30908402Y-22092260D01*
X30940591Y-22014551D01*
X30948249Y-21976052D01*
X31448001Y-22475805D01*
X31448000Y-31888225D01*
X31421598Y-31927740D01*
X31389409Y-32005449D01*
X31373000Y-32087944D01*
X31373000Y-32172056D01*
X31389409Y-32254551D01*
X31421598Y-32332260D01*
X31468327Y-32402197D01*
X31527803Y-32461673D01*
X31597740Y-32508402D01*
X31675449Y-32540591D01*
X31757944Y-32557000D01*
X31842056Y-32557000D01*
X31924551Y-32540591D01*
X32002260Y-32508402D01*
X32072197Y-32461673D01*
X32131673Y-32402197D01*
X32178402Y-32332260D01*
X32210591Y-32254551D01*
X32227000Y-32172056D01*
X32227000Y-32087944D01*
X32210591Y-32005449D01*
X32178402Y-31927740D01*
X32152000Y-31888225D01*
X32152000Y-30545444D01*
X35223000Y-30545444D01*
X35223000Y-30629556D01*
X35239409Y-30712051D01*
X35271598Y-30789760D01*
X35318327Y-30859697D01*
X35377803Y-30919173D01*
X35447740Y-30965902D01*
X35525449Y-30998091D01*
X35607944Y-31014500D01*
X35692056Y-31014500D01*
X35774551Y-30998091D01*
X35852260Y-30965902D01*
X35900000Y-30934004D01*
X35947740Y-30965902D01*
X36025449Y-30998091D01*
X36107944Y-31014500D01*
X36192056Y-31014500D01*
X36274551Y-30998091D01*
X36352260Y-30965902D01*
X36400000Y-30934004D01*
X36447740Y-30965902D01*
X36525449Y-30998091D01*
X36607944Y-31014500D01*
X36692056Y-31014500D01*
X36774551Y-30998091D01*
X36852260Y-30965902D01*
X36900000Y-30934004D01*
X36947740Y-30965902D01*
X37025449Y-30998091D01*
X37107944Y-31014500D01*
X37192056Y-31014500D01*
X37274551Y-30998091D01*
X37352260Y-30965902D01*
X37400000Y-30934004D01*
X37447740Y-30965902D01*
X37525449Y-30998091D01*
X37607944Y-31014500D01*
X37692056Y-31014500D01*
X37774551Y-30998091D01*
X37852260Y-30965902D01*
X37900000Y-30934004D01*
X37947740Y-30965902D01*
X38025449Y-30998091D01*
X38107944Y-31014500D01*
X38192056Y-31014500D01*
X38274551Y-30998091D01*
X38352260Y-30965902D01*
X38400000Y-30934004D01*
X38447740Y-30965902D01*
X38525449Y-30998091D01*
X38607944Y-31014500D01*
X38692056Y-31014500D01*
X38774551Y-30998091D01*
X38852260Y-30965902D01*
X38900000Y-30934004D01*
X38947740Y-30965902D01*
X39025449Y-30998091D01*
X39107944Y-31014500D01*
X39192056Y-31014500D01*
X39274551Y-30998091D01*
X39352260Y-30965902D01*
X39422197Y-30919173D01*
X39481673Y-30859697D01*
X39528402Y-30789760D01*
X39560591Y-30712051D01*
X39577000Y-30629556D01*
X39577000Y-30545444D01*
X39560591Y-30462949D01*
X39528402Y-30385240D01*
X39481673Y-30315303D01*
X39422197Y-30255827D01*
X39352260Y-30209098D01*
X39274551Y-30176909D01*
X39192056Y-30160500D01*
X39107944Y-30160500D01*
X39025449Y-30176909D01*
X38947740Y-30209098D01*
X38900000Y-30240996D01*
X38852260Y-30209098D01*
X38774551Y-30176909D01*
X38692056Y-30160500D01*
X38607944Y-30160500D01*
X38525449Y-30176909D01*
X38447740Y-30209098D01*
X38400000Y-30240996D01*
X38352260Y-30209098D01*
X38274551Y-30176909D01*
X38192056Y-30160500D01*
X38107944Y-30160500D01*
X38025449Y-30176909D01*
X37947740Y-30209098D01*
X37900000Y-30240996D01*
X37852260Y-30209098D01*
X37774551Y-30176909D01*
X37692056Y-30160500D01*
X37607944Y-30160500D01*
X37525449Y-30176909D01*
X37447740Y-30209098D01*
X37400000Y-30240996D01*
X37352260Y-30209098D01*
X37274551Y-30176909D01*
X37192056Y-30160500D01*
X37107944Y-30160500D01*
X37025449Y-30176909D01*
X36947740Y-30209098D01*
X36900000Y-30240996D01*
X36852260Y-30209098D01*
X36774551Y-30176909D01*
X36692056Y-30160500D01*
X36607944Y-30160500D01*
X36525449Y-30176909D01*
X36447740Y-30209098D01*
X36400000Y-30240996D01*
X36352260Y-30209098D01*
X36274551Y-30176909D01*
X36192056Y-30160500D01*
X36107944Y-30160500D01*
X36025449Y-30176909D01*
X35947740Y-30209098D01*
X35900000Y-30240996D01*
X35852260Y-30209098D01*
X35774551Y-30176909D01*
X35692056Y-30160500D01*
X35607944Y-30160500D01*
X35525449Y-30176909D01*
X35447740Y-30209098D01*
X35377803Y-30255827D01*
X35318327Y-30315303D01*
X35271598Y-30385240D01*
X35239409Y-30462949D01*
X35223000Y-30545444D01*
X32152000Y-30545444D01*
X32152000Y-22670444D01*
X35223000Y-22670444D01*
X35223000Y-22754556D01*
X35239409Y-22837051D01*
X35271598Y-22914760D01*
X35318327Y-22984697D01*
X35377803Y-23044173D01*
X35447740Y-23090902D01*
X35525449Y-23123091D01*
X35607944Y-23139500D01*
X35692056Y-23139500D01*
X35774551Y-23123091D01*
X35852260Y-23090902D01*
X35900000Y-23059004D01*
X35947740Y-23090902D01*
X36025449Y-23123091D01*
X36107944Y-23139500D01*
X36192056Y-23139500D01*
X36274551Y-23123091D01*
X36352260Y-23090902D01*
X36400000Y-23059004D01*
X36447740Y-23090902D01*
X36525449Y-23123091D01*
X36607944Y-23139500D01*
X36692056Y-23139500D01*
X36774551Y-23123091D01*
X36852260Y-23090902D01*
X36900000Y-23059004D01*
X36947740Y-23090902D01*
X37025449Y-23123091D01*
X37107944Y-23139500D01*
X37192056Y-23139500D01*
X37274551Y-23123091D01*
X37352260Y-23090902D01*
X37400000Y-23059004D01*
X37447740Y-23090902D01*
X37525449Y-23123091D01*
X37607944Y-23139500D01*
X37692056Y-23139500D01*
X37774551Y-23123091D01*
X37852260Y-23090902D01*
X37900000Y-23059004D01*
X37947740Y-23090902D01*
X38025449Y-23123091D01*
X38107944Y-23139500D01*
X38192056Y-23139500D01*
X38274551Y-23123091D01*
X38352260Y-23090902D01*
X38400000Y-23059004D01*
X38447740Y-23090902D01*
X38525449Y-23123091D01*
X38607944Y-23139500D01*
X38692056Y-23139500D01*
X38774551Y-23123091D01*
X38852260Y-23090902D01*
X38900000Y-23059004D01*
X38947740Y-23090902D01*
X39025449Y-23123091D01*
X39107944Y-23139500D01*
X39192056Y-23139500D01*
X39274551Y-23123091D01*
X39352260Y-23090902D01*
X39422197Y-23044173D01*
X39481673Y-22984697D01*
X39528402Y-22914760D01*
X39560591Y-22837051D01*
X39577000Y-22754556D01*
X39577000Y-22670444D01*
X40223000Y-22670444D01*
X40223000Y-22754556D01*
X40239409Y-22837051D01*
X40271598Y-22914760D01*
X40296496Y-22952024D01*
X40298000Y-22967289D01*
X40298000Y-22967292D01*
X40303093Y-23019004D01*
X40323221Y-23085356D01*
X40355907Y-23146507D01*
X40399895Y-23200106D01*
X40413328Y-23211130D01*
X41621131Y-24418934D01*
X40413329Y-25626737D01*
X40399894Y-25637763D01*
X40388872Y-25651194D01*
X40355907Y-25691361D01*
X40338436Y-25724047D01*
X40323221Y-25752513D01*
X40303093Y-25818865D01*
X40298000Y-25870576D01*
X40296297Y-25887868D01*
X40298000Y-25905157D01*
X40298001Y-26382708D01*
X40298000Y-29432711D01*
X40296297Y-29450000D01*
X40298000Y-29467289D01*
X40298000Y-29467291D01*
X40303093Y-29519003D01*
X40323221Y-29585355D01*
X40323222Y-29585356D01*
X40355907Y-29646507D01*
X40378145Y-29673603D01*
X40399894Y-29700105D01*
X40413328Y-29711130D01*
X41313001Y-30610805D01*
X41313000Y-32008225D01*
X41286598Y-32047740D01*
X41254409Y-32125449D01*
X41238000Y-32207944D01*
X41238000Y-32292056D01*
X41254409Y-32374551D01*
X41286598Y-32452260D01*
X41333327Y-32522197D01*
X41392803Y-32581673D01*
X41462740Y-32628402D01*
X41540449Y-32660591D01*
X41622944Y-32677000D01*
X41707056Y-32677000D01*
X41789551Y-32660591D01*
X41867260Y-32628402D01*
X41937197Y-32581673D01*
X41996673Y-32522197D01*
X42043402Y-32452260D01*
X42075591Y-32374551D01*
X42092000Y-32292056D01*
X42092000Y-32207944D01*
X42075591Y-32125449D01*
X42043402Y-32047740D01*
X42017000Y-32008225D01*
X42017000Y-30482289D01*
X42018703Y-30465000D01*
X42017000Y-30447708D01*
X42011907Y-30395996D01*
X41991779Y-30329644D01*
X41959093Y-30268493D01*
X41926129Y-30228325D01*
X41926126Y-30228322D01*
X41915106Y-30214894D01*
X41901678Y-30203874D01*
X41002000Y-29304198D01*
X41002000Y-27857944D01*
X41910500Y-27857944D01*
X41910500Y-27942056D01*
X41926909Y-28024551D01*
X41959098Y-28102260D01*
X42005827Y-28172197D01*
X42065303Y-28231673D01*
X42135240Y-28278402D01*
X42212949Y-28310591D01*
X42295444Y-28327000D01*
X42379556Y-28327000D01*
X42462051Y-28310591D01*
X42539760Y-28278402D01*
X42609697Y-28231673D01*
X42669173Y-28172197D01*
X42715902Y-28102260D01*
X42748091Y-28024551D01*
X42764500Y-27942056D01*
X42764500Y-27857944D01*
X42748091Y-27775449D01*
X42715902Y-27697740D01*
X42669173Y-27627803D01*
X42609697Y-27568327D01*
X42539760Y-27521598D01*
X42462051Y-27489409D01*
X42379556Y-27473000D01*
X42295444Y-27473000D01*
X42212949Y-27489409D01*
X42135240Y-27521598D01*
X42065303Y-27568327D01*
X42005827Y-27627803D01*
X41959098Y-27697740D01*
X41926909Y-27775449D01*
X41910500Y-27857944D01*
X41002000Y-27857944D01*
X41002000Y-26857944D01*
X41910500Y-26857944D01*
X41910500Y-26942056D01*
X41926909Y-27024551D01*
X41959098Y-27102260D01*
X42005827Y-27172197D01*
X42065303Y-27231673D01*
X42135240Y-27278402D01*
X42212949Y-27310591D01*
X42295444Y-27327000D01*
X42379556Y-27327000D01*
X42462051Y-27310591D01*
X42539760Y-27278402D01*
X42609697Y-27231673D01*
X42669173Y-27172197D01*
X42715902Y-27102260D01*
X42748091Y-27024551D01*
X42764500Y-26942056D01*
X42764500Y-26857944D01*
X42748091Y-26775449D01*
X42715902Y-26697740D01*
X42669173Y-26627803D01*
X42609697Y-26568327D01*
X42539760Y-26521598D01*
X42462051Y-26489409D01*
X42379556Y-26473000D01*
X42295444Y-26473000D01*
X42212949Y-26489409D01*
X42135240Y-26521598D01*
X42065303Y-26568327D01*
X42005827Y-26627803D01*
X41959098Y-26697740D01*
X41926909Y-26775449D01*
X41910500Y-26857944D01*
X41002000Y-26857944D01*
X41002000Y-26033670D01*
X41177726Y-25857944D01*
X41910500Y-25857944D01*
X41910500Y-25942056D01*
X41926909Y-26024551D01*
X41959098Y-26102260D01*
X42005827Y-26172197D01*
X42065303Y-26231673D01*
X42135240Y-26278402D01*
X42212949Y-26310591D01*
X42295444Y-26327000D01*
X42379556Y-26327000D01*
X42462051Y-26310591D01*
X42539760Y-26278402D01*
X42609697Y-26231673D01*
X42669173Y-26172197D01*
X42715902Y-26102260D01*
X42748091Y-26024551D01*
X42764500Y-25942056D01*
X42764500Y-25857944D01*
X42748091Y-25775449D01*
X42715902Y-25697740D01*
X42669173Y-25627803D01*
X42609697Y-25568327D01*
X42539760Y-25521598D01*
X42462051Y-25489409D01*
X42379556Y-25473000D01*
X42295444Y-25473000D01*
X42212949Y-25489409D01*
X42135240Y-25521598D01*
X42065303Y-25568327D01*
X42005827Y-25627803D01*
X41959098Y-25697740D01*
X41926909Y-25775449D01*
X41910500Y-25857944D01*
X41177726Y-25857944D01*
X41951574Y-25084096D01*
X41959098Y-25102260D01*
X42005827Y-25172197D01*
X42065303Y-25231673D01*
X42135240Y-25278402D01*
X42212949Y-25310591D01*
X42295444Y-25327000D01*
X42379556Y-25327000D01*
X42462051Y-25310591D01*
X42539760Y-25278402D01*
X42609697Y-25231673D01*
X42669173Y-25172197D01*
X42715902Y-25102260D01*
X42748091Y-25024551D01*
X42764500Y-24942056D01*
X42764500Y-24857944D01*
X42748091Y-24775449D01*
X42715902Y-24697740D01*
X42690254Y-24659354D01*
X42728402Y-24602260D01*
X42760591Y-24524551D01*
X42777000Y-24442056D01*
X42777000Y-24357944D01*
X42760591Y-24275449D01*
X42728402Y-24197740D01*
X42681673Y-24127803D01*
X42622197Y-24068327D01*
X42552260Y-24021598D01*
X42474551Y-23989409D01*
X42392056Y-23973000D01*
X42307944Y-23973000D01*
X42225449Y-23989409D01*
X42198412Y-24000608D01*
X41053052Y-22855250D01*
X41060591Y-22837051D01*
X41077000Y-22754556D01*
X41077000Y-22670444D01*
X41060591Y-22587949D01*
X41028402Y-22510240D01*
X40981673Y-22440303D01*
X40922197Y-22380827D01*
X40852260Y-22334098D01*
X40774551Y-22301909D01*
X40692056Y-22285500D01*
X40607944Y-22285500D01*
X40525449Y-22301909D01*
X40447740Y-22334098D01*
X40377803Y-22380827D01*
X40318327Y-22440303D01*
X40271598Y-22510240D01*
X40239409Y-22587949D01*
X40223000Y-22670444D01*
X39577000Y-22670444D01*
X39560591Y-22587949D01*
X39528402Y-22510240D01*
X39481673Y-22440303D01*
X39422197Y-22380827D01*
X39352260Y-22334098D01*
X39274551Y-22301909D01*
X39192056Y-22285500D01*
X39107944Y-22285500D01*
X39025449Y-22301909D01*
X38947740Y-22334098D01*
X38900000Y-22365996D01*
X38852260Y-22334098D01*
X38774551Y-22301909D01*
X38692056Y-22285500D01*
X38607944Y-22285500D01*
X38525449Y-22301909D01*
X38447740Y-22334098D01*
X38400000Y-22365996D01*
X38352260Y-22334098D01*
X38274551Y-22301909D01*
X38192056Y-22285500D01*
X38107944Y-22285500D01*
X38025449Y-22301909D01*
X37947740Y-22334098D01*
X37900000Y-22365996D01*
X37852260Y-22334098D01*
X37774551Y-22301909D01*
X37692056Y-22285500D01*
X37607944Y-22285500D01*
X37525449Y-22301909D01*
X37447740Y-22334098D01*
X37400000Y-22365996D01*
X37352260Y-22334098D01*
X37274551Y-22301909D01*
X37192056Y-22285500D01*
X37107944Y-22285500D01*
X37025449Y-22301909D01*
X36947740Y-22334098D01*
X36900000Y-22365996D01*
X36852260Y-22334098D01*
X36774551Y-22301909D01*
X36692056Y-22285500D01*
X36607944Y-22285500D01*
X36525449Y-22301909D01*
X36447740Y-22334098D01*
X36400000Y-22365996D01*
X36352260Y-22334098D01*
X36274551Y-22301909D01*
X36192056Y-22285500D01*
X36107944Y-22285500D01*
X36025449Y-22301909D01*
X35947740Y-22334098D01*
X35900000Y-22365996D01*
X35852260Y-22334098D01*
X35774551Y-22301909D01*
X35692056Y-22285500D01*
X35607944Y-22285500D01*
X35525449Y-22301909D01*
X35447740Y-22334098D01*
X35377803Y-22380827D01*
X35318327Y-22440303D01*
X35271598Y-22510240D01*
X35239409Y-22587949D01*
X35223000Y-22670444D01*
X32152000Y-22670444D01*
X32152000Y-22347289D01*
X32153703Y-22330000D01*
X32150945Y-22301998D01*
X32146907Y-22260996D01*
X32126779Y-22194644D01*
X32126779Y-22194643D01*
X32094093Y-22133493D01*
X32061129Y-22093325D01*
X32061126Y-22093322D01*
X32050106Y-22079894D01*
X32036678Y-22068874D01*
X30981135Y-21013333D01*
X30970106Y-20999894D01*
X30916507Y-20955907D01*
X30855356Y-20923221D01*
X30789004Y-20903093D01*
X30777736Y-20901983D01*
X30732260Y-20871598D01*
X30654551Y-20839409D01*
X30572056Y-20823000D01*
X30487944Y-20823000D01*
X30405449Y-20839409D01*
X30327740Y-20871598D01*
X30302000Y-20888796D01*
X30302000Y-20302000D01*
X42985226Y-20302000D01*
X43135294Y-20316715D01*
X43135294Y-20316715D01*
G37*
X43135294Y-20316715D02*
X43265438Y-20356007D01*
X43385465Y-20419827D01*
X43490812Y-20505745D01*
X43577469Y-20610494D01*
X43642125Y-20730074D01*
X43682324Y-20859936D01*
X43699353Y-21021956D01*
X43699267Y-21034353D01*
X43699678Y-21038549D01*
X43720079Y-21232646D01*
X43725581Y-21259446D01*
X43730712Y-21286345D01*
X43731931Y-21290382D01*
X43789643Y-21476819D01*
X43800237Y-21502021D01*
X43810503Y-21527431D01*
X43812483Y-21531154D01*
X43905308Y-21702831D01*
X43920595Y-21725494D01*
X43935602Y-21748428D01*
X43938267Y-21751696D01*
X44062671Y-21902073D01*
X44082070Y-21921337D01*
X44101244Y-21940916D01*
X44104493Y-21943604D01*
X44255735Y-22066954D01*
X44278487Y-22082070D01*
X44301118Y-22097566D01*
X44304828Y-22099571D01*
X44477150Y-22191196D01*
X44502403Y-22201604D01*
X44527614Y-22212410D01*
X44531643Y-22213657D01*
X44718479Y-22270066D01*
X44745294Y-22275375D01*
X44772102Y-22281073D01*
X44776296Y-22281514D01*
X44970529Y-22300559D01*
X44970536Y-22300559D01*
X44985167Y-22302000D01*
X48673000Y-22302000D01*
X48673000Y-25000000D01*
X48675440Y-25024776D01*
X48682667Y-25048601D01*
X48694403Y-25070557D01*
X48710197Y-25089803D01*
X48729443Y-25105597D01*
X48751399Y-25117333D01*
X48775224Y-25124560D01*
X48800000Y-25127000D01*
X49873000Y-25127000D01*
X49873000Y-31338040D01*
X49744265Y-31233046D01*
X49721513Y-31217930D01*
X49698882Y-31202434D01*
X49695172Y-31200429D01*
X49522850Y-31108804D01*
X49497609Y-31098401D01*
X49472386Y-31087590D01*
X49468358Y-31086344D01*
X49281521Y-31029934D01*
X49254693Y-31024622D01*
X49227898Y-31018927D01*
X49223704Y-31018486D01*
X49029470Y-30999441D01*
X49029464Y-30999441D01*
X49014833Y-30998000D01*
X44985167Y-30998000D01*
X44971863Y-30999310D01*
X44965647Y-30999267D01*
X44961450Y-30999679D01*
X44767354Y-31020079D01*
X44740554Y-31025581D01*
X44713655Y-31030712D01*
X44709618Y-31031931D01*
X44523180Y-31089643D01*
X44497965Y-31100243D01*
X44472569Y-31110503D01*
X44468846Y-31112483D01*
X44297169Y-31205308D01*
X44274505Y-31220595D01*
X44251572Y-31235602D01*
X44248304Y-31238268D01*
X44097926Y-31362671D01*
X44078663Y-31382070D01*
X44059084Y-31401243D01*
X44056396Y-31404493D01*
X43933046Y-31555735D01*
X43917930Y-31578487D01*
X43902434Y-31601118D01*
X43900429Y-31604828D01*
X43808804Y-31777150D01*
X43798401Y-31802391D01*
X43787590Y-31827614D01*
X43786344Y-31831642D01*
X43729934Y-32018479D01*
X43724622Y-32045307D01*
X43718927Y-32072102D01*
X43718486Y-32076296D01*
X43699441Y-32270530D01*
X43683285Y-32435297D01*
X43643993Y-32565438D01*
X43580173Y-32685465D01*
X43494253Y-32790814D01*
X43389504Y-32877470D01*
X43269926Y-32942125D01*
X43140059Y-32982325D01*
X42990922Y-32998000D01*
X30302000Y-32998000D01*
X30302000Y-31851204D01*
X30327740Y-31868402D01*
X30405449Y-31900591D01*
X30487944Y-31917000D01*
X30572056Y-31917000D01*
X30654551Y-31900591D01*
X30732260Y-31868402D01*
X30802197Y-31821673D01*
X30861673Y-31762197D01*
X30908402Y-31692260D01*
X30940591Y-31614551D01*
X30957000Y-31532056D01*
X30957000Y-31447944D01*
X30940591Y-31365449D01*
X30908402Y-31287740D01*
X30861673Y-31217803D01*
X30813870Y-31170000D01*
X30861673Y-31122197D01*
X30908402Y-31052260D01*
X30940591Y-30974551D01*
X30957000Y-30892056D01*
X30957000Y-30807944D01*
X30940591Y-30725449D01*
X30908402Y-30647740D01*
X30861673Y-30577803D01*
X30813870Y-30530000D01*
X30861673Y-30482197D01*
X30908402Y-30412260D01*
X30940591Y-30334551D01*
X30957000Y-30252056D01*
X30957000Y-30167944D01*
X30940591Y-30085449D01*
X30908402Y-30007740D01*
X30861673Y-29937803D01*
X30813870Y-29890000D01*
X30861673Y-29842197D01*
X30908402Y-29772260D01*
X30940591Y-29694551D01*
X30957000Y-29612056D01*
X30957000Y-29527944D01*
X30940591Y-29445449D01*
X30908402Y-29367740D01*
X30861673Y-29297803D01*
X30813870Y-29250000D01*
X30861673Y-29202197D01*
X30908402Y-29132260D01*
X30940591Y-29054551D01*
X30957000Y-28972056D01*
X30957000Y-28887944D01*
X30940591Y-28805449D01*
X30908402Y-28727740D01*
X30861673Y-28657803D01*
X30813870Y-28610000D01*
X30861673Y-28562197D01*
X30908402Y-28492260D01*
X30940591Y-28414551D01*
X30957000Y-28332056D01*
X30957000Y-28247944D01*
X30940591Y-28165449D01*
X30908402Y-28087740D01*
X30861673Y-28017803D01*
X30813870Y-27970000D01*
X30861673Y-27922197D01*
X30908402Y-27852260D01*
X30940591Y-27774551D01*
X30957000Y-27692056D01*
X30957000Y-27607944D01*
X30940591Y-27525449D01*
X30908402Y-27447740D01*
X30861673Y-27377803D01*
X30813870Y-27330000D01*
X30861673Y-27282197D01*
X30908402Y-27212260D01*
X30940591Y-27134551D01*
X30957000Y-27052056D01*
X30957000Y-26967944D01*
X30940591Y-26885449D01*
X30908402Y-26807740D01*
X30861673Y-26737803D01*
X30813870Y-26690000D01*
X30861673Y-26642197D01*
X30908402Y-26572260D01*
X30940591Y-26494551D01*
X30957000Y-26412056D01*
X30957000Y-26327944D01*
X30940591Y-26245449D01*
X30908402Y-26167740D01*
X30861673Y-26097803D01*
X30813870Y-26050000D01*
X30861673Y-26002197D01*
X30908402Y-25932260D01*
X30940591Y-25854551D01*
X30957000Y-25772056D01*
X30957000Y-25687944D01*
X30940591Y-25605449D01*
X30908402Y-25527740D01*
X30861673Y-25457803D01*
X30813870Y-25410000D01*
X30861673Y-25362197D01*
X30908402Y-25292260D01*
X30940591Y-25214551D01*
X30957000Y-25132056D01*
X30957000Y-25047944D01*
X30940591Y-24965449D01*
X30908402Y-24887740D01*
X30861673Y-24817803D01*
X30813870Y-24770000D01*
X30861673Y-24722197D01*
X30908402Y-24652260D01*
X30940591Y-24574551D01*
X30957000Y-24492056D01*
X30957000Y-24407944D01*
X30940591Y-24325449D01*
X30908402Y-24247740D01*
X30861673Y-24177803D01*
X30813870Y-24130000D01*
X30861673Y-24082197D01*
X30908402Y-24012260D01*
X30940591Y-23934551D01*
X30957000Y-23852056D01*
X30957000Y-23767944D01*
X30940591Y-23685449D01*
X30908402Y-23607740D01*
X30861673Y-23537803D01*
X30813870Y-23490000D01*
X30861673Y-23442197D01*
X30908402Y-23372260D01*
X30940591Y-23294551D01*
X30957000Y-23212056D01*
X30957000Y-23127944D01*
X30940591Y-23045449D01*
X30908402Y-22967740D01*
X30861673Y-22897803D01*
X30813870Y-22850000D01*
X30861673Y-22802197D01*
X30908402Y-22732260D01*
X30940591Y-22654551D01*
X30957000Y-22572056D01*
X30957000Y-22487944D01*
X30940591Y-22405449D01*
X30908402Y-22327740D01*
X30861673Y-22257803D01*
X30813870Y-22210000D01*
X30861673Y-22162197D01*
X30908402Y-22092260D01*
X30940591Y-22014551D01*
X30948249Y-21976052D01*
X31448001Y-22475805D01*
X31448000Y-31888225D01*
X31421598Y-31927740D01*
X31389409Y-32005449D01*
X31373000Y-32087944D01*
X31373000Y-32172056D01*
X31389409Y-32254551D01*
X31421598Y-32332260D01*
X31468327Y-32402197D01*
X31527803Y-32461673D01*
X31597740Y-32508402D01*
X31675449Y-32540591D01*
X31757944Y-32557000D01*
X31842056Y-32557000D01*
X31924551Y-32540591D01*
X32002260Y-32508402D01*
X32072197Y-32461673D01*
X32131673Y-32402197D01*
X32178402Y-32332260D01*
X32210591Y-32254551D01*
X32227000Y-32172056D01*
X32227000Y-32087944D01*
X32210591Y-32005449D01*
X32178402Y-31927740D01*
X32152000Y-31888225D01*
X32152000Y-30545444D01*
X35223000Y-30545444D01*
X35223000Y-30629556D01*
X35239409Y-30712051D01*
X35271598Y-30789760D01*
X35318327Y-30859697D01*
X35377803Y-30919173D01*
X35447740Y-30965902D01*
X35525449Y-30998091D01*
X35607944Y-31014500D01*
X35692056Y-31014500D01*
X35774551Y-30998091D01*
X35852260Y-30965902D01*
X35900000Y-30934004D01*
X35947740Y-30965902D01*
X36025449Y-30998091D01*
X36107944Y-31014500D01*
X36192056Y-31014500D01*
X36274551Y-30998091D01*
X36352260Y-30965902D01*
X36400000Y-30934004D01*
X36447740Y-30965902D01*
X36525449Y-30998091D01*
X36607944Y-31014500D01*
X36692056Y-31014500D01*
X36774551Y-30998091D01*
X36852260Y-30965902D01*
X36900000Y-30934004D01*
X36947740Y-30965902D01*
X37025449Y-30998091D01*
X37107944Y-31014500D01*
X37192056Y-31014500D01*
X37274551Y-30998091D01*
X37352260Y-30965902D01*
X37400000Y-30934004D01*
X37447740Y-30965902D01*
X37525449Y-30998091D01*
X37607944Y-31014500D01*
X37692056Y-31014500D01*
X37774551Y-30998091D01*
X37852260Y-30965902D01*
X37900000Y-30934004D01*
X37947740Y-30965902D01*
X38025449Y-30998091D01*
X38107944Y-31014500D01*
X38192056Y-31014500D01*
X38274551Y-30998091D01*
X38352260Y-30965902D01*
X38400000Y-30934004D01*
X38447740Y-30965902D01*
X38525449Y-30998091D01*
X38607944Y-31014500D01*
X38692056Y-31014500D01*
X38774551Y-30998091D01*
X38852260Y-30965902D01*
X38900000Y-30934004D01*
X38947740Y-30965902D01*
X39025449Y-30998091D01*
X39107944Y-31014500D01*
X39192056Y-31014500D01*
X39274551Y-30998091D01*
X39352260Y-30965902D01*
X39422197Y-30919173D01*
X39481673Y-30859697D01*
X39528402Y-30789760D01*
X39560591Y-30712051D01*
X39577000Y-30629556D01*
X39577000Y-30545444D01*
X39560591Y-30462949D01*
X39528402Y-30385240D01*
X39481673Y-30315303D01*
X39422197Y-30255827D01*
X39352260Y-30209098D01*
X39274551Y-30176909D01*
X39192056Y-30160500D01*
X39107944Y-30160500D01*
X39025449Y-30176909D01*
X38947740Y-30209098D01*
X38900000Y-30240996D01*
X38852260Y-30209098D01*
X38774551Y-30176909D01*
X38692056Y-30160500D01*
X38607944Y-30160500D01*
X38525449Y-30176909D01*
X38447740Y-30209098D01*
X38400000Y-30240996D01*
X38352260Y-30209098D01*
X38274551Y-30176909D01*
X38192056Y-30160500D01*
X38107944Y-30160500D01*
X38025449Y-30176909D01*
X37947740Y-30209098D01*
X37900000Y-30240996D01*
X37852260Y-30209098D01*
X37774551Y-30176909D01*
X37692056Y-30160500D01*
X37607944Y-30160500D01*
X37525449Y-30176909D01*
X37447740Y-30209098D01*
X37400000Y-30240996D01*
X37352260Y-30209098D01*
X37274551Y-30176909D01*
X37192056Y-30160500D01*
X37107944Y-30160500D01*
X37025449Y-30176909D01*
X36947740Y-30209098D01*
X36900000Y-30240996D01*
X36852260Y-30209098D01*
X36774551Y-30176909D01*
X36692056Y-30160500D01*
X36607944Y-30160500D01*
X36525449Y-30176909D01*
X36447740Y-30209098D01*
X36400000Y-30240996D01*
X36352260Y-30209098D01*
X36274551Y-30176909D01*
X36192056Y-30160500D01*
X36107944Y-30160500D01*
X36025449Y-30176909D01*
X35947740Y-30209098D01*
X35900000Y-30240996D01*
X35852260Y-30209098D01*
X35774551Y-30176909D01*
X35692056Y-30160500D01*
X35607944Y-30160500D01*
X35525449Y-30176909D01*
X35447740Y-30209098D01*
X35377803Y-30255827D01*
X35318327Y-30315303D01*
X35271598Y-30385240D01*
X35239409Y-30462949D01*
X35223000Y-30545444D01*
X32152000Y-30545444D01*
X32152000Y-22670444D01*
X35223000Y-22670444D01*
X35223000Y-22754556D01*
X35239409Y-22837051D01*
X35271598Y-22914760D01*
X35318327Y-22984697D01*
X35377803Y-23044173D01*
X35447740Y-23090902D01*
X35525449Y-23123091D01*
X35607944Y-23139500D01*
X35692056Y-23139500D01*
X35774551Y-23123091D01*
X35852260Y-23090902D01*
X35900000Y-23059004D01*
X35947740Y-23090902D01*
X36025449Y-23123091D01*
X36107944Y-23139500D01*
X36192056Y-23139500D01*
X36274551Y-23123091D01*
X36352260Y-23090902D01*
X36400000Y-23059004D01*
X36447740Y-23090902D01*
X36525449Y-23123091D01*
X36607944Y-23139500D01*
X36692056Y-23139500D01*
X36774551Y-23123091D01*
X36852260Y-23090902D01*
X36900000Y-23059004D01*
X36947740Y-23090902D01*
X37025449Y-23123091D01*
X37107944Y-23139500D01*
X37192056Y-23139500D01*
X37274551Y-23123091D01*
X37352260Y-23090902D01*
X37400000Y-23059004D01*
X37447740Y-23090902D01*
X37525449Y-23123091D01*
X37607944Y-23139500D01*
X37692056Y-23139500D01*
X37774551Y-23123091D01*
X37852260Y-23090902D01*
X37900000Y-23059004D01*
X37947740Y-23090902D01*
X38025449Y-23123091D01*
X38107944Y-23139500D01*
X38192056Y-23139500D01*
X38274551Y-23123091D01*
X38352260Y-23090902D01*
X38400000Y-23059004D01*
X38447740Y-23090902D01*
X38525449Y-23123091D01*
X38607944Y-23139500D01*
X38692056Y-23139500D01*
X38774551Y-23123091D01*
X38852260Y-23090902D01*
X38900000Y-23059004D01*
X38947740Y-23090902D01*
X39025449Y-23123091D01*
X39107944Y-23139500D01*
X39192056Y-23139500D01*
X39274551Y-23123091D01*
X39352260Y-23090902D01*
X39422197Y-23044173D01*
X39481673Y-22984697D01*
X39528402Y-22914760D01*
X39560591Y-22837051D01*
X39577000Y-22754556D01*
X39577000Y-22670444D01*
X40223000Y-22670444D01*
X40223000Y-22754556D01*
X40239409Y-22837051D01*
X40271598Y-22914760D01*
X40296496Y-22952024D01*
X40298000Y-22967289D01*
X40298000Y-22967292D01*
X40303093Y-23019004D01*
X40323221Y-23085356D01*
X40355907Y-23146507D01*
X40399895Y-23200106D01*
X40413328Y-23211130D01*
X41621131Y-24418934D01*
X40413329Y-25626737D01*
X40399894Y-25637763D01*
X40388872Y-25651194D01*
X40355907Y-25691361D01*
X40338436Y-25724047D01*
X40323221Y-25752513D01*
X40303093Y-25818865D01*
X40298000Y-25870576D01*
X40296297Y-25887868D01*
X40298000Y-25905157D01*
X40298001Y-26382708D01*
X40298000Y-29432711D01*
X40296297Y-29450000D01*
X40298000Y-29467289D01*
X40298000Y-29467291D01*
X40303093Y-29519003D01*
X40323221Y-29585355D01*
X40323222Y-29585356D01*
X40355907Y-29646507D01*
X40378145Y-29673603D01*
X40399894Y-29700105D01*
X40413328Y-29711130D01*
X41313001Y-30610805D01*
X41313000Y-32008225D01*
X41286598Y-32047740D01*
X41254409Y-32125449D01*
X41238000Y-32207944D01*
X41238000Y-32292056D01*
X41254409Y-32374551D01*
X41286598Y-32452260D01*
X41333327Y-32522197D01*
X41392803Y-32581673D01*
X41462740Y-32628402D01*
X41540449Y-32660591D01*
X41622944Y-32677000D01*
X41707056Y-32677000D01*
X41789551Y-32660591D01*
X41867260Y-32628402D01*
X41937197Y-32581673D01*
X41996673Y-32522197D01*
X42043402Y-32452260D01*
X42075591Y-32374551D01*
X42092000Y-32292056D01*
X42092000Y-32207944D01*
X42075591Y-32125449D01*
X42043402Y-32047740D01*
X42017000Y-32008225D01*
X42017000Y-30482289D01*
X42018703Y-30465000D01*
X42017000Y-30447708D01*
X42011907Y-30395996D01*
X41991779Y-30329644D01*
X41959093Y-30268493D01*
X41926129Y-30228325D01*
X41926126Y-30228322D01*
X41915106Y-30214894D01*
X41901678Y-30203874D01*
X41002000Y-29304198D01*
X41002000Y-27857944D01*
X41910500Y-27857944D01*
X41910500Y-27942056D01*
X41926909Y-28024551D01*
X41959098Y-28102260D01*
X42005827Y-28172197D01*
X42065303Y-28231673D01*
X42135240Y-28278402D01*
X42212949Y-28310591D01*
X42295444Y-28327000D01*
X42379556Y-28327000D01*
X42462051Y-28310591D01*
X42539760Y-28278402D01*
X42609697Y-28231673D01*
X42669173Y-28172197D01*
X42715902Y-28102260D01*
X42748091Y-28024551D01*
X42764500Y-27942056D01*
X42764500Y-27857944D01*
X42748091Y-27775449D01*
X42715902Y-27697740D01*
X42669173Y-27627803D01*
X42609697Y-27568327D01*
X42539760Y-27521598D01*
X42462051Y-27489409D01*
X42379556Y-27473000D01*
X42295444Y-27473000D01*
X42212949Y-27489409D01*
X42135240Y-27521598D01*
X42065303Y-27568327D01*
X42005827Y-27627803D01*
X41959098Y-27697740D01*
X41926909Y-27775449D01*
X41910500Y-27857944D01*
X41002000Y-27857944D01*
X41002000Y-26857944D01*
X41910500Y-26857944D01*
X41910500Y-26942056D01*
X41926909Y-27024551D01*
X41959098Y-27102260D01*
X42005827Y-27172197D01*
X42065303Y-27231673D01*
X42135240Y-27278402D01*
X42212949Y-27310591D01*
X42295444Y-27327000D01*
X42379556Y-27327000D01*
X42462051Y-27310591D01*
X42539760Y-27278402D01*
X42609697Y-27231673D01*
X42669173Y-27172197D01*
X42715902Y-27102260D01*
X42748091Y-27024551D01*
X42764500Y-26942056D01*
X42764500Y-26857944D01*
X42748091Y-26775449D01*
X42715902Y-26697740D01*
X42669173Y-26627803D01*
X42609697Y-26568327D01*
X42539760Y-26521598D01*
X42462051Y-26489409D01*
X42379556Y-26473000D01*
X42295444Y-26473000D01*
X42212949Y-26489409D01*
X42135240Y-26521598D01*
X42065303Y-26568327D01*
X42005827Y-26627803D01*
X41959098Y-26697740D01*
X41926909Y-26775449D01*
X41910500Y-26857944D01*
X41002000Y-26857944D01*
X41002000Y-26033670D01*
X41177726Y-25857944D01*
X41910500Y-25857944D01*
X41910500Y-25942056D01*
X41926909Y-26024551D01*
X41959098Y-26102260D01*
X42005827Y-26172197D01*
X42065303Y-26231673D01*
X42135240Y-26278402D01*
X42212949Y-26310591D01*
X42295444Y-26327000D01*
X42379556Y-26327000D01*
X42462051Y-26310591D01*
X42539760Y-26278402D01*
X42609697Y-26231673D01*
X42669173Y-26172197D01*
X42715902Y-26102260D01*
X42748091Y-26024551D01*
X42764500Y-25942056D01*
X42764500Y-25857944D01*
X42748091Y-25775449D01*
X42715902Y-25697740D01*
X42669173Y-25627803D01*
X42609697Y-25568327D01*
X42539760Y-25521598D01*
X42462051Y-25489409D01*
X42379556Y-25473000D01*
X42295444Y-25473000D01*
X42212949Y-25489409D01*
X42135240Y-25521598D01*
X42065303Y-25568327D01*
X42005827Y-25627803D01*
X41959098Y-25697740D01*
X41926909Y-25775449D01*
X41910500Y-25857944D01*
X41177726Y-25857944D01*
X41951574Y-25084096D01*
X41959098Y-25102260D01*
X42005827Y-25172197D01*
X42065303Y-25231673D01*
X42135240Y-25278402D01*
X42212949Y-25310591D01*
X42295444Y-25327000D01*
X42379556Y-25327000D01*
X42462051Y-25310591D01*
X42539760Y-25278402D01*
X42609697Y-25231673D01*
X42669173Y-25172197D01*
X42715902Y-25102260D01*
X42748091Y-25024551D01*
X42764500Y-24942056D01*
X42764500Y-24857944D01*
X42748091Y-24775449D01*
X42715902Y-24697740D01*
X42690254Y-24659354D01*
X42728402Y-24602260D01*
X42760591Y-24524551D01*
X42777000Y-24442056D01*
X42777000Y-24357944D01*
X42760591Y-24275449D01*
X42728402Y-24197740D01*
X42681673Y-24127803D01*
X42622197Y-24068327D01*
X42552260Y-24021598D01*
X42474551Y-23989409D01*
X42392056Y-23973000D01*
X42307944Y-23973000D01*
X42225449Y-23989409D01*
X42198412Y-24000608D01*
X41053052Y-22855250D01*
X41060591Y-22837051D01*
X41077000Y-22754556D01*
X41077000Y-22670444D01*
X41060591Y-22587949D01*
X41028402Y-22510240D01*
X40981673Y-22440303D01*
X40922197Y-22380827D01*
X40852260Y-22334098D01*
X40774551Y-22301909D01*
X40692056Y-22285500D01*
X40607944Y-22285500D01*
X40525449Y-22301909D01*
X40447740Y-22334098D01*
X40377803Y-22380827D01*
X40318327Y-22440303D01*
X40271598Y-22510240D01*
X40239409Y-22587949D01*
X40223000Y-22670444D01*
X39577000Y-22670444D01*
X39560591Y-22587949D01*
X39528402Y-22510240D01*
X39481673Y-22440303D01*
X39422197Y-22380827D01*
X39352260Y-22334098D01*
X39274551Y-22301909D01*
X39192056Y-22285500D01*
X39107944Y-22285500D01*
X39025449Y-22301909D01*
X38947740Y-22334098D01*
X38900000Y-22365996D01*
X38852260Y-22334098D01*
X38774551Y-22301909D01*
X38692056Y-22285500D01*
X38607944Y-22285500D01*
X38525449Y-22301909D01*
X38447740Y-22334098D01*
X38400000Y-22365996D01*
X38352260Y-22334098D01*
X38274551Y-22301909D01*
X38192056Y-22285500D01*
X38107944Y-22285500D01*
X38025449Y-22301909D01*
X37947740Y-22334098D01*
X37900000Y-22365996D01*
X37852260Y-22334098D01*
X37774551Y-22301909D01*
X37692056Y-22285500D01*
X37607944Y-22285500D01*
X37525449Y-22301909D01*
X37447740Y-22334098D01*
X37400000Y-22365996D01*
X37352260Y-22334098D01*
X37274551Y-22301909D01*
X37192056Y-22285500D01*
X37107944Y-22285500D01*
X37025449Y-22301909D01*
X36947740Y-22334098D01*
X36900000Y-22365996D01*
X36852260Y-22334098D01*
X36774551Y-22301909D01*
X36692056Y-22285500D01*
X36607944Y-22285500D01*
X36525449Y-22301909D01*
X36447740Y-22334098D01*
X36400000Y-22365996D01*
X36352260Y-22334098D01*
X36274551Y-22301909D01*
X36192056Y-22285500D01*
X36107944Y-22285500D01*
X36025449Y-22301909D01*
X35947740Y-22334098D01*
X35900000Y-22365996D01*
X35852260Y-22334098D01*
X35774551Y-22301909D01*
X35692056Y-22285500D01*
X35607944Y-22285500D01*
X35525449Y-22301909D01*
X35447740Y-22334098D01*
X35377803Y-22380827D01*
X35318327Y-22440303D01*
X35271598Y-22510240D01*
X35239409Y-22587949D01*
X35223000Y-22670444D01*
X32152000Y-22670444D01*
X32152000Y-22347289D01*
X32153703Y-22330000D01*
X32150945Y-22301998D01*
X32146907Y-22260996D01*
X32126779Y-22194644D01*
X32126779Y-22194643D01*
X32094093Y-22133493D01*
X32061129Y-22093325D01*
X32061126Y-22093322D01*
X32050106Y-22079894D01*
X32036678Y-22068874D01*
X30981135Y-21013333D01*
X30970106Y-20999894D01*
X30916507Y-20955907D01*
X30855356Y-20923221D01*
X30789004Y-20903093D01*
X30777736Y-20901983D01*
X30732260Y-20871598D01*
X30654551Y-20839409D01*
X30572056Y-20823000D01*
X30487944Y-20823000D01*
X30405449Y-20839409D01*
X30327740Y-20871598D01*
X30302000Y-20888796D01*
X30302000Y-20302000D01*
X42985226Y-20302000D01*
X43135294Y-20316715D01*
M02*
