M48
; DRILL file {KiCad (5.1.4)-1} date 09.12.2020 14:49:53
; FORMAT={-:-/ absolute / metric / decimal}
; #@! TF.CreationDate,2020-12-09T14:49:53+03:00
; #@! TF.GenerationSoftware,Kicad,Pcbnew,(5.1.4)-1
FMAT,2
METRIC
T1C0.400
T2C0.762
T3C0.900
T4C1.000
T5C1.100
T6C1.700
T7C2.200
T8C3.000
T9C3.200
T10C3.250
T11C6.500
%
G90
G05
T1
X119.2Y-123.2
X120.0Y-69.25
X125.4Y-117.6
X127.4Y-99.0
X128.4Y-55.0
X128.4Y-110.6
X128.4Y-122.6
X131.487Y-102.087
X132.0Y-94.4
X132.35Y-77.5
X132.4Y-96.0
X132.8Y-88.8
X132.8Y-93.2
X132.8Y-99.2
X133.2Y-56.65
X134.0Y-79.6
X134.1Y-90.7
X134.4Y-61.8
X134.4Y-87.0
X134.8Y-89.4
X135.6Y-106.2
X136.8Y-91.6
X136.8Y-111.6
X136.878Y-62.575
X136.878Y-63.625
X137.0Y-85.8
X137.0Y-107.6
X137.2Y-96.613
X137.2Y-92.6
X137.2Y-93.6
X137.2Y-94.6
X137.2Y-97.613
X137.213Y-95.613
X137.8Y-102.275
X137.8Y-103.325
X138.0Y-78.0
X138.2Y-68.6
X139.0Y-91.4
X139.4Y-56.5
X139.4Y-88.2
X139.562Y-123.037
X139.768Y-92.799
X140.0Y-111.6
X140.129Y-60.929
X140.3Y-95.2
X140.768Y-92.819
X140.871Y-61.671
X141.137Y-123.137
X141.6Y-103.2
X141.787Y-92.813
X142.55Y-65.3
X142.8Y-92.8
X143.75Y-60.8
X143.85Y-57.85
X144.4Y-88.4
X144.5Y-107.3
X144.6Y-116.0
X145.0Y-103.4
X145.1Y-66.4
X145.35Y-56.35
X145.412Y-88.387
X145.6Y-91.8
X145.6Y-114.0
X146.0Y-108.4
X146.2Y-93.2
X146.35Y-55.7
X146.4Y-99.8
X146.603Y-91.802
X146.8Y-85.6
X147.519Y-92.203
X147.6Y-93.2
X147.6Y-103.2
X147.6Y-112.4
X147.8Y-57.6
X147.8Y-121.2
X148.15Y-66.75
X148.35Y-54.1
X148.4Y-53.0
X148.505Y-116.095
X148.6Y-92.2
X148.6Y-108.6
X149.4Y-61.0
X149.413Y-52.987
X149.887Y-130.487
X150.225Y-108.751
X150.432Y-52.981
X150.8Y-113.0
X150.8Y-114.9
X151.0Y-58.4
X151.1Y-87.0
X151.3Y-106.6
X151.431Y-53.001
X151.5Y-127.5
X151.8Y-50.2
X151.8Y-62.6
X152.2Y-89.6
X152.283Y-60.683
X152.35Y-72.4
X152.431Y-53.0
X152.6Y-76.8
X152.85Y-103.75
X152.85Y-106.45
X153.0Y-98.8
X153.2Y-89.6
X153.4Y-92.0
X153.431Y-53.0
X153.9Y-67.7
X154.4Y-65.2
X154.4Y-92.0
X155.487Y-102.887
X155.6Y-54.8
X155.6Y-65.2
X155.6Y-73.65
X155.6Y-98.8
X156.6Y-92.0
X157.0Y-96.6
X157.2Y-64.4
X157.4Y-53.8
X157.4Y-54.8
X157.4Y-55.8
X157.4Y-56.8
X157.4Y-57.8
X157.4Y-58.8
X157.4Y-67.6
X157.4Y-110.8
X157.4Y-112.8
X157.6Y-92.0
X157.8Y-83.2
X158.0Y-70.2
X158.8Y-62.8
X158.8Y-64.4
X158.9Y-53.3
X158.9Y-104.4
X158.9Y-105.7
X159.0Y-92.6
X159.0Y-96.6
X159.2Y-67.6
X159.4Y-71.9
X159.762Y-61.637
X160.4Y-66.2
X160.4Y-99.0
X161.4Y-50.2
X161.562Y-61.637
X161.6Y-59.0
X162.1Y-108.4
X162.6Y-63.4
X163.475Y-54.8
X163.6Y-60.2
X164.0Y-102.8
X164.2Y-50.6
X164.4Y-62.0
X164.9Y-49.7
X165.0Y-55.0
X165.4Y-62.01
X166.4Y-62.001
X166.6Y-49.7
X166.6Y-52.0
X167.2Y-104.4
X167.2Y-105.8
X167.2Y-107.0
X167.4Y-53.0
X167.4Y-62.0
X167.4Y-111.6
X167.55Y-63.25
X167.6Y-87.5
X167.6Y-99.4
X168.2Y-49.7
X168.2Y-52.0
X168.4Y-62.0
X168.6Y-54.0
X168.8Y-55.6
X169.4Y-62.0
X169.47Y-73.73
X169.47Y-121.73
X169.53Y-97.73
X169.9Y-49.7
X169.9Y-52.0
X170.0Y-58.925
X170.0Y-107.0
X171.4Y-52.0
X171.4Y-57.4
X171.612Y-54.612
X171.8Y-49.7
X172.5Y-57.373
X172.7Y-49.7
X173.0Y-89.4
X173.6Y-49.7
X173.6Y-51.9
X173.713Y-67.712
X174.4Y-57.8
X174.5Y-49.7
X174.5Y-51.9
X174.5Y-52.8
X174.5Y-53.7
X174.5Y-54.6
X174.5Y-55.5
X174.5Y-56.4
X175.4Y-56.4
X176.3Y-56.4
X177.2Y-56.4
X178.1Y-56.4
X179.0Y-56.4
X179.2Y-118.0
X179.372Y-93.828
X179.494Y-69.95
X179.9Y-56.4
X180.8Y-56.4
X181.7Y-56.4
X182.6Y-56.4
X183.5Y-56.4
X184.4Y-56.4
X184.6Y-69.0
X184.8Y-92.8
X184.8Y-116.6
X185.3Y-56.4
X186.2Y-56.4
X187.1Y-56.4
X188.0Y-56.4
X188.9Y-56.4
X189.8Y-56.4
X190.7Y-56.4
X122.775Y-113.525
X122.775Y-114.38
X122.775Y-115.23
X122.775Y-116.08
X122.775Y-116.93
X122.775Y-117.78
X122.775Y-118.63
X122.775Y-119.48
X124.1Y-113.525
X124.1Y-114.375
X124.1Y-115.225
X124.1Y-116.075
X124.1Y-116.925
X124.1Y-117.775
X124.1Y-118.625
X124.1Y-119.475
T2
X168.0Y-114.6
X168.0Y-118.4
X170.54Y-114.6
X170.54Y-118.4
X168.0Y-90.6
X168.0Y-94.4
X170.54Y-90.6
X170.54Y-94.4
X168.0Y-66.6
X168.0Y-70.4
X170.54Y-66.6
X170.54Y-70.4
T3
X163.0Y-68.5
X165.54Y-68.5
X122.6Y-90.5
X125.14Y-90.5
X163.0Y-92.5
X165.54Y-92.5
X163.0Y-116.5
X165.54Y-116.5
X122.6Y-97.5
X125.14Y-97.5
T4
X132.55Y-63.56
X132.55Y-66.1
X132.55Y-68.64
X132.55Y-71.18
X135.09Y-64.83
X135.09Y-67.37
X135.09Y-69.91
X135.09Y-72.45
X140.25Y-134.25
X142.79Y-134.25
X157.38Y-134.25
X159.92Y-134.25
X162.46Y-134.25
X165.0Y-134.25
T5
X187.5Y-67.85
X187.5Y-70.85
X121.3Y-61.68
X121.3Y-71.9
X122.82Y-64.22
X122.82Y-74.33
X187.5Y-91.85
X187.5Y-94.85
X187.5Y-115.85
X187.5Y-118.85
T6
X119.74Y-112.175
X119.74Y-120.825
X129.5Y-60.1
X129.5Y-75.9
T7
X123.9Y-111.7
X123.9Y-121.3
T8
X178.0Y-59.5
X178.0Y-77.5
X195.0Y-59.0
X195.0Y-78.0
X178.0Y-83.5
X178.0Y-101.5
X195.0Y-83.0
X195.0Y-102.0
X178.0Y-107.5
X178.0Y-125.5
X195.0Y-107.0
X195.0Y-126.0
T9
X122.0Y-53.0
X194.0Y-53.0
X194.0Y-132.0
X122.0Y-132.0
T10
X126.2Y-62.285
X126.2Y-73.715
T11
X192.0Y-64.0
X192.0Y-88.0
X192.0Y-112.0
T0
M30
