G04 #@! TF.GenerationSoftware,KiCad,Pcbnew,(5.1.4)-1*
G04 #@! TF.CreationDate,2020-12-09T14:49:47+03:00*
G04 #@! TF.ProjectId,charge_block,63686172-6765-45f6-926c-6f636b2e6b69,rev?*
G04 #@! TF.SameCoordinates,Original*
G04 #@! TF.FileFunction,Soldermask,Top*
G04 #@! TF.FilePolarity,Negative*
%FSLAX46Y46*%
G04 Gerber Fmt 4.6, Leading zero omitted, Abs format (unit mm)*
G04 Created by KiCad (PCBNEW (5.1.4)-1) date 2020-12-09 14:49:47*
%MOMM*%
%LPD*%
G04 APERTURE LIST*
%ADD10C,0.100000*%
G04 APERTURE END LIST*
D10*
G36*
X160030443Y-133355519D02*
G01*
X160096627Y-133362037D01*
X160266466Y-133413557D01*
X160422991Y-133497222D01*
X160458729Y-133526552D01*
X160560186Y-133609814D01*
X160643448Y-133711271D01*
X160672778Y-133747009D01*
X160756443Y-133903534D01*
X160807963Y-134073373D01*
X160825359Y-134250000D01*
X160807963Y-134426627D01*
X160756443Y-134596466D01*
X160672778Y-134752991D01*
X160643448Y-134788729D01*
X160560186Y-134890186D01*
X160458729Y-134973448D01*
X160422991Y-135002778D01*
X160266466Y-135086443D01*
X160096627Y-135137963D01*
X160030443Y-135144481D01*
X159964260Y-135151000D01*
X159875740Y-135151000D01*
X159809557Y-135144481D01*
X159743373Y-135137963D01*
X159573534Y-135086443D01*
X159417009Y-135002778D01*
X159381271Y-134973448D01*
X159279814Y-134890186D01*
X159196552Y-134788729D01*
X159167222Y-134752991D01*
X159083557Y-134596466D01*
X159032037Y-134426627D01*
X159014641Y-134250000D01*
X159032037Y-134073373D01*
X159083557Y-133903534D01*
X159167222Y-133747009D01*
X159196552Y-133711271D01*
X159279814Y-133609814D01*
X159381271Y-133526552D01*
X159417009Y-133497222D01*
X159573534Y-133413557D01*
X159743373Y-133362037D01*
X159809557Y-133355519D01*
X159875740Y-133349000D01*
X159964260Y-133349000D01*
X160030443Y-133355519D01*
X160030443Y-133355519D01*
G37*
G36*
X162570443Y-133355519D02*
G01*
X162636627Y-133362037D01*
X162806466Y-133413557D01*
X162962991Y-133497222D01*
X162998729Y-133526552D01*
X163100186Y-133609814D01*
X163183448Y-133711271D01*
X163212778Y-133747009D01*
X163296443Y-133903534D01*
X163347963Y-134073373D01*
X163365359Y-134250000D01*
X163347963Y-134426627D01*
X163296443Y-134596466D01*
X163212778Y-134752991D01*
X163183448Y-134788729D01*
X163100186Y-134890186D01*
X162998729Y-134973448D01*
X162962991Y-135002778D01*
X162806466Y-135086443D01*
X162636627Y-135137963D01*
X162570443Y-135144481D01*
X162504260Y-135151000D01*
X162415740Y-135151000D01*
X162349557Y-135144481D01*
X162283373Y-135137963D01*
X162113534Y-135086443D01*
X161957009Y-135002778D01*
X161921271Y-134973448D01*
X161819814Y-134890186D01*
X161736552Y-134788729D01*
X161707222Y-134752991D01*
X161623557Y-134596466D01*
X161572037Y-134426627D01*
X161554641Y-134250000D01*
X161572037Y-134073373D01*
X161623557Y-133903534D01*
X161707222Y-133747009D01*
X161736552Y-133711271D01*
X161819814Y-133609814D01*
X161921271Y-133526552D01*
X161957009Y-133497222D01*
X162113534Y-133413557D01*
X162283373Y-133362037D01*
X162349557Y-133355519D01*
X162415740Y-133349000D01*
X162504260Y-133349000D01*
X162570443Y-133355519D01*
X162570443Y-133355519D01*
G37*
G36*
X165901000Y-135151000D02*
G01*
X164099000Y-135151000D01*
X164099000Y-133349000D01*
X165901000Y-133349000D01*
X165901000Y-135151000D01*
X165901000Y-135151000D01*
G37*
G36*
X141151000Y-135151000D02*
G01*
X139349000Y-135151000D01*
X139349000Y-133349000D01*
X141151000Y-133349000D01*
X141151000Y-135151000D01*
X141151000Y-135151000D01*
G37*
G36*
X157490443Y-133355519D02*
G01*
X157556627Y-133362037D01*
X157726466Y-133413557D01*
X157882991Y-133497222D01*
X157918729Y-133526552D01*
X158020186Y-133609814D01*
X158103448Y-133711271D01*
X158132778Y-133747009D01*
X158216443Y-133903534D01*
X158267963Y-134073373D01*
X158285359Y-134250000D01*
X158267963Y-134426627D01*
X158216443Y-134596466D01*
X158132778Y-134752991D01*
X158103448Y-134788729D01*
X158020186Y-134890186D01*
X157918729Y-134973448D01*
X157882991Y-135002778D01*
X157726466Y-135086443D01*
X157556627Y-135137963D01*
X157490443Y-135144481D01*
X157424260Y-135151000D01*
X157335740Y-135151000D01*
X157269557Y-135144481D01*
X157203373Y-135137963D01*
X157033534Y-135086443D01*
X156877009Y-135002778D01*
X156841271Y-134973448D01*
X156739814Y-134890186D01*
X156656552Y-134788729D01*
X156627222Y-134752991D01*
X156543557Y-134596466D01*
X156492037Y-134426627D01*
X156474641Y-134250000D01*
X156492037Y-134073373D01*
X156543557Y-133903534D01*
X156627222Y-133747009D01*
X156656552Y-133711271D01*
X156739814Y-133609814D01*
X156841271Y-133526552D01*
X156877009Y-133497222D01*
X157033534Y-133413557D01*
X157203373Y-133362037D01*
X157269557Y-133355519D01*
X157335740Y-133349000D01*
X157424260Y-133349000D01*
X157490443Y-133355519D01*
X157490443Y-133355519D01*
G37*
G36*
X142900443Y-133355519D02*
G01*
X142966627Y-133362037D01*
X143136466Y-133413557D01*
X143292991Y-133497222D01*
X143328729Y-133526552D01*
X143430186Y-133609814D01*
X143513448Y-133711271D01*
X143542778Y-133747009D01*
X143626443Y-133903534D01*
X143677963Y-134073373D01*
X143695359Y-134250000D01*
X143677963Y-134426627D01*
X143626443Y-134596466D01*
X143542778Y-134752991D01*
X143513448Y-134788729D01*
X143430186Y-134890186D01*
X143328729Y-134973448D01*
X143292991Y-135002778D01*
X143136466Y-135086443D01*
X142966627Y-135137963D01*
X142900443Y-135144481D01*
X142834260Y-135151000D01*
X142745740Y-135151000D01*
X142679557Y-135144481D01*
X142613373Y-135137963D01*
X142443534Y-135086443D01*
X142287009Y-135002778D01*
X142251271Y-134973448D01*
X142149814Y-134890186D01*
X142066552Y-134788729D01*
X142037222Y-134752991D01*
X141953557Y-134596466D01*
X141902037Y-134426627D01*
X141884641Y-134250000D01*
X141902037Y-134073373D01*
X141953557Y-133903534D01*
X142037222Y-133747009D01*
X142066552Y-133711271D01*
X142149814Y-133609814D01*
X142251271Y-133526552D01*
X142287009Y-133497222D01*
X142443534Y-133413557D01*
X142613373Y-133362037D01*
X142679557Y-133355519D01*
X142745740Y-133349000D01*
X142834260Y-133349000D01*
X142900443Y-133355519D01*
X142900443Y-133355519D01*
G37*
G36*
X194375256Y-130391298D02*
G01*
X194481579Y-130412447D01*
X194782042Y-130536903D01*
X195052451Y-130717585D01*
X195282415Y-130947549D01*
X195463097Y-131217958D01*
X195587553Y-131518421D01*
X195651000Y-131837391D01*
X195651000Y-132162609D01*
X195587553Y-132481579D01*
X195463097Y-132782042D01*
X195282415Y-133052451D01*
X195052451Y-133282415D01*
X194782042Y-133463097D01*
X194782041Y-133463098D01*
X194782040Y-133463098D01*
X194699657Y-133497222D01*
X194481579Y-133587553D01*
X194375256Y-133608702D01*
X194162611Y-133651000D01*
X193837389Y-133651000D01*
X193624744Y-133608702D01*
X193518421Y-133587553D01*
X193300343Y-133497222D01*
X193217960Y-133463098D01*
X193217959Y-133463098D01*
X193217958Y-133463097D01*
X192947549Y-133282415D01*
X192717585Y-133052451D01*
X192536903Y-132782042D01*
X192412447Y-132481579D01*
X192349000Y-132162609D01*
X192349000Y-131837391D01*
X192412447Y-131518421D01*
X192536903Y-131217958D01*
X192717585Y-130947549D01*
X192947549Y-130717585D01*
X193217958Y-130536903D01*
X193518421Y-130412447D01*
X193624744Y-130391298D01*
X193837389Y-130349000D01*
X194162611Y-130349000D01*
X194375256Y-130391298D01*
X194375256Y-130391298D01*
G37*
G36*
X122375256Y-130391298D02*
G01*
X122481579Y-130412447D01*
X122782042Y-130536903D01*
X123052451Y-130717585D01*
X123282415Y-130947549D01*
X123463097Y-131217958D01*
X123587553Y-131518421D01*
X123651000Y-131837391D01*
X123651000Y-132162609D01*
X123587553Y-132481579D01*
X123463097Y-132782042D01*
X123282415Y-133052451D01*
X123052451Y-133282415D01*
X122782042Y-133463097D01*
X122782041Y-133463098D01*
X122782040Y-133463098D01*
X122699657Y-133497222D01*
X122481579Y-133587553D01*
X122375256Y-133608702D01*
X122162611Y-133651000D01*
X121837389Y-133651000D01*
X121624744Y-133608702D01*
X121518421Y-133587553D01*
X121300343Y-133497222D01*
X121217960Y-133463098D01*
X121217959Y-133463098D01*
X121217958Y-133463097D01*
X120947549Y-133282415D01*
X120717585Y-133052451D01*
X120536903Y-132782042D01*
X120412447Y-132481579D01*
X120349000Y-132162609D01*
X120349000Y-131837391D01*
X120412447Y-131518421D01*
X120536903Y-131217958D01*
X120717585Y-130947549D01*
X120947549Y-130717585D01*
X121217958Y-130536903D01*
X121518421Y-130412447D01*
X121624744Y-130391298D01*
X121837389Y-130349000D01*
X122162611Y-130349000D01*
X122375256Y-130391298D01*
X122375256Y-130391298D01*
G37*
G36*
X195302585Y-124478802D02*
G01*
X195452410Y-124508604D01*
X195734674Y-124625521D01*
X195988705Y-124795259D01*
X196204741Y-125011295D01*
X196374479Y-125265326D01*
X196491396Y-125547590D01*
X196551000Y-125847240D01*
X196551000Y-126152760D01*
X196491396Y-126452410D01*
X196374479Y-126734674D01*
X196204741Y-126988705D01*
X195988705Y-127204741D01*
X195734674Y-127374479D01*
X195452410Y-127491396D01*
X195302585Y-127521198D01*
X195152761Y-127551000D01*
X194847239Y-127551000D01*
X194697415Y-127521198D01*
X194547590Y-127491396D01*
X194265326Y-127374479D01*
X194011295Y-127204741D01*
X193795259Y-126988705D01*
X193625521Y-126734674D01*
X193508604Y-126452410D01*
X193449000Y-126152760D01*
X193449000Y-125847240D01*
X193508604Y-125547590D01*
X193625521Y-125265326D01*
X193795259Y-125011295D01*
X194011295Y-124795259D01*
X194265326Y-124625521D01*
X194547590Y-124508604D01*
X194697415Y-124478802D01*
X194847239Y-124449000D01*
X195152761Y-124449000D01*
X195302585Y-124478802D01*
X195302585Y-124478802D01*
G37*
G36*
X178302585Y-123978802D02*
G01*
X178452410Y-124008604D01*
X178734674Y-124125521D01*
X178988705Y-124295259D01*
X179204741Y-124511295D01*
X179374479Y-124765326D01*
X179491396Y-125047590D01*
X179551000Y-125347240D01*
X179551000Y-125652760D01*
X179491396Y-125952410D01*
X179374479Y-126234674D01*
X179204741Y-126488705D01*
X178988705Y-126704741D01*
X178734674Y-126874479D01*
X178452410Y-126991396D01*
X178302585Y-127021198D01*
X178152761Y-127051000D01*
X177847239Y-127051000D01*
X177697415Y-127021198D01*
X177547590Y-126991396D01*
X177265326Y-126874479D01*
X177011295Y-126704741D01*
X176795259Y-126488705D01*
X176625521Y-126234674D01*
X176508604Y-125952410D01*
X176449000Y-125652760D01*
X176449000Y-125347240D01*
X176508604Y-125047590D01*
X176625521Y-124765326D01*
X176795259Y-124511295D01*
X177011295Y-124295259D01*
X177265326Y-124125521D01*
X177547590Y-124008604D01*
X177697415Y-123978802D01*
X177847239Y-123949000D01*
X178152761Y-123949000D01*
X178302585Y-123978802D01*
X178302585Y-123978802D01*
G37*
G36*
X124279487Y-110448996D02*
G01*
X124516253Y-110547068D01*
X124516255Y-110547069D01*
X124729339Y-110689447D01*
X124910553Y-110870661D01*
X125041327Y-111066378D01*
X125052932Y-111083747D01*
X125151004Y-111320513D01*
X125201000Y-111571861D01*
X125201000Y-111828139D01*
X125151004Y-112079487D01*
X125060404Y-112298213D01*
X125052931Y-112316255D01*
X124910553Y-112529339D01*
X124729339Y-112710553D01*
X124516255Y-112852931D01*
X124516254Y-112852932D01*
X124516253Y-112852932D01*
X124279487Y-112951004D01*
X124245843Y-112957696D01*
X124222394Y-112964809D01*
X124200783Y-112976359D01*
X124181841Y-112991904D01*
X124166296Y-113010846D01*
X124154744Y-113032457D01*
X124147631Y-113055906D01*
X124145229Y-113080292D01*
X124147631Y-113104678D01*
X124154744Y-113128127D01*
X124166294Y-113149738D01*
X124181839Y-113168680D01*
X124200781Y-113184225D01*
X124222393Y-113195777D01*
X124266259Y-113213947D01*
X124266261Y-113213948D01*
X124290182Y-113229932D01*
X124323748Y-113252360D01*
X124372640Y-113301252D01*
X124411054Y-113358742D01*
X124432624Y-113410818D01*
X124437511Y-113422617D01*
X124451000Y-113490430D01*
X124451000Y-113559570D01*
X124437511Y-113627383D01*
X124437510Y-113627385D01*
X124411054Y-113691258D01*
X124411052Y-113691261D01*
X124372639Y-113748749D01*
X124323749Y-113797639D01*
X124266261Y-113836052D01*
X124266259Y-113836053D01*
X124262920Y-113838284D01*
X124248359Y-113846068D01*
X124229417Y-113861613D01*
X124213872Y-113880555D01*
X124202321Y-113902166D01*
X124195208Y-113925615D01*
X124192806Y-113950001D01*
X124195208Y-113974387D01*
X124202321Y-113997836D01*
X124213873Y-114019446D01*
X124229418Y-114038388D01*
X124248360Y-114053933D01*
X124262921Y-114061717D01*
X124266258Y-114063947D01*
X124266261Y-114063948D01*
X124305263Y-114090009D01*
X124323748Y-114102360D01*
X124372640Y-114151252D01*
X124411054Y-114208742D01*
X124432624Y-114260818D01*
X124437511Y-114272617D01*
X124451000Y-114340430D01*
X124451000Y-114409570D01*
X124437511Y-114477383D01*
X124437510Y-114477385D01*
X124411054Y-114541258D01*
X124411052Y-114541261D01*
X124372639Y-114598749D01*
X124323749Y-114647639D01*
X124266261Y-114686052D01*
X124266259Y-114686053D01*
X124262920Y-114688284D01*
X124248359Y-114696068D01*
X124229417Y-114711613D01*
X124213872Y-114730555D01*
X124202321Y-114752166D01*
X124195208Y-114775615D01*
X124192806Y-114800001D01*
X124195208Y-114824387D01*
X124202321Y-114847836D01*
X124213873Y-114869446D01*
X124229418Y-114888388D01*
X124248360Y-114903933D01*
X124262921Y-114911717D01*
X124266258Y-114913947D01*
X124266261Y-114913948D01*
X124305263Y-114940009D01*
X124323748Y-114952360D01*
X124372640Y-115001252D01*
X124411054Y-115058742D01*
X124432624Y-115110818D01*
X124437511Y-115122617D01*
X124451000Y-115190430D01*
X124451000Y-115259570D01*
X124437511Y-115327383D01*
X124437510Y-115327385D01*
X124411054Y-115391258D01*
X124411052Y-115391261D01*
X124372639Y-115448749D01*
X124323749Y-115497639D01*
X124266261Y-115536052D01*
X124266259Y-115536053D01*
X124262920Y-115538284D01*
X124248359Y-115546068D01*
X124229417Y-115561613D01*
X124213872Y-115580555D01*
X124202321Y-115602166D01*
X124195208Y-115625615D01*
X124192806Y-115650001D01*
X124195208Y-115674387D01*
X124202321Y-115697836D01*
X124213873Y-115719446D01*
X124229418Y-115738388D01*
X124248360Y-115753933D01*
X124262921Y-115761717D01*
X124266258Y-115763947D01*
X124266261Y-115763948D01*
X124305263Y-115790009D01*
X124323748Y-115802360D01*
X124372640Y-115851252D01*
X124411054Y-115908742D01*
X124429598Y-115953514D01*
X124437511Y-115972617D01*
X124451000Y-116040430D01*
X124451000Y-116109570D01*
X124437511Y-116177383D01*
X124437510Y-116177385D01*
X124411054Y-116241258D01*
X124411052Y-116241261D01*
X124372639Y-116298749D01*
X124323749Y-116347639D01*
X124266261Y-116386052D01*
X124266259Y-116386053D01*
X124262920Y-116388284D01*
X124248359Y-116396068D01*
X124229417Y-116411613D01*
X124213872Y-116430555D01*
X124202321Y-116452166D01*
X124195208Y-116475615D01*
X124192806Y-116500001D01*
X124195208Y-116524387D01*
X124202321Y-116547836D01*
X124213873Y-116569446D01*
X124229418Y-116588388D01*
X124248360Y-116603933D01*
X124262921Y-116611717D01*
X124266258Y-116613947D01*
X124266261Y-116613948D01*
X124305263Y-116640009D01*
X124323748Y-116652360D01*
X124372640Y-116701252D01*
X124411054Y-116758742D01*
X124432624Y-116810818D01*
X124437511Y-116822617D01*
X124451000Y-116890430D01*
X124451000Y-116959570D01*
X124437511Y-117027383D01*
X124437510Y-117027385D01*
X124411054Y-117091258D01*
X124411052Y-117091261D01*
X124372639Y-117148749D01*
X124323749Y-117197639D01*
X124266261Y-117236052D01*
X124266259Y-117236053D01*
X124262920Y-117238284D01*
X124248359Y-117246068D01*
X124229417Y-117261613D01*
X124213872Y-117280555D01*
X124202321Y-117302166D01*
X124195208Y-117325615D01*
X124192806Y-117350001D01*
X124195208Y-117374387D01*
X124202321Y-117397836D01*
X124213873Y-117419446D01*
X124229418Y-117438388D01*
X124248360Y-117453933D01*
X124262921Y-117461717D01*
X124266258Y-117463947D01*
X124266261Y-117463948D01*
X124305263Y-117490009D01*
X124323748Y-117502360D01*
X124372640Y-117551252D01*
X124411054Y-117608742D01*
X124414989Y-117618243D01*
X124437511Y-117672617D01*
X124451000Y-117740430D01*
X124451000Y-117809570D01*
X124437511Y-117877383D01*
X124437510Y-117877385D01*
X124411054Y-117941258D01*
X124411052Y-117941261D01*
X124372639Y-117998749D01*
X124323749Y-118047639D01*
X124266261Y-118086052D01*
X124266259Y-118086053D01*
X124262920Y-118088284D01*
X124248359Y-118096068D01*
X124229417Y-118111613D01*
X124213872Y-118130555D01*
X124202321Y-118152166D01*
X124195208Y-118175615D01*
X124192806Y-118200001D01*
X124195208Y-118224387D01*
X124202321Y-118247836D01*
X124213873Y-118269446D01*
X124229418Y-118288388D01*
X124248360Y-118303933D01*
X124262921Y-118311717D01*
X124266258Y-118313947D01*
X124266261Y-118313948D01*
X124305263Y-118340009D01*
X124323748Y-118352360D01*
X124372640Y-118401252D01*
X124411054Y-118458742D01*
X124419890Y-118480075D01*
X124437511Y-118522617D01*
X124451000Y-118590430D01*
X124451000Y-118659570D01*
X124437511Y-118727383D01*
X124437510Y-118727385D01*
X124411054Y-118791258D01*
X124411052Y-118791261D01*
X124372639Y-118848749D01*
X124323749Y-118897639D01*
X124266261Y-118936052D01*
X124266259Y-118936053D01*
X124262920Y-118938284D01*
X124248359Y-118946068D01*
X124229417Y-118961613D01*
X124213872Y-118980555D01*
X124202321Y-119002166D01*
X124195208Y-119025615D01*
X124192806Y-119050001D01*
X124195208Y-119074387D01*
X124202321Y-119097836D01*
X124213873Y-119119446D01*
X124229418Y-119138388D01*
X124248360Y-119153933D01*
X124262921Y-119161717D01*
X124266258Y-119163947D01*
X124266261Y-119163948D01*
X124292915Y-119181758D01*
X124323748Y-119202360D01*
X124372640Y-119251252D01*
X124411054Y-119308742D01*
X124427245Y-119347833D01*
X124437511Y-119372617D01*
X124451000Y-119440430D01*
X124451000Y-119509570D01*
X124437511Y-119577383D01*
X124437510Y-119577385D01*
X124411054Y-119641258D01*
X124411052Y-119641261D01*
X124372639Y-119698749D01*
X124323749Y-119747639D01*
X124266261Y-119786052D01*
X124266260Y-119786053D01*
X124266259Y-119786053D01*
X124222393Y-119804223D01*
X124200782Y-119815774D01*
X124181840Y-119831319D01*
X124166295Y-119850261D01*
X124154744Y-119871872D01*
X124147631Y-119895321D01*
X124145229Y-119919707D01*
X124147631Y-119944093D01*
X124154744Y-119967542D01*
X124166295Y-119989153D01*
X124181840Y-120008095D01*
X124200782Y-120023640D01*
X124222393Y-120035191D01*
X124245843Y-120042304D01*
X124279487Y-120048996D01*
X124516253Y-120147068D01*
X124516255Y-120147069D01*
X124644005Y-120232429D01*
X124729339Y-120289447D01*
X124910553Y-120470661D01*
X125052932Y-120683747D01*
X125151004Y-120920513D01*
X125201000Y-121171861D01*
X125201000Y-121428139D01*
X125151004Y-121679487D01*
X125102446Y-121796715D01*
X125052931Y-121916255D01*
X124910553Y-122129339D01*
X124729339Y-122310553D01*
X124516255Y-122452931D01*
X124516254Y-122452932D01*
X124516253Y-122452932D01*
X124279487Y-122551004D01*
X124028139Y-122601000D01*
X123771861Y-122601000D01*
X123520513Y-122551004D01*
X123283747Y-122452932D01*
X123283746Y-122452932D01*
X123283745Y-122452931D01*
X123070661Y-122310553D01*
X122889447Y-122129339D01*
X122747069Y-121916255D01*
X122697554Y-121796715D01*
X122648996Y-121679487D01*
X122599000Y-121428139D01*
X122599000Y-121171861D01*
X122648996Y-120920513D01*
X122747068Y-120683747D01*
X122889447Y-120470661D01*
X123070661Y-120289447D01*
X123155995Y-120232429D01*
X123283745Y-120147069D01*
X123283747Y-120147068D01*
X123520513Y-120048996D01*
X123771861Y-119999000D01*
X123840372Y-119999000D01*
X123864758Y-119996598D01*
X123888207Y-119989485D01*
X123909818Y-119977934D01*
X123928760Y-119962389D01*
X123944305Y-119943447D01*
X123955856Y-119921836D01*
X123962969Y-119898387D01*
X123965371Y-119874001D01*
X123962969Y-119849615D01*
X123955856Y-119826166D01*
X123944305Y-119804555D01*
X123928760Y-119785613D01*
X123909818Y-119770068D01*
X123876252Y-119747640D01*
X123827360Y-119698748D01*
X123788946Y-119641258D01*
X123762490Y-119577385D01*
X123762489Y-119577383D01*
X123749000Y-119509570D01*
X123749000Y-119440430D01*
X123762489Y-119372617D01*
X123772755Y-119347833D01*
X123788946Y-119308742D01*
X123827360Y-119251252D01*
X123876252Y-119202360D01*
X123907085Y-119181758D01*
X123933739Y-119163948D01*
X123933741Y-119163947D01*
X123937080Y-119161716D01*
X123951641Y-119153932D01*
X123970583Y-119138387D01*
X123986128Y-119119445D01*
X123997679Y-119097834D01*
X124004792Y-119074385D01*
X124007194Y-119049999D01*
X124004792Y-119025613D01*
X123997679Y-119002164D01*
X123986127Y-118980554D01*
X123970582Y-118961612D01*
X123951640Y-118946067D01*
X123937079Y-118938283D01*
X123933742Y-118936053D01*
X123933739Y-118936052D01*
X123876251Y-118897639D01*
X123827361Y-118848749D01*
X123788948Y-118791261D01*
X123788946Y-118791258D01*
X123762490Y-118727385D01*
X123762489Y-118727383D01*
X123749000Y-118659570D01*
X123749000Y-118590430D01*
X123762489Y-118522617D01*
X123780110Y-118480075D01*
X123788946Y-118458742D01*
X123827360Y-118401252D01*
X123876252Y-118352360D01*
X123902808Y-118334616D01*
X123933739Y-118313948D01*
X123933741Y-118313947D01*
X123937080Y-118311716D01*
X123951641Y-118303932D01*
X123970583Y-118288387D01*
X123986128Y-118269445D01*
X123997679Y-118247834D01*
X124004792Y-118224385D01*
X124007194Y-118199999D01*
X124004792Y-118175613D01*
X123997679Y-118152164D01*
X123986127Y-118130554D01*
X123970582Y-118111612D01*
X123951640Y-118096067D01*
X123937079Y-118088283D01*
X123933742Y-118086053D01*
X123933739Y-118086052D01*
X123876251Y-118047639D01*
X123827361Y-117998749D01*
X123788948Y-117941261D01*
X123788946Y-117941258D01*
X123762490Y-117877385D01*
X123762489Y-117877383D01*
X123749000Y-117809570D01*
X123749000Y-117740430D01*
X123762489Y-117672617D01*
X123785011Y-117618243D01*
X123788946Y-117608742D01*
X123827360Y-117551252D01*
X123876252Y-117502360D01*
X123902808Y-117484616D01*
X123933739Y-117463948D01*
X123933741Y-117463947D01*
X123937080Y-117461716D01*
X123951641Y-117453932D01*
X123970583Y-117438387D01*
X123986128Y-117419445D01*
X123997679Y-117397834D01*
X124004792Y-117374385D01*
X124007194Y-117349999D01*
X124004792Y-117325613D01*
X123997679Y-117302164D01*
X123986127Y-117280554D01*
X123970582Y-117261612D01*
X123951640Y-117246067D01*
X123937079Y-117238283D01*
X123933742Y-117236053D01*
X123933739Y-117236052D01*
X123876251Y-117197639D01*
X123827361Y-117148749D01*
X123788948Y-117091261D01*
X123788946Y-117091258D01*
X123762490Y-117027385D01*
X123762489Y-117027383D01*
X123749000Y-116959570D01*
X123749000Y-116890430D01*
X123762489Y-116822617D01*
X123767376Y-116810818D01*
X123788946Y-116758742D01*
X123827360Y-116701252D01*
X123876252Y-116652360D01*
X123902808Y-116634616D01*
X123933739Y-116613948D01*
X123933741Y-116613947D01*
X123937080Y-116611716D01*
X123951641Y-116603932D01*
X123970583Y-116588387D01*
X123986128Y-116569445D01*
X123997679Y-116547834D01*
X124004792Y-116524385D01*
X124007194Y-116499999D01*
X124004792Y-116475613D01*
X123997679Y-116452164D01*
X123986127Y-116430554D01*
X123970582Y-116411612D01*
X123951640Y-116396067D01*
X123937079Y-116388283D01*
X123933742Y-116386053D01*
X123933739Y-116386052D01*
X123876251Y-116347639D01*
X123827361Y-116298749D01*
X123788948Y-116241261D01*
X123788946Y-116241258D01*
X123762490Y-116177385D01*
X123762489Y-116177383D01*
X123749000Y-116109570D01*
X123749000Y-116040430D01*
X123762489Y-115972617D01*
X123770402Y-115953514D01*
X123788946Y-115908742D01*
X123827360Y-115851252D01*
X123876252Y-115802360D01*
X123902808Y-115784616D01*
X123933739Y-115763948D01*
X123933741Y-115763947D01*
X123937080Y-115761716D01*
X123951641Y-115753932D01*
X123970583Y-115738387D01*
X123986128Y-115719445D01*
X123997679Y-115697834D01*
X124004792Y-115674385D01*
X124007194Y-115649999D01*
X124004792Y-115625613D01*
X123997679Y-115602164D01*
X123986127Y-115580554D01*
X123970582Y-115561612D01*
X123951640Y-115546067D01*
X123937079Y-115538283D01*
X123933742Y-115536053D01*
X123933739Y-115536052D01*
X123876251Y-115497639D01*
X123827361Y-115448749D01*
X123788948Y-115391261D01*
X123788946Y-115391258D01*
X123762490Y-115327385D01*
X123762489Y-115327383D01*
X123749000Y-115259570D01*
X123749000Y-115190430D01*
X123762489Y-115122617D01*
X123767376Y-115110818D01*
X123788946Y-115058742D01*
X123827360Y-115001252D01*
X123876252Y-114952360D01*
X123902808Y-114934616D01*
X123933739Y-114913948D01*
X123933741Y-114913947D01*
X123937080Y-114911716D01*
X123951641Y-114903932D01*
X123970583Y-114888387D01*
X123986128Y-114869445D01*
X123997679Y-114847834D01*
X124004792Y-114824385D01*
X124007194Y-114799999D01*
X124004792Y-114775613D01*
X123997679Y-114752164D01*
X123986127Y-114730554D01*
X123970582Y-114711612D01*
X123951640Y-114696067D01*
X123937079Y-114688283D01*
X123933742Y-114686053D01*
X123933739Y-114686052D01*
X123876251Y-114647639D01*
X123827361Y-114598749D01*
X123788948Y-114541261D01*
X123788946Y-114541258D01*
X123762490Y-114477385D01*
X123762489Y-114477383D01*
X123749000Y-114409570D01*
X123749000Y-114340430D01*
X123762489Y-114272617D01*
X123767376Y-114260818D01*
X123788946Y-114208742D01*
X123827360Y-114151252D01*
X123876252Y-114102360D01*
X123902808Y-114084616D01*
X123933739Y-114063948D01*
X123933741Y-114063947D01*
X123937080Y-114061716D01*
X123951641Y-114053932D01*
X123970583Y-114038387D01*
X123986128Y-114019445D01*
X123997679Y-113997834D01*
X124004792Y-113974385D01*
X124007194Y-113949999D01*
X124004792Y-113925613D01*
X123997679Y-113902164D01*
X123986127Y-113880554D01*
X123970582Y-113861612D01*
X123951640Y-113846067D01*
X123937079Y-113838283D01*
X123933742Y-113836053D01*
X123933739Y-113836052D01*
X123876251Y-113797639D01*
X123827361Y-113748749D01*
X123788948Y-113691261D01*
X123788946Y-113691258D01*
X123762490Y-113627385D01*
X123762489Y-113627383D01*
X123749000Y-113559570D01*
X123749000Y-113490430D01*
X123762489Y-113422617D01*
X123767376Y-113410818D01*
X123788946Y-113358742D01*
X123827360Y-113301252D01*
X123876252Y-113252360D01*
X123909818Y-113229932D01*
X123928760Y-113214386D01*
X123944305Y-113195445D01*
X123955856Y-113173834D01*
X123962969Y-113150385D01*
X123965371Y-113125999D01*
X123962969Y-113101613D01*
X123955856Y-113078164D01*
X123944305Y-113056553D01*
X123928759Y-113037611D01*
X123909818Y-113022066D01*
X123888207Y-113010515D01*
X123864758Y-113003402D01*
X123840372Y-113001000D01*
X123771861Y-113001000D01*
X123520513Y-112951004D01*
X123283747Y-112852932D01*
X123283746Y-112852932D01*
X123283745Y-112852931D01*
X123070661Y-112710553D01*
X122889447Y-112529339D01*
X122747069Y-112316255D01*
X122739596Y-112298213D01*
X122648996Y-112079487D01*
X122599000Y-111828139D01*
X122599000Y-111571861D01*
X122648996Y-111320513D01*
X122747068Y-111083747D01*
X122758674Y-111066378D01*
X122889447Y-110870661D01*
X123070661Y-110689447D01*
X123283745Y-110547069D01*
X123283747Y-110547068D01*
X123520513Y-110448996D01*
X123771861Y-110399000D01*
X124028139Y-110399000D01*
X124279487Y-110448996D01*
X124279487Y-110448996D01*
G37*
G36*
X120104903Y-119622075D02*
G01*
X120302080Y-119703748D01*
X120332571Y-119716378D01*
X120537466Y-119853285D01*
X120711715Y-120027534D01*
X120848622Y-120232429D01*
X120942925Y-120460097D01*
X120991000Y-120701787D01*
X120991000Y-120948213D01*
X120942925Y-121189903D01*
X120848622Y-121417571D01*
X120711715Y-121622466D01*
X120537466Y-121796715D01*
X120332571Y-121933622D01*
X120332570Y-121933623D01*
X120332569Y-121933623D01*
X120104903Y-122027925D01*
X119863214Y-122076000D01*
X119616786Y-122076000D01*
X119375097Y-122027925D01*
X119147431Y-121933623D01*
X119147430Y-121933623D01*
X119147429Y-121933622D01*
X118942534Y-121796715D01*
X118768285Y-121622466D01*
X118631378Y-121417571D01*
X118537075Y-121189903D01*
X118489000Y-120948213D01*
X118489000Y-120701787D01*
X118537075Y-120460097D01*
X118631378Y-120232429D01*
X118768285Y-120027534D01*
X118942534Y-119853285D01*
X119147429Y-119716378D01*
X119177921Y-119703748D01*
X119375097Y-119622075D01*
X119616786Y-119574000D01*
X119863214Y-119574000D01*
X120104903Y-119622075D01*
X120104903Y-119622075D01*
G37*
G36*
X187806564Y-117839389D02*
G01*
X187997833Y-117918615D01*
X187997835Y-117918616D01*
X188169973Y-118033635D01*
X188316365Y-118180027D01*
X188409843Y-118319926D01*
X188431385Y-118352167D01*
X188510611Y-118543436D01*
X188551000Y-118746484D01*
X188551000Y-118953516D01*
X188510611Y-119156564D01*
X188471390Y-119251251D01*
X188431384Y-119347835D01*
X188316365Y-119519973D01*
X188169973Y-119666365D01*
X187997835Y-119781384D01*
X187997834Y-119781385D01*
X187997833Y-119781385D01*
X187806564Y-119860611D01*
X187603516Y-119901000D01*
X187396484Y-119901000D01*
X187193436Y-119860611D01*
X187002167Y-119781385D01*
X187002166Y-119781385D01*
X187002165Y-119781384D01*
X186830027Y-119666365D01*
X186683635Y-119519973D01*
X186568616Y-119347835D01*
X186528610Y-119251251D01*
X186489389Y-119156564D01*
X186449000Y-118953516D01*
X186449000Y-118746484D01*
X186489389Y-118543436D01*
X186568615Y-118352167D01*
X186590158Y-118319926D01*
X186683635Y-118180027D01*
X186830027Y-118033635D01*
X187002165Y-117918616D01*
X187002167Y-117918615D01*
X187193436Y-117839389D01*
X187396484Y-117799000D01*
X187603516Y-117799000D01*
X187806564Y-117839389D01*
X187806564Y-117839389D01*
G37*
G36*
X122877383Y-113187489D02*
G01*
X122877386Y-113187490D01*
X122877385Y-113187490D01*
X122941258Y-113213946D01*
X122941259Y-113213947D01*
X122941261Y-113213948D01*
X122942040Y-113214468D01*
X122998748Y-113252360D01*
X123047640Y-113301252D01*
X123086054Y-113358742D01*
X123107624Y-113410818D01*
X123112511Y-113422617D01*
X123126000Y-113490430D01*
X123126000Y-113559570D01*
X123112511Y-113627383D01*
X123112510Y-113627385D01*
X123086054Y-113691258D01*
X123047640Y-113748748D01*
X122998748Y-113797640D01*
X122941258Y-113836054D01*
X122938935Y-113837016D01*
X122917324Y-113848567D01*
X122898382Y-113864112D01*
X122882837Y-113883053D01*
X122871285Y-113904664D01*
X122864172Y-113928113D01*
X122861770Y-113952499D01*
X122864172Y-113976885D01*
X122871285Y-114000334D01*
X122882836Y-114021945D01*
X122898381Y-114040887D01*
X122917322Y-114056432D01*
X122938935Y-114067984D01*
X122941258Y-114068946D01*
X122998748Y-114107360D01*
X123047640Y-114156252D01*
X123086054Y-114213742D01*
X123107624Y-114265818D01*
X123112511Y-114277617D01*
X123126000Y-114345430D01*
X123126000Y-114414570D01*
X123112511Y-114482383D01*
X123112510Y-114482385D01*
X123086054Y-114546258D01*
X123086052Y-114546261D01*
X123047639Y-114603749D01*
X122998749Y-114652639D01*
X122941261Y-114691052D01*
X122941259Y-114691053D01*
X122937920Y-114693284D01*
X122923359Y-114701068D01*
X122904417Y-114716613D01*
X122888872Y-114735555D01*
X122877321Y-114757166D01*
X122870208Y-114780615D01*
X122867806Y-114805001D01*
X122870208Y-114829387D01*
X122877321Y-114852836D01*
X122888873Y-114874446D01*
X122904418Y-114893388D01*
X122923360Y-114908933D01*
X122937921Y-114916717D01*
X122941258Y-114918947D01*
X122941261Y-114918948D01*
X122980263Y-114945009D01*
X122998748Y-114957360D01*
X123047640Y-115006252D01*
X123086054Y-115063742D01*
X123107624Y-115115818D01*
X123112511Y-115127617D01*
X123126000Y-115195430D01*
X123126000Y-115264570D01*
X123112511Y-115332383D01*
X123112510Y-115332385D01*
X123086054Y-115396258D01*
X123086052Y-115396261D01*
X123047639Y-115453749D01*
X122998749Y-115502639D01*
X122941261Y-115541052D01*
X122941259Y-115541053D01*
X122937920Y-115543284D01*
X122923359Y-115551068D01*
X122904417Y-115566613D01*
X122888872Y-115585555D01*
X122877321Y-115607166D01*
X122870208Y-115630615D01*
X122867806Y-115655001D01*
X122870208Y-115679387D01*
X122877321Y-115702836D01*
X122888873Y-115724446D01*
X122904418Y-115743388D01*
X122923360Y-115758933D01*
X122937921Y-115766717D01*
X122941258Y-115768947D01*
X122941261Y-115768948D01*
X122980263Y-115795009D01*
X122998748Y-115807360D01*
X123047640Y-115856252D01*
X123086054Y-115913742D01*
X123102527Y-115953514D01*
X123112511Y-115977617D01*
X123126000Y-116045430D01*
X123126000Y-116114570D01*
X123112511Y-116182383D01*
X123112510Y-116182385D01*
X123086054Y-116246258D01*
X123086052Y-116246261D01*
X123047639Y-116303749D01*
X122998749Y-116352639D01*
X122941261Y-116391052D01*
X122941259Y-116391053D01*
X122937920Y-116393284D01*
X122923359Y-116401068D01*
X122904417Y-116416613D01*
X122888872Y-116435555D01*
X122877321Y-116457166D01*
X122870208Y-116480615D01*
X122867806Y-116505001D01*
X122870208Y-116529387D01*
X122877321Y-116552836D01*
X122888873Y-116574446D01*
X122904418Y-116593388D01*
X122923360Y-116608933D01*
X122937921Y-116616717D01*
X122941258Y-116618947D01*
X122941261Y-116618948D01*
X122980263Y-116645009D01*
X122998748Y-116657360D01*
X123047640Y-116706252D01*
X123086054Y-116763742D01*
X123107624Y-116815818D01*
X123112511Y-116827617D01*
X123126000Y-116895430D01*
X123126000Y-116964570D01*
X123112511Y-117032383D01*
X123112510Y-117032385D01*
X123086054Y-117096258D01*
X123086052Y-117096261D01*
X123047639Y-117153749D01*
X122998749Y-117202639D01*
X122941261Y-117241052D01*
X122941259Y-117241053D01*
X122937920Y-117243284D01*
X122923359Y-117251068D01*
X122904417Y-117266613D01*
X122888872Y-117285555D01*
X122877321Y-117307166D01*
X122870208Y-117330615D01*
X122867806Y-117355001D01*
X122870208Y-117379387D01*
X122877321Y-117402836D01*
X122888873Y-117424446D01*
X122904418Y-117443388D01*
X122923360Y-117458933D01*
X122937921Y-117466717D01*
X122941258Y-117468947D01*
X122941261Y-117468948D01*
X122980263Y-117495009D01*
X122998748Y-117507360D01*
X123047640Y-117556252D01*
X123086054Y-117613742D01*
X123087918Y-117618243D01*
X123112511Y-117677617D01*
X123126000Y-117745430D01*
X123126000Y-117814570D01*
X123112511Y-117882383D01*
X123112510Y-117882385D01*
X123086054Y-117946258D01*
X123086052Y-117946261D01*
X123047639Y-118003749D01*
X122998749Y-118052639D01*
X122941261Y-118091052D01*
X122941259Y-118091053D01*
X122937920Y-118093284D01*
X122923359Y-118101068D01*
X122904417Y-118116613D01*
X122888872Y-118135555D01*
X122877321Y-118157166D01*
X122870208Y-118180615D01*
X122867806Y-118205001D01*
X122870208Y-118229387D01*
X122877321Y-118252836D01*
X122888873Y-118274446D01*
X122904418Y-118293388D01*
X122923360Y-118308933D01*
X122937921Y-118316717D01*
X122941258Y-118318947D01*
X122941261Y-118318948D01*
X122980263Y-118345009D01*
X122998748Y-118357360D01*
X123047640Y-118406252D01*
X123086054Y-118463742D01*
X123092819Y-118480075D01*
X123112511Y-118527617D01*
X123126000Y-118595430D01*
X123126000Y-118664570D01*
X123112511Y-118732383D01*
X123112510Y-118732385D01*
X123086054Y-118796258D01*
X123047640Y-118853748D01*
X122998748Y-118902640D01*
X122972192Y-118920384D01*
X122941261Y-118941052D01*
X122941259Y-118941053D01*
X122937920Y-118943284D01*
X122923359Y-118951068D01*
X122904417Y-118966613D01*
X122888872Y-118985555D01*
X122877321Y-119007166D01*
X122870208Y-119030615D01*
X122867806Y-119055001D01*
X122870208Y-119079387D01*
X122877321Y-119102836D01*
X122888873Y-119124446D01*
X122904418Y-119143388D01*
X122923360Y-119158933D01*
X122937921Y-119166717D01*
X122941258Y-119168947D01*
X122941261Y-119168948D01*
X122960432Y-119181758D01*
X122998748Y-119207360D01*
X123047640Y-119256252D01*
X123086054Y-119313742D01*
X123100174Y-119347833D01*
X123112511Y-119377617D01*
X123126000Y-119445430D01*
X123126000Y-119514570D01*
X123112511Y-119582383D01*
X123112510Y-119582385D01*
X123086054Y-119646258D01*
X123047640Y-119703748D01*
X122998748Y-119752640D01*
X122941258Y-119791054D01*
X122908662Y-119804555D01*
X122877383Y-119817511D01*
X122809570Y-119831000D01*
X122740430Y-119831000D01*
X122672617Y-119817511D01*
X122641338Y-119804555D01*
X122608742Y-119791054D01*
X122551252Y-119752640D01*
X122502360Y-119703748D01*
X122463946Y-119646258D01*
X122437490Y-119582385D01*
X122437489Y-119582383D01*
X122424000Y-119514570D01*
X122424000Y-119445430D01*
X122437489Y-119377617D01*
X122449826Y-119347833D01*
X122463946Y-119313742D01*
X122502360Y-119256252D01*
X122551252Y-119207360D01*
X122589568Y-119181758D01*
X122608739Y-119168948D01*
X122608741Y-119168947D01*
X122612080Y-119166716D01*
X122626641Y-119158932D01*
X122645583Y-119143387D01*
X122661128Y-119124445D01*
X122672679Y-119102834D01*
X122679792Y-119079385D01*
X122682194Y-119054999D01*
X122679792Y-119030613D01*
X122672679Y-119007164D01*
X122661127Y-118985554D01*
X122645582Y-118966612D01*
X122626640Y-118951067D01*
X122612079Y-118943283D01*
X122608742Y-118941053D01*
X122608739Y-118941052D01*
X122551251Y-118902639D01*
X122502361Y-118853749D01*
X122463948Y-118796261D01*
X122463946Y-118796258D01*
X122437490Y-118732385D01*
X122437489Y-118732383D01*
X122424000Y-118664570D01*
X122424000Y-118595430D01*
X122437489Y-118527617D01*
X122457181Y-118480075D01*
X122463946Y-118463742D01*
X122502360Y-118406252D01*
X122551252Y-118357360D01*
X122577808Y-118339616D01*
X122608739Y-118318948D01*
X122608741Y-118318947D01*
X122612080Y-118316716D01*
X122626641Y-118308932D01*
X122645583Y-118293387D01*
X122661128Y-118274445D01*
X122672679Y-118252834D01*
X122679792Y-118229385D01*
X122682194Y-118204999D01*
X122679792Y-118180613D01*
X122672679Y-118157164D01*
X122661127Y-118135554D01*
X122645582Y-118116612D01*
X122626640Y-118101067D01*
X122612079Y-118093283D01*
X122608742Y-118091053D01*
X122608739Y-118091052D01*
X122551251Y-118052639D01*
X122502361Y-118003749D01*
X122463948Y-117946261D01*
X122463946Y-117946258D01*
X122437490Y-117882385D01*
X122437489Y-117882383D01*
X122424000Y-117814570D01*
X122424000Y-117745430D01*
X122437489Y-117677617D01*
X122462082Y-117618243D01*
X122463946Y-117613742D01*
X122502360Y-117556252D01*
X122551252Y-117507360D01*
X122577808Y-117489616D01*
X122608739Y-117468948D01*
X122608741Y-117468947D01*
X122612080Y-117466716D01*
X122626641Y-117458932D01*
X122645583Y-117443387D01*
X122661128Y-117424445D01*
X122672679Y-117402834D01*
X122679792Y-117379385D01*
X122682194Y-117354999D01*
X122679792Y-117330613D01*
X122672679Y-117307164D01*
X122661127Y-117285554D01*
X122645582Y-117266612D01*
X122626640Y-117251067D01*
X122612079Y-117243283D01*
X122608742Y-117241053D01*
X122608739Y-117241052D01*
X122551251Y-117202639D01*
X122502361Y-117153749D01*
X122463948Y-117096261D01*
X122463946Y-117096258D01*
X122437490Y-117032385D01*
X122437489Y-117032383D01*
X122424000Y-116964570D01*
X122424000Y-116895430D01*
X122437489Y-116827617D01*
X122442376Y-116815818D01*
X122463946Y-116763742D01*
X122502360Y-116706252D01*
X122551252Y-116657360D01*
X122577808Y-116639616D01*
X122608739Y-116618948D01*
X122608741Y-116618947D01*
X122612080Y-116616716D01*
X122626641Y-116608932D01*
X122645583Y-116593387D01*
X122661128Y-116574445D01*
X122672679Y-116552834D01*
X122679792Y-116529385D01*
X122682194Y-116504999D01*
X122679792Y-116480613D01*
X122672679Y-116457164D01*
X122661127Y-116435554D01*
X122645582Y-116416612D01*
X122626640Y-116401067D01*
X122612079Y-116393283D01*
X122608742Y-116391053D01*
X122608739Y-116391052D01*
X122551251Y-116352639D01*
X122502361Y-116303749D01*
X122463948Y-116246261D01*
X122463946Y-116246258D01*
X122437490Y-116182385D01*
X122437489Y-116182383D01*
X122424000Y-116114570D01*
X122424000Y-116045430D01*
X122437489Y-115977617D01*
X122447473Y-115953514D01*
X122463946Y-115913742D01*
X122502360Y-115856252D01*
X122551252Y-115807360D01*
X122577808Y-115789616D01*
X122608739Y-115768948D01*
X122608741Y-115768947D01*
X122612080Y-115766716D01*
X122626641Y-115758932D01*
X122645583Y-115743387D01*
X122661128Y-115724445D01*
X122672679Y-115702834D01*
X122679792Y-115679385D01*
X122682194Y-115654999D01*
X122679792Y-115630613D01*
X122672679Y-115607164D01*
X122661127Y-115585554D01*
X122645582Y-115566612D01*
X122626640Y-115551067D01*
X122612079Y-115543283D01*
X122608742Y-115541053D01*
X122608739Y-115541052D01*
X122551251Y-115502639D01*
X122502361Y-115453749D01*
X122463948Y-115396261D01*
X122463946Y-115396258D01*
X122437490Y-115332385D01*
X122437489Y-115332383D01*
X122424000Y-115264570D01*
X122424000Y-115195430D01*
X122437489Y-115127617D01*
X122442376Y-115115818D01*
X122463946Y-115063742D01*
X122502360Y-115006252D01*
X122551252Y-114957360D01*
X122577808Y-114939616D01*
X122608739Y-114918948D01*
X122608741Y-114918947D01*
X122612080Y-114916716D01*
X122626641Y-114908932D01*
X122645583Y-114893387D01*
X122661128Y-114874445D01*
X122672679Y-114852834D01*
X122679792Y-114829385D01*
X122682194Y-114804999D01*
X122679792Y-114780613D01*
X122672679Y-114757164D01*
X122661127Y-114735554D01*
X122645582Y-114716612D01*
X122626640Y-114701067D01*
X122612079Y-114693283D01*
X122608742Y-114691053D01*
X122608739Y-114691052D01*
X122551251Y-114652639D01*
X122502361Y-114603749D01*
X122463948Y-114546261D01*
X122463946Y-114546258D01*
X122437490Y-114482385D01*
X122437489Y-114482383D01*
X122424000Y-114414570D01*
X122424000Y-114345430D01*
X122437489Y-114277617D01*
X122442376Y-114265818D01*
X122463946Y-114213742D01*
X122502360Y-114156252D01*
X122551252Y-114107360D01*
X122608742Y-114068946D01*
X122611065Y-114067984D01*
X122632676Y-114056433D01*
X122651618Y-114040888D01*
X122667163Y-114021947D01*
X122678715Y-114000336D01*
X122685828Y-113976887D01*
X122688230Y-113952501D01*
X122685828Y-113928115D01*
X122678715Y-113904666D01*
X122667164Y-113883055D01*
X122651619Y-113864113D01*
X122632678Y-113848568D01*
X122611065Y-113837016D01*
X122608742Y-113836054D01*
X122551252Y-113797640D01*
X122502360Y-113748748D01*
X122463946Y-113691258D01*
X122437490Y-113627385D01*
X122437489Y-113627383D01*
X122424000Y-113559570D01*
X122424000Y-113490430D01*
X122437489Y-113422617D01*
X122442376Y-113410818D01*
X122463946Y-113358742D01*
X122502360Y-113301252D01*
X122551252Y-113252360D01*
X122607960Y-113214468D01*
X122608739Y-113213948D01*
X122608741Y-113213947D01*
X122608742Y-113213946D01*
X122672615Y-113187490D01*
X122672614Y-113187490D01*
X122672617Y-113187489D01*
X122740430Y-113174000D01*
X122809570Y-113174000D01*
X122877383Y-113187489D01*
X122877383Y-113187489D01*
G37*
G36*
X170777142Y-117618242D02*
G01*
X170925101Y-117679529D01*
X171058255Y-117768499D01*
X171171501Y-117881745D01*
X171260471Y-118014899D01*
X171321758Y-118162858D01*
X171353000Y-118319925D01*
X171353000Y-118480075D01*
X171321758Y-118637142D01*
X171260471Y-118785101D01*
X171171501Y-118918255D01*
X171058255Y-119031501D01*
X170925101Y-119120471D01*
X170777142Y-119181758D01*
X170620075Y-119213000D01*
X170459925Y-119213000D01*
X170302858Y-119181758D01*
X170154899Y-119120471D01*
X170021745Y-119031501D01*
X169908499Y-118918255D01*
X169819529Y-118785101D01*
X169758242Y-118637142D01*
X169727000Y-118480075D01*
X169727000Y-118319925D01*
X169758242Y-118162858D01*
X169819529Y-118014899D01*
X169908499Y-117881745D01*
X170021745Y-117768499D01*
X170154899Y-117679529D01*
X170302858Y-117618242D01*
X170459925Y-117587000D01*
X170620075Y-117587000D01*
X170777142Y-117618242D01*
X170777142Y-117618242D01*
G37*
G36*
X168237142Y-117618242D02*
G01*
X168385101Y-117679529D01*
X168518255Y-117768499D01*
X168631501Y-117881745D01*
X168720471Y-118014899D01*
X168781758Y-118162858D01*
X168813000Y-118319925D01*
X168813000Y-118480075D01*
X168781758Y-118637142D01*
X168720471Y-118785101D01*
X168631501Y-118918255D01*
X168518255Y-119031501D01*
X168385101Y-119120471D01*
X168237142Y-119181758D01*
X168080075Y-119213000D01*
X167919925Y-119213000D01*
X167762858Y-119181758D01*
X167614899Y-119120471D01*
X167481745Y-119031501D01*
X167368499Y-118918255D01*
X167279529Y-118785101D01*
X167218242Y-118637142D01*
X167187000Y-118480075D01*
X167187000Y-118319925D01*
X167218242Y-118162858D01*
X167279529Y-118014899D01*
X167368499Y-117881745D01*
X167481745Y-117768499D01*
X167614899Y-117679529D01*
X167762858Y-117618242D01*
X167919925Y-117587000D01*
X168080075Y-117587000D01*
X168237142Y-117618242D01*
X168237142Y-117618242D01*
G37*
G36*
X165817395Y-115585546D02*
G01*
X165990466Y-115657234D01*
X165990467Y-115657235D01*
X166146227Y-115761310D01*
X166278690Y-115893773D01*
X166278691Y-115893775D01*
X166382766Y-116049534D01*
X166454454Y-116222605D01*
X166491000Y-116406333D01*
X166491000Y-116593667D01*
X166454454Y-116777395D01*
X166382766Y-116950466D01*
X166382765Y-116950467D01*
X166278690Y-117106227D01*
X166146227Y-117238690D01*
X166104437Y-117266613D01*
X165990466Y-117342766D01*
X165817395Y-117414454D01*
X165633667Y-117451000D01*
X165446333Y-117451000D01*
X165262605Y-117414454D01*
X165089534Y-117342766D01*
X164975563Y-117266613D01*
X164933773Y-117238690D01*
X164801310Y-117106227D01*
X164697235Y-116950467D01*
X164697234Y-116950466D01*
X164625546Y-116777395D01*
X164589000Y-116593667D01*
X164589000Y-116406333D01*
X164625546Y-116222605D01*
X164697234Y-116049534D01*
X164801309Y-115893775D01*
X164801310Y-115893773D01*
X164933773Y-115761310D01*
X165089533Y-115657235D01*
X165089534Y-115657234D01*
X165262605Y-115585546D01*
X165446333Y-115549000D01*
X165633667Y-115549000D01*
X165817395Y-115585546D01*
X165817395Y-115585546D01*
G37*
G36*
X163951000Y-117451000D02*
G01*
X162049000Y-117451000D01*
X162049000Y-115549000D01*
X163951000Y-115549000D01*
X163951000Y-117451000D01*
X163951000Y-117451000D01*
G37*
G36*
X187806564Y-114839389D02*
G01*
X187997833Y-114918615D01*
X187997835Y-114918616D01*
X188169973Y-115033635D01*
X188316365Y-115180027D01*
X188414827Y-115327385D01*
X188431385Y-115352167D01*
X188510611Y-115543436D01*
X188551000Y-115746484D01*
X188551000Y-115953516D01*
X188510611Y-116156564D01*
X188449645Y-116303749D01*
X188431384Y-116347835D01*
X188316365Y-116519973D01*
X188169973Y-116666365D01*
X187997835Y-116781384D01*
X187997834Y-116781385D01*
X187997833Y-116781385D01*
X187806564Y-116860611D01*
X187603516Y-116901000D01*
X187396484Y-116901000D01*
X187193436Y-116860611D01*
X187002167Y-116781385D01*
X187002166Y-116781385D01*
X187002165Y-116781384D01*
X186830027Y-116666365D01*
X186683635Y-116519973D01*
X186568616Y-116347835D01*
X186550355Y-116303749D01*
X186489389Y-116156564D01*
X186449000Y-115953516D01*
X186449000Y-115746484D01*
X186489389Y-115543436D01*
X186568615Y-115352167D01*
X186585174Y-115327385D01*
X186683635Y-115180027D01*
X186830027Y-115033635D01*
X187002165Y-114918616D01*
X187002167Y-114918615D01*
X187193436Y-114839389D01*
X187396484Y-114799000D01*
X187603516Y-114799000D01*
X187806564Y-114839389D01*
X187806564Y-114839389D01*
G37*
G36*
X170777142Y-113818242D02*
G01*
X170925101Y-113879529D01*
X171058255Y-113968499D01*
X171171501Y-114081745D01*
X171260471Y-114214899D01*
X171321758Y-114362858D01*
X171353000Y-114519925D01*
X171353000Y-114680075D01*
X171321758Y-114837142D01*
X171260471Y-114985101D01*
X171171501Y-115118255D01*
X171058255Y-115231501D01*
X170925101Y-115320471D01*
X170777142Y-115381758D01*
X170620075Y-115413000D01*
X170459925Y-115413000D01*
X170302858Y-115381758D01*
X170154899Y-115320471D01*
X170021745Y-115231501D01*
X169908499Y-115118255D01*
X169819529Y-114985101D01*
X169758242Y-114837142D01*
X169727000Y-114680075D01*
X169727000Y-114519925D01*
X169758242Y-114362858D01*
X169819529Y-114214899D01*
X169908499Y-114081745D01*
X170021745Y-113968499D01*
X170154899Y-113879529D01*
X170302858Y-113818242D01*
X170459925Y-113787000D01*
X170620075Y-113787000D01*
X170777142Y-113818242D01*
X170777142Y-113818242D01*
G37*
G36*
X168237142Y-113818242D02*
G01*
X168385101Y-113879529D01*
X168518255Y-113968499D01*
X168631501Y-114081745D01*
X168720471Y-114214899D01*
X168781758Y-114362858D01*
X168813000Y-114519925D01*
X168813000Y-114680075D01*
X168781758Y-114837142D01*
X168720471Y-114985101D01*
X168631501Y-115118255D01*
X168518255Y-115231501D01*
X168385101Y-115320471D01*
X168237142Y-115381758D01*
X168080075Y-115413000D01*
X167919925Y-115413000D01*
X167762858Y-115381758D01*
X167614899Y-115320471D01*
X167481745Y-115231501D01*
X167368499Y-115118255D01*
X167279529Y-114985101D01*
X167218242Y-114837142D01*
X167187000Y-114680075D01*
X167187000Y-114519925D01*
X167218242Y-114362858D01*
X167279529Y-114214899D01*
X167368499Y-114081745D01*
X167481745Y-113968499D01*
X167614899Y-113879529D01*
X167762858Y-113818242D01*
X167919925Y-113787000D01*
X168080075Y-113787000D01*
X168237142Y-113818242D01*
X168237142Y-113818242D01*
G37*
G36*
X192962865Y-108825855D02*
G01*
X193563608Y-109074691D01*
X193563610Y-109074692D01*
X194104265Y-109435946D01*
X194564054Y-109895735D01*
X194925308Y-110436390D01*
X194925309Y-110436392D01*
X195174145Y-111037135D01*
X195301000Y-111674879D01*
X195301000Y-112325121D01*
X195174145Y-112962865D01*
X194925309Y-113563608D01*
X194925308Y-113563610D01*
X194564054Y-114104265D01*
X194104265Y-114564054D01*
X193563610Y-114925308D01*
X193563609Y-114925309D01*
X193563608Y-114925309D01*
X192962865Y-115174145D01*
X192325121Y-115301000D01*
X191674879Y-115301000D01*
X191037135Y-115174145D01*
X190436392Y-114925309D01*
X190436391Y-114925309D01*
X190436390Y-114925308D01*
X189895735Y-114564054D01*
X189435946Y-114104265D01*
X189074692Y-113563610D01*
X189074691Y-113563608D01*
X188825855Y-112962865D01*
X188699000Y-112325121D01*
X188699000Y-111674879D01*
X188825855Y-111037135D01*
X189074691Y-110436392D01*
X189074692Y-110436390D01*
X189435946Y-109895735D01*
X189895735Y-109435946D01*
X190436390Y-109074692D01*
X190436392Y-109074691D01*
X191037135Y-108825855D01*
X191674879Y-108699000D01*
X192325121Y-108699000D01*
X192962865Y-108825855D01*
X192962865Y-108825855D01*
G37*
G36*
X120104903Y-110972075D02*
G01*
X120332571Y-111066378D01*
X120537466Y-111203285D01*
X120711715Y-111377534D01*
X120848622Y-111582429D01*
X120942925Y-111810097D01*
X120991000Y-112051787D01*
X120991000Y-112298213D01*
X120942925Y-112539903D01*
X120848622Y-112767571D01*
X120711715Y-112972466D01*
X120537466Y-113146715D01*
X120332571Y-113283622D01*
X120332570Y-113283623D01*
X120332569Y-113283623D01*
X120104903Y-113377925D01*
X119863214Y-113426000D01*
X119616786Y-113426000D01*
X119375097Y-113377925D01*
X119147431Y-113283623D01*
X119147430Y-113283623D01*
X119147429Y-113283622D01*
X118942534Y-113146715D01*
X118768285Y-112972466D01*
X118631378Y-112767571D01*
X118537075Y-112539903D01*
X118489000Y-112298213D01*
X118489000Y-112051787D01*
X118537075Y-111810097D01*
X118631378Y-111582429D01*
X118768285Y-111377534D01*
X118942534Y-111203285D01*
X119147429Y-111066378D01*
X119375097Y-110972075D01*
X119616786Y-110924000D01*
X119863214Y-110924000D01*
X120104903Y-110972075D01*
X120104903Y-110972075D01*
G37*
G36*
X178302585Y-105978802D02*
G01*
X178452410Y-106008604D01*
X178734674Y-106125521D01*
X178988705Y-106295259D01*
X179204741Y-106511295D01*
X179374479Y-106765326D01*
X179491396Y-107047590D01*
X179551000Y-107347240D01*
X179551000Y-107652760D01*
X179491396Y-107952410D01*
X179374479Y-108234674D01*
X179204741Y-108488705D01*
X178988705Y-108704741D01*
X178734674Y-108874479D01*
X178452410Y-108991396D01*
X178302585Y-109021198D01*
X178152761Y-109051000D01*
X177847239Y-109051000D01*
X177697415Y-109021198D01*
X177547590Y-108991396D01*
X177265326Y-108874479D01*
X177011295Y-108704741D01*
X176795259Y-108488705D01*
X176625521Y-108234674D01*
X176508604Y-107952410D01*
X176449000Y-107652760D01*
X176449000Y-107347240D01*
X176508604Y-107047590D01*
X176625521Y-106765326D01*
X176795259Y-106511295D01*
X177011295Y-106295259D01*
X177265326Y-106125521D01*
X177547590Y-106008604D01*
X177697415Y-105978802D01*
X177847239Y-105949000D01*
X178152761Y-105949000D01*
X178302585Y-105978802D01*
X178302585Y-105978802D01*
G37*
G36*
X195302585Y-105478802D02*
G01*
X195452410Y-105508604D01*
X195734674Y-105625521D01*
X195988705Y-105795259D01*
X196204741Y-106011295D01*
X196374479Y-106265326D01*
X196491396Y-106547590D01*
X196551000Y-106847240D01*
X196551000Y-107152760D01*
X196491396Y-107452410D01*
X196374479Y-107734674D01*
X196204741Y-107988705D01*
X195988705Y-108204741D01*
X195734674Y-108374479D01*
X195452410Y-108491396D01*
X195302585Y-108521198D01*
X195152761Y-108551000D01*
X194847239Y-108551000D01*
X194697415Y-108521198D01*
X194547590Y-108491396D01*
X194265326Y-108374479D01*
X194011295Y-108204741D01*
X193795259Y-107988705D01*
X193625521Y-107734674D01*
X193508604Y-107452410D01*
X193449000Y-107152760D01*
X193449000Y-106847240D01*
X193508604Y-106547590D01*
X193625521Y-106265326D01*
X193795259Y-106011295D01*
X194011295Y-105795259D01*
X194265326Y-105625521D01*
X194547590Y-105508604D01*
X194697415Y-105478802D01*
X194847239Y-105449000D01*
X195152761Y-105449000D01*
X195302585Y-105478802D01*
X195302585Y-105478802D01*
G37*
G36*
X195302585Y-100478802D02*
G01*
X195452410Y-100508604D01*
X195734674Y-100625521D01*
X195988705Y-100795259D01*
X196204741Y-101011295D01*
X196374479Y-101265326D01*
X196491396Y-101547590D01*
X196551000Y-101847240D01*
X196551000Y-102152760D01*
X196491396Y-102452410D01*
X196374479Y-102734674D01*
X196204741Y-102988705D01*
X195988705Y-103204741D01*
X195734674Y-103374479D01*
X195452410Y-103491396D01*
X195302585Y-103521198D01*
X195152761Y-103551000D01*
X194847239Y-103551000D01*
X194697415Y-103521198D01*
X194547590Y-103491396D01*
X194265326Y-103374479D01*
X194011295Y-103204741D01*
X193795259Y-102988705D01*
X193625521Y-102734674D01*
X193508604Y-102452410D01*
X193449000Y-102152760D01*
X193449000Y-101847240D01*
X193508604Y-101547590D01*
X193625521Y-101265326D01*
X193795259Y-101011295D01*
X194011295Y-100795259D01*
X194265326Y-100625521D01*
X194547590Y-100508604D01*
X194697415Y-100478802D01*
X194847239Y-100449000D01*
X195152761Y-100449000D01*
X195302585Y-100478802D01*
X195302585Y-100478802D01*
G37*
G36*
X178302585Y-99978802D02*
G01*
X178452410Y-100008604D01*
X178734674Y-100125521D01*
X178988705Y-100295259D01*
X179204741Y-100511295D01*
X179374479Y-100765326D01*
X179491396Y-101047590D01*
X179551000Y-101347240D01*
X179551000Y-101652760D01*
X179491396Y-101952410D01*
X179374479Y-102234674D01*
X179204741Y-102488705D01*
X178988705Y-102704741D01*
X178734674Y-102874479D01*
X178452410Y-102991396D01*
X178302585Y-103021198D01*
X178152761Y-103051000D01*
X177847239Y-103051000D01*
X177697415Y-103021198D01*
X177547590Y-102991396D01*
X177265326Y-102874479D01*
X177011295Y-102704741D01*
X176795259Y-102488705D01*
X176625521Y-102234674D01*
X176508604Y-101952410D01*
X176449000Y-101652760D01*
X176449000Y-101347240D01*
X176508604Y-101047590D01*
X176625521Y-100765326D01*
X176795259Y-100511295D01*
X177011295Y-100295259D01*
X177265326Y-100125521D01*
X177547590Y-100008604D01*
X177697415Y-99978802D01*
X177847239Y-99949000D01*
X178152761Y-99949000D01*
X178302585Y-99978802D01*
X178302585Y-99978802D01*
G37*
G36*
X125417395Y-96585546D02*
G01*
X125590466Y-96657234D01*
X125590467Y-96657235D01*
X125746227Y-96761310D01*
X125878690Y-96893773D01*
X125878691Y-96893775D01*
X125982766Y-97049534D01*
X126054454Y-97222605D01*
X126091000Y-97406333D01*
X126091000Y-97593667D01*
X126054454Y-97777395D01*
X125982766Y-97950466D01*
X125982765Y-97950467D01*
X125878690Y-98106227D01*
X125746227Y-98238690D01*
X125667818Y-98291081D01*
X125590466Y-98342766D01*
X125417395Y-98414454D01*
X125233667Y-98451000D01*
X125046333Y-98451000D01*
X124862605Y-98414454D01*
X124689534Y-98342766D01*
X124612182Y-98291081D01*
X124533773Y-98238690D01*
X124401310Y-98106227D01*
X124297235Y-97950467D01*
X124297234Y-97950466D01*
X124225546Y-97777395D01*
X124189000Y-97593667D01*
X124189000Y-97406333D01*
X124225546Y-97222605D01*
X124297234Y-97049534D01*
X124401309Y-96893775D01*
X124401310Y-96893773D01*
X124533773Y-96761310D01*
X124689533Y-96657235D01*
X124689534Y-96657234D01*
X124862605Y-96585546D01*
X125046333Y-96549000D01*
X125233667Y-96549000D01*
X125417395Y-96585546D01*
X125417395Y-96585546D01*
G37*
G36*
X123551000Y-98451000D02*
G01*
X121649000Y-98451000D01*
X121649000Y-96549000D01*
X123551000Y-96549000D01*
X123551000Y-98451000D01*
X123551000Y-98451000D01*
G37*
G36*
X187806564Y-93839389D02*
G01*
X187997833Y-93918615D01*
X187997835Y-93918616D01*
X188169973Y-94033635D01*
X188316365Y-94180027D01*
X188409843Y-94319926D01*
X188431385Y-94352167D01*
X188510611Y-94543436D01*
X188551000Y-94746484D01*
X188551000Y-94953516D01*
X188510611Y-95156564D01*
X188431385Y-95347833D01*
X188431384Y-95347835D01*
X188316365Y-95519973D01*
X188169973Y-95666365D01*
X187997835Y-95781384D01*
X187997834Y-95781385D01*
X187997833Y-95781385D01*
X187806564Y-95860611D01*
X187603516Y-95901000D01*
X187396484Y-95901000D01*
X187193436Y-95860611D01*
X187002167Y-95781385D01*
X187002166Y-95781385D01*
X187002165Y-95781384D01*
X186830027Y-95666365D01*
X186683635Y-95519973D01*
X186568616Y-95347835D01*
X186568615Y-95347833D01*
X186489389Y-95156564D01*
X186449000Y-94953516D01*
X186449000Y-94746484D01*
X186489389Y-94543436D01*
X186568615Y-94352167D01*
X186590158Y-94319926D01*
X186683635Y-94180027D01*
X186830027Y-94033635D01*
X187002165Y-93918616D01*
X187002167Y-93918615D01*
X187193436Y-93839389D01*
X187396484Y-93799000D01*
X187603516Y-93799000D01*
X187806564Y-93839389D01*
X187806564Y-93839389D01*
G37*
G36*
X170777142Y-93618242D02*
G01*
X170925101Y-93679529D01*
X171058255Y-93768499D01*
X171171501Y-93881745D01*
X171260471Y-94014899D01*
X171321758Y-94162858D01*
X171353000Y-94319925D01*
X171353000Y-94480075D01*
X171321758Y-94637142D01*
X171260471Y-94785101D01*
X171171501Y-94918255D01*
X171058255Y-95031501D01*
X170925101Y-95120471D01*
X170777142Y-95181758D01*
X170620075Y-95213000D01*
X170459925Y-95213000D01*
X170302858Y-95181758D01*
X170154899Y-95120471D01*
X170021745Y-95031501D01*
X169908499Y-94918255D01*
X169819529Y-94785101D01*
X169758242Y-94637142D01*
X169727000Y-94480075D01*
X169727000Y-94319925D01*
X169758242Y-94162858D01*
X169819529Y-94014899D01*
X169908499Y-93881745D01*
X170021745Y-93768499D01*
X170154899Y-93679529D01*
X170302858Y-93618242D01*
X170459925Y-93587000D01*
X170620075Y-93587000D01*
X170777142Y-93618242D01*
X170777142Y-93618242D01*
G37*
G36*
X168237142Y-93618242D02*
G01*
X168385101Y-93679529D01*
X168518255Y-93768499D01*
X168631501Y-93881745D01*
X168720471Y-94014899D01*
X168781758Y-94162858D01*
X168813000Y-94319925D01*
X168813000Y-94480075D01*
X168781758Y-94637142D01*
X168720471Y-94785101D01*
X168631501Y-94918255D01*
X168518255Y-95031501D01*
X168385101Y-95120471D01*
X168237142Y-95181758D01*
X168080075Y-95213000D01*
X167919925Y-95213000D01*
X167762858Y-95181758D01*
X167614899Y-95120471D01*
X167481745Y-95031501D01*
X167368499Y-94918255D01*
X167279529Y-94785101D01*
X167218242Y-94637142D01*
X167187000Y-94480075D01*
X167187000Y-94319925D01*
X167218242Y-94162858D01*
X167279529Y-94014899D01*
X167368499Y-93881745D01*
X167481745Y-93768499D01*
X167614899Y-93679529D01*
X167762858Y-93618242D01*
X167919925Y-93587000D01*
X168080075Y-93587000D01*
X168237142Y-93618242D01*
X168237142Y-93618242D01*
G37*
G36*
X163951000Y-93451000D02*
G01*
X162049000Y-93451000D01*
X162049000Y-91549000D01*
X163951000Y-91549000D01*
X163951000Y-93451000D01*
X163951000Y-93451000D01*
G37*
G36*
X165817395Y-91585546D02*
G01*
X165990466Y-91657234D01*
X165990467Y-91657235D01*
X166146227Y-91761310D01*
X166278690Y-91893773D01*
X166278691Y-91893775D01*
X166382766Y-92049534D01*
X166454454Y-92222605D01*
X166491000Y-92406333D01*
X166491000Y-92593667D01*
X166454454Y-92777395D01*
X166382766Y-92950466D01*
X166382765Y-92950467D01*
X166278690Y-93106227D01*
X166146227Y-93238690D01*
X166067818Y-93291081D01*
X165990466Y-93342766D01*
X165817395Y-93414454D01*
X165633667Y-93451000D01*
X165446333Y-93451000D01*
X165262605Y-93414454D01*
X165089534Y-93342766D01*
X165012182Y-93291081D01*
X164933773Y-93238690D01*
X164801310Y-93106227D01*
X164697235Y-92950467D01*
X164697234Y-92950466D01*
X164625546Y-92777395D01*
X164589000Y-92593667D01*
X164589000Y-92406333D01*
X164625546Y-92222605D01*
X164697234Y-92049534D01*
X164801309Y-91893775D01*
X164801310Y-91893773D01*
X164933773Y-91761310D01*
X165089533Y-91657235D01*
X165089534Y-91657234D01*
X165262605Y-91585546D01*
X165446333Y-91549000D01*
X165633667Y-91549000D01*
X165817395Y-91585546D01*
X165817395Y-91585546D01*
G37*
G36*
X187806564Y-90839389D02*
G01*
X187997833Y-90918615D01*
X187997835Y-90918616D01*
X188169973Y-91033635D01*
X188316365Y-91180027D01*
X188425104Y-91342766D01*
X188431385Y-91352167D01*
X188510611Y-91543436D01*
X188551000Y-91746484D01*
X188551000Y-91953516D01*
X188510611Y-92156564D01*
X188483256Y-92222604D01*
X188431384Y-92347835D01*
X188316365Y-92519973D01*
X188169973Y-92666365D01*
X187997835Y-92781384D01*
X187997834Y-92781385D01*
X187997833Y-92781385D01*
X187806564Y-92860611D01*
X187603516Y-92901000D01*
X187396484Y-92901000D01*
X187193436Y-92860611D01*
X187002167Y-92781385D01*
X187002166Y-92781385D01*
X187002165Y-92781384D01*
X186830027Y-92666365D01*
X186683635Y-92519973D01*
X186568616Y-92347835D01*
X186516744Y-92222604D01*
X186489389Y-92156564D01*
X186449000Y-91953516D01*
X186449000Y-91746484D01*
X186489389Y-91543436D01*
X186568615Y-91352167D01*
X186574897Y-91342766D01*
X186683635Y-91180027D01*
X186830027Y-91033635D01*
X187002165Y-90918616D01*
X187002167Y-90918615D01*
X187193436Y-90839389D01*
X187396484Y-90799000D01*
X187603516Y-90799000D01*
X187806564Y-90839389D01*
X187806564Y-90839389D01*
G37*
G36*
X125417395Y-89585546D02*
G01*
X125590466Y-89657234D01*
X125590467Y-89657235D01*
X125746227Y-89761310D01*
X125878690Y-89893773D01*
X125878691Y-89893775D01*
X125982766Y-90049534D01*
X126054454Y-90222605D01*
X126091000Y-90406333D01*
X126091000Y-90593667D01*
X126054454Y-90777395D01*
X125982766Y-90950466D01*
X125931081Y-91027818D01*
X125878690Y-91106227D01*
X125746227Y-91238690D01*
X125667818Y-91291081D01*
X125590466Y-91342766D01*
X125417395Y-91414454D01*
X125233667Y-91451000D01*
X125046333Y-91451000D01*
X124862605Y-91414454D01*
X124689534Y-91342766D01*
X124612182Y-91291081D01*
X124533773Y-91238690D01*
X124401310Y-91106227D01*
X124348919Y-91027818D01*
X124297234Y-90950466D01*
X124225546Y-90777395D01*
X124189000Y-90593667D01*
X124189000Y-90406333D01*
X124225546Y-90222605D01*
X124297234Y-90049534D01*
X124401309Y-89893775D01*
X124401310Y-89893773D01*
X124533773Y-89761310D01*
X124689533Y-89657235D01*
X124689534Y-89657234D01*
X124862605Y-89585546D01*
X125046333Y-89549000D01*
X125233667Y-89549000D01*
X125417395Y-89585546D01*
X125417395Y-89585546D01*
G37*
G36*
X123551000Y-91451000D02*
G01*
X121649000Y-91451000D01*
X121649000Y-89549000D01*
X123551000Y-89549000D01*
X123551000Y-91451000D01*
X123551000Y-91451000D01*
G37*
G36*
X168237142Y-89818242D02*
G01*
X168385101Y-89879529D01*
X168518255Y-89968499D01*
X168631501Y-90081745D01*
X168720471Y-90214899D01*
X168781758Y-90362858D01*
X168813000Y-90519925D01*
X168813000Y-90680075D01*
X168781758Y-90837142D01*
X168720471Y-90985101D01*
X168631501Y-91118255D01*
X168518255Y-91231501D01*
X168385101Y-91320471D01*
X168237142Y-91381758D01*
X168080075Y-91413000D01*
X167919925Y-91413000D01*
X167762858Y-91381758D01*
X167614899Y-91320471D01*
X167481745Y-91231501D01*
X167368499Y-91118255D01*
X167279529Y-90985101D01*
X167218242Y-90837142D01*
X167187000Y-90680075D01*
X167187000Y-90519925D01*
X167218242Y-90362858D01*
X167279529Y-90214899D01*
X167368499Y-90081745D01*
X167481745Y-89968499D01*
X167614899Y-89879529D01*
X167762858Y-89818242D01*
X167919925Y-89787000D01*
X168080075Y-89787000D01*
X168237142Y-89818242D01*
X168237142Y-89818242D01*
G37*
G36*
X170777142Y-89818242D02*
G01*
X170925101Y-89879529D01*
X171058255Y-89968499D01*
X171171501Y-90081745D01*
X171260471Y-90214899D01*
X171321758Y-90362858D01*
X171353000Y-90519925D01*
X171353000Y-90680075D01*
X171321758Y-90837142D01*
X171260471Y-90985101D01*
X171171501Y-91118255D01*
X171058255Y-91231501D01*
X170925101Y-91320471D01*
X170777142Y-91381758D01*
X170620075Y-91413000D01*
X170459925Y-91413000D01*
X170302858Y-91381758D01*
X170154899Y-91320471D01*
X170021745Y-91231501D01*
X169908499Y-91118255D01*
X169819529Y-90985101D01*
X169758242Y-90837142D01*
X169727000Y-90680075D01*
X169727000Y-90519925D01*
X169758242Y-90362858D01*
X169819529Y-90214899D01*
X169908499Y-90081745D01*
X170021745Y-89968499D01*
X170154899Y-89879529D01*
X170302858Y-89818242D01*
X170459925Y-89787000D01*
X170620075Y-89787000D01*
X170777142Y-89818242D01*
X170777142Y-89818242D01*
G37*
G36*
X192962865Y-84825855D02*
G01*
X193563608Y-85074691D01*
X193563610Y-85074692D01*
X194104265Y-85435946D01*
X194564054Y-85895735D01*
X194925308Y-86436390D01*
X194925309Y-86436392D01*
X195174145Y-87037135D01*
X195301000Y-87674879D01*
X195301000Y-88325121D01*
X195174145Y-88962865D01*
X194931360Y-89549000D01*
X194925308Y-89563610D01*
X194564054Y-90104265D01*
X194104265Y-90564054D01*
X193563610Y-90925308D01*
X193563609Y-90925309D01*
X193563608Y-90925309D01*
X192962865Y-91174145D01*
X192325121Y-91301000D01*
X191674879Y-91301000D01*
X191037135Y-91174145D01*
X190436392Y-90925309D01*
X190436391Y-90925309D01*
X190436390Y-90925308D01*
X189895735Y-90564054D01*
X189435946Y-90104265D01*
X189074692Y-89563610D01*
X189068640Y-89549000D01*
X188825855Y-88962865D01*
X188699000Y-88325121D01*
X188699000Y-87674879D01*
X188825855Y-87037135D01*
X189074691Y-86436392D01*
X189074692Y-86436390D01*
X189435946Y-85895735D01*
X189895735Y-85435946D01*
X190436390Y-85074692D01*
X190436392Y-85074691D01*
X191037135Y-84825855D01*
X191674879Y-84699000D01*
X192325121Y-84699000D01*
X192962865Y-84825855D01*
X192962865Y-84825855D01*
G37*
G36*
X178302585Y-81978802D02*
G01*
X178452410Y-82008604D01*
X178734674Y-82125521D01*
X178988705Y-82295259D01*
X179204741Y-82511295D01*
X179374479Y-82765326D01*
X179491396Y-83047590D01*
X179551000Y-83347240D01*
X179551000Y-83652760D01*
X179491396Y-83952410D01*
X179374479Y-84234674D01*
X179204741Y-84488705D01*
X178988705Y-84704741D01*
X178734674Y-84874479D01*
X178452410Y-84991396D01*
X178302585Y-85021198D01*
X178152761Y-85051000D01*
X177847239Y-85051000D01*
X177697415Y-85021198D01*
X177547590Y-84991396D01*
X177265326Y-84874479D01*
X177011295Y-84704741D01*
X176795259Y-84488705D01*
X176625521Y-84234674D01*
X176508604Y-83952410D01*
X176449000Y-83652760D01*
X176449000Y-83347240D01*
X176508604Y-83047590D01*
X176625521Y-82765326D01*
X176795259Y-82511295D01*
X177011295Y-82295259D01*
X177265326Y-82125521D01*
X177547590Y-82008604D01*
X177697415Y-81978802D01*
X177847239Y-81949000D01*
X178152761Y-81949000D01*
X178302585Y-81978802D01*
X178302585Y-81978802D01*
G37*
G36*
X195302585Y-81478802D02*
G01*
X195452410Y-81508604D01*
X195734674Y-81625521D01*
X195988705Y-81795259D01*
X196204741Y-82011295D01*
X196374479Y-82265326D01*
X196491396Y-82547590D01*
X196551000Y-82847240D01*
X196551000Y-83152760D01*
X196491396Y-83452410D01*
X196374479Y-83734674D01*
X196204741Y-83988705D01*
X195988705Y-84204741D01*
X195734674Y-84374479D01*
X195452410Y-84491396D01*
X195302585Y-84521198D01*
X195152761Y-84551000D01*
X194847239Y-84551000D01*
X194697415Y-84521198D01*
X194547590Y-84491396D01*
X194265326Y-84374479D01*
X194011295Y-84204741D01*
X193795259Y-83988705D01*
X193625521Y-83734674D01*
X193508604Y-83452410D01*
X193449000Y-83152760D01*
X193449000Y-82847240D01*
X193508604Y-82547590D01*
X193625521Y-82265326D01*
X193795259Y-82011295D01*
X194011295Y-81795259D01*
X194265326Y-81625521D01*
X194547590Y-81508604D01*
X194697415Y-81478802D01*
X194847239Y-81449000D01*
X195152761Y-81449000D01*
X195302585Y-81478802D01*
X195302585Y-81478802D01*
G37*
G36*
X195302585Y-76478802D02*
G01*
X195452410Y-76508604D01*
X195734674Y-76625521D01*
X195988705Y-76795259D01*
X196204741Y-77011295D01*
X196374479Y-77265326D01*
X196491396Y-77547590D01*
X196551000Y-77847240D01*
X196551000Y-78152760D01*
X196491396Y-78452410D01*
X196374479Y-78734674D01*
X196204741Y-78988705D01*
X195988705Y-79204741D01*
X195734674Y-79374479D01*
X195452410Y-79491396D01*
X195302585Y-79521198D01*
X195152761Y-79551000D01*
X194847239Y-79551000D01*
X194697415Y-79521198D01*
X194547590Y-79491396D01*
X194265326Y-79374479D01*
X194011295Y-79204741D01*
X193795259Y-78988705D01*
X193625521Y-78734674D01*
X193508604Y-78452410D01*
X193449000Y-78152760D01*
X193449000Y-77847240D01*
X193508604Y-77547590D01*
X193625521Y-77265326D01*
X193795259Y-77011295D01*
X194011295Y-76795259D01*
X194265326Y-76625521D01*
X194547590Y-76508604D01*
X194697415Y-76478802D01*
X194847239Y-76449000D01*
X195152761Y-76449000D01*
X195302585Y-76478802D01*
X195302585Y-76478802D01*
G37*
G36*
X178302585Y-75978802D02*
G01*
X178452410Y-76008604D01*
X178734674Y-76125521D01*
X178988705Y-76295259D01*
X179204741Y-76511295D01*
X179374479Y-76765326D01*
X179491396Y-77047590D01*
X179551000Y-77347240D01*
X179551000Y-77652760D01*
X179491396Y-77952410D01*
X179374479Y-78234674D01*
X179204741Y-78488705D01*
X178988705Y-78704741D01*
X178734674Y-78874479D01*
X178452410Y-78991396D01*
X178302585Y-79021198D01*
X178152761Y-79051000D01*
X177847239Y-79051000D01*
X177697415Y-79021198D01*
X177547590Y-78991396D01*
X177265326Y-78874479D01*
X177011295Y-78704741D01*
X176795259Y-78488705D01*
X176625521Y-78234674D01*
X176508604Y-77952410D01*
X176449000Y-77652760D01*
X176449000Y-77347240D01*
X176508604Y-77047590D01*
X176625521Y-76765326D01*
X176795259Y-76511295D01*
X177011295Y-76295259D01*
X177265326Y-76125521D01*
X177547590Y-76008604D01*
X177697415Y-75978802D01*
X177847239Y-75949000D01*
X178152761Y-75949000D01*
X178302585Y-75978802D01*
X178302585Y-75978802D01*
G37*
G36*
X129879487Y-74648996D02*
G01*
X130116253Y-74747068D01*
X130116255Y-74747069D01*
X130329339Y-74889447D01*
X130510553Y-75070661D01*
X130637991Y-75261385D01*
X130652932Y-75283747D01*
X130751004Y-75520513D01*
X130801000Y-75771861D01*
X130801000Y-76028139D01*
X130751004Y-76279487D01*
X130654985Y-76511296D01*
X130652931Y-76516255D01*
X130510553Y-76729339D01*
X130329339Y-76910553D01*
X130116255Y-77052931D01*
X130116254Y-77052932D01*
X130116253Y-77052932D01*
X129879487Y-77151004D01*
X129628139Y-77201000D01*
X129371861Y-77201000D01*
X129120513Y-77151004D01*
X128883747Y-77052932D01*
X128883746Y-77052932D01*
X128883745Y-77052931D01*
X128670661Y-76910553D01*
X128489447Y-76729339D01*
X128347069Y-76516255D01*
X128345015Y-76511296D01*
X128248996Y-76279487D01*
X128199000Y-76028139D01*
X128199000Y-75771861D01*
X128248996Y-75520513D01*
X128347068Y-75283747D01*
X128362010Y-75261385D01*
X128489447Y-75070661D01*
X128670661Y-74889447D01*
X128883745Y-74747069D01*
X128883747Y-74747068D01*
X129120513Y-74648996D01*
X129371861Y-74599000D01*
X129628139Y-74599000D01*
X129879487Y-74648996D01*
X129879487Y-74648996D01*
G37*
G36*
X126526971Y-72071204D02*
G01*
X126688871Y-72103408D01*
X126993883Y-72229748D01*
X127268387Y-72413166D01*
X127501834Y-72646613D01*
X127685252Y-72921117D01*
X127811592Y-73226129D01*
X127876000Y-73549928D01*
X127876000Y-73880072D01*
X127811592Y-74203871D01*
X127685252Y-74508883D01*
X127501834Y-74783387D01*
X127268387Y-75016834D01*
X126993883Y-75200252D01*
X126688871Y-75326592D01*
X126618398Y-75340610D01*
X126365073Y-75391000D01*
X126034927Y-75391000D01*
X125781602Y-75340610D01*
X125711129Y-75326592D01*
X125406117Y-75200252D01*
X125131613Y-75016834D01*
X124898166Y-74783387D01*
X124714748Y-74508883D01*
X124588408Y-74203871D01*
X124524000Y-73880072D01*
X124524000Y-73549928D01*
X124588408Y-73226129D01*
X124714748Y-72921117D01*
X124898166Y-72646613D01*
X125131613Y-72413166D01*
X125406117Y-72229748D01*
X125711129Y-72103408D01*
X125873029Y-72071204D01*
X126034927Y-72039000D01*
X126365073Y-72039000D01*
X126526971Y-72071204D01*
X126526971Y-72071204D01*
G37*
G36*
X123126564Y-73319389D02*
G01*
X123317833Y-73398615D01*
X123317835Y-73398616D01*
X123489973Y-73513635D01*
X123636365Y-73660027D01*
X123751385Y-73832167D01*
X123830611Y-74023436D01*
X123871000Y-74226484D01*
X123871000Y-74433516D01*
X123830611Y-74636564D01*
X123825461Y-74648997D01*
X123751384Y-74827835D01*
X123636365Y-74999973D01*
X123489973Y-75146365D01*
X123317835Y-75261384D01*
X123317834Y-75261385D01*
X123317833Y-75261385D01*
X123126564Y-75340611D01*
X122923516Y-75381000D01*
X122716484Y-75381000D01*
X122513436Y-75340611D01*
X122322167Y-75261385D01*
X122322166Y-75261385D01*
X122322165Y-75261384D01*
X122150027Y-75146365D01*
X122003635Y-74999973D01*
X121888616Y-74827835D01*
X121814539Y-74648997D01*
X121809389Y-74636564D01*
X121769000Y-74433516D01*
X121769000Y-74226484D01*
X121809389Y-74023436D01*
X121888615Y-73832167D01*
X122003635Y-73660027D01*
X122150027Y-73513635D01*
X122322165Y-73398616D01*
X122322167Y-73398615D01*
X122513436Y-73319389D01*
X122716484Y-73279000D01*
X122923516Y-73279000D01*
X123126564Y-73319389D01*
X123126564Y-73319389D01*
G37*
G36*
X135338228Y-71631703D02*
G01*
X135493100Y-71695853D01*
X135632481Y-71788985D01*
X135751015Y-71907519D01*
X135844147Y-72046900D01*
X135908297Y-72201772D01*
X135941000Y-72366184D01*
X135941000Y-72533816D01*
X135908297Y-72698228D01*
X135844147Y-72853100D01*
X135751015Y-72992481D01*
X135632481Y-73111015D01*
X135493100Y-73204147D01*
X135338228Y-73268297D01*
X135173816Y-73301000D01*
X135006184Y-73301000D01*
X134841772Y-73268297D01*
X134686900Y-73204147D01*
X134547519Y-73111015D01*
X134428985Y-72992481D01*
X134335853Y-72853100D01*
X134271703Y-72698228D01*
X134239000Y-72533816D01*
X134239000Y-72366184D01*
X134271703Y-72201772D01*
X134335853Y-72046900D01*
X134428985Y-71907519D01*
X134547519Y-71788985D01*
X134686900Y-71695853D01*
X134841772Y-71631703D01*
X135006184Y-71599000D01*
X135173816Y-71599000D01*
X135338228Y-71631703D01*
X135338228Y-71631703D01*
G37*
G36*
X121606564Y-70889389D02*
G01*
X121797833Y-70968615D01*
X121797835Y-70968616D01*
X121891946Y-71031499D01*
X121969973Y-71083635D01*
X122116365Y-71230027D01*
X122231385Y-71402167D01*
X122310611Y-71593436D01*
X122351000Y-71796484D01*
X122351000Y-72003516D01*
X122310611Y-72206564D01*
X122244494Y-72366184D01*
X122231384Y-72397835D01*
X122116365Y-72569973D01*
X121969973Y-72716365D01*
X121797835Y-72831384D01*
X121797834Y-72831385D01*
X121797833Y-72831385D01*
X121606564Y-72910611D01*
X121403516Y-72951000D01*
X121196484Y-72951000D01*
X120993436Y-72910611D01*
X120802167Y-72831385D01*
X120802166Y-72831385D01*
X120802165Y-72831384D01*
X120630027Y-72716365D01*
X120483635Y-72569973D01*
X120368616Y-72397835D01*
X120355506Y-72366184D01*
X120289389Y-72206564D01*
X120249000Y-72003516D01*
X120249000Y-71796484D01*
X120289389Y-71593436D01*
X120368615Y-71402167D01*
X120483635Y-71230027D01*
X120630027Y-71083635D01*
X120708054Y-71031499D01*
X120802165Y-70968616D01*
X120802167Y-70968615D01*
X120993436Y-70889389D01*
X121196484Y-70849000D01*
X121403516Y-70849000D01*
X121606564Y-70889389D01*
X121606564Y-70889389D01*
G37*
G36*
X132798228Y-70361703D02*
G01*
X132953100Y-70425853D01*
X133092481Y-70518985D01*
X133211015Y-70637519D01*
X133304147Y-70776900D01*
X133368297Y-70931772D01*
X133401000Y-71096184D01*
X133401000Y-71263816D01*
X133368297Y-71428228D01*
X133304147Y-71583100D01*
X133211015Y-71722481D01*
X133092481Y-71841015D01*
X132953100Y-71934147D01*
X132798228Y-71998297D01*
X132633816Y-72031000D01*
X132466184Y-72031000D01*
X132301772Y-71998297D01*
X132146900Y-71934147D01*
X132007519Y-71841015D01*
X131888985Y-71722481D01*
X131795853Y-71583100D01*
X131731703Y-71428228D01*
X131699000Y-71263816D01*
X131699000Y-71096184D01*
X131731703Y-70931772D01*
X131795853Y-70776900D01*
X131888985Y-70637519D01*
X132007519Y-70518985D01*
X132146900Y-70425853D01*
X132301772Y-70361703D01*
X132466184Y-70329000D01*
X132633816Y-70329000D01*
X132798228Y-70361703D01*
X132798228Y-70361703D01*
G37*
G36*
X187806564Y-69839389D02*
G01*
X187997833Y-69918615D01*
X187997835Y-69918616D01*
X188169973Y-70033635D01*
X188316365Y-70180027D01*
X188415906Y-70329000D01*
X188431385Y-70352167D01*
X188510611Y-70543436D01*
X188551000Y-70746484D01*
X188551000Y-70953516D01*
X188510611Y-71156564D01*
X188466186Y-71263815D01*
X188431384Y-71347835D01*
X188316365Y-71519973D01*
X188169973Y-71666365D01*
X187997835Y-71781384D01*
X187997834Y-71781385D01*
X187997833Y-71781385D01*
X187806564Y-71860611D01*
X187603516Y-71901000D01*
X187396484Y-71901000D01*
X187193436Y-71860611D01*
X187002167Y-71781385D01*
X187002166Y-71781385D01*
X187002165Y-71781384D01*
X186830027Y-71666365D01*
X186683635Y-71519973D01*
X186568616Y-71347835D01*
X186533814Y-71263815D01*
X186489389Y-71156564D01*
X186449000Y-70953516D01*
X186449000Y-70746484D01*
X186489389Y-70543436D01*
X186568615Y-70352167D01*
X186584095Y-70329000D01*
X186683635Y-70180027D01*
X186830027Y-70033635D01*
X187002165Y-69918616D01*
X187002167Y-69918615D01*
X187193436Y-69839389D01*
X187396484Y-69799000D01*
X187603516Y-69799000D01*
X187806564Y-69839389D01*
X187806564Y-69839389D01*
G37*
G36*
X170777142Y-69618242D02*
G01*
X170925101Y-69679529D01*
X171058255Y-69768499D01*
X171171501Y-69881745D01*
X171260471Y-70014899D01*
X171321758Y-70162858D01*
X171353000Y-70319925D01*
X171353000Y-70480075D01*
X171321758Y-70637142D01*
X171260471Y-70785101D01*
X171171501Y-70918255D01*
X171058255Y-71031501D01*
X170925101Y-71120471D01*
X170777142Y-71181758D01*
X170620075Y-71213000D01*
X170459925Y-71213000D01*
X170302858Y-71181758D01*
X170154899Y-71120471D01*
X170021745Y-71031501D01*
X169908499Y-70918255D01*
X169819529Y-70785101D01*
X169758242Y-70637142D01*
X169727000Y-70480075D01*
X169727000Y-70319925D01*
X169758242Y-70162858D01*
X169819529Y-70014899D01*
X169908499Y-69881745D01*
X170021745Y-69768499D01*
X170154899Y-69679529D01*
X170302858Y-69618242D01*
X170459925Y-69587000D01*
X170620075Y-69587000D01*
X170777142Y-69618242D01*
X170777142Y-69618242D01*
G37*
G36*
X168237142Y-69618242D02*
G01*
X168385101Y-69679529D01*
X168518255Y-69768499D01*
X168631501Y-69881745D01*
X168720471Y-70014899D01*
X168781758Y-70162858D01*
X168813000Y-70319925D01*
X168813000Y-70480075D01*
X168781758Y-70637142D01*
X168720471Y-70785101D01*
X168631501Y-70918255D01*
X168518255Y-71031501D01*
X168385101Y-71120471D01*
X168237142Y-71181758D01*
X168080075Y-71213000D01*
X167919925Y-71213000D01*
X167762858Y-71181758D01*
X167614899Y-71120471D01*
X167481745Y-71031501D01*
X167368499Y-70918255D01*
X167279529Y-70785101D01*
X167218242Y-70637142D01*
X167187000Y-70480075D01*
X167187000Y-70319925D01*
X167218242Y-70162858D01*
X167279529Y-70014899D01*
X167368499Y-69881745D01*
X167481745Y-69768499D01*
X167614899Y-69679529D01*
X167762858Y-69618242D01*
X167919925Y-69587000D01*
X168080075Y-69587000D01*
X168237142Y-69618242D01*
X168237142Y-69618242D01*
G37*
G36*
X135338228Y-69091703D02*
G01*
X135493100Y-69155853D01*
X135632481Y-69248985D01*
X135751015Y-69367519D01*
X135844147Y-69506900D01*
X135908297Y-69661772D01*
X135941000Y-69826184D01*
X135941000Y-69993816D01*
X135908297Y-70158228D01*
X135844147Y-70313100D01*
X135751015Y-70452481D01*
X135632481Y-70571015D01*
X135493100Y-70664147D01*
X135338228Y-70728297D01*
X135173816Y-70761000D01*
X135006184Y-70761000D01*
X134841772Y-70728297D01*
X134686900Y-70664147D01*
X134547519Y-70571015D01*
X134428985Y-70452481D01*
X134335853Y-70313100D01*
X134271703Y-70158228D01*
X134239000Y-69993816D01*
X134239000Y-69826184D01*
X134271703Y-69661772D01*
X134335853Y-69506900D01*
X134428985Y-69367519D01*
X134547519Y-69248985D01*
X134686900Y-69155853D01*
X134841772Y-69091703D01*
X135006184Y-69059000D01*
X135173816Y-69059000D01*
X135338228Y-69091703D01*
X135338228Y-69091703D01*
G37*
G36*
X132798228Y-67821703D02*
G01*
X132953100Y-67885853D01*
X133092481Y-67978985D01*
X133211015Y-68097519D01*
X133304147Y-68236900D01*
X133368297Y-68391772D01*
X133401000Y-68556184D01*
X133401000Y-68723816D01*
X133368297Y-68888228D01*
X133304147Y-69043100D01*
X133211015Y-69182481D01*
X133092481Y-69301015D01*
X132953100Y-69394147D01*
X132798228Y-69458297D01*
X132633816Y-69491000D01*
X132466184Y-69491000D01*
X132301772Y-69458297D01*
X132146900Y-69394147D01*
X132007519Y-69301015D01*
X131888985Y-69182481D01*
X131795853Y-69043100D01*
X131731703Y-68888228D01*
X131699000Y-68723816D01*
X131699000Y-68556184D01*
X131731703Y-68391772D01*
X131795853Y-68236900D01*
X131888985Y-68097519D01*
X132007519Y-67978985D01*
X132146900Y-67885853D01*
X132301772Y-67821703D01*
X132466184Y-67789000D01*
X132633816Y-67789000D01*
X132798228Y-67821703D01*
X132798228Y-67821703D01*
G37*
G36*
X165817395Y-67585546D02*
G01*
X165990466Y-67657234D01*
X165990467Y-67657235D01*
X166146227Y-67761310D01*
X166278690Y-67893773D01*
X166291190Y-67912481D01*
X166382766Y-68049534D01*
X166454454Y-68222605D01*
X166491000Y-68406333D01*
X166491000Y-68593667D01*
X166454454Y-68777395D01*
X166382766Y-68950466D01*
X166382765Y-68950467D01*
X166278690Y-69106227D01*
X166146227Y-69238690D01*
X166130819Y-69248985D01*
X165990466Y-69342766D01*
X165817395Y-69414454D01*
X165633667Y-69451000D01*
X165446333Y-69451000D01*
X165262605Y-69414454D01*
X165089534Y-69342766D01*
X164949181Y-69248985D01*
X164933773Y-69238690D01*
X164801310Y-69106227D01*
X164697235Y-68950467D01*
X164697234Y-68950466D01*
X164625546Y-68777395D01*
X164589000Y-68593667D01*
X164589000Y-68406333D01*
X164625546Y-68222605D01*
X164697234Y-68049534D01*
X164788810Y-67912481D01*
X164801310Y-67893773D01*
X164933773Y-67761310D01*
X165089533Y-67657235D01*
X165089534Y-67657234D01*
X165262605Y-67585546D01*
X165446333Y-67549000D01*
X165633667Y-67549000D01*
X165817395Y-67585546D01*
X165817395Y-67585546D01*
G37*
G36*
X163951000Y-69451000D02*
G01*
X162049000Y-69451000D01*
X162049000Y-67549000D01*
X163951000Y-67549000D01*
X163951000Y-69451000D01*
X163951000Y-69451000D01*
G37*
G36*
X187806564Y-66839389D02*
G01*
X187997060Y-66918295D01*
X187997835Y-66918616D01*
X188169973Y-67033635D01*
X188316365Y-67180027D01*
X188410207Y-67320471D01*
X188431385Y-67352167D01*
X188510611Y-67543436D01*
X188551000Y-67746484D01*
X188551000Y-67953516D01*
X188510611Y-68156564D01*
X188431385Y-68347833D01*
X188431384Y-68347835D01*
X188316365Y-68519973D01*
X188169973Y-68666365D01*
X187997835Y-68781384D01*
X187997834Y-68781385D01*
X187997833Y-68781385D01*
X187806564Y-68860611D01*
X187603516Y-68901000D01*
X187396484Y-68901000D01*
X187193436Y-68860611D01*
X187002167Y-68781385D01*
X187002166Y-68781385D01*
X187002165Y-68781384D01*
X186830027Y-68666365D01*
X186683635Y-68519973D01*
X186568616Y-68347835D01*
X186568615Y-68347833D01*
X186489389Y-68156564D01*
X186449000Y-67953516D01*
X186449000Y-67746484D01*
X186489389Y-67543436D01*
X186568615Y-67352167D01*
X186589794Y-67320471D01*
X186683635Y-67180027D01*
X186830027Y-67033635D01*
X187002165Y-66918616D01*
X187002940Y-66918295D01*
X187193436Y-66839389D01*
X187396484Y-66799000D01*
X187603516Y-66799000D01*
X187806564Y-66839389D01*
X187806564Y-66839389D01*
G37*
G36*
X135338228Y-66551703D02*
G01*
X135493100Y-66615853D01*
X135632481Y-66708985D01*
X135751015Y-66827519D01*
X135844147Y-66966900D01*
X135908297Y-67121772D01*
X135941000Y-67286184D01*
X135941000Y-67453816D01*
X135908297Y-67618228D01*
X135844147Y-67773100D01*
X135751015Y-67912481D01*
X135632481Y-68031015D01*
X135493100Y-68124147D01*
X135338228Y-68188297D01*
X135173816Y-68221000D01*
X135006184Y-68221000D01*
X134841772Y-68188297D01*
X134686900Y-68124147D01*
X134547519Y-68031015D01*
X134428985Y-67912481D01*
X134335853Y-67773100D01*
X134271703Y-67618228D01*
X134239000Y-67453816D01*
X134239000Y-67286184D01*
X134271703Y-67121772D01*
X134335853Y-66966900D01*
X134428985Y-66827519D01*
X134547519Y-66708985D01*
X134686900Y-66615853D01*
X134841772Y-66551703D01*
X135006184Y-66519000D01*
X135173816Y-66519000D01*
X135338228Y-66551703D01*
X135338228Y-66551703D01*
G37*
G36*
X170777142Y-65818242D02*
G01*
X170925101Y-65879529D01*
X171058255Y-65968499D01*
X171171501Y-66081745D01*
X171260471Y-66214899D01*
X171321758Y-66362858D01*
X171353000Y-66519925D01*
X171353000Y-66680075D01*
X171321758Y-66837142D01*
X171260471Y-66985101D01*
X171171501Y-67118255D01*
X171058255Y-67231501D01*
X170925101Y-67320471D01*
X170777142Y-67381758D01*
X170620075Y-67413000D01*
X170459925Y-67413000D01*
X170302858Y-67381758D01*
X170154899Y-67320471D01*
X170021745Y-67231501D01*
X169908499Y-67118255D01*
X169819529Y-66985101D01*
X169758242Y-66837142D01*
X169727000Y-66680075D01*
X169727000Y-66519925D01*
X169758242Y-66362858D01*
X169819529Y-66214899D01*
X169908499Y-66081745D01*
X170021745Y-65968499D01*
X170154899Y-65879529D01*
X170302858Y-65818242D01*
X170459925Y-65787000D01*
X170620075Y-65787000D01*
X170777142Y-65818242D01*
X170777142Y-65818242D01*
G37*
G36*
X168237142Y-65818242D02*
G01*
X168385101Y-65879529D01*
X168518255Y-65968499D01*
X168631501Y-66081745D01*
X168720471Y-66214899D01*
X168781758Y-66362858D01*
X168813000Y-66519925D01*
X168813000Y-66680075D01*
X168781758Y-66837142D01*
X168720471Y-66985101D01*
X168631501Y-67118255D01*
X168518255Y-67231501D01*
X168385101Y-67320471D01*
X168237142Y-67381758D01*
X168080075Y-67413000D01*
X167919925Y-67413000D01*
X167762858Y-67381758D01*
X167614899Y-67320471D01*
X167481745Y-67231501D01*
X167368499Y-67118255D01*
X167279529Y-66985101D01*
X167218242Y-66837142D01*
X167187000Y-66680075D01*
X167187000Y-66519925D01*
X167218242Y-66362858D01*
X167279529Y-66214899D01*
X167368499Y-66081745D01*
X167481745Y-65968499D01*
X167614899Y-65879529D01*
X167762858Y-65818242D01*
X167919925Y-65787000D01*
X168080075Y-65787000D01*
X168237142Y-65818242D01*
X168237142Y-65818242D01*
G37*
G36*
X192962865Y-60825855D02*
G01*
X193563608Y-61074691D01*
X193563610Y-61074692D01*
X194104265Y-61435946D01*
X194564054Y-61895735D01*
X194752547Y-62177835D01*
X194925309Y-62436392D01*
X195174145Y-63037135D01*
X195301000Y-63674879D01*
X195301000Y-64325121D01*
X195174145Y-64962865D01*
X194955378Y-65491015D01*
X194925308Y-65563610D01*
X194564054Y-66104265D01*
X194104265Y-66564054D01*
X193563610Y-66925308D01*
X193563609Y-66925309D01*
X193563608Y-66925309D01*
X192962865Y-67174145D01*
X192325121Y-67301000D01*
X191674879Y-67301000D01*
X191037135Y-67174145D01*
X190436392Y-66925309D01*
X190436391Y-66925309D01*
X190436390Y-66925308D01*
X189895735Y-66564054D01*
X189435946Y-66104265D01*
X189074692Y-65563610D01*
X189044622Y-65491015D01*
X188825855Y-64962865D01*
X188699000Y-64325121D01*
X188699000Y-63674879D01*
X188825855Y-63037135D01*
X189074691Y-62436392D01*
X189247453Y-62177835D01*
X189435946Y-61895735D01*
X189895735Y-61435946D01*
X190436390Y-61074692D01*
X190436392Y-61074691D01*
X191037135Y-60825855D01*
X191674879Y-60699000D01*
X192325121Y-60699000D01*
X192962865Y-60825855D01*
X192962865Y-60825855D01*
G37*
G36*
X132798228Y-65281703D02*
G01*
X132953100Y-65345853D01*
X133092481Y-65438985D01*
X133211015Y-65557519D01*
X133304147Y-65696900D01*
X133368297Y-65851772D01*
X133401000Y-66016184D01*
X133401000Y-66183816D01*
X133368297Y-66348228D01*
X133304147Y-66503100D01*
X133211015Y-66642481D01*
X133092481Y-66761015D01*
X132953100Y-66854147D01*
X132798228Y-66918297D01*
X132633816Y-66951000D01*
X132466184Y-66951000D01*
X132301772Y-66918297D01*
X132146900Y-66854147D01*
X132007519Y-66761015D01*
X131888985Y-66642481D01*
X131795853Y-66503100D01*
X131731703Y-66348228D01*
X131699000Y-66183816D01*
X131699000Y-66016184D01*
X131731703Y-65851772D01*
X131795853Y-65696900D01*
X131888985Y-65557519D01*
X132007519Y-65438985D01*
X132146900Y-65345853D01*
X132301772Y-65281703D01*
X132466184Y-65249000D01*
X132633816Y-65249000D01*
X132798228Y-65281703D01*
X132798228Y-65281703D01*
G37*
G36*
X135338228Y-64011703D02*
G01*
X135493100Y-64075853D01*
X135632481Y-64168985D01*
X135751015Y-64287519D01*
X135844147Y-64426900D01*
X135908297Y-64581772D01*
X135941000Y-64746184D01*
X135941000Y-64913816D01*
X135908297Y-65078228D01*
X135844147Y-65233100D01*
X135751015Y-65372481D01*
X135632481Y-65491015D01*
X135493100Y-65584147D01*
X135338228Y-65648297D01*
X135173816Y-65681000D01*
X135006184Y-65681000D01*
X134841772Y-65648297D01*
X134686900Y-65584147D01*
X134547519Y-65491015D01*
X134428985Y-65372481D01*
X134335853Y-65233100D01*
X134271703Y-65078228D01*
X134239000Y-64913816D01*
X134239000Y-64746184D01*
X134271703Y-64581772D01*
X134335853Y-64426900D01*
X134428985Y-64287519D01*
X134547519Y-64168985D01*
X134686900Y-64075853D01*
X134841772Y-64011703D01*
X135006184Y-63979000D01*
X135173816Y-63979000D01*
X135338228Y-64011703D01*
X135338228Y-64011703D01*
G37*
G36*
X123126564Y-63209389D02*
G01*
X123317833Y-63288615D01*
X123317835Y-63288616D01*
X123489973Y-63403635D01*
X123636365Y-63550027D01*
X123751385Y-63722167D01*
X123830611Y-63913436D01*
X123871000Y-64116484D01*
X123871000Y-64323516D01*
X123830611Y-64526564D01*
X123807743Y-64581772D01*
X123751384Y-64717835D01*
X123636365Y-64889973D01*
X123489973Y-65036365D01*
X123317835Y-65151384D01*
X123317834Y-65151385D01*
X123317833Y-65151385D01*
X123126564Y-65230611D01*
X122923516Y-65271000D01*
X122716484Y-65271000D01*
X122513436Y-65230611D01*
X122322167Y-65151385D01*
X122322166Y-65151385D01*
X122322165Y-65151384D01*
X122150027Y-65036365D01*
X122003635Y-64889973D01*
X121888616Y-64717835D01*
X121832257Y-64581772D01*
X121809389Y-64526564D01*
X121769000Y-64323516D01*
X121769000Y-64116484D01*
X121809389Y-63913436D01*
X121888615Y-63722167D01*
X122003635Y-63550027D01*
X122150027Y-63403635D01*
X122322165Y-63288616D01*
X122322167Y-63288615D01*
X122513436Y-63209389D01*
X122716484Y-63169000D01*
X122923516Y-63169000D01*
X123126564Y-63209389D01*
X123126564Y-63209389D01*
G37*
G36*
X132798228Y-62741703D02*
G01*
X132953100Y-62805853D01*
X133092481Y-62898985D01*
X133211015Y-63017519D01*
X133304147Y-63156900D01*
X133368297Y-63311772D01*
X133401000Y-63476184D01*
X133401000Y-63643816D01*
X133368297Y-63808228D01*
X133304147Y-63963100D01*
X133211015Y-64102481D01*
X133092481Y-64221015D01*
X132953100Y-64314147D01*
X132798228Y-64378297D01*
X132633816Y-64411000D01*
X132466184Y-64411000D01*
X132301772Y-64378297D01*
X132146900Y-64314147D01*
X132007519Y-64221015D01*
X131888985Y-64102481D01*
X131795853Y-63963100D01*
X131731703Y-63808228D01*
X131699000Y-63643816D01*
X131699000Y-63476184D01*
X131731703Y-63311772D01*
X131795853Y-63156900D01*
X131888985Y-63017519D01*
X132007519Y-62898985D01*
X132146900Y-62805853D01*
X132301772Y-62741703D01*
X132466184Y-62709000D01*
X132633816Y-62709000D01*
X132798228Y-62741703D01*
X132798228Y-62741703D01*
G37*
G36*
X126688871Y-60673408D02*
G01*
X126993883Y-60799748D01*
X127268387Y-60983166D01*
X127501834Y-61216613D01*
X127685252Y-61491117D01*
X127811592Y-61796129D01*
X127876000Y-62119928D01*
X127876000Y-62450072D01*
X127811592Y-62773871D01*
X127685252Y-63078883D01*
X127501834Y-63353387D01*
X127268387Y-63586834D01*
X126993883Y-63770252D01*
X126688871Y-63896592D01*
X126604196Y-63913435D01*
X126365073Y-63961000D01*
X126034927Y-63961000D01*
X125795804Y-63913435D01*
X125711129Y-63896592D01*
X125406117Y-63770252D01*
X125131613Y-63586834D01*
X124898166Y-63353387D01*
X124714748Y-63078883D01*
X124588408Y-62773871D01*
X124524000Y-62450072D01*
X124524000Y-62119928D01*
X124588408Y-61796129D01*
X124714748Y-61491117D01*
X124898166Y-61216613D01*
X125131613Y-60983166D01*
X125406117Y-60799748D01*
X125711129Y-60673408D01*
X126034927Y-60609000D01*
X126365073Y-60609000D01*
X126688871Y-60673408D01*
X126688871Y-60673408D01*
G37*
G36*
X121606564Y-60669389D02*
G01*
X121797833Y-60748615D01*
X121797835Y-60748616D01*
X121874359Y-60799748D01*
X121969973Y-60863635D01*
X122116365Y-61010027D01*
X122231385Y-61182167D01*
X122310611Y-61373436D01*
X122351000Y-61576484D01*
X122351000Y-61783516D01*
X122310611Y-61986564D01*
X122255370Y-62119927D01*
X122231384Y-62177835D01*
X122116365Y-62349973D01*
X121969973Y-62496365D01*
X121797835Y-62611384D01*
X121797834Y-62611385D01*
X121797833Y-62611385D01*
X121606564Y-62690611D01*
X121403516Y-62731000D01*
X121196484Y-62731000D01*
X120993436Y-62690611D01*
X120802167Y-62611385D01*
X120802166Y-62611385D01*
X120802165Y-62611384D01*
X120630027Y-62496365D01*
X120483635Y-62349973D01*
X120368616Y-62177835D01*
X120344630Y-62119927D01*
X120289389Y-61986564D01*
X120249000Y-61783516D01*
X120249000Y-61576484D01*
X120289389Y-61373436D01*
X120368615Y-61182167D01*
X120483635Y-61010027D01*
X120630027Y-60863635D01*
X120725641Y-60799748D01*
X120802165Y-60748616D01*
X120802167Y-60748615D01*
X120993436Y-60669389D01*
X121196484Y-60629000D01*
X121403516Y-60629000D01*
X121606564Y-60669389D01*
X121606564Y-60669389D01*
G37*
G36*
X129879487Y-58848996D02*
G01*
X130116253Y-58947068D01*
X130116255Y-58947069D01*
X130329339Y-59089447D01*
X130510553Y-59270661D01*
X130631994Y-59452410D01*
X130652932Y-59483747D01*
X130751004Y-59720513D01*
X130801000Y-59971861D01*
X130801000Y-60228139D01*
X130751004Y-60479487D01*
X130689073Y-60629000D01*
X130652931Y-60716255D01*
X130510553Y-60929339D01*
X130329339Y-61110553D01*
X130116255Y-61252931D01*
X130116254Y-61252932D01*
X130116253Y-61252932D01*
X129879487Y-61351004D01*
X129628139Y-61401000D01*
X129371861Y-61401000D01*
X129120513Y-61351004D01*
X128883747Y-61252932D01*
X128883746Y-61252932D01*
X128883745Y-61252931D01*
X128670661Y-61110553D01*
X128489447Y-60929339D01*
X128347069Y-60716255D01*
X128310927Y-60629000D01*
X128248996Y-60479487D01*
X128199000Y-60228139D01*
X128199000Y-59971861D01*
X128248996Y-59720513D01*
X128347068Y-59483747D01*
X128368007Y-59452410D01*
X128489447Y-59270661D01*
X128670661Y-59089447D01*
X128883745Y-58947069D01*
X128883747Y-58947068D01*
X129120513Y-58848996D01*
X129371861Y-58799000D01*
X129628139Y-58799000D01*
X129879487Y-58848996D01*
X129879487Y-58848996D01*
G37*
G36*
X178302585Y-57978802D02*
G01*
X178452410Y-58008604D01*
X178734674Y-58125521D01*
X178988705Y-58295259D01*
X179204741Y-58511295D01*
X179374479Y-58765326D01*
X179491396Y-59047590D01*
X179551000Y-59347240D01*
X179551000Y-59652760D01*
X179491396Y-59952410D01*
X179374479Y-60234674D01*
X179204741Y-60488705D01*
X178988705Y-60704741D01*
X178734674Y-60874479D01*
X178452410Y-60991396D01*
X178358745Y-61010027D01*
X178152761Y-61051000D01*
X177847239Y-61051000D01*
X177641255Y-61010027D01*
X177547590Y-60991396D01*
X177265326Y-60874479D01*
X177011295Y-60704741D01*
X176795259Y-60488705D01*
X176625521Y-60234674D01*
X176508604Y-59952410D01*
X176449000Y-59652760D01*
X176449000Y-59347240D01*
X176508604Y-59047590D01*
X176625521Y-58765326D01*
X176795259Y-58511295D01*
X177011295Y-58295259D01*
X177265326Y-58125521D01*
X177547590Y-58008604D01*
X177697415Y-57978802D01*
X177847239Y-57949000D01*
X178152761Y-57949000D01*
X178302585Y-57978802D01*
X178302585Y-57978802D01*
G37*
G36*
X195302585Y-57478802D02*
G01*
X195452410Y-57508604D01*
X195734674Y-57625521D01*
X195988705Y-57795259D01*
X196204741Y-58011295D01*
X196374479Y-58265326D01*
X196491396Y-58547590D01*
X196491396Y-58547591D01*
X196541405Y-58799000D01*
X196551000Y-58847240D01*
X196551000Y-59152760D01*
X196491396Y-59452410D01*
X196374479Y-59734674D01*
X196204741Y-59988705D01*
X195988705Y-60204741D01*
X195734674Y-60374479D01*
X195452410Y-60491396D01*
X195302585Y-60521198D01*
X195152761Y-60551000D01*
X194847239Y-60551000D01*
X194697415Y-60521198D01*
X194547590Y-60491396D01*
X194265326Y-60374479D01*
X194011295Y-60204741D01*
X193795259Y-59988705D01*
X193625521Y-59734674D01*
X193508604Y-59452410D01*
X193449000Y-59152760D01*
X193449000Y-58847240D01*
X193458596Y-58799000D01*
X193508604Y-58547591D01*
X193508604Y-58547590D01*
X193625521Y-58265326D01*
X193795259Y-58011295D01*
X194011295Y-57795259D01*
X194265326Y-57625521D01*
X194547590Y-57508604D01*
X194697415Y-57478802D01*
X194847239Y-57449000D01*
X195152761Y-57449000D01*
X195302585Y-57478802D01*
X195302585Y-57478802D01*
G37*
G36*
X122375256Y-51391298D02*
G01*
X122481579Y-51412447D01*
X122782042Y-51536903D01*
X123052451Y-51717585D01*
X123282415Y-51947549D01*
X123463097Y-52217958D01*
X123587553Y-52518421D01*
X123651000Y-52837391D01*
X123651000Y-53162609D01*
X123587553Y-53481579D01*
X123463097Y-53782042D01*
X123282415Y-54052451D01*
X123052451Y-54282415D01*
X122782042Y-54463097D01*
X122481579Y-54587553D01*
X122375256Y-54608702D01*
X122162611Y-54651000D01*
X121837389Y-54651000D01*
X121624744Y-54608702D01*
X121518421Y-54587553D01*
X121217958Y-54463097D01*
X120947549Y-54282415D01*
X120717585Y-54052451D01*
X120536903Y-53782042D01*
X120412447Y-53481579D01*
X120349000Y-53162609D01*
X120349000Y-52837391D01*
X120412447Y-52518421D01*
X120536903Y-52217958D01*
X120717585Y-51947549D01*
X120947549Y-51717585D01*
X121217958Y-51536903D01*
X121518421Y-51412447D01*
X121624744Y-51391298D01*
X121837389Y-51349000D01*
X122162611Y-51349000D01*
X122375256Y-51391298D01*
X122375256Y-51391298D01*
G37*
G36*
X194375256Y-51391298D02*
G01*
X194481579Y-51412447D01*
X194782042Y-51536903D01*
X195052451Y-51717585D01*
X195282415Y-51947549D01*
X195463097Y-52217958D01*
X195587553Y-52518421D01*
X195651000Y-52837391D01*
X195651000Y-53162609D01*
X195587553Y-53481579D01*
X195463097Y-53782042D01*
X195282415Y-54052451D01*
X195052451Y-54282415D01*
X194782042Y-54463097D01*
X194481579Y-54587553D01*
X194375256Y-54608702D01*
X194162611Y-54651000D01*
X193837389Y-54651000D01*
X193624744Y-54608702D01*
X193518421Y-54587553D01*
X193217958Y-54463097D01*
X192947549Y-54282415D01*
X192717585Y-54052451D01*
X192536903Y-53782042D01*
X192412447Y-53481579D01*
X192349000Y-53162609D01*
X192349000Y-52837391D01*
X192412447Y-52518421D01*
X192536903Y-52217958D01*
X192717585Y-51947549D01*
X192947549Y-51717585D01*
X193217958Y-51536903D01*
X193518421Y-51412447D01*
X193624744Y-51391298D01*
X193837389Y-51349000D01*
X194162611Y-51349000D01*
X194375256Y-51391298D01*
X194375256Y-51391298D01*
G37*
M02*
