G04 #@! TF.GenerationSoftware,KiCad,Pcbnew,(5.1.4)-1*
G04 #@! TF.CreationDate,2020-12-09T14:49:47+03:00*
G04 #@! TF.ProjectId,charge_block,63686172-6765-45f6-926c-6f636b2e6b69,rev?*
G04 #@! TF.SameCoordinates,Original*
G04 #@! TF.FileFunction,Legend,Top*
G04 #@! TF.FilePolarity,Positive*
%FSLAX46Y46*%
G04 Gerber Fmt 4.6, Leading zero omitted, Abs format (unit mm)*
G04 Created by KiCad (PCBNEW (5.1.4)-1) date 2020-12-09 14:49:47*
%MOMM*%
%LPD*%
G04 APERTURE LIST*
%ADD10C,0.150000*%
%ADD11C,0.120000*%
G04 APERTURE END LIST*
D10*
X142771428Y-132400000D02*
X142771428Y-131638095D01*
X143152380Y-132019047D02*
X142390476Y-132019047D01*
X142152380Y-131257142D02*
X142152380Y-130638095D01*
X142533333Y-130971428D01*
X142533333Y-130828571D01*
X142580952Y-130733333D01*
X142628571Y-130685714D01*
X142723809Y-130638095D01*
X142961904Y-130638095D01*
X143057142Y-130685714D01*
X143104761Y-130733333D01*
X143152380Y-130828571D01*
X143152380Y-131114285D01*
X143104761Y-131209523D01*
X143057142Y-131257142D01*
X143057142Y-130209523D02*
X143104761Y-130161904D01*
X143152380Y-130209523D01*
X143104761Y-130257142D01*
X143057142Y-130209523D01*
X143152380Y-130209523D01*
X142152380Y-129828571D02*
X142152380Y-129209523D01*
X142533333Y-129542857D01*
X142533333Y-129400000D01*
X142580952Y-129304761D01*
X142628571Y-129257142D01*
X142723809Y-129209523D01*
X142961904Y-129209523D01*
X143057142Y-129257142D01*
X143104761Y-129304761D01*
X143152380Y-129400000D01*
X143152380Y-129685714D01*
X143104761Y-129780952D01*
X143057142Y-129828571D01*
X142152380Y-128923809D02*
X143152380Y-128590476D01*
X142152380Y-128257142D01*
X140228571Y-132133333D02*
X140276190Y-131990476D01*
X140323809Y-131942857D01*
X140419047Y-131895238D01*
X140561904Y-131895238D01*
X140657142Y-131942857D01*
X140704761Y-131990476D01*
X140752380Y-132085714D01*
X140752380Y-132466666D01*
X139752380Y-132466666D01*
X139752380Y-132133333D01*
X139800000Y-132038095D01*
X139847619Y-131990476D01*
X139942857Y-131942857D01*
X140038095Y-131942857D01*
X140133333Y-131990476D01*
X140180952Y-132038095D01*
X140228571Y-132133333D01*
X140228571Y-132466666D01*
X139752380Y-131276190D02*
X139752380Y-131085714D01*
X139800000Y-130990476D01*
X139895238Y-130895238D01*
X140085714Y-130847619D01*
X140419047Y-130847619D01*
X140609523Y-130895238D01*
X140704761Y-130990476D01*
X140752380Y-131085714D01*
X140752380Y-131276190D01*
X140704761Y-131371428D01*
X140609523Y-131466666D01*
X140419047Y-131514285D01*
X140085714Y-131514285D01*
X139895238Y-131466666D01*
X139800000Y-131371428D01*
X139752380Y-131276190D01*
X139752380Y-130228571D02*
X139752380Y-130038095D01*
X139800000Y-129942857D01*
X139895238Y-129847619D01*
X140085714Y-129800000D01*
X140419047Y-129800000D01*
X140609523Y-129847619D01*
X140704761Y-129942857D01*
X140752380Y-130038095D01*
X140752380Y-130228571D01*
X140704761Y-130323809D01*
X140609523Y-130419047D01*
X140419047Y-130466666D01*
X140085714Y-130466666D01*
X139895238Y-130419047D01*
X139800000Y-130323809D01*
X139752380Y-130228571D01*
X139752380Y-129514285D02*
X139752380Y-128942857D01*
X140752380Y-129228571D02*
X139752380Y-129228571D01*
X139752380Y-128419047D02*
X139752380Y-128323809D01*
X139800000Y-128228571D01*
X139847619Y-128180952D01*
X139942857Y-128133333D01*
X140133333Y-128085714D01*
X140371428Y-128085714D01*
X140561904Y-128133333D01*
X140657142Y-128180952D01*
X140704761Y-128228571D01*
X140752380Y-128323809D01*
X140752380Y-128419047D01*
X140704761Y-128514285D01*
X140657142Y-128561904D01*
X140561904Y-128609523D01*
X140371428Y-128657142D01*
X140133333Y-128657142D01*
X139942857Y-128609523D01*
X139847619Y-128561904D01*
X139800000Y-128514285D01*
X139752380Y-128419047D01*
X164971428Y-132500000D02*
X164971428Y-131738095D01*
X165352380Y-132119047D02*
X164590476Y-132119047D01*
X164352380Y-131357142D02*
X164352380Y-130738095D01*
X164733333Y-131071428D01*
X164733333Y-130928571D01*
X164780952Y-130833333D01*
X164828571Y-130785714D01*
X164923809Y-130738095D01*
X165161904Y-130738095D01*
X165257142Y-130785714D01*
X165304761Y-130833333D01*
X165352380Y-130928571D01*
X165352380Y-131214285D01*
X165304761Y-131309523D01*
X165257142Y-131357142D01*
X165257142Y-130309523D02*
X165304761Y-130261904D01*
X165352380Y-130309523D01*
X165304761Y-130357142D01*
X165257142Y-130309523D01*
X165352380Y-130309523D01*
X164352380Y-129928571D02*
X164352380Y-129309523D01*
X164733333Y-129642857D01*
X164733333Y-129500000D01*
X164780952Y-129404761D01*
X164828571Y-129357142D01*
X164923809Y-129309523D01*
X165161904Y-129309523D01*
X165257142Y-129357142D01*
X165304761Y-129404761D01*
X165352380Y-129500000D01*
X165352380Y-129785714D01*
X165304761Y-129880952D01*
X165257142Y-129928571D01*
X164352380Y-129023809D02*
X165352380Y-128690476D01*
X164352380Y-128357142D01*
X156900000Y-131861904D02*
X156852380Y-131957142D01*
X156852380Y-132100000D01*
X156900000Y-132242857D01*
X156995238Y-132338095D01*
X157090476Y-132385714D01*
X157280952Y-132433333D01*
X157423809Y-132433333D01*
X157614285Y-132385714D01*
X157709523Y-132338095D01*
X157804761Y-132242857D01*
X157852380Y-132100000D01*
X157852380Y-132004761D01*
X157804761Y-131861904D01*
X157757142Y-131814285D01*
X157423809Y-131814285D01*
X157423809Y-132004761D01*
X157852380Y-131385714D02*
X156852380Y-131385714D01*
X157852380Y-130814285D01*
X156852380Y-130814285D01*
X157852380Y-130338095D02*
X156852380Y-130338095D01*
X156852380Y-130100000D01*
X156900000Y-129957142D01*
X156995238Y-129861904D01*
X157090476Y-129814285D01*
X157280952Y-129766666D01*
X157423809Y-129766666D01*
X157614285Y-129814285D01*
X157709523Y-129861904D01*
X157804761Y-129957142D01*
X157852380Y-130100000D01*
X157852380Y-130338095D01*
X160304761Y-132457142D02*
X160352380Y-132314285D01*
X160352380Y-132076190D01*
X160304761Y-131980952D01*
X160257142Y-131933333D01*
X160161904Y-131885714D01*
X160066666Y-131885714D01*
X159971428Y-131933333D01*
X159923809Y-131980952D01*
X159876190Y-132076190D01*
X159828571Y-132266666D01*
X159780952Y-132361904D01*
X159733333Y-132409523D01*
X159638095Y-132457142D01*
X159542857Y-132457142D01*
X159447619Y-132409523D01*
X159400000Y-132361904D01*
X159352380Y-132266666D01*
X159352380Y-132028571D01*
X159400000Y-131885714D01*
X159352380Y-131552380D02*
X160352380Y-131314285D01*
X159638095Y-131123809D01*
X160352380Y-130933333D01*
X159352380Y-130695238D01*
X160257142Y-129742857D02*
X160304761Y-129790476D01*
X160352380Y-129933333D01*
X160352380Y-130028571D01*
X160304761Y-130171428D01*
X160209523Y-130266666D01*
X160114285Y-130314285D01*
X159923809Y-130361904D01*
X159780952Y-130361904D01*
X159590476Y-130314285D01*
X159495238Y-130266666D01*
X159400000Y-130171428D01*
X159352380Y-130028571D01*
X159352380Y-129933333D01*
X159400000Y-129790476D01*
X159447619Y-129742857D01*
X162904761Y-132457142D02*
X162952380Y-132314285D01*
X162952380Y-132076190D01*
X162904761Y-131980952D01*
X162857142Y-131933333D01*
X162761904Y-131885714D01*
X162666666Y-131885714D01*
X162571428Y-131933333D01*
X162523809Y-131980952D01*
X162476190Y-132076190D01*
X162428571Y-132266666D01*
X162380952Y-132361904D01*
X162333333Y-132409523D01*
X162238095Y-132457142D01*
X162142857Y-132457142D01*
X162047619Y-132409523D01*
X162000000Y-132361904D01*
X161952380Y-132266666D01*
X161952380Y-132028571D01*
X162000000Y-131885714D01*
X161952380Y-131552380D02*
X162952380Y-131314285D01*
X162238095Y-131123809D01*
X162952380Y-130933333D01*
X161952380Y-130695238D01*
X162952380Y-130314285D02*
X161952380Y-130314285D01*
X161952380Y-130076190D01*
X162000000Y-129933333D01*
X162095238Y-129838095D01*
X162190476Y-129790476D01*
X162380952Y-129742857D01*
X162523809Y-129742857D01*
X162714285Y-129790476D01*
X162809523Y-129838095D01*
X162904761Y-129933333D01*
X162952380Y-130076190D01*
X162952380Y-130314285D01*
X116700000Y-111875000D02*
X116700000Y-121125000D01*
X124660000Y-112950000D02*
X124660000Y-119950000D01*
X114950000Y-120980000D02*
X114190000Y-120975000D01*
X114140000Y-112025000D02*
X114140000Y-120975000D01*
X114190000Y-112025000D02*
X114950000Y-112020000D01*
X116700000Y-116500000D02*
X117970000Y-116500000D01*
X118100000Y-76000000D02*
X118100000Y-60000000D01*
X136700000Y-60000000D02*
X115400000Y-60000000D01*
X136700000Y-76000000D02*
X136700000Y-60000000D01*
X115400000Y-76000000D02*
X136700000Y-76000000D01*
X115400000Y-76000000D02*
X115400000Y-60000000D01*
D11*
X125542335Y-89421392D02*
G75*
G03X122310000Y-89264484I-1672335J-1078608D01*
G01*
X125542335Y-91578608D02*
G75*
G02X122310000Y-91735516I-1672335J1078608D01*
G01*
X124911130Y-89420163D02*
G75*
G03X122829039Y-89420000I-1041130J-1079837D01*
G01*
X124911130Y-91579837D02*
G75*
G02X122829039Y-91580000I-1041130J1079837D01*
G01*
X122310000Y-89264000D02*
X122310000Y-89420000D01*
X122310000Y-91580000D02*
X122310000Y-91736000D01*
X125542335Y-96421392D02*
G75*
G03X122310000Y-96264484I-1672335J-1078608D01*
G01*
X125542335Y-98578608D02*
G75*
G02X122310000Y-98735516I-1672335J1078608D01*
G01*
X124911130Y-96420163D02*
G75*
G03X122829039Y-96420000I-1041130J-1079837D01*
G01*
X124911130Y-98579837D02*
G75*
G02X122829039Y-98580000I-1041130J1079837D01*
G01*
X122310000Y-96264000D02*
X122310000Y-96420000D01*
X122310000Y-98580000D02*
X122310000Y-98736000D01*
X162710000Y-69580000D02*
X162710000Y-69736000D01*
X162710000Y-67264000D02*
X162710000Y-67420000D01*
X165311130Y-69579837D02*
G75*
G02X163229039Y-69580000I-1041130J1079837D01*
G01*
X165311130Y-67420163D02*
G75*
G03X163229039Y-67420000I-1041130J-1079837D01*
G01*
X165942335Y-69578608D02*
G75*
G02X162710000Y-69735516I-1672335J1078608D01*
G01*
X165942335Y-67421392D02*
G75*
G03X162710000Y-67264484I-1672335J-1078608D01*
G01*
X162710000Y-93580000D02*
X162710000Y-93736000D01*
X162710000Y-91264000D02*
X162710000Y-91420000D01*
X165311130Y-93579837D02*
G75*
G02X163229039Y-93580000I-1041130J1079837D01*
G01*
X165311130Y-91420163D02*
G75*
G03X163229039Y-91420000I-1041130J-1079837D01*
G01*
X165942335Y-93578608D02*
G75*
G02X162710000Y-93735516I-1672335J1078608D01*
G01*
X165942335Y-91421392D02*
G75*
G03X162710000Y-91264484I-1672335J-1078608D01*
G01*
X165942335Y-115421392D02*
G75*
G03X162710000Y-115264484I-1672335J-1078608D01*
G01*
X165942335Y-117578608D02*
G75*
G02X162710000Y-117735516I-1672335J1078608D01*
G01*
X165311130Y-115420163D02*
G75*
G03X163229039Y-115420000I-1041130J-1079837D01*
G01*
X165311130Y-117579837D02*
G75*
G02X163229039Y-117580000I-1041130J1079837D01*
G01*
X162710000Y-115264000D02*
X162710000Y-115420000D01*
X162710000Y-117580000D02*
X162710000Y-117736000D01*
D10*
X175000000Y-56500000D02*
X205000000Y-56500000D01*
X205000000Y-56500000D02*
X205000000Y-80500000D01*
X205000000Y-80500000D02*
X175000000Y-80500000D01*
X175000000Y-80500000D02*
X175000000Y-56500000D01*
X198000000Y-56500000D02*
X198000000Y-80500000D01*
X175000000Y-68500000D02*
X175500000Y-68500000D01*
X175000000Y-92500000D02*
X175500000Y-92500000D01*
X198000000Y-80500000D02*
X198000000Y-104500000D01*
X175000000Y-104500000D02*
X175000000Y-80500000D01*
X205000000Y-104500000D02*
X175000000Y-104500000D01*
X205000000Y-80500000D02*
X205000000Y-104500000D01*
X175000000Y-80500000D02*
X205000000Y-80500000D01*
X175000000Y-104500000D02*
X205000000Y-104500000D01*
X205000000Y-104500000D02*
X205000000Y-128500000D01*
X205000000Y-128500000D02*
X175000000Y-128500000D01*
X175000000Y-128500000D02*
X175000000Y-104500000D01*
X198000000Y-104500000D02*
X198000000Y-128500000D01*
X175000000Y-116500000D02*
X175500000Y-116500000D01*
X175200000Y-66600000D02*
X175200000Y-70400000D01*
X175200000Y-68500000D02*
X175600000Y-68500000D01*
X175200000Y-92500000D02*
X175600000Y-92500000D01*
X175200000Y-90600000D02*
X175200000Y-94400000D01*
X175200000Y-114600000D02*
X175200000Y-118400000D01*
X175200000Y-116500000D02*
X175600000Y-116500000D01*
D11*
X144120000Y-135580000D02*
X144120000Y-132920000D01*
X141520000Y-135580000D02*
X144120000Y-135580000D01*
X141520000Y-132920000D02*
X144120000Y-132920000D01*
X141520000Y-135580000D02*
X141520000Y-132920000D01*
X140250000Y-135580000D02*
X138920000Y-135580000D01*
X138920000Y-135580000D02*
X138920000Y-134250000D01*
X156050000Y-132920000D02*
X156050000Y-135580000D01*
X163730000Y-132920000D02*
X156050000Y-132920000D01*
X163730000Y-135580000D02*
X156050000Y-135580000D01*
X163730000Y-132920000D02*
X163730000Y-135580000D01*
X165000000Y-132920000D02*
X166330000Y-132920000D01*
X166330000Y-132920000D02*
X166330000Y-134250000D01*
D10*
X123131904Y-87992380D02*
X123131904Y-86992380D01*
X123370000Y-86992380D01*
X123512857Y-87040000D01*
X123608095Y-87135238D01*
X123655714Y-87230476D01*
X123703333Y-87420952D01*
X123703333Y-87563809D01*
X123655714Y-87754285D01*
X123608095Y-87849523D01*
X123512857Y-87944761D01*
X123370000Y-87992380D01*
X123131904Y-87992380D01*
X124036666Y-86992380D02*
X124655714Y-86992380D01*
X124322380Y-87373333D01*
X124465238Y-87373333D01*
X124560476Y-87420952D01*
X124608095Y-87468571D01*
X124655714Y-87563809D01*
X124655714Y-87801904D01*
X124608095Y-87897142D01*
X124560476Y-87944761D01*
X124465238Y-87992380D01*
X124179523Y-87992380D01*
X124084285Y-87944761D01*
X124036666Y-87897142D01*
X123131904Y-94992380D02*
X123131904Y-93992380D01*
X123370000Y-93992380D01*
X123512857Y-94040000D01*
X123608095Y-94135238D01*
X123655714Y-94230476D01*
X123703333Y-94420952D01*
X123703333Y-94563809D01*
X123655714Y-94754285D01*
X123608095Y-94849523D01*
X123512857Y-94944761D01*
X123370000Y-94992380D01*
X123131904Y-94992380D01*
X124560476Y-94325714D02*
X124560476Y-94992380D01*
X124322380Y-93944761D02*
X124084285Y-94659047D01*
X124703333Y-94659047D01*
X163531904Y-65992380D02*
X163531904Y-64992380D01*
X163770000Y-64992380D01*
X163912857Y-65040000D01*
X164008095Y-65135238D01*
X164055714Y-65230476D01*
X164103333Y-65420952D01*
X164103333Y-65563809D01*
X164055714Y-65754285D01*
X164008095Y-65849523D01*
X163912857Y-65944761D01*
X163770000Y-65992380D01*
X163531904Y-65992380D01*
X165008095Y-64992380D02*
X164531904Y-64992380D01*
X164484285Y-65468571D01*
X164531904Y-65420952D01*
X164627142Y-65373333D01*
X164865238Y-65373333D01*
X164960476Y-65420952D01*
X165008095Y-65468571D01*
X165055714Y-65563809D01*
X165055714Y-65801904D01*
X165008095Y-65897142D01*
X164960476Y-65944761D01*
X164865238Y-65992380D01*
X164627142Y-65992380D01*
X164531904Y-65944761D01*
X164484285Y-65897142D01*
X163531904Y-89992380D02*
X163531904Y-88992380D01*
X163770000Y-88992380D01*
X163912857Y-89040000D01*
X164008095Y-89135238D01*
X164055714Y-89230476D01*
X164103333Y-89420952D01*
X164103333Y-89563809D01*
X164055714Y-89754285D01*
X164008095Y-89849523D01*
X163912857Y-89944761D01*
X163770000Y-89992380D01*
X163531904Y-89992380D01*
X164960476Y-88992380D02*
X164770000Y-88992380D01*
X164674761Y-89040000D01*
X164627142Y-89087619D01*
X164531904Y-89230476D01*
X164484285Y-89420952D01*
X164484285Y-89801904D01*
X164531904Y-89897142D01*
X164579523Y-89944761D01*
X164674761Y-89992380D01*
X164865238Y-89992380D01*
X164960476Y-89944761D01*
X165008095Y-89897142D01*
X165055714Y-89801904D01*
X165055714Y-89563809D01*
X165008095Y-89468571D01*
X164960476Y-89420952D01*
X164865238Y-89373333D01*
X164674761Y-89373333D01*
X164579523Y-89420952D01*
X164531904Y-89468571D01*
X164484285Y-89563809D01*
X163531904Y-113992380D02*
X163531904Y-112992380D01*
X163770000Y-112992380D01*
X163912857Y-113040000D01*
X164008095Y-113135238D01*
X164055714Y-113230476D01*
X164103333Y-113420952D01*
X164103333Y-113563809D01*
X164055714Y-113754285D01*
X164008095Y-113849523D01*
X163912857Y-113944761D01*
X163770000Y-113992380D01*
X163531904Y-113992380D01*
X164436666Y-112992380D02*
X165103333Y-112992380D01*
X164674761Y-113992380D01*
X185666666Y-57952380D02*
X185666666Y-58666666D01*
X185619047Y-58809523D01*
X185523809Y-58904761D01*
X185380952Y-58952380D01*
X185285714Y-58952380D01*
X186571428Y-58285714D02*
X186571428Y-58952380D01*
X186333333Y-57904761D02*
X186095238Y-58619047D01*
X186714285Y-58619047D01*
X185119047Y-68071428D02*
X185880952Y-68071428D01*
X185500000Y-68452380D02*
X185500000Y-67690476D01*
X185119047Y-70571428D02*
X185880952Y-70571428D01*
X185666666Y-81952380D02*
X185666666Y-82666666D01*
X185619047Y-82809523D01*
X185523809Y-82904761D01*
X185380952Y-82952380D01*
X185285714Y-82952380D01*
X186619047Y-81952380D02*
X186142857Y-81952380D01*
X186095238Y-82428571D01*
X186142857Y-82380952D01*
X186238095Y-82333333D01*
X186476190Y-82333333D01*
X186571428Y-82380952D01*
X186619047Y-82428571D01*
X186666666Y-82523809D01*
X186666666Y-82761904D01*
X186619047Y-82857142D01*
X186571428Y-82904761D01*
X186476190Y-82952380D01*
X186238095Y-82952380D01*
X186142857Y-82904761D01*
X186095238Y-82857142D01*
X185119047Y-94571428D02*
X185880952Y-94571428D01*
X185119047Y-92071428D02*
X185880952Y-92071428D01*
X185500000Y-92452380D02*
X185500000Y-91690476D01*
X185666666Y-105952380D02*
X185666666Y-106666666D01*
X185619047Y-106809523D01*
X185523809Y-106904761D01*
X185380952Y-106952380D01*
X185285714Y-106952380D01*
X186571428Y-105952380D02*
X186380952Y-105952380D01*
X186285714Y-106000000D01*
X186238095Y-106047619D01*
X186142857Y-106190476D01*
X186095238Y-106380952D01*
X186095238Y-106761904D01*
X186142857Y-106857142D01*
X186190476Y-106904761D01*
X186285714Y-106952380D01*
X186476190Y-106952380D01*
X186571428Y-106904761D01*
X186619047Y-106857142D01*
X186666666Y-106761904D01*
X186666666Y-106523809D01*
X186619047Y-106428571D01*
X186571428Y-106380952D01*
X186476190Y-106333333D01*
X186285714Y-106333333D01*
X186190476Y-106380952D01*
X186142857Y-106428571D01*
X186095238Y-106523809D01*
X185119047Y-116071428D02*
X185880952Y-116071428D01*
X185500000Y-116452380D02*
X185500000Y-115690476D01*
X185119047Y-118571428D02*
X185880952Y-118571428D01*
X171729904Y-67952380D02*
X171729904Y-68761904D01*
X171777523Y-68857142D01*
X171825142Y-68904761D01*
X171920380Y-68952380D01*
X172110857Y-68952380D01*
X172206095Y-68904761D01*
X172253714Y-68857142D01*
X172301333Y-68761904D01*
X172301333Y-67952380D01*
X173301333Y-68952380D02*
X172729904Y-68952380D01*
X173015619Y-68952380D02*
X173015619Y-67952380D01*
X172920380Y-68095238D01*
X172825142Y-68190476D01*
X172729904Y-68238095D01*
X174253714Y-68952380D02*
X173682285Y-68952380D01*
X173968000Y-68952380D02*
X173968000Y-67952380D01*
X173872761Y-68095238D01*
X173777523Y-68190476D01*
X173682285Y-68238095D01*
X171361904Y-91952380D02*
X171361904Y-92761904D01*
X171409523Y-92857142D01*
X171457142Y-92904761D01*
X171552380Y-92952380D01*
X171742857Y-92952380D01*
X171838095Y-92904761D01*
X171885714Y-92857142D01*
X171933333Y-92761904D01*
X171933333Y-91952380D01*
X172933333Y-92952380D02*
X172361904Y-92952380D01*
X172647619Y-92952380D02*
X172647619Y-91952380D01*
X172552380Y-92095238D01*
X172457142Y-92190476D01*
X172361904Y-92238095D01*
X173314285Y-92047619D02*
X173361904Y-92000000D01*
X173457142Y-91952380D01*
X173695238Y-91952380D01*
X173790476Y-92000000D01*
X173838095Y-92047619D01*
X173885714Y-92142857D01*
X173885714Y-92238095D01*
X173838095Y-92380952D01*
X173266666Y-92952380D01*
X173885714Y-92952380D01*
X171361904Y-115952380D02*
X171361904Y-116761904D01*
X171409523Y-116857142D01*
X171457142Y-116904761D01*
X171552380Y-116952380D01*
X171742857Y-116952380D01*
X171838095Y-116904761D01*
X171885714Y-116857142D01*
X171933333Y-116761904D01*
X171933333Y-115952380D01*
X172933333Y-116952380D02*
X172361904Y-116952380D01*
X172647619Y-116952380D02*
X172647619Y-115952380D01*
X172552380Y-116095238D01*
X172457142Y-116190476D01*
X172361904Y-116238095D01*
X173266666Y-115952380D02*
X173885714Y-115952380D01*
X173552380Y-116333333D01*
X173695238Y-116333333D01*
X173790476Y-116380952D01*
X173838095Y-116428571D01*
X173885714Y-116523809D01*
X173885714Y-116761904D01*
X173838095Y-116857142D01*
X173790476Y-116904761D01*
X173695238Y-116952380D01*
X173409523Y-116952380D01*
X173314285Y-116904761D01*
X173266666Y-116857142D01*
M02*
