G04 #@! TF.GenerationSoftware,KiCad,Pcbnew,(5.1.4)-1*
G04 #@! TF.CreationDate,2020-12-09T14:49:47+03:00*
G04 #@! TF.ProjectId,charge_block,63686172-6765-45f6-926c-6f636b2e6b69,rev?*
G04 #@! TF.SameCoordinates,Original*
G04 #@! TF.FileFunction,Legend,Bot*
G04 #@! TF.FilePolarity,Positive*
%FSLAX46Y46*%
G04 Gerber Fmt 4.6, Leading zero omitted, Abs format (unit mm)*
G04 Created by KiCad (PCBNEW (5.1.4)-1) date 2020-12-09 14:49:47*
%MOMM*%
%LPD*%
G04 APERTURE LIST*
%ADD10C,0.150000*%
%ADD11C,0.120000*%
G04 APERTURE END LIST*
D10*
X178500000Y-51800000D02*
X181500000Y-51800000D01*
X178500000Y-49800000D02*
X181500000Y-49800000D01*
D11*
X136990000Y-74262779D02*
X136990000Y-73937221D01*
X138010000Y-74262779D02*
X138010000Y-73937221D01*
X138010000Y-60062779D02*
X138010000Y-59737221D01*
X136990000Y-60062779D02*
X136990000Y-59737221D01*
X136702064Y-55740000D02*
X135497936Y-55740000D01*
X136702064Y-57560000D02*
X135497936Y-57560000D01*
X136702064Y-78410000D02*
X135497936Y-78410000D01*
X136702064Y-76590000D02*
X135497936Y-76590000D01*
X140110000Y-69537221D02*
X140110000Y-69862779D01*
X139090000Y-69537221D02*
X139090000Y-69862779D01*
X141290000Y-69862779D02*
X141290000Y-69537221D01*
X142310000Y-69862779D02*
X142310000Y-69537221D01*
X142262779Y-55990000D02*
X141937221Y-55990000D01*
X142262779Y-57010000D02*
X141937221Y-57010000D01*
X144210000Y-69862779D02*
X144210000Y-69537221D01*
X143190000Y-69862779D02*
X143190000Y-69537221D01*
X155190000Y-69862779D02*
X155190000Y-69537221D01*
X156210000Y-69862779D02*
X156210000Y-69537221D01*
X152490000Y-50837221D02*
X152490000Y-51162779D01*
X153510000Y-50837221D02*
X153510000Y-51162779D01*
X158240000Y-60687221D02*
X158240000Y-61012779D01*
X159260000Y-60687221D02*
X159260000Y-61012779D01*
X140512779Y-125010000D02*
X140187221Y-125010000D01*
X140512779Y-123990000D02*
X140187221Y-123990000D01*
X140512779Y-120990000D02*
X140187221Y-120990000D01*
X140512779Y-122010000D02*
X140187221Y-122010000D01*
X169210000Y-107950279D02*
X169210000Y-107624721D01*
X168190000Y-107950279D02*
X168190000Y-107624721D01*
X150990000Y-129537221D02*
X150990000Y-129862779D01*
X152010000Y-129537221D02*
X152010000Y-129862779D01*
X129337221Y-101490000D02*
X129662779Y-101490000D01*
X129337221Y-102510000D02*
X129662779Y-102510000D01*
X147990000Y-129537221D02*
X147990000Y-129862779D01*
X149010000Y-129537221D02*
X149010000Y-129862779D01*
X150340000Y-110937221D02*
X150340000Y-111262779D01*
X151360000Y-110937221D02*
X151360000Y-111262779D01*
X146162779Y-87510000D02*
X145837221Y-87510000D01*
X146162779Y-86490000D02*
X145837221Y-86490000D01*
X129662779Y-95240000D02*
X129337221Y-95240000D01*
X129662779Y-96260000D02*
X129337221Y-96260000D01*
X154537221Y-101490000D02*
X154862779Y-101490000D01*
X154537221Y-102510000D02*
X154862779Y-102510000D01*
X136450279Y-87510000D02*
X136124721Y-87510000D01*
X136450279Y-86490000D02*
X136124721Y-86490000D01*
X149412779Y-87510000D02*
X149087221Y-87510000D01*
X149412779Y-86490000D02*
X149087221Y-86490000D01*
X154524721Y-104310000D02*
X154850279Y-104310000D01*
X154524721Y-103290000D02*
X154850279Y-103290000D01*
X137410000Y-109337221D02*
X137410000Y-109662779D01*
X136390000Y-109337221D02*
X136390000Y-109662779D01*
X132290000Y-101137221D02*
X132290000Y-101462779D01*
X133310000Y-101137221D02*
X133310000Y-101462779D01*
X132290000Y-90575279D02*
X132290000Y-90249721D01*
X133310000Y-90575279D02*
X133310000Y-90249721D01*
X174910000Y-59549721D02*
X174910000Y-59875279D01*
X173890000Y-59549721D02*
X173890000Y-59875279D01*
X165487221Y-63760000D02*
X165812779Y-63760000D01*
X165487221Y-62740000D02*
X165812779Y-62740000D01*
X160190000Y-60687221D02*
X160190000Y-61012779D01*
X161210000Y-60687221D02*
X161210000Y-61012779D01*
X163110000Y-60687221D02*
X163110000Y-61012779D01*
X162090000Y-60687221D02*
X162090000Y-61012779D01*
X161210000Y-53362779D02*
X161210000Y-53037221D01*
X160190000Y-53362779D02*
X160190000Y-53037221D01*
X171990000Y-55575279D02*
X171990000Y-55249721D01*
X173010000Y-55575279D02*
X173010000Y-55249721D01*
X163110000Y-50837221D02*
X163110000Y-51162779D01*
X162090000Y-50837221D02*
X162090000Y-51162779D01*
X170062779Y-50290000D02*
X169737221Y-50290000D01*
X170062779Y-51310000D02*
X169737221Y-51310000D01*
X163110000Y-54162779D02*
X163110000Y-53837221D01*
X162090000Y-54162779D02*
X162090000Y-53837221D01*
X171990000Y-52175279D02*
X171990000Y-51849721D01*
X173010000Y-52175279D02*
X173010000Y-51849721D01*
X153560000Y-56690000D02*
X154010000Y-56690000D01*
X154010000Y-56690000D02*
X154010000Y-57140000D01*
X147240000Y-56690000D02*
X146790000Y-56690000D01*
X146790000Y-56690000D02*
X146790000Y-57140000D01*
X153560000Y-63910000D02*
X154010000Y-63910000D01*
X154010000Y-63910000D02*
X154010000Y-63460000D01*
X147240000Y-63910000D02*
X146790000Y-63910000D01*
X146790000Y-63910000D02*
X146790000Y-63460000D01*
X146790000Y-63460000D02*
X145500000Y-63460000D01*
X163125000Y-103805000D02*
X165075000Y-103805000D01*
X163125000Y-103805000D02*
X161175000Y-103805000D01*
X163125000Y-108925000D02*
X165075000Y-108925000D01*
X163125000Y-108925000D02*
X159675000Y-108925000D01*
X166437221Y-54510000D02*
X166762779Y-54510000D01*
X166437221Y-53490000D02*
X166762779Y-53490000D01*
X166449721Y-50290000D02*
X166775279Y-50290000D01*
X166449721Y-51310000D02*
X166775279Y-51310000D01*
X163690000Y-52437221D02*
X163690000Y-52762779D01*
X164710000Y-52437221D02*
X164710000Y-52762779D01*
X130137221Y-53990000D02*
X130462779Y-53990000D01*
X130137221Y-55010000D02*
X130462779Y-55010000D01*
X120790000Y-68650279D02*
X120790000Y-68324721D01*
X121810000Y-68650279D02*
X121810000Y-68324721D01*
X130137221Y-56910000D02*
X130462779Y-56910000D01*
X130137221Y-55890000D02*
X130462779Y-55890000D01*
X122990000Y-68662779D02*
X122990000Y-68337221D01*
X124010000Y-68662779D02*
X124010000Y-68337221D01*
X136990000Y-70962779D02*
X136990000Y-70637221D01*
X138010000Y-70962779D02*
X138010000Y-70637221D01*
X134990000Y-60075279D02*
X134990000Y-59749721D01*
X136010000Y-60075279D02*
X136010000Y-59749721D01*
X130910000Y-67162779D02*
X130910000Y-66837221D01*
X129890000Y-67162779D02*
X129890000Y-66837221D01*
X133910000Y-60075279D02*
X133910000Y-59749721D01*
X132890000Y-60075279D02*
X132890000Y-59749721D01*
X145537221Y-53590000D02*
X145862779Y-53590000D01*
X145537221Y-54610000D02*
X145862779Y-54610000D01*
X146160000Y-69862779D02*
X146160000Y-69537221D01*
X145140000Y-69862779D02*
X145140000Y-69537221D01*
X158237221Y-66610000D02*
X158562779Y-66610000D01*
X158237221Y-65590000D02*
X158562779Y-65590000D01*
X158575279Y-68440000D02*
X158249721Y-68440000D01*
X158575279Y-69460000D02*
X158249721Y-69460000D01*
X156440000Y-61012779D02*
X156440000Y-60687221D01*
X157460000Y-61012779D02*
X157460000Y-60687221D01*
X124837221Y-92990000D02*
X125162779Y-92990000D01*
X124837221Y-94010000D02*
X125162779Y-94010000D01*
X124837221Y-99990000D02*
X125162779Y-99990000D01*
X124837221Y-101010000D02*
X125162779Y-101010000D01*
X129049721Y-122010000D02*
X129375279Y-122010000D01*
X129049721Y-120990000D02*
X129375279Y-120990000D01*
X129087221Y-112260000D02*
X129412779Y-112260000D01*
X129087221Y-111240000D02*
X129412779Y-111240000D01*
X139490000Y-109337221D02*
X139490000Y-109662779D01*
X140510000Y-109337221D02*
X140510000Y-109662779D01*
X129662779Y-94510000D02*
X129337221Y-94510000D01*
X129662779Y-93490000D02*
X129337221Y-93490000D01*
X171310000Y-55562779D02*
X171310000Y-55237221D01*
X170290000Y-55562779D02*
X170290000Y-55237221D01*
X163110000Y-56849721D02*
X163110000Y-57175279D01*
X162090000Y-56849721D02*
X162090000Y-57175279D01*
X164010000Y-75162779D02*
X164010000Y-74837221D01*
X162990000Y-75162779D02*
X162990000Y-74837221D01*
X162750279Y-100310000D02*
X162424721Y-100310000D01*
X162750279Y-99290000D02*
X162424721Y-99290000D01*
X164010000Y-123162779D02*
X164010000Y-122837221D01*
X162990000Y-123162779D02*
X162990000Y-122837221D01*
X177837221Y-65510000D02*
X178162779Y-65510000D01*
X177837221Y-64490000D02*
X178162779Y-64490000D01*
X178162779Y-68510000D02*
X177837221Y-68510000D01*
X178162779Y-67490000D02*
X177837221Y-67490000D01*
X177837221Y-88490000D02*
X178162779Y-88490000D01*
X177837221Y-89510000D02*
X178162779Y-89510000D01*
X178162779Y-91490000D02*
X177837221Y-91490000D01*
X178162779Y-92510000D02*
X177837221Y-92510000D01*
X177837221Y-113510000D02*
X178162779Y-113510000D01*
X177837221Y-112490000D02*
X178162779Y-112490000D01*
X178162779Y-116510000D02*
X177837221Y-116510000D01*
X178162779Y-115490000D02*
X177837221Y-115490000D01*
X171990000Y-68662779D02*
X171990000Y-68337221D01*
X173010000Y-68662779D02*
X173010000Y-68337221D01*
X171990000Y-92662779D02*
X171990000Y-92337221D01*
X173010000Y-92662779D02*
X173010000Y-92337221D01*
X173010000Y-116662779D02*
X173010000Y-116337221D01*
X171990000Y-116662779D02*
X171990000Y-116337221D01*
X169287221Y-63760000D02*
X169612779Y-63760000D01*
X169287221Y-62740000D02*
X169612779Y-62740000D01*
X169337221Y-88010000D02*
X169662779Y-88010000D01*
X169337221Y-86990000D02*
X169662779Y-86990000D01*
X169337221Y-110990000D02*
X169662779Y-110990000D01*
X169337221Y-112010000D02*
X169662779Y-112010000D01*
X149760000Y-120090000D02*
X149760000Y-121350000D01*
X149760000Y-126910000D02*
X149760000Y-125650000D01*
X146000000Y-120090000D02*
X149760000Y-120090000D01*
X143750000Y-126910000D02*
X149760000Y-126910000D01*
X143852500Y-114100000D02*
X143852500Y-111352500D01*
X143852500Y-111352500D02*
X144135000Y-111352500D01*
X143852500Y-114100000D02*
X143852500Y-116847500D01*
X143852500Y-116847500D02*
X144135000Y-116847500D01*
X149347500Y-114100000D02*
X149347500Y-111352500D01*
X149347500Y-111352500D02*
X149065000Y-111352500D01*
X149347500Y-114100000D02*
X149347500Y-116847500D01*
X149347500Y-116847500D02*
X149065000Y-116847500D01*
X149065000Y-116847500D02*
X149065000Y-118500000D01*
X149410000Y-90640000D02*
X150110000Y-90640000D01*
X150110000Y-90640000D02*
X150110000Y-91340000D01*
X136590000Y-90640000D02*
X135890000Y-90640000D01*
X135890000Y-90640000D02*
X135890000Y-91340000D01*
X149410000Y-104860000D02*
X150110000Y-104860000D01*
X150110000Y-104860000D02*
X150110000Y-104160000D01*
X136590000Y-104860000D02*
X135890000Y-104860000D01*
X135890000Y-104860000D02*
X135890000Y-104160000D01*
X135890000Y-104160000D02*
X134525000Y-104160000D01*
X168910000Y-56315000D02*
X168910000Y-55590000D01*
X168910000Y-55590000D02*
X168185000Y-55590000D01*
X164690000Y-59085000D02*
X164690000Y-59810000D01*
X164690000Y-59810000D02*
X165415000Y-59810000D01*
X164690000Y-56315000D02*
X164690000Y-55590000D01*
X164690000Y-55590000D02*
X165415000Y-55590000D01*
X168910000Y-59085000D02*
X168910000Y-59810000D01*
X166500000Y-76920000D02*
X171500000Y-76920000D01*
X171000000Y-73080000D02*
X168000000Y-73080000D01*
X171000000Y-97080000D02*
X168000000Y-97080000D01*
X166500000Y-100920000D02*
X171500000Y-100920000D01*
X171000000Y-121080000D02*
X168000000Y-121080000D01*
X166500000Y-124920000D02*
X171500000Y-124920000D01*
X181120000Y-67490000D02*
X183550000Y-67490000D01*
X182880000Y-70560000D02*
X181120000Y-70560000D01*
X182880000Y-94560000D02*
X181120000Y-94560000D01*
X181120000Y-91490000D02*
X183550000Y-91490000D01*
X182880000Y-118560000D02*
X181120000Y-118560000D01*
X181120000Y-115490000D02*
X183550000Y-115490000D01*
X148700000Y-71100000D02*
X148700000Y-67800000D01*
X148700000Y-67800000D02*
X152700000Y-67800000D01*
X128000000Y-100850000D02*
X128000000Y-96850000D01*
X131300000Y-100850000D02*
X128000000Y-100850000D01*
X161400000Y-59050000D02*
X158100000Y-59050000D01*
X158100000Y-59050000D02*
X158100000Y-55050000D01*
X146990000Y-69862779D02*
X146990000Y-69537221D01*
X148010000Y-69862779D02*
X148010000Y-69537221D01*
X153390000Y-69549721D02*
X153390000Y-69875279D01*
X154410000Y-69549721D02*
X154410000Y-69875279D01*
X154649721Y-72910000D02*
X154975279Y-72910000D01*
X154649721Y-71890000D02*
X154975279Y-71890000D01*
M02*
